<svg width="156" height="111" viewBox="0 0 156 111" fill="none" xmlns="http://www.w3.org/2000/svg">
<g id="&#208;&#161;&#208;&#179;&#209;&#128;&#209;&#131;&#208;&#191;&#208;&#191;&#208;&#184;&#209;&#128;&#208;&#190;&#208;&#178;&#208;&#176;&#209;&#130;&#209;&#140; 295">
<path id="&#208;&#154;&#208;&#190;&#208;&#189;&#209;&#130;&#209;&#131;&#209;&#128; 13" d="M134.613 65.0049H95.4979V95.0049H134.608L134.613 65.0049ZM146.113 96.928H143.813V63.082H146.113V96.928ZM136.913 97.313H93.1979V62.6979H136.909L136.913 97.313ZM153.013 57.313H86.298V102.697H153.015L153.013 57.313ZM153.2 55.0049C153.739 55.0065 154.257 55.2132 154.649 55.583C155.041 55.9528 155.277 56.4581 155.31 56.996V57.1249V102.882C155.31 103.421 155.104 103.939 154.736 104.332C154.367 104.725 153.863 104.963 153.325 104.997H153.197H146.108V109.997H143.808V104.997H95.4979V109.997H93.1979V104.997H86.1089C85.5701 104.995 85.0522 104.789 84.6604 104.419C84.2686 104.049 84.0324 103.544 83.9999 103.006V102.877V57.1169C83.9998 56.5781 84.2051 56.0595 84.5739 55.6666C84.9426 55.2737 85.4472 55.036 85.985 55.002H86.1129L153.2 55.0049Z" fill="black"/>
<g id="ref">
<path id="&#208;&#154;&#208;&#190;&#208;&#189;&#209;&#130;&#209;&#131;&#209;&#128; 19" d="M44.881 22.252H40.8569V64.892H44.881V22.252ZM37.1429 22.252H33.119V64.892H37.142L37.1429 22.252ZM74.286 3.711H40.8569V19.162H45.1899C45.8951 19.1613 46.5742 19.4283 47.0901 19.9091C47.6059 20.3899 47.9201 21.0486 47.969 21.752L47.976 21.943V64.892H74.286V3.711ZM37.1429 3.711H3.71399V64.893H30.0239V21.943C30.0246 21.2379 30.293 20.5593 30.7747 20.0444C31.2563 19.5295 31.9155 19.2166 32.619 19.169L32.8099 19.162H37.142L37.1429 3.711ZM44.881 68.6H40.8569V84.358H44.881V68.6ZM37.1429 68.6H33.119V84.358H37.142L37.1429 68.6ZM74.286 68.6H47.976V84.667C47.9753 85.3721 47.707 86.0506 47.2253 86.5656C46.7437 87.0805 46.0845 87.3933 45.381 87.441L45.1899 87.448H40.8569V106.295H74.286V68.6ZM30.0239 68.6H3.71399V106.295H37.142V87.449H32.809C32.1039 87.4495 31.4249 87.1823 30.9091 86.7016C30.3933 86.2209 30.079 85.5624 30.0299 84.859L30.0229 84.668L30.0239 68.6ZM74.9879 0C75.7515 0.000275231 76.4866 0.290444 77.0444 0.81189C77.6023 1.33333 77.9412 2.04718 77.9929 2.80902L78 3.00903V106.998C77.9986 107.762 77.7072 108.496 77.1848 109.053C76.6624 109.61 75.9479 109.948 75.1859 109.998L74.986 110.005H3.01196C2.24837 110.005 1.5134 109.715 0.955566 109.193C0.397737 108.672 0.0586585 107.958 0.00695801 107.196L0 106.996V3.01202C0.00139065 2.24841 0.292773 1.51379 0.815186 0.956848C1.3376 0.399905 2.05201 0.0622202 2.81396 0.0120239L3.01392 0.00500488L74.9879 0Z" fill="black"/>
</g>
</g>
</svg>
