<svg width="86" height="110" viewBox="0 0 86 110" fill="none" xmlns="http://www.w3.org/2000/svg">
<path id="&#208;&#154;&#208;&#190;&#208;&#189;&#209;&#130;&#209;&#131;&#209;&#128; 17" d="M68.3963 3.55099H17.6134L17.6084 17.251L17.5983 17.461C17.5556 18.4502 17.4487 19.4356 17.2783 20.411C24.7016 14.8435 33.731 11.8351 43.0102 11.8376C52.2893 11.8401 61.3171 14.8535 68.7373 20.425C68.5924 19.6124 68.4946 18.792 68.4444 17.968L68.4154 17.468L68.4033 17.193L68.3963 15.948V3.55099ZM42.9964 22.182C36.4991 22.1561 30.1402 24.059 24.7253 27.6499C19.3104 31.2407 15.083 36.3579 12.5786 42.3531C10.0742 48.3484 9.40548 54.9521 10.6571 61.3278C11.9088 67.7034 15.0245 73.5642 19.6096 78.1677C24.1948 82.7712 30.0429 85.9103 36.4135 87.1874C42.7841 88.4645 49.3905 87.8222 55.3957 85.3418C61.401 82.8614 66.535 78.6545 70.1474 73.254C73.7599 67.8535 75.6883 61.5023 75.6883 55.005C75.697 50.7032 74.8583 46.4418 73.2201 42.4642C71.5818 38.4865 69.1761 34.8705 66.1403 31.8226C63.1046 28.7747 59.4982 26.3546 55.5272 24.7004C51.5561 23.0463 47.2982 22.1905 42.9964 22.182ZM42.9964 19.225C50.079 19.1967 57.0107 21.2711 62.9135 25.1854C68.8162 29.0997 73.4245 34.6778 76.1545 41.2132C78.8845 47.7486 79.6136 54.9472 78.2492 61.8973C76.8848 68.8473 73.4884 75.2361 68.4903 80.2543C63.4921 85.2725 57.117 88.6945 50.1724 90.0867C43.2279 91.4789 36.0265 90.7787 29.4802 88.0749C22.9339 85.371 17.3374 80.7851 13.3994 74.8981C9.46152 69.0111 7.35939 62.0877 7.35934 55.005C7.34049 45.5346 11.0845 36.4445 17.7677 29.7345C24.4509 23.0244 33.5259 19.2441 42.9964 19.225ZM42.9964 15.381C36.8395 15.3793 30.768 16.8223 25.2702 19.5939C19.7724 22.3654 15.0016 26.3883 11.3413 31.339L10.8294 32.059L10.4473 32.618L10.4333 32.61C5.93543 39.2127 3.52987 47.0168 3.52987 55.006C3.52987 62.9952 5.93543 70.7993 10.4333 77.402L10.4473 77.394L10.8093 77.921C10.9603 78.139 11.1343 78.384 11.3213 78.644C17.4885 86.86 26.6123 92.3518 36.7594 93.956C46.9064 95.5601 57.2793 93.1504 65.6801 87.2374C74.0808 81.3245 79.8493 72.3729 81.763 62.2797C83.6768 52.1865 81.5855 41.7447 75.9323 33.167L75.4494 32.452C71.8307 27.1873 66.9853 22.8821 61.3314 19.908C55.6775 16.9339 49.3848 15.3802 42.9964 15.381ZM68.7353 89.586L68.3903 89.848C60.9732 95.2997 51.9984 98.2196 42.7934 98.176C33.5883 98.1324 24.6416 95.1277 17.2763 89.606C17.4198 90.4138 17.517 91.2291 17.5673 92.048L17.5943 92.548L17.6073 92.83V93.83V106.451H68.3913L68.3963 93.023V92.759L68.4063 92.551C68.4477 91.5553 68.5549 90.5635 68.7273 89.582M68.9763 0C69.725 0.00248882 70.4449 0.28918 70.9903 0.802094C71.5357 1.31501 71.8659 2.01587 71.9143 2.763L71.9213 2.957V17.064L71.9333 17.282C71.94 19.8557 72.6977 22.3716 74.1134 24.521L74.3303 24.852C74.7123 25.421 77.3304 28.931 78.3794 30.477C83.2782 37.6154 85.9269 46.0574 85.9839 54.715C86.0409 63.3725 83.5038 71.8487 78.6994 79.051L78.1223 79.898C76.9543 81.572 74.6874 84.619 74.3324 85.148C72.8609 87.2376 72.0357 89.7134 71.9593 92.268L71.9243 92.868L71.9193 94.068V107.037C71.9198 107.786 71.6359 108.507 71.1251 109.055C70.6142 109.602 69.9145 109.936 69.1673 109.987L68.9743 109.994H17.0254C16.2767 109.992 15.5568 109.705 15.0114 109.192C14.466 108.679 14.1358 107.978 14.0874 107.231L14.0803 107.037V92.93L14.0703 92.714C14.0622 90.1397 13.3036 87.6237 11.8874 85.474L11.6264 85.074L8.46035 80.711C2.95628 73.2504 -0.00915887 64.2208 2.125e-05 54.9496C0.00920137 45.6784 2.99248 36.6547 8.51131 29.205L11.5694 24.989C11.6134 24.93 11.6463 24.879 11.6693 24.844C13.1392 22.7547 13.9642 20.2803 14.0423 17.727L14.0763 17.127L14.0813 15.937V2.957C14.0808 2.20808 14.3647 1.48692 14.8756 0.939301C15.3864 0.391678 16.0862 0.0584673 16.8333 0.00701904L17.0274 0H68.9763Z" fill="black"/>
</svg>
