<svg width="86" height="60" viewBox="0 0 86 60" fill="none" xmlns="http://www.w3.org/2000/svg">
<g id="&#208;&#161;&#208;&#179;&#209;&#128;&#209;&#131;&#208;&#191;&#208;&#191;&#208;&#184;&#209;&#128;&#208;&#190;&#208;&#178;&#208;&#176;&#209;&#130;&#209;&#140; 295">
<path id="&#208;&#154;&#208;&#190;&#208;&#189;&#209;&#130;&#209;&#131;&#209;&#128; 13" d="M73.8417 35.1011H52.6648V51.3004H73.839L73.8417 35.1011ZM80.0679 52.3388H78.8226V34.0627H80.0679V52.3388ZM75.087 52.5467H51.4195V33.8554H75.0848L75.087 52.5467ZM83.8036 30.9476H47.6839V55.4539H83.8046L83.8036 30.9476ZM83.9048 29.7013C84.1965 29.7022 84.477 29.8138 84.6892 30.0135C84.9014 30.2132 85.0294 30.486 85.0471 30.7764V30.8461V55.5538C85.0471 55.8447 84.9359 56.1247 84.7363 56.3368C84.5367 56.549 84.2636 56.6773 83.9725 56.6958H83.9031H80.0652V59.3957H78.82V56.6958H52.6648V59.3957H51.4195V56.6958H47.5815C47.2898 56.695 47.0094 56.5834 46.7973 56.3837C46.5852 56.1839 46.4573 55.9112 46.4397 55.6208V55.5511V30.8418C46.4397 30.5508 46.5508 30.2707 46.7504 30.0586C46.9501 29.8464 47.2233 29.7181 47.5144 29.6997H47.5837L83.9048 29.7013Z" fill="black"/>
<g id="ref">
<path id="&#208;&#154;&#208;&#190;&#208;&#189;&#209;&#130;&#209;&#131;&#209;&#128; 19" d="M25.2608 12.0156H23.0822V35.0402H25.2608V12.0156ZM21.0714 12.0156H18.8929V35.0402H21.0709L21.0714 12.0156ZM41.1808 2.00385H23.0822V10.347H25.4281C25.8099 10.3467 26.1776 10.4909 26.4569 10.7505C26.7361 11.0101 26.9062 11.3657 26.9327 11.7456L26.9365 11.8487V35.0402H41.1808V2.00385ZM21.0714 2.00385H2.97292V35.0407H17.2172V11.8487C17.2176 11.468 17.3629 11.1016 17.6236 10.8235C17.8844 10.5455 18.2413 10.3765 18.6222 10.3508L18.7255 10.347H21.0709L21.0714 2.00385ZM25.2608 37.0424H23.0822V45.5514H25.2608V37.0424ZM21.0714 37.0424H18.8929V45.5514H21.0709L21.0714 37.0424ZM41.1808 37.0424H26.9365V45.7182C26.9361 46.0989 26.7909 46.4653 26.5301 46.7434C26.2693 47.0214 25.9124 47.1904 25.5315 47.2161L25.4281 47.2199H23.0822V57.3968H41.1808V37.0424ZM17.2172 37.0424H2.97292V57.3968H21.0709V47.2204H18.725C18.3433 47.2207 17.9757 47.0764 17.6964 46.8168C17.4171 46.5573 17.247 46.2017 17.2204 45.8219L17.2167 45.7188L17.2172 37.0424ZM41.5608 0C41.9742 0.000148618 42.3722 0.156833 42.6742 0.438401C42.9762 0.71997 43.1597 1.10543 43.1877 1.51681L43.1916 1.62481V57.7764C43.1908 58.1887 43.0331 58.5854 42.7502 58.8862C42.4674 59.1869 42.0805 59.3692 41.668 59.3963L41.5598 59.4001H2.59284C2.17943 59.4 1.78151 59.2433 1.4795 58.9617C1.17749 58.6802 0.993916 58.2947 0.965925 57.8833L0.962158 57.7754V1.62642C0.962911 1.21409 1.12067 0.817412 1.4035 0.516676C1.68634 0.215939 2.07312 0.0335974 2.48565 0.00649264L2.5939 0.00270252L41.5608 0Z" fill="black"/>
</g>
</g>
</svg>
