<svg width="82" height="76" viewBox="0 0 82 76" fill="none" xmlns="http://www.w3.org/2000/svg">
<g id="&#208;&#161;&#208;&#179;&#209;&#128;&#209;&#131;&#208;&#191;&#208;&#191;&#208;&#184;&#209;&#128;&#208;&#190;&#208;&#178;&#208;&#176;&#209;&#130;&#209;&#140; 5">
<path id="&#208;&#154;&#208;&#190;&#208;&#189;&#209;&#130;&#209;&#131;&#209;&#128; 23" d="M80.372 41.787H58.524V32.303C58.5256 31.8706 58.3554 31.4553 58.0509 31.1483C57.7464 30.8413 57.3324 30.6679 56.9 30.666H49.945C50.2194 29.8027 50.365 28.9037 50.377 27.998V18.064C50.3717 16.8372 50.1229 15.6236 49.6452 14.4936C49.1675 13.3636 48.4703 12.3396 47.594 11.481V1.627C47.594 1.41334 47.5519 1.20177 47.4702 1.00438C47.3884 0.806979 47.2686 0.627617 47.1175 0.476536C46.9664 0.325455 46.787 0.205612 46.5896 0.123848C46.3923 0.0420835 46.1807 0 45.967 0C45.7534 0 45.5418 0.0420835 45.3444 0.123848C45.147 0.205612 44.9676 0.325455 44.8166 0.476536C44.6655 0.627617 44.5456 0.806979 44.4639 1.00438C44.3821 1.20177 44.34 1.41334 44.34 1.627V12.137C44.34 12.175 44.359 12.208 44.361 12.243C44.3703 12.3236 44.3867 12.4033 44.41 12.481C44.4315 12.6056 44.467 12.7274 44.516 12.844C44.5562 12.917 44.6024 12.9866 44.654 13.052C44.7204 13.1578 44.7993 13.2552 44.889 13.342C44.908 13.361 44.917 13.389 44.938 13.406C45.6237 13.9728 46.1754 14.6845 46.5534 15.4899C46.9313 16.2952 47.1262 17.1743 47.124 18.064V27.998C47.1261 29.5948 46.4948 31.1273 45.3685 32.2593C44.2422 33.3912 42.7128 34.0302 41.116 34.036H40.88C39.2832 34.0302 37.7539 33.3912 36.6276 32.2593C35.5012 31.1273 34.8699 29.5948 34.872 27.998V18.064C34.8698 17.1743 35.0647 16.2952 35.4427 15.4899C35.8206 14.6845 36.3723 13.9728 37.058 13.406C37.079 13.389 37.088 13.361 37.107 13.342C37.1967 13.2551 37.2755 13.1577 37.342 13.052C37.3937 12.9866 37.4398 12.917 37.48 12.844C37.5474 12.6484 37.5992 12.4478 37.635 12.244C37.635 12.209 37.656 12.178 37.656 12.138V1.627C37.656 1.19549 37.4846 0.781657 37.1795 0.476536C36.8744 0.171414 36.4605 0 36.029 0C35.5975 0 35.1837 0.171414 34.8786 0.476536C34.5734 0.781657 34.402 1.19549 34.402 1.627V11.481C33.5261 12.3388 32.8291 13.3619 32.3515 14.4911C31.874 15.6203 31.6253 16.833 31.62 18.059V27.993C31.6321 28.8987 31.7776 29.7977 32.052 30.661H25.1C24.8857 30.6617 24.6737 30.7045 24.476 30.7872C24.2783 30.8698 24.0988 30.9906 23.9478 31.1426C23.7968 31.2946 23.6773 31.4749 23.596 31.6732C23.5147 31.8714 23.4732 32.0837 23.474 32.298V41.782H1.62502C1.41066 41.7828 1.19857 41.8258 1.00085 41.9086C0.803141 41.9915 0.623695 42.1124 0.472773 42.2647C0.321852 42.4169 0.202415 42.5974 0.121297 42.7958C0.0401777 42.9942 -0.00103318 43.2066 1.96757e-05 43.421V73.671C-0.000777942 74.1033 0.169988 74.5183 0.474837 74.8248C0.779686 75.1314 1.19371 75.3044 1.62602 75.306H80.372C80.8046 75.3047 81.219 75.1318 81.5242 74.8252C81.8294 74.5187 82.0005 74.1036 82 73.671V43.421C82.0005 43.2068 81.9588 42.9946 81.8773 42.7965C81.7957 42.5984 81.6759 42.4183 81.5247 42.2665C81.3735 42.1148 81.1939 41.9943 80.9961 41.912C80.7983 41.8298 80.5862 41.7873 80.372 41.787ZM47.8 35.781V33.937H55.274V41.786H47.8V35.781ZM37.455 43.421V36.629C38.5434 37.0723 39.7068 37.3021 40.882 37.306H41.121C42.2962 37.3021 43.4596 37.0723 44.548 36.629V46.792C44.526 47.7179 44.1428 48.5984 43.4802 49.2455C42.8176 49.8925 41.9282 50.2548 41.002 50.2548C40.0759 50.2548 39.1865 49.8925 38.5239 49.2455C37.8613 48.5984 37.478 47.7179 37.456 46.792L37.455 43.421ZM40.927 53.554H41.072C42.8609 53.5476 44.5741 52.8317 45.8355 51.5633C47.0969 50.2949 47.8035 48.5778 47.8 46.789V45.056H51.495V56.366H30.506V45.056H34.2V46.792C34.1971 48.5802 34.9038 50.2966 36.165 51.5643C37.4261 52.8321 39.1388 53.5476 40.927 53.554ZM26.727 33.937H34.2V41.786H26.727V33.937ZM3.25302 45.056H27.253V56.366H3.25302V45.056ZM78.746 72.036H3.25302V67.51H78.746V72.036ZM78.746 64.236H3.25302V59.636H78.746V64.236ZM78.746 56.358H54.746V45.056H78.746V56.358Z" fill="black"/>
<path id="&#208;&#173;&#208;&#187;&#208;&#187;&#208;&#184;&#208;&#191;&#209;&#129; 6" d="M41.001 30.818C42.6253 30.818 43.942 29.4946 43.942 27.862C43.942 26.2295 42.6253 24.906 41.001 24.906C39.3768 24.906 38.06 26.2295 38.06 27.862C38.06 29.4946 39.3768 30.818 41.001 30.818Z" fill="black"/>
</g>
</svg>
