<svg width="47" height="56" viewBox="0 0 47 56" fill="none" xmlns="http://www.w3.org/2000/svg">
<path id="&#208;&#154;&#208;&#190;&#208;&#189;&#209;&#130;&#209;&#131;&#209;&#128; 15" d="M28.538 10.2586H18.5702V8.38181H28.538V10.2586ZM23.5538 17.1415C20.876 17.1179 18.2515 17.8869 16.0135 19.3508C13.7754 20.8147 12.0247 22.9076 10.9835 25.3638C9.94233 27.8201 9.65761 30.5288 10.1655 33.1464C10.6734 35.764 11.951 38.1724 13.8362 40.0659C15.7213 41.9593 18.129 43.2525 20.7537 43.7813C23.3784 44.3101 26.1018 44.0506 28.5781 43.0359C31.0544 42.0211 33.1721 40.2967 34.6623 38.0817C36.1525 35.8666 36.9481 33.2608 36.9481 30.5948C36.9634 27.0426 35.5609 23.6299 33.0491 21.107C30.5373 18.5842 27.1218 17.1578 23.5538 17.1415ZM23.5538 15.2642C26.6053 15.2373 29.5959 16.1135 32.1463 17.7817C34.6967 19.4499 36.6917 21.8348 37.8782 24.6338C39.0647 27.4327 39.3892 30.5195 38.8104 33.5024C38.2317 36.4852 36.7758 39.2296 34.6276 41.3873C32.4794 43.545 29.7357 45.0187 26.7448 45.6213C23.7538 46.2238 20.6505 45.9282 17.8286 44.7718C15.0067 43.6154 12.5936 41.6505 10.8954 39.1264C9.19725 36.6023 8.2906 33.6328 8.29059 30.5948C8.27289 26.5469 9.87096 22.6578 12.7333 19.7828C15.5956 16.9078 19.4878 15.2825 23.5538 15.2642ZM44.4244 2.74989H2.68219V53.4363H44.4244V2.74989ZM44.5765 0.872559C45.0155 0.874983 45.4371 1.04382 45.7555 1.3447C46.0739 1.64558 46.2652 2.05591 46.2906 2.49224V2.59682V53.5855C46.2917 54.0227 46.1256 54.4439 45.826 54.7636C45.5264 55.0832 45.1159 55.2774 44.6777 55.3065L44.5738 55.3103H2.53224C2.09338 55.3078 1.67198 55.1389 1.35377 54.838C1.03555 54.5371 0.844421 54.1268 0.819237 53.6906L0.815437 53.5861V2.59734C0.814191 2.16013 0.980252 1.73884 1.27985 1.41915C1.57944 1.09947 1.99008 0.905387 2.42828 0.876342L2.53224 0.872559H44.5765Z" fill="black"/>
</svg>
