<svg width="68" height="40" viewBox="0 0 68 40" fill="none" xmlns="http://www.w3.org/2000/svg">
<g id="&#208;&#161;&#208;&#179;&#209;&#128;&#209;&#131;&#208;&#191;&#208;&#191;&#208;&#184;&#209;&#128;&#208;&#190;&#208;&#178;&#208;&#176;&#209;&#130;&#209;&#140; 12">
<path id="&#208;&#154;&#208;&#190;&#208;&#189;&#209;&#130;&#209;&#131;&#209;&#128; 10" d="M62.2188 18.3629C62.5249 18.3566 62.826 18.441 63.0837 18.6055C63.3413 18.7699 63.5439 19.0068 63.6654 19.2861C63.787 19.5654 63.822 19.8743 63.7662 20.1734C63.7103 20.4726 63.566 20.7484 63.3518 20.9658C63.1375 21.1831 62.8629 21.3321 62.563 21.3937C62.2632 21.4554 61.9516 21.4269 61.6681 21.3119C61.3847 21.1969 61.1421 21.0006 60.9713 20.748C60.8006 20.4955 60.7094 20.1981 60.7094 19.8938C60.7054 19.492 60.8621 19.105 61.1451 18.8179C61.4282 18.5308 61.8143 18.3671 62.2188 18.3629ZM64.2019 1.83718H13.6457C13.2498 1.83435 12.8674 1.98027 12.5752 2.24572C12.2829 2.51116 12.1024 2.87651 12.0698 3.2686L12.0665 3.36812V36.4384C12.073 36.8313 12.2289 37.2072 12.5029 37.4906C12.7768 37.774 13.1486 37.9439 13.5434 37.9661L13.6463 37.9698H64.2035C64.5995 37.9728 64.9821 37.8269 65.2744 37.5615C65.5668 37.296 65.7473 36.9306 65.78 36.5384L65.7832 36.4389V3.36866C65.7768 2.97584 65.621 2.6 65.3471 2.31662C65.0733 2.03324 64.7016 1.8633 64.3069 1.84094L64.2019 1.83718ZM64.2019 0.000151731C65.0882 -0.00813429 65.9437 0.323233 66.5906 0.925406C67.2375 1.52758 67.626 2.35424 67.6754 3.23363V3.36812V36.4384C67.6628 37.3184 67.3088 38.1596 66.6873 38.7866C66.0658 39.4137 65.2247 39.7782 64.3394 39.8042H64.1997H13.6457C12.7595 39.8123 11.9042 39.4809 11.2576 38.8787C10.6109 38.2765 10.2226 37.4499 10.1733 36.5707V36.4362V3.36866C10.1858 2.48861 10.5397 1.64733 11.1612 1.02024C11.7827 0.393154 12.6239 0.0286799 13.5093 0.002844H13.6485L64.2019 0.000151731Z" fill="black"/>
<path id="&#208;&#155;&#208;&#184;&#208;&#189;&#208;&#184;&#209;&#143; 1 (Stroke)" fill-rule="evenodd" clip-rule="evenodd" d="M0.672483 16.2312L6.58839 16.2317L6.58827 17.5308L0.672363 17.5303L0.672483 16.2312Z" fill="#1D1D1B"/>
<path id="&#208;&#154;&#208;&#190;&#208;&#189;&#209;&#130;&#209;&#131;&#209;&#128; 11 (Stroke)" fill-rule="evenodd" clip-rule="evenodd" d="M4.22767 34.4736C4.58598 34.4731 4.87793 34.7593 4.88227 35.1153L4.9025 36.7718C4.91914 36.9598 4.8982 37.1494 4.84074 37.3295C4.77941 37.5218 4.67785 37.6991 4.54272 37.8497C4.40759 38.0002 4.24196 38.1207 4.05668 38.2032C3.87138 38.2857 3.67064 38.3284 3.46763 38.3284C3.26462 38.3284 3.06387 38.2857 2.87857 38.2032C2.69326 38.1207 2.52765 38.0002 2.39255 37.8497C2.25742 37.6991 2.15586 37.5218 2.09453 37.3295C2.03795 37.1522 2.01679 36.9657 2.03203 36.7805L2.01347 35.1326C2.01152 34.9592 2.0794 34.7923 2.20201 34.6689C2.32462 34.5456 2.49177 34.476 2.66627 34.4758L4.22767 34.4736ZM3.32826 35.774L3.33983 36.8007C3.34013 36.8279 3.33872 36.8551 3.33559 36.8821C3.33345 36.9006 3.33527 36.9194 3.34093 36.9371C3.34659 36.9549 3.35597 36.9712 3.36843 36.9851C3.38092 36.999 3.3962 37.0101 3.41327 37.0177C3.43035 37.0253 3.44887 37.0293 3.46763 37.0293C3.48639 37.0293 3.50491 37.0253 3.52198 37.0177C3.53909 37.0101 3.55437 36.999 3.56684 36.9851C3.5793 36.9712 3.58868 36.9549 3.59434 36.9371C3.6 36.9194 3.60182 36.9006 3.59968 36.8821C3.59713 36.8601 3.59572 36.838 3.59545 36.8158L3.58273 35.7736L3.32826 35.774Z" fill="#1D1D1B"/>
<path id="&#208;&#154;&#208;&#190;&#208;&#189;&#209;&#130;&#209;&#131;&#209;&#128; 12 (Stroke)" fill-rule="evenodd" clip-rule="evenodd" d="M6.72903 11.5691C6.85315 11.6912 6.92296 11.8575 6.9229 12.031L6.91696 30.3507C6.91694 30.3976 6.91181 30.4444 6.90166 30.4902L6.26321 30.3505C6.90166 30.4902 6.90168 30.4901 6.90166 30.4902L6.89846 30.5045L6.8897 30.5433C6.88205 30.5769 6.87083 30.6258 6.85631 30.6879C6.82729 30.8121 6.78503 30.9892 6.73173 31.2026C6.62534 31.6285 6.47403 32.2029 6.29535 32.7911C6.11791 33.3752 5.90797 33.9913 5.68207 34.493C5.56962 34.7427 5.44469 34.9834 5.30724 35.1832C5.18383 35.3627 4.99004 35.6005 4.70908 35.721C4.62729 35.756 4.53914 35.7741 4.45006 35.7741H2.40843C2.31934 35.7741 2.2312 35.756 2.1494 35.721C1.86644 35.5997 1.67332 35.3597 1.55115 35.1794C1.41513 34.9786 1.29258 34.7371 1.18293 34.4869C0.962656 33.9845 0.760248 33.3676 0.590203 32.7833C0.418945 32.1948 0.275046 31.6201 0.174199 31.1939C0.123677 30.9804 0.0837318 30.8032 0.0563321 30.679C0.042628 30.6168 0.03205 30.5679 0.0248439 30.5342L0.0165909 30.4954L0.013658 30.4815C0.0136404 30.4814 0.0135733 30.4811 0.653744 30.3494L0.013658 30.4815C0.00458314 30.4379 -4.96815e-05 30.3932 4.01763e-07 30.3487L0.0205707 12.0892C0.0209715 11.7335 0.309322 11.4442 0.667355 11.4404L6.2622 11.3813C6.43682 11.3794 6.60492 11.4471 6.72903 11.5691ZM1.30756 30.2819C1.31403 30.3119 1.32272 30.352 1.33351 30.4009C1.3597 30.5196 1.39818 30.6903 1.44698 30.8966C1.54478 31.3098 1.68312 31.8619 1.84624 32.4224C2.01058 32.9872 2.1947 33.5417 2.38164 33.9682C2.4756 34.1825 2.56183 34.3448 2.63584 34.454C2.64093 34.4615 2.64579 34.4685 2.6504 34.475H4.21026C4.21576 34.4675 4.22159 34.4592 4.22776 34.4502C4.30353 34.3401 4.39195 34.1771 4.48859 33.9624C4.68088 33.5354 4.87208 32.9804 5.04364 32.4157C5.21397 31.855 5.35951 31.303 5.46273 30.8897C5.51424 30.6835 5.55497 30.5127 5.58273 30.394C5.59375 30.3469 5.60271 30.308 5.60949 30.2783L5.6152 12.6873L1.32733 12.7326L1.30756 30.2819Z" fill="#1D1D1B"/>
</g>
</svg>
