<svg width="119" height="94" viewBox="0 0 119 94" fill="none" xmlns="http://www.w3.org/2000/svg">
<path id="&#208;&#154;&#208;&#190;&#208;&#189;&#209;&#130;&#209;&#131;&#209;&#128; 18" d="M114.219 3.80896H3.78606V73.466H114.219V3.80896ZM114.446 0C115.359 0.00818187 116.235 0.36447 116.895 0.996277C117.555 1.62808 117.948 2.48777 117.996 3.39996L118.003 3.61896V73.659C118.008 74.572 117.666 75.4527 117.046 76.1229C116.426 76.7932 115.575 77.2028 114.664 77.269L114.446 77.276H102.259L110.18 91.086L106.88 93.003L97.8611 77.277H19.5391L10.5231 93.003L7.22306 91.086L15.1421 77.276H3.55706C2.64374 77.2676 1.768 76.9111 1.10837 76.2794C0.448745 75.6476 0.054875 74.7881 0.00705649 73.876L5.27101e-05 73.657V3.617C-0.00488491 2.70405 0.33724 1.82331 0.95716 1.15308C1.57708 0.482842 2.42849 0.073135 3.33906 0.00695801L3.55706 0H114.446Z" fill="black"/>
</svg>
