<svg width="58" height="111" viewBox="0 0 58 111" fill="none" xmlns="http://www.w3.org/2000/svg">
<g id="&#208;&#161;&#208;&#179;&#209;&#128;&#209;&#131;&#208;&#191;&#208;&#191;&#208;&#184;&#209;&#128;&#208;&#190;&#208;&#178;&#208;&#176;&#209;&#130;&#209;&#140; 13" clip-path="url(#clip0_3_175)">
<g id="&#208;&#161;&#208;&#179;&#209;&#128;&#209;&#131;&#208;&#191;&#208;&#191;&#208;&#184;&#209;&#128;&#208;&#190;&#208;&#178;&#208;&#176;&#209;&#130;&#209;&#140; 13_2">
<path id="&#208;&#154;&#208;&#190;&#208;&#189;&#209;&#130;&#209;&#131;&#209;&#128; 16" d="M57.998 6.89395C57.9408 5.96836 57.7835 5.05168 57.529 4.15994L57.177 3.44696C56.6102 2.39586 55.755 1.52851 54.712 0.94696L54.006 0.590942C53.0702 0.220698 52.0761 0.0195813 51.07 -0.00305176H6.80798C5.89328 0.0563542 4.98786 0.21599 4.10799 0.472961L3.40799 0.828949C2.36485 1.41032 1.5096 2.27771 0.942993 3.32895L0.590988 4.04294C0.22325 4.99102 0.0245854 5.99624 0.0039978 7.01294V104.113C0.0612122 105.039 0.218456 105.955 0.472992 106.847L0.824997 107.561C1.39232 108.612 2.24825 109.48 3.29199 110.061L3.99199 110.417C4.92778 110.787 5.92188 110.988 6.92799 111.011H51.191C52.1057 110.952 53.0111 110.792 53.891 110.535L54.591 110.179C55.6341 109.598 56.4894 108.73 57.056 107.679L57.408 106.966C57.7756 106.017 57.9742 105.011 57.995 103.994V6.89395H57.998ZM55.065 104.583V105.177C55.065 105.295 54.947 105.415 54.947 105.533L54.713 106.127C54.3687 106.712 53.8845 107.202 53.304 107.554L52.717 107.79C52.6 107.79 52.482 107.91 52.365 107.91H51.778L50.252 108.028H8.687L6.34 107.91H5.75299C5.63499 107.91 5.51799 107.79 5.40099 107.79L4.814 107.554C4.23312 107.204 3.74853 106.715 3.40399 106.131C3.18276 105.817 3.06019 105.445 3.05199 105.061V104.705C3.05199 104.349 2.93399 104.111 2.93399 103.636V8.67694L3.05199 6.29996V5.70596C3.05199 5.58796 3.16899 5.46795 3.16899 5.34995L3.40399 4.75595C3.74729 4.17021 4.23165 3.67965 4.81299 3.32895L5.39999 3.09094C5.51699 3.09094 5.63398 2.97296 5.75198 2.97296H6.33899L8.09898 2.85495H8.68599L51.306 2.97296H52.245C52.363 2.97296 52.48 3.09094 52.599 3.09094L53.184 3.32895C53.7654 3.67962 54.2497 4.17018 54.593 4.75595L54.828 5.34995C54.828 5.46795 54.945 5.58796 54.945 5.70596V6.29996L55.063 7.84494V104.584L55.065 104.583Z" fill="black"/>
<path id="&#208;&#173;&#208;&#187;&#208;&#187;&#208;&#184;&#208;&#191;&#209;&#129; 5" d="M28.999 15.9259C30.7497 15.9259 32.169 14.4892 32.169 12.7169C32.169 10.9447 30.7497 9.50793 28.999 9.50793C27.2482 9.50793 25.829 10.9447 25.829 12.7169C25.829 14.4892 27.2482 15.9259 28.999 15.9259Z" fill="black"/>
</g>
</g>
<defs>
<clipPath id="clip0_3_175">
<rect width="57.999" height="111.001" fill="white"/>
</clipPath>
</defs>
</svg>
