<svg width="45" height="41" viewBox="0 0 45 41" fill="none" xmlns="http://www.w3.org/2000/svg">
<g id="&#208;&#161;&#208;&#179;&#209;&#128;&#209;&#131;&#208;&#191;&#208;&#191;&#208;&#184;&#209;&#128;&#208;&#190;&#208;&#178;&#208;&#176;&#209;&#130;&#209;&#140; 5">
<path id="&#208;&#154;&#208;&#190;&#208;&#189;&#209;&#130;&#209;&#131;&#209;&#128; 23" d="M43.5136 22.6193H31.6851V17.4856C31.6859 17.2515 31.5938 17.0267 31.4289 16.8606C31.264 16.6944 31.0399 16.6005 30.8058 16.5995H27.0404C27.1889 16.1322 27.2677 15.6456 27.2743 15.1553V9.77804C27.2714 9.11396 27.1367 8.45706 26.8781 7.84538C26.6194 7.23371 26.242 6.67943 25.7675 6.21466V0.880694C25.7675 0.765039 25.7447 0.650519 25.7005 0.543668C25.6562 0.436817 25.5913 0.339729 25.5095 0.257949C25.4277 0.176169 25.3306 0.111298 25.2238 0.0670389C25.1169 0.0227798 25.0023 0 24.8867 0C24.771 0 24.6564 0.0227798 24.5496 0.0670389C24.4427 0.111298 24.3456 0.176169 24.2638 0.257949C24.182 0.339729 24.1171 0.436817 24.0729 0.543668C24.0286 0.650519 24.0058 0.765039 24.0058 0.880694V6.56975C24.0058 6.59032 24.0161 6.60819 24.0172 6.62713C24.0222 6.67077 24.0311 6.71388 24.0437 6.75596C24.0553 6.82342 24.0746 6.88935 24.1011 6.95245C24.1229 6.99197 24.1479 7.02963 24.1758 7.06504C24.2117 7.12231 24.2544 7.17502 24.303 7.22202C24.3133 7.2323 24.3182 7.24746 24.3296 7.25666C24.7008 7.56348 24.9995 7.9487 25.2041 8.38466C25.4087 8.82061 25.5143 9.29646 25.5131 9.77804V15.1553C25.5142 16.0197 25.1724 16.8492 24.5626 17.4619C23.9528 18.0746 23.1248 18.4205 22.2603 18.4237H22.1326C21.268 18.4205 20.44 18.0746 19.8303 17.4619C19.2205 16.8492 18.8787 16.0197 18.8798 15.1553V9.77804C18.8786 9.29646 18.9841 8.82061 19.1888 8.38466C19.3934 7.9487 19.6921 7.56348 20.0633 7.25666C20.0747 7.24746 20.0796 7.2323 20.0898 7.22202C20.1384 7.17496 20.1811 7.12226 20.2171 7.06504C20.245 7.02963 20.27 6.99197 20.2918 6.95245C20.3282 6.84656 20.3563 6.73797 20.3757 6.62767C20.3757 6.60873 20.3871 6.59195 20.3871 6.5703V0.880694C20.3871 0.647119 20.2943 0.423111 20.1291 0.257949C19.9639 0.0927864 19.7398 0 19.5062 0C19.2726 0 19.0485 0.0927864 18.8833 0.257949C18.7182 0.423111 18.6253 0.647119 18.6253 0.880694V6.21466C18.1511 6.67898 17.7738 7.2328 17.5152 7.84402C17.2567 8.45524 17.122 9.1117 17.1192 9.77533V15.1526C17.1257 15.6429 17.2045 16.1295 17.353 16.5968H13.5892C13.4732 16.5971 13.3584 16.6203 13.2514 16.6651C13.1443 16.7098 13.0472 16.7752 12.9654 16.8575C12.8837 16.9398 12.8189 17.0374 12.7749 17.1447C12.7309 17.252 12.7085 17.3669 12.7089 17.4829V22.6166H0.87979C0.763737 22.617 0.648906 22.6403 0.541865 22.6851C0.434823 22.73 0.33767 22.7954 0.255961 22.8778C0.174251 22.9602 0.109588 23.0579 0.0656703 23.1653C0.0217523 23.2727 -0.000559365 23.3877 1.06525e-05 23.5038V39.8781C-0.00042118 40.1121 0.0920321 40.3367 0.257078 40.5026C0.422124 40.6686 0.646276 40.7622 0.880331 40.7631H43.5136C43.7478 40.7624 43.9722 40.6688 44.1374 40.5029C44.3027 40.3369 44.3953 40.1122 44.395 39.8781V23.5038C44.3953 23.3878 44.3727 23.2729 44.3286 23.1657C44.2844 23.0585 44.2196 22.961 44.1377 22.8789C44.0558 22.7967 43.9586 22.7315 43.8515 22.687C43.7444 22.6424 43.6296 22.6194 43.5136 22.6193ZM25.8791 19.3682V18.3701H29.9255V22.6187H25.8791V19.3682ZM20.2782 23.5038V19.8273C20.8675 20.0672 21.4974 20.1916 22.1336 20.1937H22.263C22.8993 20.1916 23.5292 20.0672 24.1184 19.8273V25.3285C24.1065 25.8297 23.899 26.3063 23.5403 26.6566C23.1815 27.0068 22.7 27.2029 22.1986 27.2029C21.6972 27.2029 21.2157 27.0068 20.8569 26.6566C20.4982 26.3063 20.2907 25.8297 20.2788 25.3285L20.2782 23.5038ZM22.158 28.9888H22.2365C23.205 28.9853 24.1325 28.5978 24.8155 27.9112C25.4984 27.2246 25.8809 26.2952 25.8791 25.3269V24.3888H27.8795V30.5109H16.516V24.3888H18.516V25.3285C18.5144 26.2965 18.897 27.2255 19.5798 27.9117C20.2626 28.598 21.1898 28.9853 22.158 28.9888ZM14.4701 18.3701H18.516V22.6187H14.4701V18.3701ZM1.76119 24.3888H14.7549V30.5109H1.76119V24.3888ZM42.6333 38.9931H1.76119V36.5431H42.6333V38.9931ZM42.6333 34.7709H1.76119V32.2809H42.6333V34.7709ZM42.6333 30.5066H29.6396V24.3888H42.6333V30.5066Z" fill="black"/>
<path id="&#208;&#173;&#208;&#187;&#208;&#187;&#208;&#184;&#208;&#191;&#209;&#129; 6" d="M22.198 16.6825C23.0774 16.6825 23.7902 15.9659 23.7902 15.0821C23.7902 14.1982 23.0774 13.4817 22.198 13.4817C21.3186 13.4817 20.6057 14.1982 20.6057 15.0821C20.6057 15.9659 21.3186 16.6825 22.198 16.6825Z" fill="black"/>
</g>
</svg>
