<svg width="47" height="60" viewBox="0 0 47 60" fill="none" xmlns="http://www.w3.org/2000/svg">
<path id="&#208;&#154;&#208;&#190;&#208;&#189;&#209;&#130;&#209;&#131;&#209;&#128; 17" d="M37.0299 1.91751H9.53592L9.53321 9.31541L9.52779 9.4288C9.50462 9.96297 9.44675 10.4951 9.35454 11.0218C13.3735 8.0154 18.2621 6.39086 23.2858 6.39222C28.3096 6.39358 33.1972 8.02078 37.2146 11.0293C37.1361 10.5905 37.0831 10.1475 37.056 9.70259L37.0403 9.43259L37.0337 9.28408L37.0299 8.61179V1.91751ZM23.2783 11.9781C19.7607 11.9641 16.318 12.9917 13.3863 14.9307C10.4547 16.8697 8.16596 19.633 6.81007 22.8704C5.45419 26.1078 5.09215 29.6737 5.7698 33.1165C6.44744 36.5593 8.13431 39.7241 10.6167 42.2099C13.0991 44.6958 16.2653 46.3909 19.7144 47.0805C23.1634 47.7702 26.7401 47.4233 29.9914 46.0839C33.2426 44.7445 36.0222 42.4728 37.978 39.5566C39.9338 36.6404 40.9778 33.2108 40.9779 29.7023C40.9826 27.3793 40.5285 25.0782 39.6415 22.9303C38.7546 20.7824 37.4521 18.8298 35.8086 17.184C34.165 15.5381 32.2125 14.2313 30.0626 13.338C27.9126 12.4448 25.6073 11.9827 23.2783 11.9781ZM23.2783 10.3814C27.1129 10.3661 30.8657 11.4862 34.0615 13.5999C37.2573 15.7136 39.7522 18.7258 41.2302 22.2548C42.7083 25.7839 43.103 29.6711 42.3643 33.424C41.6256 37.177 39.7868 40.6269 37.0808 43.3367C34.3748 46.0465 30.9233 47.8943 27.1635 48.6461C23.4037 49.3979 19.5048 49.0198 15.9606 47.5597C12.4165 46.0997 9.38649 43.6233 7.25449 40.4444C5.12249 37.2654 3.98439 33.5269 3.98436 29.7023C3.97416 24.5883 6.00115 19.6797 9.61946 16.0564C13.2378 12.433 18.151 10.3917 23.2783 10.3814ZM23.2783 8.30563C19.945 8.30473 16.6579 9.08391 13.6814 10.5805C10.7048 12.0772 8.12191 14.2495 6.14023 16.9228L5.86305 17.3116L5.65622 17.6135L5.64862 17.6092C3.21346 21.1746 1.91108 25.3887 1.91108 29.7028C1.91108 34.0169 3.21346 38.2311 5.64862 41.7965L5.65622 41.7922L5.85221 42.0767C5.93396 42.1945 6.02814 42.3268 6.12939 42.4671C9.46831 46.9037 14.408 49.8693 19.9016 50.7355C25.3953 51.6017 31.0112 50.3005 35.5594 47.1075C40.1076 43.9146 43.2306 39.0808 44.2667 33.6306C45.3028 28.1803 44.1706 22.5418 41.11 17.9099L40.8485 17.5238C38.8893 14.6809 36.266 12.3562 33.205 10.7502C30.1439 9.14419 26.7371 8.30521 23.2783 8.30563ZM37.2135 48.3757L37.0267 48.5172C33.011 51.4611 28.1521 53.0378 23.1684 53.0143C18.1848 52.9907 13.341 51.3682 9.35345 48.3865C9.43112 48.8227 9.48373 49.263 9.51101 49.7052L9.52561 49.9752L9.53265 50.1275V50.6675V57.4827H37.0272L37.0299 50.2317V50.0891L37.0354 49.9768C37.0578 49.4392 37.1158 48.9036 37.2092 48.3736M37.344 0C37.7493 0.00134394 38.139 0.156155 38.4343 0.433124C38.7296 0.710093 38.9084 1.08856 38.9346 1.492L38.9384 1.59676V9.21442L38.9449 9.33215C38.9485 10.7219 39.3587 12.0805 40.1252 13.2411L40.2426 13.4199C40.4495 13.7272 41.8669 15.6225 42.4348 16.4574C45.0871 20.312 46.521 24.8707 46.5519 29.5457C46.5828 34.2206 45.2092 38.7977 42.608 42.6869L42.2956 43.1443C41.6633 44.0482 40.4359 45.6936 40.2437 45.9793C39.4471 47.1076 39.0003 48.4446 38.959 49.824L38.94 50.148L38.9373 50.796V57.7991C38.9376 58.2036 38.7839 58.593 38.5073 58.8887C38.2307 59.1844 37.8519 59.3643 37.4474 59.3921L37.3429 59.3959H9.21757C8.81223 59.3946 8.42251 59.2398 8.12723 58.9628C7.83195 58.6858 7.65314 58.3074 7.62694 57.9039L7.62314 57.7991V50.1815L7.61772 50.0648C7.61332 48.6748 7.2026 47.3161 6.43584 46.1553L6.29454 45.9393L4.58045 43.5833C1.60054 39.5546 -0.00495864 34.6787 1.15048e-05 29.6724C0.00498165 24.666 1.62014 19.7933 4.60805 15.7705L6.26368 13.4939C6.2875 13.462 6.30536 13.4345 6.31781 13.4156C7.1136 12.2874 7.56026 10.9512 7.60255 9.57245L7.62095 9.24845L7.62366 8.60586V1.59676C7.62339 1.19235 7.77709 0.802927 8.05367 0.507215C8.33026 0.211503 8.7091 0.0315719 9.11361 0.00379023L9.21866 0H37.344Z" fill="black"/>
</svg>
