<svg width="71" height="29" viewBox="0 0 71 29" fill="none" xmlns="http://www.w3.org/2000/svg">
<g id="&#208;&#161;&#208;&#179;&#209;&#128;&#209;&#131;&#208;&#191;&#208;&#191;&#208;&#184;&#209;&#128;&#208;&#190;&#208;&#178;&#208;&#176;&#209;&#130;&#209;&#140; 3">
<g id="&#208;&#161;&#208;&#179;&#209;&#128;&#209;&#131;&#208;&#191;&#208;&#191;&#208;&#184;&#209;&#128;&#208;&#190;&#208;&#178;&#208;&#176;&#209;&#130;&#209;&#140; 1">
<path id="&#208;&#154;&#208;&#190;&#208;&#189;&#209;&#130;&#209;&#131;&#209;&#128; 2" d="M64.6068 7.54443C65.8488 7.62104 67.0524 8.0094 68.1093 8.67451C69.0623 9.29192 69.8098 10.1855 70.2545 11.2391C70.6914 12.3099 70.8693 13.471 70.7734 14.6255L70.7551 14.9011L70.7401 15.0356C70.6628 16.2847 70.2757 17.4938 69.6145 18.5511C68.9945 19.5114 68.1043 20.2614 67.059 20.704C65.9899 21.1426 64.8341 21.3211 63.6845 21.2252L63.4107 21.2061L62.3217 21.1125L62.4508 19.6224L63.5398 19.7166C64.5337 19.8339 65.5409 19.7015 66.4723 19.331C67.2468 19.0041 67.9065 18.4491 68.3658 17.738C68.8496 16.9554 69.1458 16.0688 69.2306 15.1495L69.2564 14.9049L69.2714 14.7704C69.388 13.773 69.256 12.7619 68.8874 11.8295C68.5587 11.049 68.0057 10.3868 67.3005 9.92876C66.5175 9.4421 65.6341 9.1452 64.7191 9.06119L64.4761 9.03559L61.0037 8.72952L61.1333 7.23999L64.6068 7.54443Z" fill="black"/>
<path id="&#208;&#154;&#208;&#190;&#208;&#189;&#209;&#130;&#209;&#131;&#209;&#128; 2 (Stroke)" fill-rule="evenodd" clip-rule="evenodd" d="M60.9499 7.01892L64.6215 7.34072C65.8959 7.41977 67.131 7.81849 68.2156 8.50103L68.2178 8.50244C69.205 9.14194 69.9792 10.0676 70.4398 11.1588L70.4407 11.1611C70.8897 12.2615 71.0726 13.4545 70.9744 14.6409L70.9559 14.9195L70.9409 15.0536C70.8608 16.3351 70.4632 17.5755 69.7847 18.6604L69.7832 18.6629C69.1411 19.6574 68.2192 20.434 67.1367 20.8924L67.1346 20.8933C66.0367 21.3437 64.8497 21.5271 63.6691 21.4288L63.3935 21.4096L62.103 21.2986L62.2674 19.4015L63.563 19.5136C64.5234 19.627 65.4965 19.4993 66.3965 19.1417C67.1323 18.8307 67.759 18.3034 68.1958 17.6279C68.6623 16.8727 68.9479 16.0174 69.0296 15.1305L69.0299 15.1277L69.0558 14.8819L69.0709 14.7474L69.071 14.7464C69.1835 13.7836 69.0563 12.8077 68.7009 11.9075C68.3882 11.1663 67.8629 10.5372 67.1931 10.1017C66.437 9.63217 65.5841 9.34567 64.7008 9.26457L64.6981 9.26432L64.4568 9.23889L60.7849 8.91523L60.9499 7.01892ZM61.3163 7.46103L61.2221 8.54377L64.4968 8.83241L64.7386 8.8579C65.6839 8.94491 66.5967 9.25181 67.4058 9.75468L67.4092 9.75679C68.1485 10.2369 68.7282 10.9312 69.0728 11.7493L69.0746 11.7535C69.4556 12.7175 69.592 13.7628 69.4716 14.7939C69.4716 14.7941 69.4716 14.7937 69.4716 14.7939L69.4567 14.9266L69.4566 14.9279L69.4311 15.1698C69.3432 16.1204 69.0369 17.0371 68.5366 17.8464L68.5345 17.8498C68.053 18.5952 67.3615 19.1769 66.5497 19.5195L66.5459 19.5211C65.5846 19.9035 64.5452 20.0403 63.5194 19.9198L62.634 19.8432L62.5402 20.9263L63.4261 21.0025L63.7009 21.0216C64.8187 21.1149 65.9425 20.9414 66.9821 20.5151C67.9893 20.0884 68.8471 19.3658 69.4448 18.4406C70.0873 17.4126 70.4636 16.2371 70.5387 15.0228L70.539 15.0177L70.5541 14.8827L70.5723 14.6084C70.6654 13.4867 70.4927 12.3587 70.0684 11.3182C69.6398 10.3033 68.9197 9.44233 68.0016 8.84726C66.9734 8.20046 65.8025 7.82279 64.5944 7.74827L64.5892 7.74795L61.3163 7.46103Z" fill="black"/>
<path id="&#208;&#154;&#208;&#190;&#208;&#189;&#209;&#130;&#209;&#131;&#209;&#128; 3" d="M42.5852 1.82214C47.2068 -1.42541 56.6749 0.173043 61.4439 7.00634C66.2129 13.8396 65.1293 22.0672 59.4794 26.0369C53.8295 30.0066 45.7527 28.2093 40.9896 21.3809C36.2265 14.5525 37.9582 5.07404 42.5852 1.82214ZM43.4376 3.04426C39.1665 6.04564 38.1674 14.7383 42.206 20.5264C46.4545 26.612 53.6004 28.3482 58.627 24.8164C63.6536 21.2845 64.4753 13.9535 60.2264 7.86302C56.1887 2.07484 47.7091 0.0428791 43.4376 3.04426Z" fill="black"/>
<path id="&#208;&#154;&#208;&#190;&#208;&#189;&#209;&#130;&#209;&#131;&#209;&#128; 3 (Stroke)" fill-rule="evenodd" clip-rule="evenodd" d="M51.9131 0.832604C48.4079 -0.00669528 44.9496 0.409403 42.7004 1.98986C40.4489 3.57221 38.8782 6.692 38.4667 10.2838C38.0557 13.87 38.8052 17.895 41.1545 21.263C45.8674 28.0195 53.8241 29.7619 59.3647 25.869C64.9037 21.9772 65.9978 13.8849 61.2794 7.12415C58.927 3.75349 55.4128 1.67058 51.9131 0.832604ZM52.0059 0.435101C55.5879 1.29279 59.1922 3.42575 61.6088 6.88839C66.4285 13.7943 65.3553 22.157 59.5946 26.2046C53.8354 30.2511 45.6384 28.3991 40.8251 21.4987C38.4114 18.0384 37.6451 13.9099 38.066 10.2367C38.4863 6.56925 40.0949 3.32384 42.4704 1.65428L42.4704 1.65427C44.8429 -0.0128112 48.4294 -0.421262 52.0059 0.435101ZM51.9721 1.9602C55.1692 2.82701 58.3414 4.80648 60.3913 7.74511C64.688 13.904 63.8832 21.3719 58.7422 24.9841C53.6029 28.5952 46.3374 26.7977 42.0416 20.6443L42.0416 20.6442C39.9911 17.7055 39.2226 14.0357 39.505 10.7227C39.7869 7.41501 41.1209 4.42374 43.3228 2.8764L43.3228 2.87639C45.5245 1.32937 48.7802 1.09482 51.9721 1.9602ZM43.5528 3.21198C41.4836 4.66601 40.1826 7.52174 39.9068 10.7578C39.6315 13.9885 40.3828 17.5591 42.371 20.4085L42.2063 20.5264L42.371 20.4085C46.572 26.4262 53.5985 28.1011 58.5123 24.6485C63.4245 21.1971 64.2631 14.0028 60.0619 7.9808L60.2266 7.86295L60.0619 7.98079C58.0741 5.13124 54.9877 3.20064 51.8678 2.35477C48.7426 1.50747 45.6226 1.75763 43.5528 3.21198Z" fill="black"/>
<path id="&#208;&#154;&#208;&#190;&#208;&#189;&#209;&#130;&#209;&#131;&#209;&#128; 4" d="M44.9299 5.72496C45.6287 5.18135 46.4143 4.76285 47.2525 4.48759C47.4019 4.43953 47.564 4.45348 47.7033 4.52639C47.8425 4.5993 47.9475 4.7252 47.9952 4.87645C48.0187 4.95109 48.0274 5.02974 48.0206 5.10781C48.0138 5.18588 47.9918 5.2618 47.9558 5.33115C47.9197 5.4005 47.8704 5.46188 47.8107 5.51173C47.751 5.56158 47.6821 5.59889 47.608 5.62148C46.8985 5.85665 46.2339 6.21287 45.6429 6.67477C45.0222 7.13806 44.4451 7.65838 43.9188 8.22911C43.8123 8.34635 43.6647 8.41667 43.5076 8.42502C43.3504 8.43337 43.1964 8.37907 43.0783 8.27377C43.0202 8.22147 42.9729 8.15804 42.9392 8.08714C42.9055 8.01624 42.8859 7.93927 42.8817 7.86068C42.8775 7.78209 42.8887 7.70343 42.9147 7.62926C42.9407 7.55508 42.981 7.48686 43.0331 7.42852C43.6115 6.80196 44.2465 6.23162 44.9299 5.72496Z" fill="black"/>
<path id="&#208;&#154;&#208;&#190;&#208;&#189;&#209;&#130;&#209;&#131;&#209;&#128; 4 (Stroke)" fill-rule="evenodd" clip-rule="evenodd" d="M47.6109 4.70769C47.5193 4.65972 47.4126 4.65048 47.3143 4.68196C46.4982 4.95003 45.7334 5.35753 45.0529 5.88681L45.0493 5.88968L45.0492 5.88963C44.3765 6.38842 43.7513 6.94984 43.1819 7.56658C43.1481 7.60468 43.1219 7.64914 43.105 7.69743C43.0879 7.74618 43.0806 7.79788 43.0833 7.84953C43.0861 7.90118 43.0989 7.95176 43.1211 7.99836C43.1432 8.04482 43.1742 8.0864 43.2122 8.12071C43.2906 8.19051 43.3929 8.2265 43.4972 8.22095C43.6017 8.2154 43.6998 8.16865 43.7707 8.0907L43.7717 8.0896L43.7717 8.0896C44.3059 7.51024 44.8917 6.98199 45.5217 6.51159C46.1305 6.03615 46.8149 5.66944 47.5455 5.42727L47.5501 5.42575L47.5501 5.42581C47.5985 5.41103 47.6436 5.38663 47.6827 5.35403C47.7217 5.32142 47.754 5.28127 47.7775 5.23591C47.8011 5.19056 47.8155 5.1409 47.82 5.08984C47.8244 5.03878 47.8187 4.98734 47.8033 4.93851L47.8033 4.93841C47.7719 4.83873 47.7027 4.75575 47.6109 4.70769ZM47.1917 4.29283C47.392 4.22838 47.6094 4.24709 47.7961 4.34486C47.9828 4.44261 48.1236 4.61139 48.1875 4.81415M44.8091 5.56144C45.5257 5.00433 46.3311 4.57541 47.1905 4.2932L47.1917 4.29283" fill="black"/>
<path id="&#208;&#154;&#208;&#190;&#208;&#189;&#209;&#130;&#209;&#131;&#209;&#128; 5" d="M51.5872 23.0166C51.5955 22.9382 51.6192 22.8622 51.6568 22.7931C51.6944 22.724 51.7453 22.6632 51.8063 22.6143C51.8674 22.5653 51.9375 22.5291 52.0125 22.5079C52.0875 22.4866 52.166 22.4807 52.2433 22.4905C53.6577 22.6159 55.0675 22.2039 56.1986 21.3348C56.7624 20.9507 57.2652 20.4821 57.6899 19.945C57.7373 19.8825 57.7964 19.8302 57.8638 19.7909C57.9312 19.7517 58.0056 19.7263 58.0827 19.7161C58.1598 19.706 58.2382 19.7114 58.3132 19.732C58.3883 19.7526 58.4586 19.7879 58.5202 19.836C58.582 19.883 58.6339 19.9421 58.6729 20.0097C58.7118 20.0773 58.7371 20.1521 58.7471 20.2297C58.7571 20.3074 58.7517 20.3862 58.7312 20.4617C58.7107 20.5372 58.6755 20.6078 58.6277 20.6693C58.1285 21.3021 57.5376 21.8548 56.8751 22.3086C55.5063 23.3435 53.8077 23.8285 52.1067 23.6701C52.0297 23.663 51.9549 23.6403 51.8868 23.6033C51.8187 23.5663 51.7587 23.5158 51.7102 23.4548C51.6617 23.3939 51.6259 23.3237 51.6047 23.2484C51.5836 23.1731 51.5776 23.0943 51.5872 23.0166Z" fill="black"/>
<path id="&#208;&#154;&#208;&#190;&#208;&#189;&#209;&#130;&#209;&#131;&#209;&#128; 5 (Stroke)" fill-rule="evenodd" clip-rule="evenodd" d="M58.2603 19.9291C58.2108 19.9156 58.1592 19.912 58.1084 19.9187C58.0576 19.9254 58.0085 19.9421 57.9641 19.968C57.9197 19.9939 57.8807 20.0284 57.8495 20.0695L57.8471 20.0726L57.847 20.0726C57.4108 20.6244 56.8945 21.106 56.3157 21.501C55.1455 22.3984 53.6878 22.8236 52.2254 22.694L52.218 22.6933L52.218 22.6932C52.1673 22.6867 52.1158 22.6906 52.0666 22.7046C52.0174 22.7185 51.9714 22.7422 51.9313 22.7744C51.8912 22.8065 51.8578 22.8464 51.8331 22.8918C51.8084 22.9371 51.7929 22.987 51.7875 23.0384L51.7871 23.0418L51.7871 23.0418C51.7809 23.0923 51.7847 23.1436 51.7985 23.1925C51.8122 23.2415 51.8355 23.2871 51.867 23.3268C51.8985 23.3664 51.9376 23.3992 51.9819 23.4233C52.0262 23.4473 52.0748 23.4621 52.1248 23.4668L52.1249 23.4668C53.7763 23.6205 55.4254 23.1496 56.7542 22.1449L56.758 22.1421L56.7619 22.1394C57.4073 21.6973 57.983 21.1589 58.4694 20.5425C58.5004 20.5025 58.5232 20.4566 58.5365 20.4076C58.5499 20.3583 58.5534 20.3069 58.5469 20.2562C58.5403 20.2056 58.5239 20.1568 58.4985 20.1127C58.473 20.0685 58.4392 20.03 58.3988 19.9993L58.3967 19.9977L58.3967 19.9977C58.3561 19.966 58.3098 19.9427 58.2603 19.9291ZM58.0566 19.5136C58.16 19.5 58.265 19.5073 58.3657 19.5348C58.4659 19.5623 58.5598 19.6094 58.6421 19.6735C58.7249 19.7368 58.7945 19.816 58.8468 19.9068C58.8993 19.9979 58.9333 20.0987 58.9468 20.2033C58.9603 20.3079 58.953 20.4142 58.9254 20.5159C58.8978 20.6176 58.8504 20.7127 58.786 20.7956L58.7851 20.7968C58.2741 21.4445 57.6695 22.0103 56.9918 22.4751C55.5837 23.5382 53.837 24.0363 52.088 23.8735C51.9841 23.8639 51.8832 23.8332 51.7913 23.7833C51.6994 23.7333 51.6183 23.6652 51.5529 23.5829C51.4874 23.5006 51.439 23.4058 51.4105 23.3042C51.3821 23.2031 51.374 23.0974 51.3866 22.9931C51.398 22.8883 51.4297 22.7868 51.48 22.6945C51.5305 22.6017 51.5988 22.52 51.6809 22.4542C51.763 22.3883 51.8571 22.3398 51.9579 22.3112C52.0575 22.283 52.1615 22.2749 52.264 22.2874C53.6274 22.4073 54.9862 22.0099 56.0765 21.1721L56.081 21.1686L56.0858 21.1654C56.6321 20.7932 57.1194 20.3391 57.5311 19.8187C57.5944 19.7358 57.6732 19.6662 57.763 19.6139C57.8534 19.5613 57.9532 19.5272 58.0566 19.5136Z" fill="black"/>
</g>
<g id="&#208;&#161;&#208;&#179;&#209;&#128;&#209;&#131;&#208;&#191;&#208;&#191;&#208;&#184;&#209;&#128;&#208;&#190;&#208;&#178;&#208;&#176;&#209;&#130;&#209;&#140; 2">
<path id="&#208;&#154;&#208;&#190;&#208;&#189;&#209;&#130;&#209;&#131;&#209;&#128; 6" d="M6.39546 7.54429C5.15346 7.6209 3.9498 8.00926 2.89293 8.67437C1.93963 9.29221 1.19212 10.1864 0.747748 11.2406C0.310195 12.3107 0.131352 13.4712 0.226106 14.6254L0.24439 14.901L0.259448 15.0355C0.337603 16.2846 0.725661 17.4936 1.3877 18.5504C2.00774 19.5108 2.89792 20.2607 3.94321 20.7033C5.01232 21.1419 6.16813 21.3204 7.31775 21.2245L7.59363 21.2071L8.7165 21.1074L8.5869 19.6173L7.46456 19.7176C6.47063 19.8348 5.46347 19.7024 4.53207 19.332C3.75661 19.0052 3.09612 18.4498 2.63641 17.7379C2.15257 16.9552 1.85642 16.0687 1.77167 15.1493L1.74586 14.9048L1.73188 14.7703C1.61529 13.7729 1.7473 12.7618 2.11585 11.8293C2.44461 11.0489 2.99755 10.3866 3.70282 9.92862C4.48581 9.44196 5.36921 9.14505 6.28414 9.06105L6.52722 9.03545L9.99587 8.73428L9.86681 7.24475L6.39546 7.54429Z" fill="black"/>
<path id="&#208;&#154;&#208;&#190;&#208;&#189;&#209;&#130;&#209;&#131;&#209;&#128; 6 (Stroke)" fill-rule="evenodd" clip-rule="evenodd" d="M10.0504 7.02417L10.2147 8.92049L6.54651 9.23898L6.30261 9.26467C5.41927 9.34577 4.56635 9.63226 3.81026 10.1018C3.14048 10.5373 2.61521 11.1663 2.30248 11.9076C1.94709 12.8077 1.81986 13.7837 1.93239 14.7465L1.9327 14.7491L1.97273 15.1305C2.05449 16.0175 2.34003 16.8728 2.80652 17.628C3.24368 18.3042 3.87124 18.8319 4.60795 19.1428C5.50799 19.5004 6.48111 19.6282 7.44147 19.5149L7.44709 19.5142L8.77034 19.3962L8.93534 21.2932L7.60644 21.4112L7.33258 21.4284C6.15218 21.5266 4.96548 21.3432 3.86774 20.8928L3.86566 20.8919C2.78316 20.4336 1.86128 19.6569 1.21916 18.6624L1.21764 18.6601C0.538329 17.5756 0.139791 16.3353 0.0587556 15.0537L0.0437375 14.9195L0.0252498 14.6409C-0.0718638 13.4548 0.112039 12.2623 0.561675 11.1627L0.562515 11.1606C1.02279 10.0687 1.79706 9.14251 2.78448 8.50256L2.78673 8.50109C3.87132 7.81854 5.10647 7.41982 6.38101 7.3408L10.0504 7.02417ZM9.68375 7.46575L6.40798 7.74841C5.19982 7.82293 4.02894 8.20054 3.00077 8.84732C2.08242 9.44283 1.36225 10.3044 0.9339 11.32C0.508941 12.3597 0.335266 13.4872 0.427328 14.6087L0.427593 14.6119L0.445542 14.8828L0.460643 15.0177L0.46096 15.0228C0.53694 16.2371 0.914079 17.4124 1.55748 18.44C2.15521 19.3653 3.01302 20.0879 4.02021 20.5147C5.0598 20.941 6.18363 21.1145 7.30144 21.0212L7.30544 21.0208L7.57878 21.0036L8.49816 20.922L8.40396 19.8389L7.48534 19.9209C6.45942 20.0415 5.41995 19.9046 4.4586 19.5223L4.45483 19.5208C3.64202 19.1782 2.94974 18.596 2.46789 17.8499L2.4657 17.8465C1.96539 17.0372 1.6591 16.1205 1.57126 15.1699L1.5317 14.7932C1.41143 13.7623 1.54797 12.7173 1.92887 11.7536L1.93056 11.7494C2.27519 10.9313 2.85488 10.237 3.59421 9.75691L3.59757 9.75473C4.40664 9.25185 5.31946 8.94499 6.26485 8.85798L6.51024 8.83214L9.77756 8.54848L9.68375 7.46575Z" fill="black"/>
<path id="&#208;&#154;&#208;&#190;&#208;&#189;&#209;&#130;&#209;&#131;&#209;&#128; 7" d="M28.4169 1.82214C23.7953 -1.42541 14.3272 0.173043 9.55822 7.00634C4.78923 13.8396 5.87285 22.0666 11.5227 26.0369C17.1726 30.0071 25.2494 28.2093 30.0136 21.3809C34.7777 14.5525 33.0439 5.07404 28.4169 1.82214ZM27.5646 3.04426C31.8356 6.04564 32.8348 14.7383 28.7961 20.5264C24.5476 26.612 17.4017 28.3482 12.3751 24.8164C7.3485 21.2845 6.52678 13.9524 10.7757 7.86411C14.8134 2.07484 23.293 0.0428791 27.5646 3.04426Z" fill="black"/>
<path id="&#208;&#154;&#208;&#190;&#208;&#189;&#209;&#130;&#209;&#131;&#209;&#128; 7 (Stroke)" fill-rule="evenodd" clip-rule="evenodd" d="M18.9963 0.435102C22.5728 -0.421262 26.1593 -0.0128112 28.5317 1.65427L28.5318 1.65428C30.9073 3.32383 32.5165 6.56922 32.9371 10.2367C33.3584 13.9099 32.5924 18.0384 30.1781 21.4987C25.3638 28.3991 17.1668 30.2517 11.4076 26.2046C5.64693 22.1565 4.57374 13.7943 9.3934 6.8884C11.81 3.42575 15.4143 1.29279 18.9963 0.435102ZM19.0891 0.832604C15.5894 1.67058 12.0752 3.75349 9.72277 7.12415C5.00445 13.8848 6.0985 21.9766 11.6375 25.869C17.1781 29.7625 25.1348 28.0195 29.8487 21.263C32.1986 17.895 32.9478 13.87 32.5365 10.2839C32.1245 6.69203 30.5533 3.57221 28.3018 1.98986C26.0526 0.409401 22.5943 -0.00669353 19.0891 0.832604ZM19.1344 2.3549C16.0145 3.20091 12.9281 5.13177 10.9403 7.98186L10.9403 7.98192C6.73915 14.0017 7.57771 21.197 12.4899 24.6485C17.4037 28.1011 24.4302 26.4261 28.6313 20.4085C30.6194 17.5591 31.3707 13.9884 31.0954 10.7578C30.8196 7.52174 29.5186 4.66601 27.4495 3.21199C25.3796 1.75763 22.2597 1.50747 19.1344 2.3549ZM27.6794 2.87639L27.5644 3.04419L27.6794 2.8764C29.8813 4.42374 31.2153 7.41501 31.4972 10.7227C31.7796 14.0357 31.0111 17.7055 28.9606 20.6442L28.9606 20.6443C24.6648 26.7977 17.3993 28.5952 12.26 24.9841C7.11903 21.3719 6.31415 13.9029 10.6109 7.74617C12.6608 4.80701 15.833 2.82728 19.0301 1.96034C22.222 1.09482 25.4777 1.32937 27.6794 2.87639Z" fill="black"/>
<path id="&#208;&#154;&#208;&#190;&#208;&#189;&#209;&#130;&#209;&#131;&#209;&#128; 8" d="M26.072 5.72496C25.3731 5.18135 24.5876 4.76285 23.7493 4.48759C23.5999 4.43953 23.4378 4.45348 23.2986 4.52639C23.1593 4.5993 23.0543 4.7252 23.0067 4.87645C22.9831 4.95109 22.9745 5.02974 22.9812 5.10781C22.988 5.18588 23.01 5.2618 23.0461 5.33115C23.0821 5.4005 23.1314 5.46188 23.1912 5.51173C23.2509 5.56158 23.3198 5.59889 23.3939 5.62148C24.1034 5.85665 24.7679 6.21287 25.3589 6.67477C25.9796 7.13806 26.5568 7.65838 27.083 8.22911C27.1895 8.34635 27.3372 8.41667 27.4943 8.42502C27.6514 8.43337 27.8055 8.37907 27.9236 8.27377C27.9812 8.22139 28.0281 8.158 28.0615 8.08723C28.0949 8.01647 28.1142 7.93972 28.1182 7.86139C28.1223 7.78306 28.111 7.7047 28.0851 7.63079C28.0591 7.55688 28.0191 7.48888 27.9671 7.4307C27.3894 6.80346 26.7549 6.23239 26.072 5.72496Z" fill="black"/>
<path id="&#208;&#154;&#208;&#190;&#208;&#189;&#209;&#130;&#209;&#131;&#209;&#128; 8 (Stroke)" fill-rule="evenodd" clip-rule="evenodd" d="M23.2062 4.34486C23.3929 4.24709 23.6103 4.22838 23.8107 4.29283L23.8118 4.2932L23.8118 4.2932C24.6712 4.57542 25.4767 5.00437 26.1933 5.56151C26.8857 6.07615 27.529 6.65526 28.1148 7.29127L28.117 7.29361L28.117 7.29362C28.1867 7.37175 28.2405 7.46305 28.2754 7.5623C28.3102 7.66155 28.3253 7.76678 28.3199 7.87195C28.3144 7.97713 28.2885 8.08018 28.2437 8.17521C28.1988 8.27023 28.1359 8.35535 28.0585 8.42568L28.0571 8.42692L28.0571 8.42691C27.8995 8.56751 27.6937 8.64 27.484 8.62886C27.2745 8.61772 27.0776 8.52405 26.9354 8.36786C26.4177 7.80652 25.85 7.29475 25.2395 6.83906L25.2359 6.83638L25.2359 6.83634C24.6637 6.38911 24.0203 6.0441 23.3335 5.81616C23.2347 5.78568 23.1428 5.73574 23.0631 5.66921C22.9828 5.60212 22.9164 5.5195 22.8679 5.42615C22.8194 5.33281 22.7897 5.23063 22.7806 5.12556C22.7715 5.02052 22.7831 4.91469 22.8148 4.81425M23.688 4.68196C23.5897 4.65048 23.483 4.65972 23.3914 4.70769C23.2996 4.75575 23.2305 4.83873 23.1991 4.93841L23.199 4.93851C23.1836 4.98734 23.178 5.03878 23.1824 5.08984C23.1868 5.1409 23.2012 5.19056 23.2248 5.23591C23.2484 5.28127 23.2806 5.32142 23.3197 5.35403C23.3587 5.38663 23.4038 5.41103 23.4523 5.42581L23.4569 5.42721L23.4569 5.42727C24.1875 5.66944 24.8719 6.03615 25.4806 6.51159C26.1106 6.982 26.6964 7.51024 27.2307 8.0896L27.2317 8.09069L27.2317 8.0907C27.3025 8.16865 27.4007 8.2154 27.5051 8.22095C27.6093 8.22649 27.7114 8.19061 27.7898 8.12099C27.8274 8.08669 27.858 8.04526 27.8798 7.99904C27.9017 7.95253 27.9144 7.90209 27.9171 7.85061C27.9197 7.79912 27.9123 7.74762 27.8953 7.69905C27.8784 7.65092 27.8524 7.60661 27.8187 7.56861C27.2499 6.9512 26.6252 6.38905 25.9529 5.88951L25.9494 5.88685L25.9494 5.88681C25.269 5.35753 24.5041 4.95003 23.688 4.68196ZM23.2062 4.34486C23.0195 4.44261 22.8787 4.61139 22.8148 4.81415L23.2062 4.34486Z" fill="black"/>
<path id="&#208;&#154;&#208;&#190;&#208;&#189;&#209;&#130;&#209;&#131;&#209;&#128; 9" d="M19.415 23.0166C19.4067 22.9382 19.3831 22.8622 19.3454 22.7931C19.3078 22.724 19.257 22.6632 19.1959 22.6143C19.1348 22.5653 19.0647 22.5291 18.9897 22.5079C18.9147 22.4866 18.8363 22.4807 18.759 22.4905C17.3446 22.6159 15.9347 22.2039 14.8036 21.3348C14.2399 20.9507 13.737 20.4821 13.3124 19.945C13.2649 19.8825 13.2058 19.8302 13.1384 19.7909C13.071 19.7517 12.9966 19.7263 12.9195 19.7161C12.8424 19.706 12.7641 19.7114 12.689 19.732C12.6139 19.7526 12.5436 19.7879 12.482 19.836C12.4202 19.883 12.3683 19.9421 12.3294 20.0097C12.2904 20.0773 12.2652 20.1521 12.2551 20.2297C12.2451 20.3074 12.2505 20.3862 12.271 20.4617C12.2915 20.5372 12.3267 20.6078 12.3745 20.6693C12.8737 21.3021 13.4646 21.8548 14.1271 22.3086C15.4959 23.3435 17.1946 23.8285 18.8956 23.6701C18.9725 23.663 19.0473 23.6403 19.1154 23.6033C19.1835 23.5663 19.2436 23.5158 19.292 23.4548C19.3405 23.3939 19.3764 23.3237 19.3975 23.2484C19.4186 23.1731 19.4246 23.0943 19.415 23.0166Z" fill="black"/>
<path id="&#208;&#154;&#208;&#190;&#208;&#189;&#209;&#130;&#209;&#131;&#209;&#128; 9 (Stroke)" fill-rule="evenodd" clip-rule="evenodd" d="M12.6363 19.5347C12.737 19.5071 12.842 19.4999 12.9454 19.5135C13.0488 19.5271 13.1486 19.5611 13.239 19.6138C13.3288 19.6661 13.4076 19.7357 13.4709 19.8186C13.8826 20.339 14.3699 20.7931 14.9162 21.1653L14.921 21.1685L14.9255 21.172C16.0158 22.0098 17.3746 22.4072 18.738 22.2872C18.8405 22.2748 18.9445 22.2829 19.044 22.3111C19.1449 22.3396 19.239 22.3882 19.3211 22.454C19.4032 22.5198 19.4715 22.6015 19.522 22.6944C19.5723 22.7867 19.604 22.8881 19.6154 22.9929C19.628 23.0972 19.6199 23.203 19.5915 23.3041C19.563 23.4057 19.5145 23.5005 19.4491 23.5828C19.3837 23.6651 19.3026 23.7332 19.2107 23.7831C19.1188 23.8331 19.0179 23.8638 18.914 23.8734C17.165 24.0362 15.4183 23.5381 14.0102 22.475C13.3325 22.0102 12.7279 21.4443 12.2169 20.7967L12.216 20.7955L12.216 20.7955C12.1516 20.7126 12.1042 20.6175 12.0766 20.5158C12.049 20.414 12.0417 20.3078 12.0552 20.2032C12.0687 20.0986 12.1027 19.9977 12.1552 19.9066C12.2075 19.8159 12.2771 19.7366 12.3599 19.6734C12.4422 19.6093 12.5361 19.5622 12.6363 19.5347ZM12.8936 19.9186C12.8428 19.9119 12.7911 19.9154 12.7417 19.929C12.6922 19.9426 12.6459 19.9659 12.6053 19.9976L12.6032 19.9992L12.6032 19.9992C12.5628 20.0299 12.529 20.0684 12.5035 20.1125C12.4781 20.1566 12.4616 20.2055 12.4551 20.2561C12.4486 20.3068 12.4521 20.3582 12.4655 20.4075C12.4788 20.4565 12.5016 20.5023 12.5326 20.5424C13.019 21.1588 13.5947 21.6972 14.2401 22.1393L14.244 22.142L14.2477 22.1448C15.5766 23.1495 17.2257 23.6204 18.8771 23.4666L18.8772 23.4666C18.9272 23.462 18.9758 23.4472 19.0201 23.4232C19.0644 23.3991 19.1034 23.3663 19.135 23.3267C19.1665 23.287 19.1898 23.2414 19.2035 23.1924C19.2173 23.1435 19.2211 23.0922 19.2149 23.0417L19.2145 23.0383L19.2145 23.0383C19.2091 22.9868 19.1935 22.937 19.1689 22.8916C19.1442 22.8463 19.1108 22.8064 19.0707 22.7743C19.0306 22.7421 18.9846 22.7184 18.9354 22.7044C18.8862 22.6905 18.8347 22.6866 18.784 22.693L18.7766 22.694L18.7765 22.6938C17.3142 22.8235 15.8565 22.3983 14.6863 21.5009C14.1075 21.1059 13.5912 20.6243 13.155 20.0725L13.1525 20.0694L13.1525 20.0694C13.1213 20.0282 13.0823 19.9937 13.0379 19.9679C12.9935 19.942 12.9444 19.9252 12.8936 19.9186Z" fill="black"/>
</g>
</g>
</svg>
