<?xml version="1.0" encoding="utf-8"?>
<!-- Generator: Adobe Illustrator 27.4.0, SVG Export Plug-In . SVG Version: 6.00 Build 0)  -->
<svg version="1.1" id="Layer_2" xmlns="http://www.w3.org/2000/svg" xmlns:xlink="http://www.w3.org/1999/xlink" width="120.78" height="17.215" x="0px" y="0px"
	 viewBox="0 0 111.7 17.2" style="enable-background:new 0 0 111.7 17.2;" xml:space="preserve">
<style type="text/css">
	.st0{fill:#010101;}
</style>
<g id="그룹_6_00000054980231599809239120000010237605620034582675_" transform="translate(0 0)">
	<path id="패스_40_00000102518621275233789640000013295783304341869743_" class="st0" d="M92.5,13.1L92.3,0.5h4v15.9h-5.7
		L86.6,3.4h-0.1l0.2,13.1h-3.9V0.5h5.9L92.5,13.1L92.5,13.1z"/>
	<path id="패스_41_00000156569092805086873380000006366778581903118496_" class="st0" d="M20.6,2l-2.2,14.6h-4.3l3-16.1h7.1
		l2.9,16.1h-4.3L20.6,2L20.6,2z"/>
	<path id="패스_42_00000109723613739840634560000006153530515306095037_" class="st0" d="M39.2,12.8l2-12.3h6.5l0.4,16.1h-4
		L44,2.1h-0.1l-2.7,14.4h-4.1L34.5,2.1h-0.1l-0.1,14.4h-4l0.4-16.1h6.5L39.2,12.8L39.2,12.8z"/>
	<path id="패스_43_00000124856864098989735720000000947399174449198469_" class="st0" d="M7.4,12.1c0.1,0.4,0.1,0.8,0,1.2
		c-0.1,0.5-0.5,1.1-1.6,1.1c-1,0-1.6-0.6-1.6-1.5v-1.6H0v1.2c0,3.6,2.8,4.7,5.8,4.7c2.9,0,5.3-1,5.6-3.7c0.1-0.9,0.1-1.8,0-2.6
		c-0.7-3.4-6.7-4.4-7.2-6.3c-0.1-0.3-0.1-0.6,0-0.8C4.4,3.1,5,2.6,5.7,2.7C6.4,2.6,7.1,3.2,7.2,4c0,0.1,0,0.1,0,0.2v1h4V4
		c0-3.5-3.1-4-5.4-4C2.9,0,0.6,0.9,0.2,3.6C0.1,4.3,0.1,5,0.2,5.7C0.9,9,6.6,10,7.4,12.1z"/>
	<path id="패스_44_00000003805233845088015000000012094499568742061709_" class="st0" d="M59.3,12c0.1,0.4,0.1,0.8,0,1.2
		c-0.1,0.5-0.5,1.1-1.5,1.1c-1,0-1.6-0.6-1.6-1.4v-1.5H52v1.2c0,3.5,2.8,4.6,5.7,4.6c2.9,0,5.2-1,5.6-3.6c0.1-0.9,0.1-1.7,0-2.6
		c-0.7-3.3-6.7-4.3-7.1-6.2c-0.1-0.3-0.1-0.6,0-0.8c0.1-0.7,0.8-1.2,1.4-1.1C58.3,2.7,59,3.2,59.1,4c0,0.1,0,0.2,0,0.2v1H63V4.1
		c0-3.5-3.1-4-5.3-4c-2.8,0-5.1,0.9-5.5,3.5c-0.1,0.7-0.1,1.4,0,2.1C52.9,9,58.5,10,59.3,12z"/>
	<path id="패스_45_00000102503741420779417540000004179831365953292733_" class="st0" d="M72.7,14.2c0.7,0.1,1.4-0.4,1.5-1.2
		c0-0.2,0-0.4,0-0.6V0.5h4V12c0,0.3,0,0.9,0,1.1c-0.3,3-2.6,4-5.6,4s-5.3-1-5.6-4c0-0.2,0-0.8,0-1.1V0.5h4v11.9c0,0.2,0,0.4,0,0.6
		C71.4,13.8,72,14.3,72.7,14.2z"/>
	<path id="패스_46_00000138553160280057187080000009994170928517811595_" class="st0" d="M106,14c0.7,0.1,1.4-0.4,1.6-1.2
		c0-0.2,0-0.4,0-0.6V9.9h-1.6V7.6h5.7v4.3c0,0.4,0,0.7-0.1,1.1c-0.3,2.9-2.8,4-5.6,4c-2.8,0-5.4-1-5.6-4c0-0.4-0.1-0.7-0.1-1.1V5.1
		c0-0.4,0-0.7,0.1-1.1c0.4-3,2.8-4,5.6-4s5.3,1,5.6,4c0,0.4,0,0.7,0,1.1v0.5h-4V4.7c0-0.2,0-0.4-0.1-0.6c-0.2-0.8-0.9-1.3-1.6-1.2
		c-0.7-0.1-1.4,0.4-1.6,1.2c0,0.3-0.1,0.5-0.1,0.8v7.3c0,0.2,0,0.4,0,0.6C104.6,13.6,105.3,14.1,106,14z"/>
</g>
</svg>
