<svg width="84" height="101" viewBox="0 0 84 101" fill="none" xmlns="http://www.w3.org/2000/svg">
<path id="&#208;&#154;&#208;&#190;&#208;&#189;&#209;&#130;&#209;&#131;&#209;&#128; 15" d="M51.205 17.414H32.794V13.932H51.205V17.414ZM41.999 30.184C37.053 30.1402 32.2054 31.5669 28.0716 34.2829C23.9378 36.9989 20.7042 40.8819 18.781 45.439C16.8579 49.996 16.332 55.0217 17.2701 59.8781C18.2082 64.7346 20.568 69.2029 24.05 72.7158C27.532 76.2288 31.9791 78.6281 36.8271 79.6091C41.6751 80.5902 46.7052 80.1088 51.2791 78.2261C55.853 76.3434 59.7645 73.1441 62.517 69.0345C65.2695 64.9249 66.739 60.0902 66.739 55.144C66.7672 48.5537 64.1767 42.222 59.5373 37.5413C54.8979 32.8606 48.5894 30.2142 41.999 30.184ZM41.999 26.701C47.6352 26.6511 53.1592 28.2768 57.8698 31.3718C62.5805 34.4668 66.2654 38.8916 68.4569 44.0845C70.6484 49.2774 71.2478 55.0043 70.1788 60.5385C69.1098 66.0726 66.4207 71.1643 62.4529 75.1675C58.485 79.1707 53.4173 81.9048 47.8929 83.0228C42.3685 84.1408 36.6364 83.5922 31.4243 81.4468C26.2121 79.3014 21.7549 75.6558 18.6183 70.9728C15.4817 66.2897 13.807 60.7804 13.807 55.144C13.7743 47.6339 16.7261 40.4184 22.013 35.0844C27.2999 29.7504 34.4889 26.7349 41.999 26.701ZM80.548 3.48303H3.44801V97.522H80.548V3.48303ZM80.8291 0C81.6399 0.00449812 82.4186 0.31775 83.0067 0.875977C83.5949 1.4342 83.9482 2.19548 83.995 3.005V3.19904V97.799C83.9971 98.6101 83.6903 99.3916 83.137 99.9846C82.5837 100.578 81.8253 100.938 81.016 100.992L80.8241 100.999H3.17103C2.36045 100.994 1.5821 100.681 0.994337 100.123C0.406577 99.5645 0.0535486 98.8033 0.00703189 97.994L1.28462e-05 97.8V3.20001C-0.00228753 2.38884 0.304436 1.60722 0.857801 1.0141C1.41117 0.420982 2.16964 0.0609075 2.97902 0.00701904L3.17103 0H80.8291Z" fill="black"/>
</svg>
