<svg width="64" height="51" viewBox="0 0 64 51" fill="none" xmlns="http://www.w3.org/2000/svg">
<path id="&#208;&#154;&#208;&#190;&#208;&#189;&#209;&#130;&#209;&#131;&#209;&#128; 18" d="M61.8385 2.06182H2.04978V39.7676H61.8385V2.06182ZM61.9614 0C62.4559 0.0044289 62.9301 0.19729 63.2873 0.539291C63.6444 0.881293 63.8576 1.34665 63.8834 1.84042L63.8872 1.95897V39.8721C63.8898 40.3663 63.7046 40.843 63.369 41.2059C63.0334 41.5687 62.5724 41.7904 62.0794 41.8262L61.9614 41.83H55.3633L59.6518 49.3055L57.8652 50.3431L52.9822 41.8305H10.5785L5.69721 50.3431L3.91058 49.3055L8.19796 41.83H1.9258C1.43133 41.8255 0.957202 41.6325 0.600077 41.2905C0.242952 40.9486 0.0297095 40.4833 0.00382041 39.9896L2.85374e-05 39.871V1.95791C-0.0026447 1.46372 0.182583 0.98697 0.518209 0.624168C0.853835 0.261366 1.31479 0.0395885 1.80777 0.00376642L1.9258 0H61.9614Z" fill="black"/>
</svg>
