<svg width="125" height="74" viewBox="0 0 125 74" fill="none" xmlns="http://www.w3.org/2000/svg">
<g id="&#208;&#161;&#208;&#179;&#209;&#128;&#209;&#131;&#208;&#191;&#208;&#191;&#208;&#184;&#209;&#128;&#208;&#190;&#208;&#178;&#208;&#176;&#209;&#130;&#209;&#140; 12">
<path id="&#208;&#154;&#208;&#190;&#208;&#189;&#209;&#130;&#209;&#131;&#209;&#128; 10" d="M114.921 34.1363C115.487 34.1245 116.043 34.2816 116.519 34.5872C116.995 34.8929 117.369 35.3334 117.593 35.8525C117.818 36.3717 117.883 36.9459 117.78 37.502C117.676 38.0581 117.41 38.5709 117.014 38.975C116.618 39.379 116.111 39.656 115.557 39.7706C115.003 39.8852 114.428 39.8322 113.904 39.6184C113.381 39.4047 112.933 39.0397 112.617 38.5702C112.302 38.1007 112.133 37.5479 112.134 36.9823C112.126 36.2352 112.416 35.5158 112.938 34.9821C113.461 34.4484 114.174 34.1442 114.921 34.1363ZM118.584 3.41529H25.2044C24.4731 3.41003 23.7668 3.6813 23.227 4.17475C22.6872 4.66821 22.3538 5.34739 22.2935 6.07627L22.2875 6.26127V67.7383C22.2995 68.4687 22.5874 69.1675 23.0934 69.6943C23.5995 70.2212 24.2861 70.537 25.0154 70.5783L25.2054 70.5853H118.587C119.319 70.5908 120.025 70.3196 120.565 69.8261C121.105 69.3327 121.439 68.6534 121.499 67.9243L121.505 67.7393V6.26228C121.493 5.53204 121.205 4.83336 120.7 4.30656C120.194 3.77976 119.507 3.46385 118.778 3.42228L118.584 3.41529ZM118.584 0.000282066C120.221 -0.0151215 121.802 0.600885 122.996 1.72031C124.191 2.83974 124.909 4.3765 125 6.01127V6.26127V67.7383C124.977 69.3742 124.323 70.938 123.175 72.1037C122.027 73.2694 120.474 73.947 118.838 73.9953H118.58H25.2044C23.5675 74.0104 21.9877 73.3942 20.7933 72.2748C19.5988 71.1554 18.8816 69.6188 18.7907 67.9843V67.7343V6.26228C18.8137 4.62629 19.4673 3.06236 20.6153 1.89661C21.7633 0.730866 23.317 0.0533155 24.9524 0.00528695H25.2094L118.584 0.000282066Z" fill="black"/>
<path id="&#208;&#155;&#208;&#184;&#208;&#189;&#208;&#184;&#209;&#143; 1 (Stroke)" fill-rule="evenodd" clip-rule="evenodd" d="M1.24261 30.1737L12.1696 30.1747L12.1694 32.5897L1.24239 32.5887L1.24261 30.1737Z" fill="#1D1D1B"/>
<path id="&#208;&#154;&#208;&#190;&#208;&#189;&#209;&#130;&#209;&#131;&#209;&#128; 11 (Stroke)" fill-rule="evenodd" clip-rule="evenodd" d="M7.80882 64.0857C8.47065 64.0848 9.00988 64.6168 9.01791 65.2785L9.05527 68.358C9.086 68.7075 9.04733 69.0599 8.94119 69.3948C8.82791 69.7523 8.64033 70.0818 8.39074 70.3617C8.14115 70.6416 7.83521 70.8656 7.49299 71.0189C7.15073 71.1723 6.77995 71.2516 6.40498 71.2516C6.03001 71.2516 5.65922 71.1723 5.31696 71.0189C4.97469 70.8656 4.66879 70.6416 4.41925 70.3617C4.16966 70.0818 3.98208 69.7523 3.86879 69.3948C3.7643 69.065 3.7252 68.7184 3.75335 68.3742L3.71907 65.3107C3.71546 64.9884 3.84085 64.6781 4.06731 64.4487C4.29377 64.2194 4.60252 64.0901 4.92482 64.0897L7.80882 64.0857ZM6.14756 66.503L6.16892 68.4117C6.16949 68.4622 6.16688 68.5128 6.1611 68.563C6.15715 68.5974 6.16052 68.6323 6.17096 68.6652C6.18142 68.6982 6.19874 68.7287 6.22176 68.7545C6.24483 68.7803 6.27306 68.801 6.30458 68.8151C6.33612 68.8293 6.37033 68.8366 6.40498 68.8366C6.43963 68.8366 6.47384 68.8293 6.50538 68.8151C6.53697 68.801 6.56521 68.7803 6.58823 68.7545C6.61125 68.7287 6.62857 68.6982 6.63903 68.6652C6.64947 68.6323 6.65284 68.5974 6.64889 68.563C6.64419 68.5221 6.64158 68.481 6.64108 68.4398L6.61758 66.5023L6.14756 66.503Z" fill="#1D1D1B"/>
<path id="&#208;&#154;&#208;&#190;&#208;&#189;&#209;&#130;&#209;&#131;&#209;&#128; 12 (Stroke)" fill-rule="evenodd" clip-rule="evenodd" d="M12.4289 21.507C12.6581 21.7339 12.7871 22.0431 12.787 22.3656L12.776 56.4216C12.776 56.5088 12.7665 56.5957 12.7477 56.6809L11.5685 56.4212C12.7477 56.6809 12.7478 56.6808 12.7477 56.6809L12.7418 56.7076L12.7256 56.7796C12.7115 56.8421 12.6908 56.9331 12.664 57.0485C12.6104 57.2793 12.5323 57.6085 12.4339 58.0052C12.2374 58.7971 11.9579 59.8649 11.6279 60.9583C11.3001 62.044 10.9123 63.1895 10.4951 64.1221C10.2874 64.5863 10.0566 65.0338 9.80276 65.4053C9.57481 65.7388 9.21687 66.1809 8.69793 66.4049C8.54685 66.4701 8.38404 66.5037 8.21949 66.5037H4.4485C4.28395 66.5037 4.12114 66.4701 3.97006 66.4049C3.44742 66.1793 3.09072 65.7334 2.86506 65.3981C2.61383 65.0248 2.38747 64.5758 2.18494 64.1108C1.77808 63.1768 1.40422 62.03 1.09014 60.9437C0.773814 59.8497 0.508025 58.7814 0.321755 57.9891C0.228437 57.5922 0.154657 57.2628 0.104048 57.0319C0.0787362 56.9164 0.059198 56.8254 0.0458881 56.7628L0.0306443 56.6907L0.0252271 56.6648C0.0251946 56.6646 0.0250707 56.664 1.2075 56.4192L0.0252271 56.6648C0.00846532 56.5838 -9.17643e-05 56.5006 7.42078e-07 56.4179L0.0379951 22.4739C0.0387354 21.8125 0.571335 21.2748 1.23264 21.2678L11.5666 21.1578C11.8892 21.1543 12.1996 21.2801 12.4289 21.507ZM2.41514 56.2937C2.42708 56.3495 2.44314 56.424 2.46306 56.5149C2.51144 56.7357 2.58252 57.053 2.67265 57.4364C2.85329 58.2047 3.10881 59.2309 3.41011 60.273C3.71365 61.3228 4.05373 62.3537 4.39902 63.1464C4.57258 63.5449 4.73185 63.8465 4.86854 64.0496C4.87794 64.0636 4.88691 64.0766 4.89543 64.0887H7.77658C7.78673 64.0746 7.79751 64.0593 7.8089 64.0426C7.94886 63.8378 8.11217 63.5348 8.29067 63.1358C8.64584 62.342 8.99899 61.3103 9.31588 60.2604C9.63048 59.2182 9.89931 58.1919 10.09 57.4236C10.1851 57.0402 10.2603 56.7229 10.3116 56.5021C10.332 56.4145 10.3485 56.3422 10.361 56.287L10.3716 23.5856L2.45166 23.67L2.41514 56.2937Z" fill="#1D1D1B"/>
</g>
</svg>
