<svg width="31" height="60" viewBox="0 0 31 60" fill="none" xmlns="http://www.w3.org/2000/svg">
<g id="&#208;&#161;&#208;&#179;&#209;&#128;&#209;&#131;&#208;&#191;&#208;&#191;&#208;&#184;&#209;&#128;&#208;&#190;&#208;&#178;&#208;&#176;&#209;&#130;&#209;&#140; 13" clip-path="url(#clip0_8_259)">
<g id="&#208;&#161;&#208;&#179;&#209;&#128;&#209;&#131;&#208;&#191;&#208;&#191;&#208;&#184;&#209;&#128;&#208;&#190;&#208;&#178;&#208;&#176;&#209;&#130;&#209;&#140; 13_2">
<path id="&#208;&#154;&#208;&#190;&#208;&#189;&#209;&#130;&#209;&#131;&#209;&#128; 16" d="M30.9993 3.67507C30.9687 3.18166 30.8846 2.69299 30.7486 2.21762L30.5605 1.83755C30.2575 1.27723 29.8004 0.814857 29.2429 0.504846L28.8656 0.31506C28.3654 0.11769 27.8341 0.0104783 27.2963 -0.00158691H3.63863C3.14973 0.0300813 2.66579 0.11518 2.1955 0.252167L1.82136 0.441937C1.26381 0.751852 0.806683 1.21424 0.503839 1.77464L0.315695 2.15525C0.119142 2.66066 0.012957 3.19652 0.00195312 3.7385V55.5006C0.0325338 55.994 0.116579 56.4827 0.252627 56.9581L0.440771 57.3387C0.744001 57.8992 1.20149 58.3615 1.75936 58.6714L2.1335 58.8612C2.63367 59.0586 3.16501 59.1658 3.70277 59.1778H27.361C27.8499 59.1462 28.3338 59.0611 28.8041 58.9241L29.1783 58.7343C29.7358 58.4244 30.1929 57.962 30.4958 57.4016L30.6839 57.0215C30.8804 56.5157 30.9866 55.9795 30.9977 55.4372V3.67507H30.9993ZM29.4316 55.7512V56.0678C29.4316 56.1307 29.3685 56.1947 29.3685 56.2576L29.2435 56.5743C29.0594 56.8861 28.8007 57.1475 28.4904 57.335L28.1766 57.4608C28.1141 57.4608 28.051 57.5247 27.9885 57.5247H27.6747L26.8591 57.5877H4.64295L3.38849 57.5247H3.07474C3.01167 57.5247 2.94914 57.4608 2.8866 57.4608L2.57286 57.335C2.26239 57.1485 2.00338 56.8877 1.81922 56.5764C1.70098 56.4092 1.63546 56.2106 1.63108 56.006V55.8162C1.63108 55.6264 1.56801 55.4996 1.56801 55.2464V4.62555L1.63108 3.35843V3.04178C1.63108 2.97887 1.69362 2.9149 1.69362 2.85199L1.81922 2.53535C2.00271 2.2231 2.2616 1.96159 2.57232 1.77464L2.88607 1.64776C2.94861 1.64776 3.01114 1.58487 3.07421 1.58487H3.38796L4.32866 1.52196H4.64241L27.4225 1.58487H27.9243C27.9874 1.58487 28.0499 1.64776 28.1136 1.64776L28.4262 1.77464C28.737 1.96157 28.9959 2.22308 29.1793 2.53535L29.3049 2.85199C29.3049 2.9149 29.3675 2.97887 29.3675 3.04178V3.35843L29.4305 4.18203V55.7517L29.4316 55.7512Z" fill="black"/>
<path id="&#208;&#173;&#208;&#187;&#208;&#187;&#208;&#184;&#208;&#191;&#209;&#129; 5" d="M15.4998 8.48979C16.4355 8.48979 17.1941 7.72391 17.1941 6.77914C17.1941 5.83437 16.4355 5.06848 15.4998 5.06848C14.564 5.06848 13.8054 5.83437 13.8054 6.77914C13.8054 7.72391 14.564 8.48979 15.4998 8.48979Z" fill="black"/>
</g>
</g>
<defs>
<clipPath id="clip0_8_259">
<rect width="31" height="59.1725" fill="white"/>
</clipPath>
</defs>
</svg>
