<svg width="132" height="53" viewBox="0 0 132 53" fill="none" xmlns="http://www.w3.org/2000/svg">
<g id="&#208;&#161;&#208;&#179;&#209;&#128;&#209;&#131;&#208;&#191;&#208;&#191;&#208;&#184;&#209;&#128;&#208;&#190;&#208;&#178;&#208;&#176;&#209;&#130;&#209;&#140; 3">
<g id="&#208;&#161;&#208;&#179;&#209;&#128;&#209;&#131;&#208;&#191;&#208;&#191;&#208;&#184;&#209;&#128;&#208;&#190;&#208;&#178;&#208;&#176;&#209;&#130;&#209;&#140; 1">
<path id="&#208;&#154;&#208;&#190;&#208;&#189;&#209;&#130;&#209;&#131;&#209;&#128; 2" d="M120.113 13.8526C122.422 13.9932 124.66 14.7063 126.625 15.9276C128.397 17.0612 129.787 18.7021 130.613 20.6366C131.426 22.6028 131.756 24.7346 131.578 26.8546L131.544 27.3606L131.516 27.6076C131.372 29.901 130.653 32.1212 129.424 34.0626C128.271 35.8259 126.616 37.2029 124.672 38.0156C122.685 38.821 120.536 39.1487 118.399 38.9726L117.89 38.9376L115.865 38.7656L116.105 36.0296L118.13 36.2026C119.978 36.4179 121.85 36.1748 123.582 35.4946C125.022 34.8943 126.248 33.8753 127.102 32.5696C128.002 31.1325 128.552 29.5047 128.71 27.8166L128.758 27.3676L128.786 27.1206C129.002 25.2892 128.757 23.4327 128.072 21.7206C127.461 20.2876 126.433 19.0716 125.121 18.2306C123.666 17.337 122.023 16.7918 120.322 16.6376L119.87 16.5906L113.415 16.0286L113.656 13.2936L120.113 13.8526Z" fill="black"/>
<path id="&#208;&#154;&#208;&#190;&#208;&#189;&#209;&#130;&#209;&#131;&#209;&#128; 2 (Stroke)" fill-rule="evenodd" clip-rule="evenodd" d="M113.315 12.8877L120.141 13.4786C122.51 13.6237 124.807 14.3558 126.823 15.6091L126.827 15.6117C128.662 16.7859 130.102 18.4855 130.958 20.4892L130.96 20.4934C131.794 22.5138 132.135 24.7044 131.952 26.8829L131.918 27.3943L131.89 27.6405C131.741 29.9936 131.002 32.2712 129.74 34.2632L129.737 34.2678C128.544 36.0939 126.83 37.5199 124.817 38.3616L124.813 38.3632C122.772 39.1902 120.565 39.527 118.37 39.3465L117.858 39.3113L115.459 39.1074L115.764 35.6241L118.173 35.8299C119.959 36.038 121.768 35.8036 123.441 35.147C124.809 34.5759 125.974 33.6077 126.786 32.3674C127.653 30.9807 128.184 29.4103 128.336 27.7817L128.337 27.7767L128.385 27.3253L128.413 27.0783L128.413 27.0765C128.623 25.3087 128.386 23.5167 127.725 21.8638C127.144 20.5029 126.167 19.3478 124.922 18.5482C123.516 17.686 121.931 17.16 120.288 17.0111L120.284 17.0106L119.835 16.9639L113.008 16.3696L113.315 12.8877ZM113.996 13.6995L113.821 15.6875L119.909 16.2175L120.359 16.2643C122.116 16.4241 123.813 16.9876 125.317 17.911L125.324 17.9149C126.698 18.7965 127.776 20.0712 128.417 21.5734L128.42 21.5812C129.128 23.3512 129.382 25.2705 129.158 27.1638C129.158 27.1641 129.158 27.1635 129.158 27.1638L129.13 27.4074L129.13 27.4098L129.083 27.8539C128.919 29.5995 128.35 31.2826 127.42 32.7686L127.416 32.7749C126.521 34.1435 125.235 35.2116 123.726 35.8407L123.719 35.8437C121.932 36.5457 119.999 36.797 118.092 36.5757L116.446 36.4351L116.272 38.4238L117.919 38.5637L118.429 38.5988C120.508 38.7701 122.597 38.4516 124.53 37.6688C126.402 36.8853 127.997 35.5585 129.108 33.8596C130.303 31.9721 131.002 29.8137 131.142 27.5841L131.143 27.5747L131.171 27.3269L131.204 26.8232C131.378 24.7635 131.056 22.6923 130.268 20.7819C129.471 18.9183 128.132 17.3374 126.425 16.2448C124.514 15.0572 122.337 14.3637 120.091 14.2269L120.081 14.2263L113.996 13.6995Z" fill="black"/>
<path id="&#208;&#154;&#208;&#190;&#208;&#189;&#209;&#130;&#209;&#131;&#209;&#128; 3" d="M79.1725 3.34562C87.7648 -2.61737 105.367 0.317626 114.234 12.8646C123.1 25.4116 121.085 40.5186 110.581 47.8076C100.077 55.0966 85.0614 51.7966 76.2061 39.2586C67.3508 26.7206 70.5702 9.31662 79.1725 3.34562ZM80.7572 5.58962C72.8168 11.1006 70.9591 27.0616 78.4676 37.6896C86.3661 48.8636 99.6515 52.0516 108.997 45.5666C118.342 39.0816 119.87 25.6206 111.97 14.4376C104.464 3.80962 88.6986 0.0786243 80.7572 5.58962Z" fill="black"/>
<path id="&#208;&#154;&#208;&#190;&#208;&#189;&#209;&#130;&#209;&#131;&#209;&#128; 3 (Stroke)" fill-rule="evenodd" clip-rule="evenodd" d="M96.514 1.52879C89.9973 -0.0122936 83.5677 0.751727 79.3861 3.6537C75.2004 6.55913 72.2802 12.2876 71.515 18.8827C70.7511 25.4675 72.1444 32.8579 76.5122 39.0422C85.2742 51.4481 100.067 54.6475 110.368 47.4995C120.665 40.3535 122.699 25.4947 113.927 13.081C109.554 6.89199 103.02 3.06744 96.514 1.52879ZM96.6865 0.798914C103.346 2.37377 110.047 6.29022 114.54 12.6482C123.5 25.3285 121.505 40.6837 110.795 48.1157C100.088 55.5457 84.8483 52.1451 75.8998 39.475C71.4123 33.1213 69.9877 25.5407 70.7702 18.7963C71.5515 12.0622 74.5421 6.10309 78.9586 3.03752L78.9587 3.0375C83.3694 -0.0235233 90.0373 -0.773503 96.6865 0.798914ZM96.6236 3.59923C102.568 5.19082 108.465 8.82544 112.276 14.2212C120.264 25.53 118.768 39.2421 109.21 45.8747C99.6555 52.5052 86.148 49.2047 78.1614 37.9061L78.1613 37.906C74.3491 32.51 72.9205 25.7717 73.4454 19.6885C73.9695 13.6151 76.4497 8.12268 80.5433 5.28151L80.5434 5.2815C84.6367 2.44092 90.6894 2.01026 96.6236 3.59923ZM80.9708 5.89769C77.1241 8.56752 74.7052 13.8111 74.1925 19.753C73.6806 25.685 75.0774 32.2412 78.7737 37.4732L78.4675 37.6896L78.7737 37.4732C86.5841 48.5226 99.6473 51.598 108.783 45.2585C117.915 38.9211 119.474 25.7112 111.664 14.654L111.97 14.4376L111.664 14.654C107.968 9.42176 102.23 5.87688 96.4297 4.32372C90.6194 2.76794 84.819 3.22728 80.9708 5.89769Z" fill="black"/>
<path id="&#208;&#154;&#208;&#190;&#208;&#189;&#209;&#130;&#209;&#131;&#209;&#128; 4" d="M83.5316 10.5116C84.8308 9.51346 86.2913 8.74504 87.8497 8.23962C88.1275 8.15136 88.4289 8.17699 88.6878 8.31086C88.9467 8.44474 89.1418 8.67591 89.2304 8.95362C89.2742 9.09068 89.2903 9.23509 89.2777 9.37844C89.2652 9.52178 89.2242 9.66119 89.1572 9.78852C89.0902 9.91586 88.9985 10.0286 88.8875 10.1201C88.7764 10.2116 88.6483 10.2801 88.5106 10.3216C87.1916 10.7534 85.956 11.4075 84.8573 12.2556C83.7033 13.1063 82.6303 14.0617 81.6519 15.1096C81.4539 15.3249 81.1794 15.454 80.8873 15.4693C80.5952 15.4847 80.3087 15.385 80.0892 15.1916C79.9812 15.0956 79.8933 14.9791 79.8306 14.8489C79.7679 14.7188 79.7316 14.5774 79.7238 14.4331C79.716 14.2888 79.7368 14.1444 79.7851 14.0082C79.8334 13.872 79.9083 13.7467 80.0052 13.6396C81.0805 12.4892 82.2611 11.4419 83.5316 10.5116Z" fill="black"/>
<path id="&#208;&#154;&#208;&#190;&#208;&#189;&#209;&#130;&#209;&#131;&#209;&#128; 4 (Stroke)" fill-rule="evenodd" clip-rule="evenodd" d="M88.5156 8.64397C88.3453 8.55589 88.147 8.53891 87.9642 8.59671C86.4469 9.08894 85.025 9.83717 83.7599 10.809L83.7531 10.8143L83.753 10.8142C82.5023 11.73 81.3401 12.7609 80.2814 13.8933C80.2185 13.9633 80.1699 14.0449 80.1385 14.1336C80.1067 14.2231 80.093 14.318 80.0982 14.4129C80.1033 14.5077 80.1272 14.6006 80.1684 14.6861C80.2095 14.7715 80.267 14.8478 80.3377 14.9108C80.4836 15.039 80.6737 15.105 80.8677 15.0949C81.0619 15.0847 81.2444 14.9988 81.376 14.8557L81.3779 14.8537L81.3779 14.8537C82.3711 13.7899 83.4602 12.8199 84.6315 11.9562C85.7632 11.0832 87.0357 10.4099 88.394 9.96522L88.4025 9.96244L88.4025 9.96254C88.4926 9.93541 88.5764 9.8906 88.649 9.83074C88.7216 9.77087 88.7816 9.69715 88.8254 9.61387C88.8692 9.53058 88.896 9.4394 88.9043 9.34565C88.9125 9.25189 88.902 9.15744 88.8733 9.06779L88.8733 9.06761C88.8149 8.88457 88.6862 8.73221 88.5156 8.64397ZM87.7362 7.88222C88.1087 7.76388 88.5128 7.79823 88.86 7.97775C89.2071 8.15723 89.4688 8.46715 89.5876 8.83945M83.3066 10.2116C84.6389 9.18865 86.1363 8.40107 87.7341 7.88291L87.7362 7.88222" fill="black"/>
<path id="&#208;&#154;&#208;&#190;&#208;&#189;&#209;&#130;&#209;&#131;&#209;&#128; 5" d="M95.9081 42.2616C95.9236 42.1176 95.9676 41.9781 96.0375 41.8513C96.1075 41.7244 96.202 41.6128 96.3155 41.5229C96.4291 41.433 96.5594 41.3666 96.6989 41.3275C96.8383 41.2885 96.9842 41.2777 97.1279 41.2956C99.7574 41.5259 102.379 40.7695 104.481 39.1736C105.53 38.4684 106.464 37.6079 107.254 36.6216C107.342 36.507 107.452 36.4109 107.577 36.3388C107.703 36.2667 107.841 36.2201 107.984 36.2015C108.128 36.1829 108.273 36.1928 108.413 36.2306C108.552 36.2683 108.683 36.3333 108.798 36.4216C108.913 36.508 109.009 36.6164 109.081 36.7405C109.154 36.8647 109.201 37.002 109.219 37.1446C109.238 37.2871 109.228 37.4319 109.19 37.5705C109.152 37.7091 109.086 37.8387 108.998 37.9516C108.069 39.1136 106.971 40.1284 105.739 40.9616C103.194 42.8618 100.036 43.7524 96.8739 43.4616C96.7308 43.4485 96.5919 43.4068 96.4652 43.3389C96.3386 43.271 96.2269 43.1783 96.1368 43.0663C96.0467 42.9544 95.98 42.8254 95.9407 42.6872C95.9015 42.549 95.8904 42.4042 95.9081 42.2616Z" fill="black"/>
<path id="&#208;&#154;&#208;&#190;&#208;&#189;&#209;&#130;&#209;&#131;&#209;&#128; 5 (Stroke)" fill-rule="evenodd" clip-rule="evenodd" d="M108.315 36.5926C108.223 36.5677 108.127 36.5611 108.032 36.5734C107.938 36.5856 107.847 36.6164 107.764 36.6639C107.682 36.7114 107.609 36.7748 107.551 36.8503L107.547 36.8561L107.547 36.856C106.736 37.8692 105.776 38.7535 104.7 39.4788C102.524 41.1265 99.8139 41.9072 97.0952 41.6692L97.0814 41.668L97.0814 41.6677C96.9871 41.656 96.8914 41.6631 96.7998 41.6887C96.7083 41.7143 96.6228 41.7579 96.5483 41.8169C96.4737 41.8759 96.4117 41.9492 96.3658 42.0324C96.3199 42.1156 96.291 42.2072 96.2809 42.3017L96.2802 42.308L96.2802 42.308C96.2686 42.4007 96.2758 42.4948 96.3014 42.5847C96.3269 42.6746 96.3703 42.7584 96.4288 42.8312C96.4874 42.904 96.56 42.9642 96.6424 43.0084C96.7247 43.0525 96.8151 43.0797 96.9081 43.0882L96.9082 43.0882C99.9784 43.3705 103.044 42.5059 105.515 40.6611L105.522 40.6559L105.529 40.651C106.729 39.8393 107.799 38.8506 108.704 37.7187C108.761 37.6453 108.804 37.5611 108.828 37.4711C108.853 37.3806 108.86 37.2862 108.848 37.1932C108.836 37.1002 108.805 37.0105 108.758 36.9295C108.71 36.8485 108.647 36.7778 108.572 36.7215L108.568 36.7185L108.568 36.7185C108.493 36.6602 108.407 36.6174 108.315 36.5926ZM107.936 35.8296C108.128 35.8047 108.324 35.8179 108.511 35.8686C108.697 35.919 108.872 36.0056 109.025 36.1233C109.179 36.2393 109.308 36.3849 109.405 36.5515C109.503 36.7188 109.566 36.9039 109.591 37.0959C109.616 37.288 109.603 37.4831 109.551 37.6699C109.5 37.8567 109.412 38.0313 109.292 38.1835L109.29 38.1857C108.341 39.3749 107.217 40.4139 105.956 41.2674C103.339 43.2194 100.091 44.134 96.8396 43.8351C96.6465 43.8174 96.4589 43.761 96.288 43.6694C96.1171 43.5777 95.9664 43.4526 95.8447 43.3015C95.7231 43.1504 95.6331 42.9763 95.5801 42.7897C95.5273 42.6042 95.5122 42.4099 95.5357 42.2184C95.5568 42.026 95.6158 41.8397 95.7092 41.6702C95.8032 41.4997 95.9302 41.3497 96.0828 41.2289C96.2353 41.1081 96.4104 41.0188 96.5979 40.9664C96.7829 40.9146 96.9762 40.8998 97.1669 40.9226C99.7016 41.1429 102.228 40.4132 104.255 38.8749L104.263 38.8684L104.272 38.8625C105.288 38.1791 106.194 37.3454 106.959 36.3899C107.077 36.2375 107.223 36.1098 107.39 36.0138C107.558 35.9171 107.744 35.8545 107.936 35.8296Z" fill="black"/>
</g>
<g id="&#208;&#161;&#208;&#179;&#209;&#128;&#209;&#131;&#208;&#191;&#208;&#191;&#208;&#184;&#209;&#128;&#208;&#190;&#208;&#178;&#208;&#176;&#209;&#130;&#209;&#140; 2">
<path id="&#208;&#154;&#208;&#190;&#208;&#189;&#209;&#130;&#209;&#131;&#209;&#128; 6" d="M11.8907 13.8526C9.58159 13.9933 7.3438 14.7064 5.37893 15.9276C3.6066 17.0621 2.21687 18.704 1.39071 20.6396C0.577236 22.6045 0.244741 24.7353 0.420902 26.8546L0.454895 27.3606L0.48289 27.6076C0.628192 29.9012 1.34965 32.121 2.58048 34.0616C3.73323 35.8249 5.38821 37.2019 7.33155 38.0146C9.31919 38.82 11.468 39.1478 13.6053 38.9716L14.1182 38.9396L16.2058 38.7566L15.9649 36.0206L13.8783 36.2046C12.0304 36.42 10.1579 36.1768 8.42633 35.4966C6.98464 34.8966 5.75669 33.8767 4.90202 32.5696C4.00249 31.1325 3.4519 29.5047 3.29434 27.8166L3.24635 27.3676L3.22035 27.1206C3.0036 25.2892 3.24902 23.4327 3.93421 21.7206C4.54542 20.2876 5.57343 19.0716 6.88463 18.2306C8.34032 17.337 9.9827 16.7919 11.6837 16.6376L12.1356 16.5906L18.5843 16.0376L18.3444 13.3026L11.8907 13.8526Z" fill="black"/>
<path id="&#208;&#154;&#208;&#190;&#208;&#189;&#209;&#130;&#209;&#131;&#209;&#128; 6 (Stroke)" fill-rule="evenodd" clip-rule="evenodd" d="M18.6851 12.8972L18.9906 16.3792L12.1709 16.964L11.7175 17.0111C10.0752 17.16 8.48952 17.6861 7.08384 18.5483C5.83861 19.3478 4.86206 20.5029 4.28065 21.8639C3.61993 23.5167 3.38338 25.3088 3.59261 27.0765L3.59318 27.0814L3.6676 27.7818C3.81961 29.4104 4.35046 30.9808 5.21774 32.3674C6.03048 33.6091 7.19722 34.5781 8.56685 35.149C10.2402 35.8056 12.0494 36.0402 13.8348 35.8321L13.8453 35.8309L16.3054 35.6141L16.6121 39.0974L14.1415 39.314L13.6323 39.3457C11.4378 39.5259 9.23156 39.1891 7.1907 38.3622L7.18684 38.3606C5.17431 37.5189 3.4604 36.0929 2.26661 34.2668L2.26378 34.2625C1.00083 32.2713 0.259891 29.9939 0.109235 27.6407L0.0813145 27.3943L0.0469431 26.8827C-0.133605 24.7048 0.208297 22.5153 1.04424 20.4962L1.0458 20.4924C1.90152 18.4875 3.341 16.7868 5.17676 15.6118L5.18095 15.6091C7.19736 14.3558 9.49369 13.6237 11.8632 13.4786L18.6851 12.8972ZM18.0035 13.708L11.9134 14.227C9.66724 14.3639 7.49039 15.0572 5.57887 16.2448C3.87153 17.3383 2.53262 18.9202 1.73626 20.785C0.946197 22.6941 0.623308 24.7644 0.794466 26.8235L0.794958 26.8295L0.828329 27.3269L0.856404 27.5746L0.856992 27.5839C0.99825 29.8136 1.69941 31.9717 2.89559 33.8585C4.00685 35.5574 5.60164 36.8843 7.47417 37.6678C9.40692 38.4506 11.4963 38.7692 13.5745 38.5979L13.5819 38.5973L14.0901 38.5656L15.7993 38.4158L15.6242 36.4271L13.9164 36.5777C12.009 36.7991 10.0765 36.5477 8.2892 35.8457L8.28219 35.8429C6.77106 35.214 5.484 34.145 4.58817 32.7749L4.5841 32.7687C3.65396 31.2827 3.08451 29.5995 2.9212 27.854L2.84767 27.1623C2.62405 25.2695 2.8779 23.3508 3.58606 21.5813L3.5892 21.5734C4.22992 20.0712 5.30765 18.7966 6.68217 17.9149L6.68841 17.9109C8.1926 16.9876 9.88966 16.4241 11.6473 16.2644L12.1035 16.2169L18.1779 15.6961L18.0035 13.708Z" fill="black"/>
<path id="&#208;&#154;&#208;&#190;&#208;&#189;&#209;&#130;&#209;&#131;&#209;&#128; 7" d="M52.8316 3.34562C44.2393 -2.61737 26.6367 0.317626 17.7704 12.8646C8.90418 25.4116 10.9188 40.5176 21.4227 47.8076C31.9267 55.0976 46.9427 51.7966 55.8 39.2586C64.6573 26.7206 61.4339 9.31662 52.8316 3.34562ZM51.2469 5.58962C59.1873 11.1006 61.045 27.0616 53.5364 37.6896C45.638 48.8636 32.3526 52.0516 23.0074 45.5666C13.6622 39.0816 12.1345 25.6186 20.034 14.4396C27.5405 3.80962 43.3054 0.0786243 51.2469 5.58962Z" fill="black"/>
<path id="&#208;&#154;&#208;&#190;&#208;&#189;&#209;&#130;&#209;&#131;&#209;&#128; 7 (Stroke)" fill-rule="evenodd" clip-rule="evenodd" d="M35.3174 0.798914C41.9666 -0.773503 48.6345 -0.0235233 53.0453 3.0375L53.0453 3.03752C57.4618 6.10307 60.4535 12.0621 61.2355 18.7962C62.0188 25.5407 60.5946 33.1213 56.1062 39.475C47.1556 52.1451 31.9161 55.5467 21.209 48.1157C10.499 40.6827 8.50377 25.3285 17.4642 12.6482C21.957 6.29022 28.6579 2.37377 35.3174 0.798914ZM35.49 1.52879C28.9836 3.06744 22.45 6.89199 18.0766 13.081C9.30453 25.4947 11.3385 40.3525 21.6364 47.4995C31.9372 54.6485 46.7298 51.4481 55.4938 39.0422C59.8625 32.8579 61.2554 25.4675 60.4907 18.8827C59.7248 12.2876 56.8036 6.55913 52.6178 3.65368C48.4362 0.751724 42.0067 -0.0122904 35.49 1.52879ZM35.5743 4.32396C29.7738 5.87737 24.0357 9.42273 20.3402 14.6559L20.3401 14.656C12.5296 25.7092 14.0886 38.9211 23.2211 45.2585C32.3566 51.598 45.4199 48.5225 53.2303 37.4731C56.9265 32.2412 58.3233 25.6849 57.8115 19.753C57.2987 13.8111 54.8799 8.56752 51.0331 5.89771C47.185 3.22728 41.3845 2.76794 35.5743 4.32396ZM51.4606 5.2815L51.2468 5.5896L51.4606 5.28151C55.5543 8.12268 58.0345 13.6151 58.5585 19.6885C59.0835 25.7717 57.6548 32.51 53.8426 37.906L53.8425 37.9061C45.856 49.2047 32.3485 52.5052 22.7937 45.8747C13.2358 39.2421 11.7394 25.528 19.7278 14.2232C23.5388 8.82642 29.4364 5.19132 35.3803 3.59949C41.3146 2.01026 47.3673 2.44092 51.4606 5.2815Z" fill="black"/>
<path id="&#208;&#154;&#208;&#190;&#208;&#189;&#209;&#130;&#209;&#131;&#209;&#128; 8" d="M48.4724 10.5116C47.1731 9.51346 45.7127 8.74504 44.1542 8.23962C43.8765 8.15136 43.575 8.17699 43.3161 8.31086C43.0573 8.44474 42.8621 8.67591 42.7735 8.95362C42.7297 9.09068 42.7136 9.23509 42.7262 9.37844C42.7388 9.52178 42.7798 9.66119 42.8468 9.78852C42.9138 9.91586 43.0055 10.0286 43.1165 10.1201C43.2275 10.2116 43.3556 10.2801 43.4934 10.3216C44.8124 10.7534 46.0479 11.4075 47.1466 12.2556C48.3006 13.1063 49.3736 14.0617 50.352 15.1096C50.5501 15.3249 50.8245 15.454 51.1166 15.4693C51.4087 15.4847 51.6952 15.385 51.9147 15.1916C52.0219 15.0954 52.109 14.9791 52.1711 14.8491C52.2332 14.7192 52.2691 14.5783 52.2766 14.4344C52.2841 14.2906 52.2632 14.1467 52.215 14.011C52.1668 13.8753 52.0923 13.7505 51.9957 13.6436C50.9216 12.4919 49.742 11.4433 48.4724 10.5116Z" fill="black"/>
<path id="&#208;&#154;&#208;&#190;&#208;&#189;&#209;&#130;&#209;&#131;&#209;&#128; 8 (Stroke)" fill-rule="evenodd" clip-rule="evenodd" d="M43.144 7.97775C43.4911 7.79823 43.8953 7.76388 44.2678 7.88222L44.2699 7.8829L44.2699 7.88291C45.8677 8.4011 47.3652 9.18871 48.6975 10.2117C49.9847 11.1567 51.1807 12.22 52.2699 13.3878L52.2739 13.3921L52.2739 13.3921C52.4035 13.5356 52.5036 13.7032 52.5683 13.8855C52.6331 14.0677 52.6612 14.2609 52.6511 14.454C52.641 14.6472 52.5928 14.8364 52.5094 15.0109C52.4261 15.1853 52.309 15.3416 52.1651 15.4708L52.1626 15.473L52.1626 15.473C51.8695 15.7312 51.487 15.8643 51.097 15.8438C50.7075 15.8234 50.3415 15.6514 50.0771 15.3646C49.1147 14.3339 48.0593 13.3942 46.9243 12.5575L46.9176 12.5526L46.9176 12.5525C45.8538 11.7313 44.6576 11.0978 43.3807 10.6793C43.197 10.6233 43.0262 10.5316 42.878 10.4095C42.7286 10.2863 42.6052 10.1346 42.515 9.96318C42.4248 9.79179 42.3697 9.60416 42.3528 9.41123C42.3358 9.21836 42.3575 9.02405 42.4164 8.83963M44.0398 8.59672C43.857 8.53891 43.6587 8.55589 43.4884 8.64397C43.3178 8.73221 43.1891 8.88457 43.1307 9.06761L43.1307 9.06779C43.102 9.15744 43.0915 9.25189 43.0997 9.34565C43.108 9.43941 43.1348 9.53059 43.1786 9.61387C43.2224 9.69715 43.2824 9.77087 43.355 9.83074C43.4276 9.8906 43.5114 9.93541 43.6015 9.96254L43.6101 9.96512L43.61 9.96522C44.9683 10.4099 46.2407 11.0832 47.3725 11.9562C48.5437 12.8199 49.6329 13.7899 50.6261 14.8537L50.628 14.8557L50.6279 14.8557C50.7596 14.9988 50.9421 15.0847 51.1363 15.0949C51.33 15.105 51.5199 15.0391 51.6657 14.9113C51.7355 14.8483 51.7924 14.7723 51.8329 14.6874C51.8737 14.602 51.8973 14.5094 51.9022 14.4148C51.9072 14.3203 51.8934 14.2257 51.8617 14.1366C51.8304 14.0482 51.782 13.9668 51.7194 13.897C50.6618 12.7634 49.5005 11.7312 48.2506 10.814L48.244 10.8091L48.244 10.809C46.979 9.83717 45.5571 9.08894 44.0398 8.59672ZM43.144 7.97775C42.7969 8.15723 42.5352 8.46715 42.4164 8.83945L43.144 7.97775Z" fill="black"/>
<path id="&#208;&#154;&#208;&#190;&#208;&#189;&#209;&#130;&#209;&#131;&#209;&#128; 9" d="M36.0958 42.2616C36.0803 42.1176 36.0363 41.9781 35.9664 41.8513C35.8964 41.7244 35.8019 41.6128 35.6884 41.5229C35.5749 41.433 35.4446 41.3666 35.3051 41.3275C35.1656 41.2885 35.0198 41.2777 34.8761 41.2956C32.2465 41.5259 29.6253 40.7695 27.5225 39.1736C26.4744 38.4684 25.5396 37.6079 24.75 36.6216C24.6619 36.507 24.552 36.4109 24.4267 36.3388C24.3013 36.2667 24.163 36.2201 24.0196 36.2015C23.8763 36.1829 23.7306 36.1928 23.5911 36.2306C23.4515 36.2683 23.3208 36.3333 23.2063 36.4216C23.0914 36.508 22.9949 36.6164 22.9225 36.7405C22.85 36.8647 22.8031 37.002 22.7845 37.1446C22.7659 37.2871 22.7759 37.4319 22.814 37.5705C22.8521 37.7091 22.9175 37.8387 23.0064 37.9516C23.9345 39.1136 25.0331 40.1284 26.2647 40.9616C28.8095 42.8618 31.9676 43.7524 35.13 43.4616C35.2731 43.4485 35.4121 43.4068 35.5387 43.3389C35.6653 43.271 35.777 43.1783 35.8671 43.0663C35.9572 42.9544 36.0239 42.8254 36.0632 42.6872C36.1025 42.549 36.1136 42.4042 36.0958 42.2616Z" fill="black"/>
<path id="&#208;&#154;&#208;&#190;&#208;&#189;&#209;&#130;&#209;&#131;&#209;&#128; 9 (Stroke)" fill-rule="evenodd" clip-rule="evenodd" d="M23.4932 35.8686C23.6803 35.8179 23.8756 35.8047 24.0679 35.8296C24.2601 35.8545 24.4456 35.9171 24.6136 36.0138C24.7805 36.1098 24.927 36.2375 25.0448 36.3899C25.8102 37.3454 26.7162 38.1791 27.7318 38.8625L27.7407 38.8684L27.7492 38.8749C29.7762 40.4132 32.3024 41.1429 34.8371 40.9226C35.0278 40.8998 35.2211 40.9146 35.4061 40.9664C35.5935 41.0188 35.7686 41.1081 35.9212 41.2289C36.0738 41.3497 36.2007 41.4997 36.2947 41.6702C36.3882 41.8397 36.4472 42.026 36.4683 42.2184C36.4917 42.4099 36.4766 42.6042 36.4239 42.7897C36.3708 42.9763 36.2808 43.1504 36.1592 43.3015C36.0376 43.4526 35.8869 43.5777 35.7159 43.6694C35.545 43.761 35.3575 43.8174 35.1644 43.8351C31.9126 44.134 28.6653 43.2194 26.0475 41.2674C24.7874 40.4139 23.6634 39.3749 22.7135 38.1857L22.7118 38.1835L22.7118 38.1835C22.592 38.0313 22.5039 37.8567 22.4525 37.6699C22.4012 37.4832 22.3877 37.288 22.4128 37.0959C22.4379 36.9039 22.5011 36.7188 22.5987 36.5515C22.6959 36.3849 22.8253 36.2394 22.9792 36.1233C23.1322 36.0056 23.3069 35.919 23.4932 35.8686ZM23.9715 36.5734C23.877 36.5611 23.781 36.5677 23.6891 36.5926C23.5971 36.6174 23.5109 36.6602 23.4355 36.7185L23.4316 36.7215L23.4315 36.7215C23.3566 36.7778 23.2936 36.8485 23.2463 36.9295C23.1991 37.0105 23.1685 37.1002 23.1563 37.1932C23.1441 37.2862 23.1507 37.3806 23.1756 37.4711C23.2003 37.5611 23.2427 37.6453 23.3003 37.7188C24.2046 38.8507 25.2749 39.8393 26.4748 40.651L26.4821 40.6559L26.4891 40.6611C28.9596 42.5059 32.0256 43.3705 35.0957 43.0882L35.0959 43.0882C35.1889 43.0797 35.2793 43.0525 35.3616 43.0084C35.4439 42.9642 35.5165 42.904 35.5751 42.8312C35.6337 42.7584 35.6771 42.6746 35.7026 42.5847C35.7281 42.4948 35.7354 42.4007 35.7238 42.308L35.723 42.3017L35.7231 42.3017C35.7129 42.2072 35.6841 42.1156 35.6381 42.0324C35.5922 41.9492 35.5302 41.8759 35.4557 41.8169C35.3812 41.7579 35.2957 41.7143 35.2041 41.6887C35.1126 41.6631 35.0169 41.656 34.9226 41.6677L34.9088 41.6695L34.9088 41.6692C32.19 41.9072 29.48 41.1265 27.3044 39.4788C26.2284 38.7535 25.2685 37.8692 24.4574 36.856L24.4529 36.8503L24.4529 36.8503C24.3948 36.7748 24.3224 36.7114 24.2398 36.6639C24.1572 36.6164 24.066 36.5856 23.9715 36.5734Z" fill="black"/>
</g>
</g>
</svg>
