<svg width="170" height="26" viewBox="0 0 170 26" fill="none" xmlns="http://www.w3.org/2000/svg">
<path id="Logo" d="M7.37999 7.036C7.28221 6.61744 7.27403 6.18293 7.35599 5.76099C7.44168 5.25758 7.71818 4.80659 8.12795 4.50187C8.53773 4.19715 9.04921 4.06216 9.55598 4.125C9.85268 4.09988 10.1513 4.13928 10.4313 4.2405C10.7114 4.34172 10.9662 4.50236 11.1782 4.71139C11.3903 4.92041 11.5546 5.17286 11.6599 5.4514C11.7651 5.72994 11.8088 6.02796 11.788 6.325V7.825H17.779V6.12C17.779 0.841995 13.068 0 9.67199 0C5.40599 0 1.91999 1.431 1.28299 5.394C1.08659 6.47712 1.10288 7.5881 1.33099 8.66499C2.37099 13.627 10.907 15.065 12.149 18.199C12.3368 18.7797 12.3527 19.4024 12.195 19.992C12.0878 20.5133 11.785 20.9737 11.3489 21.2787C10.9128 21.5837 10.3764 21.7101 9.84999 21.632C9.54226 21.6682 9.23034 21.6375 8.93559 21.5419C8.64085 21.4464 8.37024 21.2882 8.1423 21.0783C7.91437 20.8684 7.73449 20.6118 7.615 20.3259C7.4955 20.04 7.43922 19.7317 7.44999 19.422L7.44099 17.087H0.997986V18.942C0.997986 24.369 5.21499 26 9.72899 26C14.068 26 17.629 24.5 18.213 20.443C18.4217 19.1262 18.4129 17.784 18.187 16.47C17.172 11.385 8.06299 9.873 7.37999 7.036ZM85.488 7.09499C85.4 6.68194 85.3929 6.25576 85.467 5.84C85.5528 5.3422 85.8264 4.89629 86.2312 4.59415C86.636 4.29202 87.1413 4.15667 87.643 4.216C87.9368 4.19155 88.2324 4.23117 88.5094 4.33212C88.7864 4.43306 89.0382 4.59294 89.2473 4.80069C89.4565 5.00844 89.6181 5.25912 89.7209 5.53542C89.8238 5.81171 89.8654 6.10703 89.843 6.40099V7.88499H95.763V6.194C95.763 0.965 91.124 0.142998 87.763 0.142998C83.531 0.142998 80.078 1.553 79.446 5.487C79.2498 6.55773 79.2692 7.65684 79.503 8.71999C80.531 13.627 88.983 15.05 90.21 18.152C90.3872 18.7291 90.4024 19.3438 90.254 19.929C90.1516 20.4454 89.8537 20.9023 89.4226 21.2043C88.9914 21.5063 88.4603 21.6302 87.94 21.55C87.6346 21.588 87.3246 21.5596 87.0312 21.4667C86.7378 21.3738 86.468 21.2186 86.2401 21.0118C86.0122 20.805 85.8317 20.5514 85.7108 20.2684C85.59 19.9854 85.5317 19.6796 85.54 19.372V17.043H79.167V18.895C79.167 24.26 83.325 25.879 87.803 25.879C92.093 25.879 95.635 24.397 96.203 20.379C96.4076 19.0745 96.3941 17.7451 96.163 16.445C95.177 11.418 86.168 9.90399 85.488 7.09499ZM140.022 20.318L134.368 0.779999H125.455V24.795H131.35L131.009 4.632L137.082 24.795H145.631V0.779999H139.698L140.022 20.318ZM26.708 0.779999L22.259 25.048H28.747L32.098 2.583L35.37 25.048H41.813L37.383 0.779999H26.708ZM62.985 0.779999L59.955 19.749L56.928 0.779999H47.128L46.609 25.048H52.609L52.771 2.583L56.901 25.048H62.991L67.128 2.583L67.291 25.048H73.309L72.771 0.779999H62.985ZM118.794 0.779999H112.721V18.733C112.737 19.041 112.719 19.3499 112.667 19.654C112.532 20.161 112.233 20.6092 111.818 20.929C111.402 21.2488 110.892 21.4221 110.367 21.4221C109.842 21.4221 109.332 21.2488 108.916 20.929C108.501 20.6092 108.202 20.161 108.067 19.654C108.01 19.3505 107.989 19.0414 108.005 18.733V0.779999H101.934V18.173C101.927 18.62 101.961 19.538 101.986 19.773C102.407 24.307 105.942 25.779 110.357 25.779C114.772 25.779 118.313 24.306 118.741 19.773C118.791 19.2412 118.808 18.7069 118.791 18.173L118.794 0.779999ZM160.498 11.425V14.965H162.96V18.473C162.971 18.7821 162.949 19.0914 162.896 19.396C162.725 19.9112 162.396 20.3593 161.955 20.677C161.515 20.9946 160.986 21.1655 160.443 21.1655C159.9 21.1655 159.371 20.9946 158.931 20.677C158.49 20.3593 158.161 19.9112 157.99 19.396C157.945 19.0905 157.923 18.7819 157.926 18.473V7.38499C157.918 6.99979 157.954 6.61497 158.034 6.238C158.194 5.7284 158.513 5.28319 158.943 4.96712C159.374 4.65106 159.894 4.48064 160.428 4.48064C160.963 4.48064 161.483 4.65106 161.914 4.96712C162.344 5.28319 162.663 5.7284 162.823 6.238C162.87 6.54746 162.896 6.85993 162.898 7.173V8.52H168.947V7.71999C168.962 7.18393 168.947 6.64744 168.903 6.113C168.447 1.561 164.734 0.120995 160.48 0.120995C156.226 0.120995 152.58 1.574 152.049 6.113C152.001 6.528 151.928 7.27499 151.928 7.71999V17.92C151.931 18.4548 151.965 18.989 152.028 19.52C152.428 23.947 156.22 25.52 160.468 25.52C164.739 25.52 168.512 23.951 168.913 19.52C168.985 18.707 168.992 18.364 169.002 17.92V11.42L160.498 11.425Z" fill="#1A1818"/>
</svg>
