<?xml version="1.0" standalone="no"?>
<!DOCTYPE svg PUBLIC "-//W3C//DTD SVG 1.1//EN" "http://www.w3.org/Graphics/SVG/1.1/DTD/svg11.dtd" >
<svg xmlns="http://www.w3.org/2000/svg" xmlns:xlink="http://www.w3.org/1999/xlink" version="1.1">
<metadata>
Created by FontForge 20170104 at Mon Nov 27 17:36:35 2017
 By Joshua Finklea
Samsung Sharp Sans is a customized version of Sharp Sans, which is copyright (c) 2017 by Lucas Sharp. All rights reserved.
</metadata>
<defs>
<font id="SamsungSharpSans-Bold" horiz-adv-x="646" >
  <font-face 
    font-family="Samsung Sharp Sans"
    font-weight="700"
    font-stretch="normal"
    units-per-em="1000"
    panose-1="0 0 0 0 0 0 0 0 0 0"
    ascent="800"
    descent="-200"
    x-height="585"
    cap-height="730"
    bbox="-341 -283 1414 1100"
    underline-thickness="50"
    underline-position="-100"
    unicode-range="U+000D-FF3F"
  />
<missing-glyph horiz-adv-x="926" 
d="M100 730h726v-730h-726v730zM236 130h454v470h-454v-470zM260 240l123 127l-124 129l80 78l122 -126l124 127l80 -78l-126 -130l125 -128l-80 -78l-123 126l-121 -125z" />
    <glyph glyph-name="interrobang" unicode="&#x21;&#x3f;" horiz-adv-x="517" 
d="M197 187q-2 45 -4.5 98.5t-4 109.5t-2.5 112t-1 106v2q-24 -12 -38.5 -33t-20.5 -46l-126 43q19 72 80.5 116.5t157.5 44.5q55 0 100.5 -15t77.5 -42.5t50 -66t18 -85.5q0 -48 -14 -77t-35.5 -49.5t-46.5 -37t-46.5 -37.5t-35.5 -51.5t-14 -79.5v-12h-95zM163 69
q0 37 22 59.5t60 22.5t59.5 -22.5t21.5 -59.5q0 -36 -22 -58.5t-60 -22.5t-59.5 22.5t-21.5 58.5zM348 533q0 26 -12 46.5t-37 33.5q0 -45 -1.5 -93t-4.5 -97q11 12 21 23t17.5 23.5t12 28t4.5 35.5z" />
    <glyph glyph-name="interrobangdown" unicode="&#xa1;&#xbf;" horiz-adv-x="517" 
d="M279 -240q-55 0 -100.5 15t-78 42.5t-50.5 66t-18 85.5t14.5 76.5t35.5 50t46.5 37t46.5 37.5t35.5 51.5t14.5 79.5v12h95q2 -45 4 -98.5t4 -109.5t3 -112t1 -106v-2q23 12 38 33t21 46l126 -43q-19 -72 -80.5 -116.5t-157.5 -44.5zM194 431q0 37 22 59.5t60 22.5
t59.5 -22.5t21.5 -59.5q0 -36 -22 -58.5t-60 -22.5t-59.5 22.5t-21.5 58.5zM168 -33q0 -26 12.5 -46.5t37.5 -33.5q0 45 1 93t4 97q-11 -12 -21 -23t-17.5 -23.5t-12 -28t-4.5 -35.5z" />
    <glyph glyph-name=".notdef" horiz-adv-x="926" 
d="M100 730h726v-730h-726v730zM236 130h454v470h-454v-470zM260 240l123 127l-124 129l80 78l122 -126l124 127l80 -78l-126 -130l125 -128l-80 -78l-123 126l-121 -125z" />
    <glyph glyph-name="NULL" horiz-adv-x="0" 
 />
    <glyph glyph-name="NULL" horiz-adv-x="0" 
 />
    <glyph glyph-name="nonmarkingreturn" unicode="&#xd;" horiz-adv-x="245" 
 />
    <glyph glyph-name="space" unicode=" " horiz-adv-x="245" 
 />
    <glyph glyph-name="exclam" unicode="!" horiz-adv-x="209" 
d="M68 198q-7 45 -12.5 96.5t-9.5 105.5t-6.5 108.5t-2.5 104.5v117h134v-117q0 -50 -2 -104.5t-6 -108.5t-9.5 -105.5t-12.5 -96.5h-73zM22 69q0 37 22 59.5t60 22.5t59.5 -22.5t21.5 -59.5q0 -36 -22 -58.5t-60 -22.5t-59.5 22.5t-21.5 58.5z" />
    <glyph glyph-name="quotedbl" unicode="&#x22;" horiz-adv-x="323" 
d="M70 500q-4 9 -9.5 28.5t-11 41.5t-9.5 43t-4 33v84h105v-84q0 -13 -4 -34t-9.5 -43t-11 -41t-9.5 -28h-37zM215 500q-4 9 -9.5 28.5t-11 41.5t-9 43t-3.5 33v84h105v-84q0 -13 -4 -34t-9.5 -43t-11.5 -41t-10 -28h-37z" />
    <glyph glyph-name="numbersign" unicode="#" horiz-adv-x="802" 
d="M484 155h-174v-155h-136v155h-148v130h148v170h-148v130h148v145h136v-145h174v145h136v-145h156v-130h-156v-170h156v-130h-156v-155h-136v155zM310 285h174v170h-174v-170z" />
    <glyph glyph-name="dollar" unicode="$" horiz-adv-x="588" 
d="M564 217q0 -38 -13 -73.5t-38 -65.5t-61.5 -51.5t-83.5 -30.5v-116h-136v117q-72 12 -126 45.5t-93 78.5l124 97q17 -29 42.5 -50.5t55.5 -33.5v193q-35 10 -70 26t-62.5 40t-45 57.5t-17.5 80.5q0 38 14 71.5t39.5 60.5t60.5 45.5t78 26.5v105h136v-108q57 -11 98 -37
t76 -61l-113 -85q-25 36 -65 54v-174q35 -12 71 -28.5t64.5 -41t46.5 -59.5t18 -83zM426 218q0 26 -17.5 42.5t-44.5 28.5v-159q29 13 45.5 36.5t16.5 51.5zM176 536q0 -26 16 -41t43 -26v141q-28 -10 -43.5 -29.5t-15.5 -44.5z" />
    <glyph glyph-name="percent" unicode="%" horiz-adv-x="825" 
d="M136 562q0 -27 19.5 -46.5t45.5 -19.5t45.5 19.5t19.5 46.5q0 26 -19.5 45.5t-45.5 19.5t-45.5 -19.5t-19.5 -45.5zM446 168q0 37 14 69.5t38.5 56.5t57 38t69.5 14t69.5 -14t56.5 -38t38 -56.5t14 -69.5t-14 -69.5t-38 -57t-56.5 -38.5t-69.5 -14t-69.5 14t-57 38.5
t-38.5 57t-14 69.5zM640 730h172l-627 -730h-172zM560 168q0 -27 19 -46t46 -19q26 0 45 19t19 46q0 26 -19 45.5t-45 19.5q-27 0 -46 -19.5t-19 -45.5zM22 562q0 37 14 69.5t38.5 56.5t57 38t69.5 14t69.5 -14t56.5 -38t38 -56.5t14 -69.5t-14 -69.5t-38 -57t-56.5 -38.5
t-69.5 -14t-69.5 14t-57 38.5t-38.5 57t-14 69.5z" />
    <glyph glyph-name="ampersand" unicode="&#x26;" horiz-adv-x="749" 
d="M506 56q-44 -31 -93.5 -49t-103.5 -18q-80 0 -134.5 21.5t-89 55.5t-49.5 76.5t-15 84.5q0 69 35.5 121t90.5 84q-17 27 -25.5 56t-8.5 64q0 40 15.5 74t43.5 59.5t66.5 40t83.5 14.5q46 0 81 -11t61 -29.5t43.5 -43t27.5 -52.5l-132 -47q-8 26 -26 44t-50 18
q-31 0 -51 -19t-20 -48q0 -21 5.5 -38t19 -36t37 -43.5t59.5 -60.5l139 -140q22 31 36.5 65t22.5 69h-123v129h258v-63q0 -69 -29 -144t-80 -141l148 -149h-186zM308 108q59 0 112 33l-155 156q-22 20 -41 41q-33 -20 -50.5 -46t-17.5 -64q0 -24 10 -45.5t29 -38t47.5 -26.5
t65.5 -10z" />
    <glyph glyph-name="quotesingle" unicode="'" horiz-adv-x="177" 
d="M70 500q-4 9 -9.5 28.5t-11 41.5t-9.5 43t-4 33v84h105v-84q0 -13 -4 -34t-9.5 -43t-11 -41t-9.5 -28h-37z" />
    <glyph glyph-name="parenleft" unicode="(" horiz-adv-x="388" 
d="M300 -254q-62 42 -113 94t-88 114.5t-57 136t-20 159.5t19 157.5t54 131.5t84.5 110.5t109.5 94.5l91 -98q-47 -32 -86.5 -71.5t-68.5 -88.5t-45 -107.5t-16 -128.5q0 -132 57 -229t164 -163l-85 -112v0z" />
    <glyph glyph-name="parenright" unicode=")" horiz-adv-x="388" 
d="M224 248q0 70 -16 128.5t-45 107.5t-68.5 88.5t-86.5 71.5l91 98q61 -44 110.5 -94.5t84.5 -110.5t54 -131.5t19 -157.5t-20.5 -159.5t-57 -136t-88 -114.5t-113.5 -94l-84 112q107 66 163.5 163t56.5 229z" />
    <glyph glyph-name="asterisk" unicode="*" horiz-adv-x="405" 
d="M238 492l23 -115h-117l22 114l-89 -76l-57 102l110 37l-110 39l60 100l87 -76l-23 114h117l-24 -116l90 78l58 -102l-112 -38l112 -38l-60 -100z" />
    <glyph glyph-name="plus" unicode="+" horiz-adv-x="442" 
d="M36 422h129v127h113v-127h128v-115h-128v-128h-113v128h-129v115z" />
    <glyph glyph-name="comma" unicode="," horiz-adv-x="207" 
d="M56 87h119l-70 -204h-84z" />
    <glyph glyph-name="hyphen" unicode="-" horiz-adv-x="442" 
d="M36 312h370v-115h-370v115z" />
    <glyph glyph-name="period" unicode="." horiz-adv-x="207" 
d="M22 69q0 37 22 59.5t60 22.5t59.5 -22.5t21.5 -59.5q0 -36 -22 -58.5t-60 -22.5t-59.5 22.5t-21.5 58.5z" />
    <glyph glyph-name="slash" unicode="/" horiz-adv-x="511" 
d="M357 730h144l-346 -730h-144z" />
    <glyph glyph-name="zero" unicode="0" horiz-adv-x="588" 
d="M293 125q55 0 84 31.5t29 76.5v259q0 52 -28.5 83t-82.5 31q-55 0 -84 -33t-29 -81v-258q0 -48 28 -78.5t83 -30.5zM294 -10q-60 0 -106.5 17.5t-78 49t-47.5 75t-16 96.5v268q0 52 18 96.5t51 77.5t78.5 51.5t100.5 18.5q57 0 102.5 -19t78 -52t50 -77.5t17.5 -94.5
v-269q0 -54 -17 -97.5t-48.5 -75t-78 -48.5t-104.5 -17z" />
    <glyph glyph-name="one" unicode="1" horiz-adv-x="331" 
d="M124 0v603h-89v127h225v-730h-136z" />
    <glyph glyph-name="two" unicode="2" horiz-adv-x="536" 
d="M36 128q0 47 17 85t44.5 69.5t62 57.5t68.5 49q27 19 52 36.5t44 35t30.5 36t11.5 39.5q0 36 -25.5 61.5t-74.5 25.5q-48 0 -78.5 -29t-49.5 -75l-117 59q34 75 95.5 118.5t150.5 43.5q55 0 99 -16t75 -43.5t47 -65t16 -80.5q0 -44 -16 -78t-42 -62.5t-58.5 -52.5
t-65.5 -46q-29 -19 -55.5 -37.5t-47.5 -38.5t-34 -42t-13 -48h329v-130h-465v128z" />
    <glyph glyph-name="three" unicode="3" horiz-adv-x="502" 
d="M237 -10q-70 0 -128.5 23.5t-105.5 78.5l118 88q23 -35 52 -50.5t63 -15.5q47 0 77.5 25.5t30.5 71.5t-34.5 73.5t-90.5 27.5h-75v125h75q60 0 88 29t28 68q0 40 -28 64t-75 24q-43 0 -68.5 -19t-42.5 -51l-116 60q32 60 92.5 94t132.5 34q53 0 97 -14.5t75 -41t48 -64.5
t17 -85q0 -50 -22 -89.5t-61 -67.5q45 -26 70.5 -68t25.5 -99q0 -47 -16 -87.5t-46.5 -70t-76 -46.5t-104.5 -17z" />
    <glyph glyph-name="four" unicode="4" horiz-adv-x="623" 
d="M348 168h-313v124l306 438h139v-438h107v-124h-107v-168h-132v168zM348 292v235l-166 -235h166z" />
    <glyph glyph-name="five" unicode="5" horiz-adv-x="541" 
d="M270 -10q-48 0 -87.5 11.5t-71 31t-54 45t-36.5 52.5l126 73q16 -35 45.5 -61.5t78.5 -26.5q22 0 42.5 8.5t36 23.5t24.5 36t9 47q0 51 -30.5 86t-84.5 35q-43 0 -70.5 -21t-46.5 -53l-121 62l52 391h406v-127h-298l-21 -162q21 14 50 24t64 10q49 0 92 -16t75 -47
t51 -76.5t19 -105.5q0 -53 -18.5 -97.5t-52 -76t-79.5 -49t-100 -17.5z" />
    <glyph glyph-name="six" unicode="6" horiz-adv-x="562" 
d="M282 -10q-57 0 -105 19t-82.5 52.5t-54 79t-19.5 97.5q0 51 15 101t41 88l189 303h160l-160 -248q21 6 43 6q48 0 90 -18.5t73.5 -51.5t49.5 -78.5t18 -100.5t-19.5 -100.5t-54 -78.5t-82 -51.5t-102.5 -18.5zM279 113q26 0 49 10t40.5 27.5t27.5 41t10 50.5q0 26 -10 49
t-27.5 40.5t-40.5 27.5t-49 10t-48.5 -10t-39.5 -27.5t-27 -40.5t-10 -50q0 -26 10 -49.5t27 -41t39.5 -27.5t48.5 -10z" />
    <glyph glyph-name="seven" unicode="7" horiz-adv-x="530" 
d="M353 600h-318v130h460v-118l-253 -612h-144z" />
    <glyph glyph-name="eight" unicode="8" horiz-adv-x="588" 
d="M293 -10q-125 0 -192 61t-67 167q0 57 23.5 99.5t66.5 71.5q-31 26 -48 61.5t-17 81.5q0 47 17 85.5t48.5 65.5t75.5 42t98 15q53 0 96.5 -15t75 -42t48.5 -65.5t17 -85.5t-18.5 -82.5t-50.5 -61.5q42 -29 65 -71.5t23 -98.5q0 -106 -68.5 -167t-192.5 -61zM293 110
q65 0 98 31.5t33 76.5t-32.5 76.5t-95.5 31.5q-64 0 -97.5 -31.5t-33.5 -76.5t31 -76.5t97 -31.5zM295 440q57 0 86.5 27t29.5 65t-29 65.5t-83 27.5q-55 0 -85.5 -27.5t-30.5 -65.5q0 -39 27.5 -65.5t84.5 -26.5z" />
    <glyph glyph-name="nine" unicode="9" horiz-adv-x="562" 
d="M296 251q-21 -6 -42 -6q-48 0 -90.5 18t-74.5 50.5t-50.5 77.5t-18.5 100q0 56 20 102t55 78.5t82.5 50.5t101.5 18q57 0 104.5 -19t82 -52.5t54 -79t19.5 -97.5q0 -51 -15 -101t-41 -88l-188 -303h-160zM281 362q26 0 49 10t40 27.5t27 41t10 50.5q0 26 -10 49.5t-27 41
t-40 28t-49 10.5t-49 -10.5t-40 -28.5t-27.5 -41.5t-10.5 -49.5q0 -27 10.5 -50t27.5 -40.5t40 -27.5t49 -10z" />
    <glyph glyph-name="colon" unicode=":" horiz-adv-x="207" 
d="M22 69q0 37 22 59.5t60 22.5t59.5 -22.5t21.5 -59.5q0 -36 -22 -58.5t-60 -22.5t-59.5 22.5t-21.5 58.5zM22 430q0 37 22 59.5t60 22.5t59.5 -22.5t21.5 -59.5q0 -36 -22 -58.5t-60 -22.5t-59.5 22.5t-21.5 58.5z" />
    <glyph glyph-name="semicolon" unicode=";" horiz-adv-x="207" 
d="M56 87h119l-70 -204h-84zM22 430q0 37 22 59.5t60 22.5t59.5 -22.5t21.5 -59.5q0 -36 -22 -58.5t-60 -22.5t-59.5 22.5t-21.5 58.5z" />
    <glyph glyph-name="less" unicode="&#x3c;" horiz-adv-x="442" 
d="M36 306v115l370 133v-118l-224 -73l224 -73v-118z" />
    <glyph glyph-name="equal" unicode="=" horiz-adv-x="442" 
d="M36 504h370v-115h-370v115zM36 337h370v-115h-370v115z" />
    <glyph glyph-name="greater" unicode="&#x3e;" horiz-adv-x="442" 
d="M36 290l223 73l-223 73v118l370 -133v-115l-370 -134v118z" />
    <glyph glyph-name="question" unicode="?" horiz-adv-x="517" 
d="M181 199q0 61 12.5 101t30.5 67t40 45t40 35t30.5 36.5t12.5 49.5q0 38 -26 63.5t-70 25.5q-40 0 -65.5 -24.5t-34.5 -61.5l-126 43q18 71 75.5 116t152.5 45q51 0 93.5 -15t73 -42.5t47.5 -66t17 -85.5q0 -48 -13.5 -78t-33.5 -51.5t-44 -39t-44 -38.5t-33.5 -50
t-13.5 -75v-11h-121v11zM159 69q0 37 22 59.5t60 22.5t59.5 -22.5t21.5 -59.5q0 -36 -22 -58.5t-60 -22.5t-59.5 22.5t-21.5 58.5z" />
    <glyph glyph-name="at" unicode="@" horiz-adv-x="789" 
d="M395 -125q-78 0 -146 29.5t-118.5 80t-79.5 119t-29 146.5t29 146t79.5 119t118.5 80.5t146 29.5q85 0 154 -29t118 -76t75 -108t26 -124q0 -43 -12 -81t-34.5 -67t-54.5 -46t-71 -17q-45 0 -74 16t-46 39q-19 -25 -50.5 -39.5t-75.5 -14.5q-30 0 -59.5 12t-52 34.5
t-35 56t-7.5 77.5q5 46 23.5 80t44.5 56t55.5 33t55.5 11q32 0 56.5 -10t40.5 -27q1 20 3 26q1 4 1 5h107l-19 -181q-4 -32 6 -50t35 -18q24 0 39.5 29t15.5 76q0 43 -18.5 84.5t-52.5 74.5t-83.5 53t-110.5 20q-56 0 -104.5 -21.5t-84.5 -58t-57 -86t-21 -105.5t21 -105
t57 -86t84.5 -58t104.5 -21q60 0 110 23.5t88 64.5l81 -67q-51 -57 -123 -91t-156 -34zM375 179q35 0 58.5 24t26.5 58q4 33 -15 57t-53 24q-17 0 -32 -6t-27 -17t-19.5 -26t-8.5 -32q-5 -35 15.5 -58.5t54.5 -23.5z" />
    <glyph glyph-name="A" unicode="A" horiz-adv-x="687" 
d="M275 730h137l260 -730h-142l-45 130h-283l-45 -130h-142zM248 260h192l-96 277z" />
    <glyph glyph-name="B" unicode="B" horiz-adv-x="573" 
d="M42 730h230q121 0 187.5 -52t66.5 -152q0 -95 -80 -142q51 -23 78.5 -65t27.5 -103q0 -108 -70.5 -162t-191.5 -54h-248v730zM178 312v-187h112q62 0 93.5 24.5t31.5 69.5q0 22 -6.5 39.5t-21.5 29.5t-40 18t-63 6h-106zM178 605v-166h94q65 0 91 24t26 63q0 41 -27 60
t-90 19h-94z" />
    <glyph glyph-name="C" unicode="C" horiz-adv-x="738" 
d="M397 -10q-84 0 -153.5 29.5t-118.5 80t-76 119t-27 146.5q0 82 29 150.5t79.5 118.5t119 78t147.5 28q51 0 98.5 -13t89 -36.5t75 -57t57.5 -74.5l-119 -76q-32 57 -81 90t-120 33q-52 0 -96 -18.5t-76 -51t-50 -76.5t-18 -95q0 -50 18 -93.5t49.5 -76t75 -51t94.5 -18.5
q76 0 128.5 38.5t81.5 98.5l124 -65q-24 -47 -58.5 -85t-77 -65.5t-92 -42.5t-103.5 -15z" />
    <glyph glyph-name="D" unicode="D" horiz-adv-x="648" 
d="M42 730h199q92 0 164 -28t121.5 -77t75 -115.5t25.5 -144.5t-28 -145t-78.5 -115.5t-120.5 -76.5t-153 -28h-205v730zM178 604v-478h53q60 0 108 18t81.5 50.5t52 76t18.5 94.5q0 52 -16.5 96t-49.5 76t-83 49.5t-117 17.5h-47z" />
    <glyph glyph-name="E" unicode="E" horiz-adv-x="509" 
d="M42 730h433v-130h-297v-168h297v-130h-297v-172h297v-130h-433v730z" />
    <glyph glyph-name="F" unicode="F" horiz-adv-x="491" 
d="M42 730h413v-130h-277v-168h277v-130h-277v-302h-136v730z" />
    <glyph glyph-name="G" unicode="G" horiz-adv-x="780" 
d="M401 -10q-86 0 -155.5 30t-119.5 81.5t-77 119.5t-27 144q0 78 28 146.5t77.5 119t118 80t149.5 29.5q57 0 107 -14t92.5 -38.5t76 -59t56.5 -75.5l-120 -72q-34 63 -86.5 95t-124.5 32q-51 0 -94.5 -19.5t-76 -52.5t-50.5 -77t-18 -94q0 -51 18 -95t50.5 -77t77.5 -52
t98 -19q82 0 136.5 43t74.5 115h-233v130h379v-54q0 -74 -25 -140.5t-71.5 -116.5t-112.5 -79.5t-148 -29.5z" />
    <glyph glyph-name="H" unicode="H" horiz-adv-x="636" 
d="M458 301h-280v-301h-136v730h136v-299h280v299h136v-730h-136v301z" />
    <glyph glyph-name="I" unicode="I" horiz-adv-x="230" 
d="M47 730h136v-730h-136v730z" />
    <glyph glyph-name="J" unicode="J" horiz-adv-x="501" 
d="M247 -10q-88 0 -149 44.5t-79 120.5l134 44q8 -35 32.5 -58.5t59.5 -23.5q42 0 60.5 27.5t18.5 65.5v520h136v-508q0 -110 -55.5 -171t-157.5 -61z" />
    <glyph glyph-name="K" unicode="K" horiz-adv-x="618" 
d="M257 351l-79 -98v-253h-136v730h136v-299l241 299h165l-231 -284l252 -446h-155z" />
    <glyph glyph-name="L" unicode="L" horiz-adv-x="481" 
d="M42 730h136v-600h267v-130h-403v730z" />
    <glyph glyph-name="M" unicode="M" horiz-adv-x="798" 
d="M42 730h135l221 -307l230 307h129v-730h-136v512l-224 -302l-219 297v-507h-136v730z" />
    <glyph glyph-name="N" unicode="N" horiz-adv-x="690" 
d="M42 730h154l316 -497v497h136v-730h-145l-325 513v-513h-136v730z" />
    <glyph glyph-name="O" unicode="O" horiz-adv-x="790" 
d="M395 -10q-78 0 -146 29.5t-118.5 80t-79.5 119t-29 146.5t29 146t79.5 119t118.5 80.5t146 29.5t146 -29.5t119 -80.5t80 -119t29 -146t-29 -146.5t-80 -119t-119 -80t-146 -29.5zM395 124q50 0 93.5 19t76 51.5t51 76.5t18.5 94t-18.5 94t-51 76.5t-76 51.5t-93.5 19
t-93.5 -19t-75.5 -51.5t-50.5 -76.5t-18.5 -94t18.5 -94t50.5 -76.5t75.5 -51.5t93.5 -19z" />
    <glyph glyph-name="P" unicode="P" horiz-adv-x="581" 
d="M42 730h250q57 0 105 -20.5t83 -55.5t55 -82.5t20 -101.5t-20 -102t-55 -83t-83.5 -55.5t-105.5 -20.5h-113v-209h-136v730zM178 604v-269h104q30 0 55 10.5t43 29t28 43t10 52.5t-10 52.5t-28 42.5t-43 28.5t-55 10.5h-104z" />
    <glyph glyph-name="Q" unicode="Q" horiz-adv-x="790" 
d="M342 359h163l92 -120q17 28 27 59.5t10 66.5q0 50 -18.5 94t-51 76.5t-76 51.5t-93.5 19t-93.5 -19t-75.5 -51.5t-50.5 -76.5t-18.5 -94t18.5 -94t50.5 -76.5t75.5 -51.5t93.5 -19q36 0 71 11l85 -111q-74 -34 -156 -34q-78 0 -146 29.5t-118.5 80t-79.5 119t-29 146.5
t29 146t79.5 119t118.5 80.5t146 29.5t146 -29.5t119 -80.5t80 -119t29 -146q0 -69 -22.5 -129t-61.5 -109l98 -127h-166z" />
    <glyph glyph-name="R" unicode="R" horiz-adv-x="584" 
d="M42 0v730h234q65 0 115.5 -18.5t85.5 -52t53.5 -80t18.5 -103.5q0 -66 -31.5 -123.5t-91.5 -89.5l146 -263h-155l-117 223h-122v-223h-136zM264 348q42 0 70.5 10.5t46 29t25 42.5t7.5 51q0 56 -35.5 89t-113.5 33h-86v-255h86z" />
    <glyph glyph-name="S" unicode="S" horiz-adv-x="563" 
d="M288 -10q-99 0 -167.5 37.5t-117.5 93.5l124 98q28 -48 69 -73.5t91 -25.5q27 0 47.5 8t35 21.5t21.5 31.5t7 37q0 23 -13 39t-34 27.5t-48.5 20.5t-56.5 18q-37 12 -74 26t-66.5 37.5t-48 58t-18.5 86.5q0 44 18 82t50.5 66.5t76.5 44.5t97 16q44 0 79.5 -8t65 -22
t54 -33.5t46.5 -42.5l-112 -85q-47 70 -132 70q-50 0 -76 -24t-26 -59q0 -22 12 -37t32.5 -26.5t47.5 -20.5l57 -19q37 -12 74.5 -27.5t68 -40t49.5 -60.5t19 -88q0 -43 -17 -84t-49 -72.5t-79 -51t-107 -19.5z" />
    <glyph glyph-name="T" unicode="T" horiz-adv-x="579" 
d="M221 600h-195v130h527v-130h-196v-600h-136v600z" />
    <glyph glyph-name="U" unicode="U" horiz-adv-x="608" 
d="M304 -10q-57 0 -105 16.5t-83.5 49.5t-55 82t-19.5 114v478h136v-486q0 -27 9.5 -50.5t26.5 -40.5t40 -27t50 -10t50 10t40.5 27t27.5 40.5t10 50.5v486h136v-478q0 -65 -20 -114t-55 -82t-83 -49.5t-105 -16.5z" />
    <glyph glyph-name="V" unicode="V" horiz-adv-x="657" 
d="M15 730h141l173 -522l172 522h141l-245 -730h-137z" />
    <glyph glyph-name="W" unicode="W" horiz-adv-x="1023" 
d="M14 730h142l138 -511l153 511h134l152 -509l137 509h137l-206 -730h-135l-153 515l-153 -515h-138z" />
    <glyph glyph-name="X" unicode="X" horiz-adv-x="630" 
d="M315 251l-151 -251h-153l223 369l-218 361h152l147 -243l147 243h153l-220 -361l224 -369h-152z" />
    <glyph glyph-name="Y" unicode="Y" horiz-adv-x="629" 
d="M245 346l-232 384h150l151 -253l152 253h150l-235 -387v-343h-136v346z" />
    <glyph glyph-name="Z" unicode="Z" horiz-adv-x="556" 
d="M36 125l323 475h-312v130h472v-124l-323 -476h323v-130h-483v125z" />
    <glyph glyph-name="bracketleft" unicode="[" horiz-adv-x="345" 
d="M36 730h273v-130h-137v-700h137v-130h-273v960z" />
    <glyph glyph-name="backslash" unicode="\" horiz-adv-x="511" 
d="M11 730h144l346 -730h-144z" />
    <glyph glyph-name="bracketright" unicode="]" horiz-adv-x="345" 
d="M36 -100h137v700h-137v130h273v-960h-273v130z" />
    <glyph glyph-name="asciicircum" unicode="^" horiz-adv-x="472" 
d="M194 719h84l119 -170h-101l-60 89l-59 -89h-102z" />
    <glyph glyph-name="underscore" unicode="_" horiz-adv-x="447" 
d="M36 -10h375v-115h-375v115z" />
    <glyph glyph-name="grave" unicode="`" horiz-adv-x="472" 
d="M105 720h127l114 -170h-91z" />
    <glyph glyph-name="a" unicode="a" horiz-adv-x="671" 
d="M308 -12q-53 0 -104.5 20.5t-92.5 59.5t-66 95.5t-25 128.5q0 73 24.5 129.5t65 95.5t92.5 59.5t108 20.5q58 0 107 -22t81 -60v70h135v-585h-135v76q-32 -41 -82 -64.5t-108 -23.5zM330 112q37 0 69.5 14t55.5 39t36.5 58t13.5 71q0 37 -13.5 70t-36.5 57.5t-55.5 38.5
t-69.5 14q-38 0 -70 -14t-56 -38t-37.5 -57t-13.5 -71t13.5 -71.5t37.5 -58t56 -38.5t70 -14z" />
    <glyph glyph-name="b" unicode="b" horiz-adv-x="668" 
d="M365 -12q-60 0 -110 23t-82 65v-76h-134v740h135v-229q31 39 80.5 62.5t108.5 23.5q55 0 107 -20.5t92 -59.5t64.5 -95.5t24.5 -129.5q0 -72 -25 -128.5t-65.5 -95.5t-91.5 -59.5t-104 -20.5zM342 112q37 0 69 14t56 38.5t37.5 58t13.5 71.5t-13.5 71t-37.5 57t-56 38
t-69 14q-38 0 -69.5 -14t-55 -38.5t-36.5 -57.5t-13 -70q0 -38 13 -71t36.5 -58t55 -39t69.5 -14z" />
    <glyph glyph-name="c" unicode="c" horiz-adv-x="617" 
d="M324 -12q-64 0 -119.5 24t-96.5 65t-64.5 96.5t-23.5 118.5q0 64 23.5 119.5t64.5 97t96.5 65t119.5 23.5q49 0 92.5 -13.5t79.5 -37.5t63 -57t44 -73l-121 -51q-20 48 -61.5 76.5t-95.5 28.5q-37 0 -68.5 -14t-55 -38t-36.5 -56.5t-13 -69.5q0 -36 13 -68.5t36.5 -56.5
t55 -38t69.5 -14q57 0 97.5 30.5t60.5 78.5l121 -52q-17 -41 -44 -74.5t-62.5 -58t-79.5 -38t-95 -13.5z" />
    <glyph glyph-name="d" unicode="d" horiz-adv-x="671" 
d="M308 -12q-53 0 -104.5 20.5t-92.5 59.5t-66 95.5t-25 128.5q0 73 24.5 129.5t65 95.5t92.5 59.5t108 20.5q57 0 106 -21.5t81 -59.5v224h136v-740h-135v76q-32 -41 -82 -64.5t-108 -23.5zM330 112q37 0 69.5 14t55.5 39t36.5 58t13.5 71q0 37 -13.5 70t-36.5 57.5
t-55.5 38.5t-69.5 14q-38 0 -70 -14t-56 -38t-37.5 -57t-13.5 -71t13.5 -71.5t37.5 -58t56 -38.5t70 -14z" />
    <glyph glyph-name="e" unicode="e" 
d="M329 -12q-69 0 -126 23.5t-97.5 64.5t-63 96.5t-22.5 118.5q0 64 23.5 120t64.5 97t96.5 65t119.5 24q65 0 120.5 -22.5t95.5 -63t62.5 -95.5t22.5 -120v-51h-476q14 -62 61 -100t119 -38q57 0 99 28t63 75l111 -64q-38 -71 -106.5 -114.5t-166.5 -43.5zM324 478
q-61 0 -105.5 -33t-62.5 -87h332q-15 59 -58 89.5t-106 30.5z" />
    <glyph glyph-name="f" unicode="f" horiz-adv-x="391" 
d="M17 585h99v1q0 63 13 107.5t42.5 72.5t76 41t113.5 13h12v-125q-40 0 -64 -5t-36.5 -18t-16 -34t-3.5 -53h120v-121h-120v-464h-137v464h-99v121z" />
    <glyph glyph-name="g" unicode="g" horiz-adv-x="673" 
d="M499 78q-32 -42 -82 -66t-109 -24q-53 0 -104.5 20.5t-92.5 59.5t-66 95.5t-25 128.5q0 73 24.5 129.5t65 95.5t92.5 59.5t108 20.5q58 0 107 -23.5t81 -63.5v75h135v-570q0 -62 -19.5 -116t-57.5 -94.5t-94.5 -64t-130.5 -23.5q-57 0 -103.5 12.5t-83.5 35t-65 53
t-48 67.5l120 73q16 -29 33 -51t38.5 -36.5t48.5 -22t62 -7.5q38 0 69 14t52.5 37t33 54t11.5 64v68zM330 112q37 0 69.5 14t55.5 39t36.5 58t13.5 71q0 37 -13.5 70t-36.5 57.5t-55.5 38.5t-69.5 14q-38 0 -70 -14t-56 -38t-37.5 -57t-13.5 -71t13.5 -71.5t37.5 -58
t56 -38.5t70 -14z" />
    <glyph glyph-name="h" unicode="h" horiz-adv-x="619" 
d="M39 740h135v-225q30 38 74.5 60t100.5 22q109 0 170.5 -66t61.5 -184v-347h-138v332q0 69 -33 108.5t-99 39.5q-29 0 -53.5 -10.5t-43 -31t-29 -50t-10.5 -67.5v-321h-136v740z" />
    <glyph glyph-name="i" unicode="i" horiz-adv-x="214" 
d="M39 585h136v-585h-136v585zM22 728q0 38 23 61.5t62 23.5q40 0 62.5 -23.5t22.5 -61.5t-22.5 -61t-62.5 -23q-41 0 -63 23t-22 61z" />
    <glyph glyph-name="j" unicode="j" horiz-adv-x="213" 
d="M-82 -142q39 0 63 4t37 16.5t17 35.5t4 62v609h136v-610q0 -69 -12 -116t-40 -75.5t-73.5 -40.5t-112.5 -12h-19v127zM22 728q0 38 23 61.5t62 23.5q40 0 62.5 -23.5t22.5 -61.5t-22.5 -61t-62.5 -23q-41 0 -63 23t-22 61z" />
    <glyph glyph-name="k" unicode="k" horiz-adv-x="601" 
d="M39 740h135v-437l249 282h162l-226 -253l234 -332h-151l-175 252l-93 -103v-149h-135v740z" />
    <glyph glyph-name="l" unicode="l" horiz-adv-x="214" 
d="M39 740h136v-740h-136v740z" />
    <glyph glyph-name="m" unicode="m" horiz-adv-x="998" 
d="M39 585h134v-68q28 37 70.5 58.5t96.5 21.5q69 0 116.5 -26.5t73.5 -74.5q30 46 79.5 73.5t112.5 27.5q118 0 178 -65.5t60 -179.5v-352h-138v341q0 64 -32 101.5t-95 37.5q-55 0 -92 -38t-37 -115v-327h-137v345q0 63 -31 99t-92 36q-57 0 -94.5 -39t-37.5 -117v-324
h-135v585z" />
    <glyph glyph-name="n" unicode="n" horiz-adv-x="619" 
d="M39 585h134v-72q29 38 73.5 61t101.5 23q109 0 170.5 -66t61.5 -184v-347h-137v333q0 68 -33 107.5t-99 39.5q-58 0 -97.5 -41t-39.5 -118v-321h-135v585z" />
    <glyph glyph-name="o" unicode="o" 
d="M323 -12q-63 0 -118.5 23.5t-96.5 65t-64.5 97t-23.5 118.5q0 64 23.5 119.5t64.5 96.5t96.5 65t118.5 24t118 -24t96.5 -65t65 -96.5t23.5 -119.5q0 -63 -23.5 -118.5t-65 -97t-96.5 -65t-118 -23.5zM323 115q36 0 67 14t54 38t36 56.5t13 68.5q0 37 -13 69.5t-36 56.5
t-54 38t-67 14t-67.5 -14t-54 -38t-35.5 -56.5t-13 -69.5q0 -36 13 -68.5t35.5 -56.5t54 -38t67.5 -14z" />
    <glyph glyph-name="p" unicode="p" horiz-adv-x="668" 
d="M364 -12q-60 0 -110 21t-81 60v-338h-134v854h134v-78q31 41 80.5 65.5t109.5 24.5q55 0 107 -20.5t92 -59.5t64.5 -95.5t24.5 -129.5q0 -72 -25 -128.5t-65.5 -95.5t-92 -59.5t-104.5 -20.5zM342 112q37 0 69 14t56 38.5t37.5 58t13.5 71.5t-13.5 71t-37.5 57t-56 38
t-69 14q-38 0 -70 -14t-55 -38.5t-36 -57.5t-13 -70q0 -38 13 -71t36 -58t55 -39t70 -14z" />
    <glyph glyph-name="q" unicode="q" horiz-adv-x="671" 
d="M308 -12q-53 0 -104.5 20.5t-92.5 59.5t-66 95.5t-25 128.5q0 73 24.5 129.5t65 95.5t92.5 59.5t108 20.5q58 0 107 -23.5t81 -63.5v75h135v-854h-136v337q-32 -38 -81 -59t-108 -21zM330 112q37 0 69.5 14t55.5 39t36.5 58t13.5 71q0 37 -13.5 70t-36.5 57.5t-55.5 38.5
t-69.5 14q-38 0 -70 -14t-56 -38t-37.5 -57t-13.5 -71t13.5 -71.5t37.5 -58t56 -38.5t70 -14z" />
    <glyph glyph-name="r" unicode="r" horiz-adv-x="431" 
d="M39 585h134v-87q40 87 150 87q32 0 57.5 -7t45.5 -18l-51 -128q-15 10 -33.5 16.5t-47.5 6.5q-59 0 -89.5 -33.5t-30.5 -109.5v-312h-135v585z" />
    <glyph glyph-name="s" unicode="s" horiz-adv-x="518" 
d="M259 -12q-97 0 -161 36.5t-99 105.5l125 60q21 -41 57 -63t84 -22q50 0 75 21t25 50q0 16 -11.5 26t-30 17.5t-43.5 12.5t-52 11q-38 7 -74.5 18.5t-65.5 31t-47 50t-18 76.5q0 35 16 67.5t46 57.5t72.5 39.5t95.5 14.5q88 0 146.5 -32.5t92.5 -88.5l-115 -58
q-18 31 -50 49t-74 18q-48 0 -71 -19t-23 -44q0 -29 34 -41.5t100 -26.5q36 -8 72.5 -19t66.5 -30.5t48.5 -50t18.5 -76.5q0 -31 -14 -64.5t-43.5 -62t-74.5 -46.5t-108 -18z" />
    <glyph glyph-name="t" unicode="t" horiz-adv-x="399" 
d="M18 585h100v89l136 93v-182h119v-121h-119v-219q0 -38 4 -61.5t16.5 -36t36 -16.5t62.5 -4v-127h-19q-68 0 -113.5 12t-72.5 40.5t-38.5 75t-11.5 116.5v220h-100v121z" />
    <glyph glyph-name="u" unicode="u" horiz-adv-x="605" 
d="M566 0h-134v67q-28 -37 -70 -58t-98 -21q-52 0 -93.5 17t-71 49.5t-45 78.5t-15.5 105v347h137v-333q0 -68 30.5 -107.5t94.5 -39.5q56 0 93 41t37 118v321h135v-585z" />
    <glyph glyph-name="v" unicode="v" horiz-adv-x="599" 
d="M9 585h141l151 -412l148 412h139l-220 -585h-136z" />
    <glyph glyph-name="w" unicode="w" horiz-adv-x="995" 
d="M18 585h138l129 -403l147 403h134l144 -404l134 404h137l-205 -585h-130l-148 405l-152 -405h-133z" />
    <glyph glyph-name="x" unicode="x" horiz-adv-x="614" 
d="M225 298l-212 287h165l133 -186l132 186h160l-210 -289l224 -296h-165l-143 195l-139 -195h-165z" />
    <glyph glyph-name="y" unicode="y" horiz-adv-x="618" 
d="M246 29l-240 556h144l163 -394l154 394h142l-349 -855h-137z" />
    <glyph glyph-name="z" unicode="z" horiz-adv-x="577" 
d="M28 123l340 342h-333v120h509v-123l-340 -342h346v-120h-522v123z" />
    <glyph glyph-name="braceleft" unicode="{" horiz-adv-x="372" 
d="M335 -230q-63 0 -105 11t-67.5 36.5t-36.5 67t-11 102.5v97q0 29 -3 48.5t-12.5 31t-28.5 16.5t-50 5v125q31 0 50 4.5t28.5 16t12.5 31t3 48.5v103q0 61 11 102.5t36.5 67t67.5 36.5t105 11h11v-125q-32 0 -51.5 -3.5t-29.5 -13t-13 -28t-3 -48.5v-103q0 -63 -17 -102.5
t-58 -59.5q42 -20 58.5 -59.5t16.5 -102.5v-97q0 -30 3 -48.5t13 -28t29.5 -13t51.5 -3.5v-125h-11z" />
    <glyph glyph-name="bar" unicode="|" horiz-adv-x="209" 
d="M36 730h136v-960h-136v960z" />
    <glyph glyph-name="braceright" unicode="}" horiz-adv-x="372" 
d="M26 -105q32 0 51.5 3.5t29.5 13t13 28t3 48.5v97q0 63 16.5 102.5t58.5 59.5q-42 20 -58.5 59.5t-16.5 102.5v103q0 30 -3 48.5t-13 28t-29.5 13t-51.5 3.5v125h11q63 0 105 -11t67.5 -36.5t36.5 -67t11 -102.5v-103q0 -29 3 -48.5t12.5 -31t28 -16t50.5 -4.5v-125
q-32 0 -50.5 -5t-28 -16.5t-12.5 -31t-3 -48.5v-97q0 -61 -11 -102.5t-36.5 -67t-67.5 -36.5t-105 -11h-11v125z" />
    <glyph glyph-name="asciitilde" unicode="~" horiz-adv-x="471" 
d="M63 574q0 61 27.5 97.5t77.5 36.5q25 0 43 -7.5t33 -16.5q14 -9 26.5 -16.5t25.5 -7.5q28 0 28 44h78q0 -61 -26 -97.5t-79 -36.5q-29 0 -49.5 10t-37.5 20q-11 7 -21 12t-21 5q-26 0 -26 -43h-79v0z" />
    <glyph glyph-name="exclamdown" unicode="&#xa1;" horiz-adv-x="209" 
d="M37 -113q0 50 2.5 104.5t6.5 108.5t9.5 106t12.5 97h73q7 -45 12.5 -97t9.5 -106t6 -108.5t2 -104.5v-117h-134v117zM22 430q0 37 22 59.5t60 22.5t59.5 -22.5t21.5 -59.5q0 -36 -22 -58.5t-60 -22.5t-59.5 22.5t-21.5 58.5z" />
    <glyph glyph-name="cent" unicode="&#xa2;" horiz-adv-x="588" 
d="M234 0q-44 12 -81.5 37t-64.5 60t-42 78t-15 91t15.5 91t42.5 78t64 60t81 37v131h136v-128q68 -14 117.5 -56.5t75.5 -103.5l-121 -52q-17 42 -53 67t-83 25q-31 0 -57.5 -11.5t-46 -32t-31 -47.5t-11.5 -58t11.5 -58t31 -47.5t46.5 -32t58 -11.5q47 0 82.5 25.5
t52.5 65.5l121 -51q-26 -60 -75.5 -103t-117.5 -57v-127h-136v130z" />
    <glyph glyph-name="sterling" unicode="&#xa3;" horiz-adv-x="588" 
d="M54 436h56q-8 22 -13 46t-5 50q0 47 15.5 85.5t44.5 65.5t70 42t92 15q92 0 147 -39.5t76 -106.5l-129 -47q-10 35 -32 55t-60 20q-43 0 -64.5 -25t-21.5 -63q0 -26 7.5 -50t18.5 -48h193v-107h-142q15 -35 25.5 -73t10.5 -85q0 -26 -8 -53q23 -20 37 -20q20 0 25.5 12
t5.5 46v81h139v-77q0 -45 -6.5 -77t-22 -52.5t-42 -30.5t-65.5 -10q-35 0 -63 13.5t-52 33.5q-20 -22 -47 -35t-59 -13q-78 0 -115 30.5t-37 83.5q0 50 33 84t93 34q24 0 45 -6.5t39 -17.5q-6 32 -27.5 64t-46.5 68h-115v107zM177 81q24 0 41 18q-13 10 -25 16t-25 6
q-10 0 -15.5 -5.5t-5.5 -13.5q0 -9 8 -15t22 -6z" />
    <glyph glyph-name="currency" unicode="&#xa4;" horiz-adv-x="773" 
d="M390 102q-71 0 -130 34l-127 -130l-98 96l129 131q-16 29 -24.5 61.5t-8.5 67.5t9 68t26 62l-133 140l99 93l131 -136q28 16 60 24.5t67 8.5t66.5 -8.5t59.5 -23.5l124 127l98 -95l-125 -128q17 -29 26.5 -62.5t9.5 -69.5q0 -37 -9.5 -70.5t-26.5 -62.5l125 -131l-98 -95
l-126 130q-57 -31 -124 -31zM390 229q27 0 50.5 10.5t41 28.5t27.5 42.5t10 51.5t-10 51.5t-27.5 42.5t-41 28.5t-50.5 10.5t-50.5 -10.5t-40.5 -28.5t-27 -42.5t-10 -51.5t10 -51.5t27 -42.5t40.5 -28.5t50.5 -10.5z" />
    <glyph glyph-name="yen" unicode="&#xa5;" horiz-adv-x="588" 
d="M80 391h146v24l-203 315h152l120 -198l120 198h150l-203 -315v-24h147v-109h-147v-79h147v-110h-147v-93h-136v93h-146v110h146v79h-146v109z" />
    <glyph glyph-name="brokenbar" unicode="&#xa6;" horiz-adv-x="211" 
d="M36 730h136v-420h-136v420zM36 190h136v-420h-136v420z" />
    <glyph glyph-name="section" unicode="&#xa7;" horiz-adv-x="575" 
d="M285 -10q-48 0 -89 13t-72.5 34.5t-52.5 48.5t-29 55l135 37q9 -33 41 -54.5t77 -21.5q42 0 63 13t21 33q0 14 -11 23.5t-30 16.5t-45.5 13t-57.5 14q-45 10 -84.5 23t-68.5 32t-45.5 45t-16.5 62q0 40 24 71t61 47q-32 38 -32 89q0 33 13.5 62t40.5 50t66 33t90 11
q45 0 83.5 -11.5t68 -31t48.5 -44t27 -51.5l-128 -36q-5 29 -32 49t-70 20q-40 0 -60 -12.5t-20 -32.5q0 -27 38.5 -43t100.5 -31q45 -11 84.5 -24t69 -31.5t46 -44t16.5 -60.5q0 -39 -21.5 -68t-55.5 -46q35 -35 35 -88q0 -34 -16.5 -64t-46.5 -52.5t-72 -35.5t-93 -12z
M312 317q20 -5 37.5 -10t33.5 -10q18 6 27.5 17t9.5 24q0 27 -41.5 42.5t-116.5 33.5q-36 9 -67 21q-20 -5 -30 -17t-10 -26q0 -27 41 -42.5t116 -32.5z" />
    <glyph glyph-name="dieresis" unicode="&#xa8;" horiz-adv-x="473" 
d="M69 619q0 32 19.5 52t52.5 20q34 0 53 -20t19 -52t-19 -51.5t-53 -19.5t-53 19.5t-19 51.5zM260 619q0 32 19.5 52t52.5 20t52.5 -20t19.5 -52t-19.5 -51.5t-52.5 -19.5q-35 0 -53.5 19.5t-18.5 51.5z" />
    <glyph glyph-name="copyright" unicode="&#xa9;" horiz-adv-x="790" 
d="M395 -10q-78 0 -146 29.5t-118.5 80t-79.5 119t-29 146.5t29 146t79.5 119t118.5 80.5t146 29.5t146 -29.5t119 -80.5t80 -119t29 -146t-29 -146.5t-80 -119t-119 -80t-146 -29.5zM395 94q56 0 105 21.5t85 58t57 86t21 105.5t-21 105.5t-57 86t-85 58t-105 21.5
q-57 0 -105.5 -21.5t-84 -58t-55.5 -86t-20 -105.5t20 -105.5t55.5 -86t84 -58t105.5 -21.5zM401 163q-45 0 -82.5 16t-64.5 43t-42 64t-15 79t15.5 79t42.5 64t64.5 43t81.5 16q61 0 108.5 -31.5t69.5 -78.5q-38 -17 -59 -26t-31 -14q-12 -5 -14 -7q-5 19 -24 34.5
t-51 15.5q-39 0 -66 -27.5t-27 -67.5t27 -67.5t66 -27.5q31 0 51.5 16t25.5 35l107 -37q-23 -51 -71 -86t-112 -35z" />
    <glyph glyph-name="ordfeminine" unicode="&#xaa;" horiz-adv-x="364" 
d="M151 435q-21 0 -44 8.5t-42.5 26.5t-32 46.5t-12.5 68.5t13 69t33 47t43 26.5t44 8.5q26 0 45 -9t32 -23v26h98v-290h-98v31q-14 -16 -34 -26t-45 -10zM176 525q26 0 41.5 18t15.5 43t-15.5 42.5t-41.5 17.5t-43 -16.5t-17 -43.5q0 -26 17 -43.5t43 -17.5z" />
    <glyph glyph-name="guillemotleft" unicode="&#xab;" horiz-adv-x="477" 
d="M248 218v75l183 113v-91l-100 -60l100 -59v-92zM46 218v75l183 113v-91l-100 -60l100 -59v-92z" />
    <glyph glyph-name="logicalnot" unicode="&#xac;" horiz-adv-x="603" 
d="M432 387h-404v131h540v-362h-136v231z" />
    <glyph glyph-name="uni00AD" unicode="&#xad;" horiz-adv-x="442" 
d="M36 312h370v-115h-370v115z" />
    <glyph glyph-name="registered" unicode="&#xae;" horiz-adv-x="790" 
d="M395 -125q-78 0 -146 29.5t-118.5 80t-79.5 119t-29 146.5t29 146t79.5 119t118.5 80.5t146 29.5t146 -29.5t119 -80.5t80 -119t29 -146t-29 -146.5t-80 -119t-119 -80t-146 -29.5zM395 -21q56 0 105 21.5t85 58t57 86t21 105.5t-21 105.5t-57 86t-85 58t-105 21.5
q-57 0 -105.5 -21.5t-84 -58t-55.5 -86t-20 -105.5t20 -105.5t55.5 -86t84 -58t105.5 -21.5zM236 439h173q41 0 72.5 -11t53.5 -30t33 -43t11 -49q0 -42 -19 -72t-57 -44l74 -125h-125l-97 186h50q24 0 41.5 11.5t17.5 37.5t-18 36t-43 10h-54v-281h-113v374z" />
    <glyph glyph-name="macron" unicode="&#xaf;" horiz-adv-x="472" 
d="M105 636h264v-86h-264v86z" />
    <glyph glyph-name="degree" unicode="&#xb0;" horiz-adv-x="400" 
d="M200 387q-37 0 -69 14t-56 38t-38 56t-14 69q0 36 14 68t38 56t56 38t69 14t69 -14t56 -38t37.5 -56t13.5 -68q0 -37 -13.5 -69t-37.5 -56t-56 -38t-69 -14zM200 501q26 0 44.5 18.5t18.5 44.5t-18.5 44.5t-44.5 18.5t-44.5 -18.5t-18.5 -44.5t18.5 -44.5t44.5 -18.5z
" />
    <glyph glyph-name="plusminus" unicode="&#xb1;" horiz-adv-x="442" 
d="M36 531h129v128h113v-128h128v-114h-128v-128h-113v128h-129v114zM36 231h370v-114h-370v114z" />
    <glyph glyph-name="twosuperior" unicode="&#xb2;" horiz-adv-x="330" 
d="M14 391q0 31 10.5 55t27 42t37 31t40.5 24q30 17 52.5 31t22.5 33q0 13 -10.5 22.5t-30.5 9.5q-23 0 -38.5 -17t-23.5 -37l-97 50q23 47 63 74t98 27q34 0 62.5 -9.5t49 -26.5t31.5 -40.5t11 -51.5q0 -30 -11 -53t-28 -40t-38 -30t-41 -23q-26 -14 -45 -25.5t-21 -24.5
h181v-104h-302v83z" />
    <glyph glyph-name="threesuperior" unicode="&#xb3;" horiz-adv-x="325" 
d="M158 302q-43 0 -84 12.5t-69 40.5l85 77q27 -28 61 -28q20 0 32.5 9.5t12.5 26.5t-16.5 25t-42.5 8h-44v98h42q25 0 38.5 9.5t13.5 26.5q0 31 -43 31q-16 0 -30 -7.5t-22 -20.5l-80 69q25 27 62.5 42t73.5 15q70 0 113.5 -33.5t43.5 -91.5q0 -50 -42 -83q25 -15 38.5 -38
t13.5 -53q0 -29 -11 -53.5t-31.5 -42.5t-49.5 -28.5t-65 -10.5z" />
    <glyph glyph-name="acute" unicode="&#xb4;" horiz-adv-x="472" 
d="M220 720h126l-150 -170h-91z" />
    <glyph glyph-name="mu" unicode="&#xb5;" horiz-adv-x="527" 
d="M32 500h136v-261q0 -64 23 -98.5t71 -34.5q41 0 70 29t29 92v273h134v-500h-133v49q-23 -28 -54.5 -43.5t-70.5 -15.5q-20 0 -38 4.5t-34 12.5v-237h-133v730z" />
    <glyph glyph-name="mu" unicode="&#x3bc;" horiz-adv-x="527" 
d="M32 500h136v-261q0 -64 23 -98.5t71 -34.5q41 0 70 29t29 92v273h134v-500h-133v49q-23 -28 -54.5 -43.5t-70.5 -15.5q-20 0 -38 4.5t-34 12.5v-237h-133v730z" />
    <glyph glyph-name="paragraph" unicode="&#xb6;" horiz-adv-x="658" 
d="M329 302h-91q-47 0 -86.5 16.5t-68.5 45.5t-45.5 68t-16.5 84t16.5 84t45.5 68t68.5 45.5t85.5 16.5h385v-730h-117v604h-60v-604h-116v302z" />
    <glyph glyph-name="periodcentered" unicode="&#xb7;" horiz-adv-x="207" 
d="M36 323h134v-137h-134v137z" />
    <glyph glyph-name="cedilla" unicode="&#xb8;" horiz-adv-x="472" 
d="M213 -240q-40 0 -77.5 16.5t-66.5 42.5l78 47q17 -14 33.5 -24t42.5 -10q22 0 38.5 9t16.5 22q0 27 -58 27h-50v110h84v-53q56 2 85.5 -20.5t29.5 -59.5q0 -23 -12 -43t-33 -34t-49.5 -22t-61.5 -8z" />
    <glyph glyph-name="onesuperior" unicode="&#xb9;" horiz-adv-x="298" 
d="M14 412h81v166q-11 -14 -27 -20t-36 -6h-6v107h3q21 0 34.5 7t21.5 17.5t11 23t3 23.5h109v-318h78v-104h-272v104z" />
    <glyph glyph-name="ordmasculine" unicode="&#xba;" horiz-adv-x="339" 
d="M170 435q-31 0 -58.5 12t-47.5 32t-32 47.5t-12 58.5t12 59t32 48t47.5 32t58.5 12t58 -12t47.5 -32t32 -48t11.5 -59t-11.5 -58.5t-32 -47.5t-47.5 -32t-58 -12zM170 528q23 0 39 17t16 40q0 24 -16 41t-39 17q-24 0 -39.5 -17t-15.5 -41q0 -23 15.5 -40t39.5 -17z" />
    <glyph glyph-name="guillemotright" unicode="&#xbb;" horiz-adv-x="477" 
d="M248 196l100 59l-100 60v91l183 -113v-75l-183 -114v92zM46 196l100 59l-100 60v91l183 -113v-75l-183 -114v92z" />
    <glyph glyph-name="onequarter" unicode="&#xbc;" horiz-adv-x="854" 
d="M612 730h156l-527 -730h-156zM674 84h-169v99l168 239h105v-243h62v-95h-62v-84h-104v84zM14 412h81v166q-11 -14 -27 -20t-36 -6h-6v107h3q21 0 34.5 7t21.5 17.5t11 23t3 23.5h109v-318h78v-104h-272v104zM674 179v77l-53 -77h53z" />
    <glyph glyph-name="onehalf" unicode="&#xbd;" horiz-adv-x="870" 
d="M612 730h156l-527 -730h-156zM553 83q0 31 10.5 55t27 42t37 31t40.5 24q30 17 52.5 31t22.5 33q0 13 -10.5 22.5t-30.5 9.5q-23 0 -38.5 -17t-23.5 -37l-97 50q23 47 63 74t98 27q34 0 62.5 -9.5t49 -26.5t31.5 -40.5t11 -51.5q0 -30 -11 -53t-28 -40t-38 -30t-41 -23
q-26 -14 -45 -25.5t-21 -24.5h181v-104h-302v83zM14 412h81v166q-11 -14 -27 -20t-36 -6h-6v107h3q21 0 34.5 7t21.5 17.5t11 23t3 23.5h109v-318h78v-104h-272v104z" />
    <glyph glyph-name="threequarters" unicode="&#xbe;" horiz-adv-x="860" 
d="M619 730h156l-527 -730h-156zM680 84h-169v99l168 239h105v-243h62v-95h-62v-84h-104v84zM158 302q-43 0 -84 12.5t-69 40.5l85 77q27 -28 61 -28q20 0 32.5 9.5t12.5 26.5t-16.5 25t-42.5 8h-44v98h42q25 0 38.5 9.5t13.5 26.5q0 31 -43 31q-16 0 -30 -7.5t-22 -20.5
l-80 69q25 27 62.5 42t73.5 15q70 0 113.5 -33.5t43.5 -91.5q0 -50 -42 -83q25 -15 38.5 -38t13.5 -53q0 -29 -11 -53.5t-31.5 -42.5t-49.5 -28.5t-65 -10.5zM680 179v77l-53 -77h53z" />
    <glyph glyph-name="questiondown" unicode="&#xbf;" horiz-adv-x="517" 
d="M263 -240q-51 0 -93 15t-73 42.5t-48 66t-17 85.5t13.5 77.5t34 52t44 39t44 38.5t34 50t13.5 75v11h120v-11q0 -61 -12 -101t-30.5 -67t-40 -45t-40 -35t-30.5 -36.5t-12 -49.5q0 -38 25.5 -63.5t69.5 -25.5q41 0 66.5 24.5t34.5 61.5l126 -43q-19 -72 -76 -116.5
t-153 -44.5zM194 431q0 37 22 59.5t60 22.5t59.5 -22.5t21.5 -59.5q0 -36 -22 -58.5t-60 -22.5t-59.5 22.5t-21.5 58.5z" />
    <glyph glyph-name="Agrave" unicode="&#xc0;" horiz-adv-x="687" 
d="M275 730h137l260 -730h-142l-45 130h-283l-45 -130h-142zM248 260h192l-96 277zM150 950h127l114 -170h-91z" />
    <glyph glyph-name="Aacute" unicode="&#xc1;" horiz-adv-x="687" 
d="M275 730h137l260 -730h-142l-45 130h-283l-45 -130h-142zM248 260h192l-96 277zM412 950h126l-150 -170h-91z" />
    <glyph glyph-name="Acircumflex" unicode="&#xc2;" horiz-adv-x="687" 
d="M275 730h137l260 -730h-142l-45 130h-283l-45 -130h-142zM300 950h84l119 -170h-102l-59 89l-59 -89h-102zM248 260h192l-96 277z" />
    <glyph glyph-name="Atilde" unicode="&#xc3;" horiz-adv-x="687" 
d="M275 730h137l260 -730h-142l-45 130h-283l-45 -130h-142zM173 780q0 61 27.5 98t76.5 37q25 0 43 -7.5t34 -16.5q14 -10 26.5 -17.5t25.5 -7.5q28 0 28 45h78q0 -62 -26 -98.5t-79 -36.5q-29 0 -49.5 10.5t-37.5 20.5q-11 7 -21.5 12t-21.5 5q-26 0 -26 -44h-78zM248 260
h192l-96 277z" />
    <glyph glyph-name="Adieresis" unicode="&#xc4;" horiz-adv-x="687" 
d="M275 730h137l260 -730h-142l-45 130h-283l-45 -130h-142zM248 260h192l-96 277zM176 849q0 32 19.5 52t52.5 20q34 0 53 -20t19 -52t-19 -51.5t-53 -19.5t-53 19.5t-19 51.5zM367 849q0 32 19.5 52t52.5 20t52.5 -20t19.5 -52t-19.5 -51.5t-52.5 -19.5q-35 0 -53.5 19.5
t-18.5 51.5z" />
    <glyph glyph-name="Aring" unicode="&#xc5;" horiz-adv-x="687" 
d="M260 688q-15 16 -24 37t-9 45q0 25 9 46.5t25 37.5t37 25t45 9t45.5 -9t37.5 -25t25 -37.5t9 -46.5q0 -24 -9 -45t-25 -37l246 -688h-142l-45 130h-283l-45 -130h-142zM248 260h192l-96 277zM343 731q17 0 29 11.5t12 27.5q0 17 -12 29t-29 12t-28.5 -12t-11.5 -29
q0 -16 11.5 -27.5t28.5 -11.5z" />
    <glyph glyph-name="AE" unicode="&#xc6;" horiz-adv-x="938" 
d="M346 730h558v-130h-386l42 -168h344v-130h-311l43 -172h268v-130h-378l-32 129h-281l-58 -129h-142zM269 255h194l-68 279z" />
    <glyph glyph-name="Ccedilla" unicode="&#xc7;" horiz-adv-x="738" 
d="M388 -240q-40 0 -77.5 16.5t-66.5 42.5l78 47q17 -14 33.5 -24t42.5 -10q22 0 38.5 9t16.5 22q0 27 -58 27h-50v104q-74 9 -133.5 41t-101.5 81.5t-65 113t-23 135.5q0 82 29 150.5t79.5 118.5t119 78t147.5 28q51 0 98.5 -13t89 -36.5t75 -57t57.5 -74.5l-119 -76
q-32 57 -81 90t-120 33q-52 0 -96 -18.5t-76 -51t-50 -76.5t-18 -95q0 -50 18 -93.5t49.5 -76t75 -51t94.5 -18.5q76 0 128.5 38.5t81.5 98.5l124 -65q-22 -43 -53 -79t-69.5 -63t-83 -43.5t-93.5 -20.5v-45q56 2 85.5 -20.5t29.5 -59.5q0 -23 -12 -43t-33 -34t-49.5 -22
t-61.5 -8z" />
    <glyph glyph-name="Egrave" unicode="&#xc8;" horiz-adv-x="509" 
d="M42 730h433v-130h-297v-168h297v-130h-297v-172h297v-130h-433v730zM72 950h127l114 -170h-91z" />
    <glyph glyph-name="Eacute" unicode="&#xc9;" horiz-adv-x="509" 
d="M42 730h433v-130h-297v-168h297v-130h-297v-172h297v-130h-433v730zM317 950h126l-150 -170h-91z" />
    <glyph glyph-name="Ecircumflex" unicode="&#xca;" horiz-adv-x="509" 
d="M42 730h433v-130h-297v-168h297v-130h-297v-172h297v-130h-433v730zM216 950h84l119 -170h-102l-59 89l-59 -89h-102z" />
    <glyph glyph-name="Edieresis" unicode="&#xcb;" horiz-adv-x="509" 
d="M42 730h433v-130h-297v-168h297v-130h-297v-172h297v-130h-433v730zM95 849q0 32 19.5 52t52.5 20q34 0 53 -20t19 -52t-19 -51.5t-53 -19.5t-53 19.5t-19 51.5zM286 849q0 32 19.5 52t52.5 20t52.5 -20t19.5 -52t-19.5 -51.5t-52.5 -19.5q-35 0 -53.5 19.5t-18.5 51.5z
" />
    <glyph glyph-name="Igrave" unicode="&#xcc;" horiz-adv-x="230" 
d="M47 730h136v-730h-136v730zM-80 950h127l114 -170h-91z" />
    <glyph glyph-name="Iacute" unicode="&#xcd;" horiz-adv-x="230" 
d="M47 730h136v-730h-136v730zM185 950h126l-150 -170h-91z" />
    <glyph glyph-name="Icircumflex" unicode="&#xce;" horiz-adv-x="230" 
d="M47 730h136v-730h-136v730zM73 950h84l119 -170h-102l-59 89l-59 -89h-102z" />
    <glyph glyph-name="Idieresis" unicode="&#xcf;" horiz-adv-x="230" 
d="M152 918h134v-137h-134v137zM-55 918h134v-137h-134v137zM47 730h136v-730h-136v730z" />
    <glyph glyph-name="Eth" unicode="&#xd0;" horiz-adv-x="695" 
d="M20 424h69v306h199q92 0 164 -28t121.5 -77t75 -115.5t25.5 -144.5t-28 -145t-78.5 -115.5t-120.5 -76.5t-153 -28h-205v309h-69v115zM225 604v-180h165v-115h-165v-183h53q60 0 108 18t81.5 50.5t52 76t18.5 94.5q0 52 -16.5 96t-49.5 76t-83 49.5t-117 17.5h-47z" />
    <glyph glyph-name="Ntilde" unicode="&#xd1;" horiz-adv-x="690" 
d="M42 730h154l316 -497v497h136v-730h-145l-325 513v-513h-136v730zM174 780q0 61 27.5 98t76.5 37q25 0 43 -7.5t34 -16.5q14 -10 26.5 -17.5t25.5 -7.5q28 0 28 45h78q0 -62 -26 -98.5t-79 -36.5q-29 0 -49.5 10.5t-37.5 20.5q-11 7 -21.5 12t-21.5 5q-26 0 -26 -44h-78z
" />
    <glyph glyph-name="Ograve" unicode="&#xd2;" horiz-adv-x="790" 
d="M395 -10q-78 0 -146 29.5t-118.5 80t-79.5 119t-29 146.5t29 146t79.5 119t118.5 80.5t146 29.5t146 -29.5t119 -80.5t80 -119t29 -146t-29 -146.5t-80 -119t-119 -80t-146 -29.5zM395 124q50 0 93.5 19t76 51.5t51 76.5t18.5 94t-18.5 94t-51 76.5t-76 51.5t-93.5 19
t-93.5 -19t-75.5 -51.5t-50.5 -76.5t-18.5 -94t18.5 -94t50.5 -76.5t75.5 -51.5t93.5 -19zM199 950h127l114 -170h-91z" />
    <glyph glyph-name="Oacute" unicode="&#xd3;" horiz-adv-x="790" 
d="M458 950h126l-150 -170h-91zM395 -10q-78 0 -146 29.5t-118.5 80t-79.5 119t-29 146.5t29 146t79.5 119t118.5 80.5t146 29.5t146 -29.5t119 -80.5t80 -119t29 -146t-29 -146.5t-80 -119t-119 -80t-146 -29.5zM395 124q50 0 93.5 19t76 51.5t51 76.5t18.5 94t-18.5 94
t-51 76.5t-76 51.5t-93.5 19t-93.5 -19t-75.5 -51.5t-50.5 -76.5t-18.5 -94t18.5 -94t50.5 -76.5t75.5 -51.5t93.5 -19z" />
    <glyph glyph-name="Ocircumflex" unicode="&#xd4;" horiz-adv-x="790" 
d="M395 -10q-78 0 -146 29.5t-118.5 80t-79.5 119t-29 146.5t29 146t79.5 119t118.5 80.5t146 29.5t146 -29.5t119 -80.5t80 -119t29 -146t-29 -146.5t-80 -119t-119 -80t-146 -29.5zM395 124q50 0 93.5 19t76 51.5t51 76.5t18.5 94t-18.5 94t-51 76.5t-76 51.5t-93.5 19
t-93.5 -19t-75.5 -51.5t-50.5 -76.5t-18.5 -94t18.5 -94t50.5 -76.5t75.5 -51.5t93.5 -19zM349 950h84l119 -170h-102l-59 89l-59 -89h-102z" />
    <glyph glyph-name="Otilde" unicode="&#xd5;" horiz-adv-x="790" 
d="M395 -10q-78 0 -146 29.5t-118.5 80t-79.5 119t-29 146.5t29 146t79.5 119t118.5 80.5t146 29.5t146 -29.5t119 -80.5t80 -119t29 -146t-29 -146.5t-80 -119t-119 -80t-146 -29.5zM395 124q50 0 93.5 19t76 51.5t51 76.5t18.5 94t-18.5 94t-51 76.5t-76 51.5t-93.5 19
t-93.5 -19t-75.5 -51.5t-50.5 -76.5t-18.5 -94t18.5 -94t50.5 -76.5t75.5 -51.5t93.5 -19zM220 780q0 61 27.5 98t76.5 37q25 0 43 -7.5t34 -16.5q14 -10 26.5 -17.5t25.5 -7.5q28 0 28 45h78q0 -62 -26 -98.5t-79 -36.5q-29 0 -49.5 10.5t-37.5 20.5q-11 7 -21.5 12
t-21.5 5q-26 0 -26 -44h-78z" />
    <glyph glyph-name="Odieresis" unicode="&#xd6;" horiz-adv-x="790" 
d="M221 849q0 32 19.5 52t52.5 20q34 0 53 -20t19 -52t-19 -51.5t-53 -19.5t-53 19.5t-19 51.5zM412 849q0 32 19.5 52t52.5 20t52.5 -20t19.5 -52t-19.5 -51.5t-52.5 -19.5q-35 0 -53.5 19.5t-18.5 51.5zM395 -10q-78 0 -146 29.5t-118.5 80t-79.5 119t-29 146.5t29 146
t79.5 119t118.5 80.5t146 29.5t146 -29.5t119 -80.5t80 -119t29 -146t-29 -146.5t-80 -119t-119 -80t-146 -29.5zM395 124q50 0 93.5 19t76 51.5t51 76.5t18.5 94t-18.5 94t-51 76.5t-76 51.5t-93.5 19t-93.5 -19t-75.5 -51.5t-50.5 -76.5t-18.5 -94t18.5 -94t50.5 -76.5
t75.5 -51.5t93.5 -19z" />
    <glyph glyph-name="multiply" unicode="&#xd7;" horiz-adv-x="442" 
d="M37 258l105 105l-106 106l79 79l106 -106l106 106l79 -79l-106 -106l105 -105l-79 -79l-105 105l-105 -105z" />
    <glyph glyph-name="Oslash" unicode="&#xd8;" horiz-adv-x="790" 
d="M116 114q-45 51 -69.5 114.5t-24.5 136.5q0 78 29 146t79.5 119t118.5 80.5t146 29.5q51 0 97.5 -13.5t88.5 -36.5l33 40h157l-95 -117q44 -50 68.5 -113t24.5 -135q0 -78 -29 -146.5t-80 -119t-119 -80t-146 -29.5q-51 0 -97 12.5t-87 35.5l-30 -38h-157zM157 365
q0 -41 12 -77.5t34 -66.5l292 362q-23 11 -48 17t-52 6q-50 0 -93.5 -19t-75.5 -51.5t-50.5 -76.5t-18.5 -94zM395 124q50 0 93.5 19t76 51.5t51 76.5t18.5 94q0 39 -12 75t-33 65l-291 -361q45 -20 97 -20z" />
    <glyph glyph-name="Ugrave" unicode="&#xd9;" horiz-adv-x="608" 
d="M304 -10q-57 0 -105 16.5t-83.5 49.5t-55 82t-19.5 114v478h136v-486q0 -27 9.5 -50.5t26.5 -40.5t40 -27t50 -10t50 10t40.5 27t27.5 40.5t10 50.5v486h136v-478q0 -65 -20 -114t-55 -82t-83 -49.5t-105 -16.5zM117 950h127l114 -170h-91z" />
    <glyph glyph-name="Uacute" unicode="&#xda;" horiz-adv-x="608" 
d="M365 950h126l-150 -170h-91zM304 -10q-57 0 -105 16.5t-83.5 49.5t-55 82t-19.5 114v478h136v-486q0 -27 9.5 -50.5t26.5 -40.5t40 -27t50 -10t50 10t40.5 27t27.5 40.5t10 50.5v486h136v-478q0 -65 -20 -114t-55 -82t-83 -49.5t-105 -16.5z" />
    <glyph glyph-name="Ucircumflex" unicode="&#xdb;" horiz-adv-x="608" 
d="M304 -10q-57 0 -105 16.5t-83.5 49.5t-55 82t-19.5 114v478h136v-486q0 -27 9.5 -50.5t26.5 -40.5t40 -27t50 -10t50 10t40.5 27t27.5 40.5t10 50.5v486h136v-478q0 -65 -20 -114t-55 -82t-83 -49.5t-105 -16.5zM262 950h84l119 -170h-102l-59 89l-59 -89h-102z" />
    <glyph glyph-name="Udieresis" unicode="&#xdc;" horiz-adv-x="608" 
d="M141 849q0 32 19.5 52t52.5 20q34 0 53 -20t19 -52t-19 -51.5t-53 -19.5t-53 19.5t-19 51.5zM332 849q0 32 19.5 52t52.5 20t52.5 -20t19.5 -52t-19.5 -51.5t-52.5 -19.5q-35 0 -53.5 19.5t-18.5 51.5zM304 -10q-57 0 -105 16.5t-83.5 49.5t-55 82t-19.5 114v478h136
v-486q0 -27 9.5 -50.5t26.5 -40.5t40 -27t50 -10t50 10t40.5 27t27.5 40.5t10 50.5v486h136v-478q0 -65 -20 -114t-55 -82t-83 -49.5t-105 -16.5z" />
    <glyph glyph-name="Yacute" unicode="&#xdd;" horiz-adv-x="629" 
d="M245 346l-232 384h150l151 -253l152 253h150l-235 -387v-343h-136v346zM379 950h126l-150 -170h-91z" />
    <glyph glyph-name="Thorn" unicode="&#xde;" horiz-adv-x="558" 
d="M42 730h136v-127h121q51 0 93.5 -18t73 -49.5t48 -74t17.5 -90.5t-17.5 -90.5t-48 -74t-73.5 -49.5t-94 -18h-120v-139h-136v730zM178 477v-212h113q48 0 76.5 30.5t28.5 75.5q0 22 -7.5 41t-21 33.5t-33 23t-43.5 8.5h-113z" />
    <glyph glyph-name="germandbls" unicode="&#xdf;" horiz-adv-x="589" 
d="M-80 -142q38 0 61.5 5t36 18.5t17 36t4.5 58.5v625q-2 56 14 102.5t48 80t80 52t110 18.5q55 0 101 -17.5t79 -48.5t51 -74.5t18 -94.5q0 -61 -30.5 -107t-85.5 -69q31 -10 58 -28.5t46.5 -44t30.5 -57.5t11 -68q0 -56 -19 -103t-53.5 -81t-83 -53t-108.5 -19
q-20 0 -41 2t-38 9v122q4 -3 14 -5t22 -3.5t23.5 -2t17.5 -0.5q27 0 50.5 10t41 28t27 42t9.5 53q0 27 -11 50.5t-31 41.5t-49.5 28.5t-65.5 10.5h-26v123h26q30 0 54.5 9.5t42 26t27 38.5t9.5 48q0 25 -8.5 46.5t-23.5 38t-37 26t-49 9.5q-56 0 -89.5 -31t-33.5 -94v-639
q0 -68 -11 -114.5t-37 -75.5t-69.5 -42t-108.5 -13h-21v127z" />
    <glyph glyph-name="agrave" unicode="&#xe0;" horiz-adv-x="671" 
d="M308 -12q-53 0 -104.5 20.5t-92.5 59.5t-66 95.5t-25 128.5q0 73 24.5 129.5t65 95.5t92.5 59.5t108 20.5q58 0 107 -22t81 -60v70h135v-585h-135v76q-32 -41 -82 -64.5t-108 -23.5zM330 112q37 0 69.5 14t55.5 39t36.5 58t13.5 71q0 37 -13.5 70t-36.5 57.5t-55.5 38.5
t-69.5 14q-38 0 -70 -14t-56 -38t-37.5 -57t-13.5 -71t13.5 -71.5t37.5 -58t56 -38.5t70 -14zM136 815h127l114 -170h-91z" />
    <glyph glyph-name="aacute" unicode="&#xe1;" horiz-adv-x="671" 
d="M308 -12q-53 0 -104.5 20.5t-92.5 59.5t-66 95.5t-25 128.5q0 73 24.5 129.5t65 95.5t92.5 59.5t108 20.5q58 0 107 -22t81 -60v70h135v-585h-135v76q-32 -41 -82 -64.5t-108 -23.5zM330 112q37 0 69.5 14t55.5 39t36.5 58t13.5 71q0 37 -13.5 70t-36.5 57.5t-55.5 38.5
t-69.5 14q-38 0 -70 -14t-56 -38t-37.5 -57t-13.5 -71t13.5 -71.5t37.5 -58t56 -38.5t70 -14zM386 815h126l-150 -170h-91z" />
    <glyph glyph-name="acircumflex" unicode="&#xe2;" horiz-adv-x="671" 
d="M308 -12q-53 0 -104.5 20.5t-92.5 59.5t-66 95.5t-25 128.5q0 73 24.5 129.5t65 95.5t92.5 59.5t108 20.5q58 0 107 -22t81 -60v70h135v-585h-135v76q-32 -41 -82 -64.5t-108 -23.5zM330 112q37 0 69.5 14t55.5 39t36.5 58t13.5 71q0 37 -13.5 70t-36.5 57.5t-55.5 38.5
t-69.5 14q-38 0 -70 -14t-56 -38t-37.5 -57t-13.5 -71t13.5 -71.5t37.5 -58t56 -38.5t70 -14zM268 812h84l119 -170h-102l-59 89l-59 -89h-102z" />
    <glyph glyph-name="atilde" unicode="&#xe3;" horiz-adv-x="671" 
d="M308 -12q-53 0 -104.5 20.5t-92.5 59.5t-66 95.5t-25 128.5q0 73 24.5 129.5t65 95.5t92.5 59.5t108 20.5q58 0 107 -22t81 -60v70h135v-585h-135v76q-32 -41 -82 -64.5t-108 -23.5zM330 112q37 0 69.5 14t55.5 39t36.5 58t13.5 71q0 37 -13.5 70t-36.5 57.5t-55.5 38.5
t-69.5 14q-38 0 -70 -14t-56 -38t-37.5 -57t-13.5 -71t13.5 -71.5t37.5 -58t56 -38.5t70 -14zM163 645q0 61 27.5 98t76.5 37q25 0 43 -7.5t34 -16.5q14 -10 26.5 -17.5t25.5 -7.5q28 0 28 45h78q0 -62 -26 -98.5t-79 -36.5q-29 0 -49.5 10.5t-37.5 20.5q-11 7 -21.5 12
t-21.5 5q-26 0 -26 -44h-78z" />
    <glyph glyph-name="adieresis" unicode="&#xe4;" horiz-adv-x="671" 
d="M308 -12q-53 0 -104.5 20.5t-92.5 59.5t-66 95.5t-25 128.5q0 73 24.5 129.5t65 95.5t92.5 59.5t108 20.5q58 0 107 -22t81 -60v70h135v-585h-135v76q-32 -41 -82 -64.5t-108 -23.5zM330 112q37 0 69.5 14t55.5 39t36.5 58t13.5 71q0 37 -13.5 70t-36.5 57.5t-55.5 38.5
t-69.5 14q-38 0 -70 -14t-56 -38t-37.5 -57t-13.5 -71t13.5 -71.5t37.5 -58t56 -38.5t70 -14zM156 713q0 32 19.5 52t52.5 20q34 0 53 -20t19 -52t-19 -51.5t-53 -19.5t-53 19.5t-19 51.5zM347 713q0 32 19.5 52t52.5 20t52.5 -20t19.5 -52t-19.5 -51.5t-52.5 -19.5
q-35 0 -53.5 19.5t-18.5 51.5z" />
    <glyph glyph-name="aring" unicode="&#xe5;" horiz-adv-x="671" 
d="M308 -12q-53 0 -104.5 20.5t-92.5 59.5t-66 95.5t-25 128.5q0 73 24.5 129.5t65 95.5t92.5 59.5t108 20.5q58 0 107 -22t81 -60v70h135v-585h-135v76q-32 -41 -82 -64.5t-108 -23.5zM330 112q37 0 69.5 14t55.5 39t36.5 58t13.5 71q0 37 -13.5 70t-36.5 57.5t-55.5 38.5
t-69.5 14q-38 0 -70 -14t-56 -38t-37.5 -57t-13.5 -71t13.5 -71.5t37.5 -58t56 -38.5t70 -14zM329 640q-24 0 -45 9t-37 25t-25 37t-9 45q0 25 9 46.5t25 37.5t37 25t45 9t45.5 -9t37.5 -25t25 -37.5t9 -46.5q0 -24 -9 -45t-25 -37t-37.5 -25t-45.5 -9zM329 717
q17 0 29 11.5t12 27.5q0 17 -12 29t-29 12t-28.5 -12t-11.5 -29q0 -16 11.5 -27.5t28.5 -11.5z" />
    <glyph glyph-name="ae" unicode="&#xe6;" horiz-adv-x="1035" 
d="M719 -12q-84 0 -147.5 33t-102.5 90q-15 -26 -39 -48t-54.5 -39t-67.5 -26.5t-78 -9.5q-56 0 -95.5 12.5t-65.5 35t-38.5 52.5t-12.5 66q0 41 14.5 71t40.5 51.5t61.5 36.5t76.5 25q37 10 72 18t62.5 17.5t44.5 22t17 31.5q0 26 -27 44.5t-81 18.5q-73 0 -107 -32.5
t-34 -77.5v-3h-124v2q0 103 68.5 160.5t190.5 57.5q72 0 126 -21.5t84 -63.5q40 40 93.5 62.5t116.5 22.5q65 0 120 -22.5t95.5 -63t63.5 -95.5t23 -120v-47h-477q12 -64 59.5 -103t121.5 -39q57 0 101 29.5t65 76.5l114 -49q-37 -80 -110 -128t-170 -48zM237 100
q36 0 67 14.5t54 35t37 44t17 41.5q0 1 0.5 9.5t0 19t-1 19.5t-1.5 11q-5 -14 -41 -26.5t-93 -25.5q-62 -14 -92.5 -31.5t-30.5 -52.5q0 -26 19.5 -42t64.5 -16zM713 478q-60 0 -103 -32t-63 -84h330q-17 57 -60 86.5t-104 29.5z" />
    <glyph glyph-name="ccedilla" unicode="&#xe7;" horiz-adv-x="617" 
d="M316 -245q-40 0 -77.5 16.5t-66.5 42.5l78 47q17 -14 33.5 -24t42.5 -10q22 0 38.5 9t16.5 22q0 27 -58 27h-50v107q-55 9 -101.5 36t-80 66.5t-52.5 90t-19 107.5q0 64 23.5 119.5t64.5 97t96.5 65t119.5 23.5q49 0 92.5 -13.5t79.5 -37.5t63 -57t44 -73l-121 -51
q-20 48 -61.5 76.5t-95.5 28.5q-37 0 -68.5 -14t-55 -38t-36.5 -56.5t-13 -69.5q0 -36 13 -68.5t36.5 -56.5t55 -38t69.5 -14q57 0 97.5 30.5t60.5 78.5l121 -52q-32 -74 -95.5 -124t-152.5 -58v-48q56 2 85.5 -20.5t29.5 -59.5q0 -23 -12 -43t-33 -34t-49.5 -22t-61.5 -8z
" />
    <glyph glyph-name="egrave" unicode="&#xe8;" 
d="M329 -12q-69 0 -126 23.5t-97.5 64.5t-63 96.5t-22.5 118.5q0 64 23.5 120t64.5 97t96.5 65t119.5 24q65 0 120.5 -22.5t95.5 -63t62.5 -95.5t22.5 -120v-51h-476q14 -62 61 -100t119 -38q57 0 99 28t63 75l111 -64q-38 -71 -106.5 -114.5t-166.5 -43.5zM324 478
q-61 0 -105.5 -33t-62.5 -87h332q-15 59 -58 89.5t-106 30.5zM156 810h127l114 -170h-91z" />
    <glyph glyph-name="eacute" unicode="&#xe9;" 
d="M329 -12q-69 0 -126 23.5t-97.5 64.5t-63 96.5t-22.5 118.5q0 64 23.5 120t64.5 97t96.5 65t119.5 24q65 0 120.5 -22.5t95.5 -63t62.5 -95.5t22.5 -120v-51h-476q14 -62 61 -100t119 -38q57 0 99 28t63 75l111 -64q-38 -71 -106.5 -114.5t-166.5 -43.5zM324 478
q-61 0 -105.5 -33t-62.5 -87h332q-15 59 -58 89.5t-106 30.5zM394 815h126l-150 -170h-91z" />
    <glyph glyph-name="ecircumflex" unicode="&#xea;" 
d="M329 -12q-69 0 -126 23.5t-97.5 64.5t-63 96.5t-22.5 118.5q0 64 23.5 120t64.5 97t96.5 65t119.5 24q65 0 120.5 -22.5t95.5 -63t62.5 -95.5t22.5 -120v-51h-476q14 -62 61 -100t119 -38q57 0 99 28t63 75l111 -64q-38 -71 -106.5 -114.5t-166.5 -43.5zM324 478
q-61 0 -105.5 -33t-62.5 -87h332q-15 59 -58 89.5t-106 30.5zM287 809h84l119 -170h-102l-59 89l-59 -89h-102z" />
    <glyph glyph-name="edieresis" unicode="&#xeb;" 
d="M329 -12q-69 0 -126 23.5t-97.5 64.5t-63 96.5t-22.5 118.5q0 64 23.5 120t64.5 97t96.5 65t119.5 24q65 0 120.5 -22.5t95.5 -63t62.5 -95.5t22.5 -120v-51h-476q14 -62 61 -100t119 -38q57 0 99 28t63 75l111 -64q-38 -71 -106.5 -114.5t-166.5 -43.5zM324 478
q-61 0 -105.5 -33t-62.5 -87h332q-15 59 -58 89.5t-106 30.5zM156 703q0 32 19.5 52t52.5 20q34 0 53 -20t19 -52t-19 -51.5t-53 -19.5t-53 19.5t-19 51.5zM347 703q0 32 19.5 52t52.5 20t52.5 -20t19.5 -52t-19.5 -51.5t-52.5 -19.5q-35 0 -53.5 19.5t-18.5 51.5z" />
    <glyph glyph-name="igrave" unicode="&#xec;" horiz-adv-x="214" 
d="M39 585h136v-585h-136v585zM-91 805h127l114 -170h-91z" />
    <glyph glyph-name="iacute" unicode="&#xed;" horiz-adv-x="214" 
d="M170 805h126l-150 -170h-91zM39 585h136v-585h-136v585z" />
    <glyph glyph-name="icircumflex" unicode="&#xee;" horiz-adv-x="214" 
d="M39 585h136v-585h-136v585zM68 805h84l119 -170h-102l-59 89l-59 -89h-102z" />
    <glyph glyph-name="idieresis" unicode="&#xef;" horiz-adv-x="214" 
d="M145 791h135v-161h-135v161zM-68 791h136v-161h-136v161zM39 585h136v-585h-136v585z" />
    <glyph glyph-name="eth" unicode="&#xf0;" horiz-adv-x="661" 
d="M249 718q-34 26 -73.5 55t-86.5 61h193q17 -13 32 -25.5t29 -24.5l71 50h126l-140 -99q62 -57 105.5 -110t70.5 -106.5t39 -109t12 -117.5t-23.5 -117t-64.5 -96.5t-96.5 -66t-119.5 -24.5q-61 0 -116 22.5t-96.5 63.5t-66 98t-24.5 125q0 63 24 117.5t63.5 94.5t91 63
t106.5 23q38 0 64.5 -8.5t46.5 -23.5q-40 52 -108 108l-64 -45h-128zM323 115q36 0 67 14t54 38t36 56.5t13 68.5q0 37 -13 69.5t-36 56.5t-54 38t-67 14t-67.5 -14t-54 -38t-35.5 -56.5t-13 -69.5q0 -36 13 -68.5t35.5 -56.5t54 -38t67.5 -14z" />
    <glyph glyph-name="ntilde" unicode="&#xf1;" horiz-adv-x="618" 
d="M39 585h134v-72q29 38 73.5 61t101.5 23q109 0 170.5 -66t61.5 -184v-347h-137v333q0 68 -33 107.5t-99 39.5q-58 0 -97.5 -41t-39.5 -118v-321h-135v585zM167 646q0 61 27.5 98t76.5 37q25 0 43 -7.5t34 -16.5q14 -10 26.5 -17.5t25.5 -7.5q28 0 28 45h78
q0 -62 -26 -98.5t-79 -36.5q-29 0 -49.5 10.5t-37.5 20.5q-11 7 -21.5 12t-21.5 5q-26 0 -26 -44h-78z" />
    <glyph glyph-name="ograve" unicode="&#xf2;" 
d="M323 -12q-63 0 -118.5 23.5t-96.5 65t-64.5 97t-23.5 118.5q0 48 13.5 91t38 79.5t58.5 65t75 45.5l-129 147h127l84 -125q9 1 18 1.5t18 0.5q63 0 118 -24t96.5 -65t65 -96.5t23.5 -119.5q0 -63 -23.5 -118.5t-65 -97t-96.5 -65t-118 -23.5zM323 115q36 0 67 14t54 38
t36 56.5t13 68.5q0 37 -13 69.5t-36 56.5t-54 38t-67 14t-67.5 -14t-54 -38t-35.5 -56.5t-13 -69.5q0 -36 13 -68.5t35.5 -56.5t54 -38t67.5 -14z" />
    <glyph glyph-name="oacute" unicode="&#xf3;" 
d="M392 815h126l-150 -170h-91zM323 -12q-63 0 -118.5 23.5t-96.5 65t-64.5 97t-23.5 118.5q0 64 23.5 119.5t64.5 96.5t96.5 65t118.5 24t118 -24t96.5 -65t65 -96.5t23.5 -119.5q0 -63 -23.5 -118.5t-65 -97t-96.5 -65t-118 -23.5zM323 115q36 0 67 14t54 38t36 56.5
t13 68.5q0 37 -13 69.5t-36 56.5t-54 38t-67 14t-67.5 -14t-54 -38t-35.5 -56.5t-13 -69.5q0 -36 13 -68.5t35.5 -56.5t54 -38t67.5 -14z" />
    <glyph glyph-name="ocircumflex" unicode="&#xf4;" 
d="M323 -12q-63 0 -118.5 23.5t-96.5 65t-64.5 97t-23.5 118.5q0 64 23.5 119.5t64.5 96.5t96.5 65t118.5 24t118 -24t96.5 -65t65 -96.5t23.5 -119.5q0 -63 -23.5 -118.5t-65 -97t-96.5 -65t-118 -23.5zM323 115q36 0 67 14t54 38t36 56.5t13 68.5q0 37 -13 69.5t-36 56.5
t-54 38t-67 14t-67.5 -14t-54 -38t-35.5 -56.5t-13 -69.5q0 -36 13 -68.5t35.5 -56.5t54 -38t67.5 -14zM284 805h84l119 -170h-102l-59 89l-59 -89h-102z" />
    <glyph glyph-name="otilde" unicode="&#xf5;" 
d="M323 -12q-63 0 -118.5 23.5t-96.5 65t-64.5 97t-23.5 118.5q0 64 23.5 119.5t64.5 96.5t96.5 65t118.5 24t118 -24t96.5 -65t65 -96.5t23.5 -119.5q0 -63 -23.5 -118.5t-65 -97t-96.5 -65t-118 -23.5zM323 115q36 0 67 14t54 38t36 56.5t13 68.5q0 37 -13 69.5t-36 56.5
t-54 38t-67 14t-67.5 -14t-54 -38t-35.5 -56.5t-13 -69.5q0 -36 13 -68.5t35.5 -56.5t54 -38t67.5 -14zM165 643q0 61 27.5 98t76.5 37q25 0 43 -7.5t34 -16.5q14 -10 26.5 -17.5t25.5 -7.5q28 0 28 45h78q0 -62 -26 -98.5t-79 -36.5q-29 0 -49.5 10.5t-37.5 20.5
q-11 7 -21.5 12t-21.5 5q-26 0 -26 -44h-78z" />
    <glyph glyph-name="odieresis" unicode="&#xf6;" 
d="M154 703q0 32 19.5 52t52.5 20q34 0 53 -20t19 -52t-19 -51.5t-53 -19.5t-53 19.5t-19 51.5zM345 703q0 32 19.5 52t52.5 20t52.5 -20t19.5 -52t-19.5 -51.5t-52.5 -19.5q-35 0 -53.5 19.5t-18.5 51.5zM323 -12q-63 0 -118.5 23.5t-96.5 65t-64.5 97t-23.5 118.5
q0 64 23.5 119.5t64.5 96.5t96.5 65t118.5 24t118 -24t96.5 -65t65 -96.5t23.5 -119.5q0 -63 -23.5 -118.5t-65 -97t-96.5 -65t-118 -23.5zM323 115q36 0 67 14t54 38t36 56.5t13 68.5q0 37 -13 69.5t-36 56.5t-54 38t-67 14t-67.5 -14t-54 -38t-35.5 -56.5t-13 -69.5
q0 -36 13 -68.5t35.5 -56.5t54 -38t67.5 -14z" />
    <glyph glyph-name="divide" unicode="&#xf7;" horiz-adv-x="442" 
d="M36 422h370v-115h-370v115zM165 579h114v-117h-114v117zM165 267h114v-116h-114v116z" />
    <glyph glyph-name="oslash" unicode="&#xf8;" 
d="M323 -12q-40 0 -76.5 9.5t-68.5 26.5l-19 -24h-139l73 92q-35 40 -54 91t-19 109q0 64 23.5 119.5t64.5 96.5t96.5 65t118.5 24q39 0 75 -9.5t68 -26.5l19 24h139l-73 -92q35 -40 55 -91.5t20 -109.5q0 -63 -23.5 -118.5t-65 -97t-96.5 -65t-118 -23.5zM323 115
q36 0 67 14t54.5 38t36.5 56.5t13 68.5q0 52 -27 96l-207 -261q28 -12 63 -12zM152 292q0 -52 25 -94l207 260q-29 12 -61 12q-37 0 -68 -14t-54 -38t-36 -56.5t-13 -69.5z" />
    <glyph glyph-name="ugrave" unicode="&#xf9;" horiz-adv-x="608" 
d="M569 0h-134v67q-28 -37 -70 -58t-98 -21q-52 0 -93.5 17t-71 49.5t-45 78.5t-15.5 105v347h137v-333q0 -68 30.5 -107.5t94.5 -39.5q56 0 93 41t37 118v321h135v-585zM118 797h127l114 -170h-91z" />
    <glyph glyph-name="uacute" unicode="&#xfa;" horiz-adv-x="608" 
d="M569 0h-134v67q-28 -37 -70 -58t-98 -21q-52 0 -93.5 17t-71 49.5t-45 78.5t-15.5 105v347h137v-333q0 -68 30.5 -107.5t94.5 -39.5q56 0 93 41t37 118v321h135v-585zM364 794h126l-150 -170h-91z" />
    <glyph glyph-name="ucircumflex" unicode="&#xfb;" horiz-adv-x="608" 
d="M569 0h-134v67q-28 -37 -70 -58t-98 -21q-52 0 -93.5 17t-71 49.5t-45 78.5t-15.5 105v347h137v-333q0 -68 30.5 -107.5t94.5 -39.5q56 0 93 41t37 118v321h135v-585zM260 805h84l119 -170h-102l-59 89l-59 -89h-102z" />
    <glyph glyph-name="udieresis" unicode="&#xfc;" horiz-adv-x="608" 
d="M569 0h-134v67q-28 -37 -70 -58t-98 -21q-52 0 -93.5 17t-71 49.5t-45 78.5t-15.5 105v347h137v-333q0 -68 30.5 -107.5t94.5 -39.5q56 0 93 41t37 118v321h135v-585zM138 703q0 32 19.5 52t52.5 20q34 0 53 -20t19 -52t-19 -51.5t-53 -19.5t-53 19.5t-19 51.5zM329 703
q0 32 19.5 52t52.5 20t52.5 -20t19.5 -52t-19.5 -51.5t-52.5 -19.5q-35 0 -53.5 19.5t-18.5 51.5z" />
    <glyph glyph-name="yacute" unicode="&#xfd;" horiz-adv-x="618" 
d="M246 29l-240 556h144l163 -394l154 394h142l-349 -855h-137zM372 781h126l-150 -170h-91z" />
    <glyph glyph-name="thorn" unicode="&#xfe;" horiz-adv-x="670" 
d="M365 -12q-63 0 -112 25.5t-80 66.5v-349h-134v1123h134v-348q31 40 80 65.5t112 25.5q55 0 106.5 -20t91 -59t63.5 -95t24 -128q0 -73 -24.5 -130t-64.5 -96.5t-91.5 -60t-104.5 -20.5zM343 112q38 0 70.5 14.5t56 39t36.5 58t13 71.5q0 37 -13 69.5t-36.5 57t-55.5 38.5
t-71 14q-38 0 -69.5 -14t-55 -38.5t-36.5 -57.5t-13 -70t13.5 -70t36.5 -58t55 -39.5t69 -14.5z" />
    <glyph glyph-name="ydieresis" unicode="&#xff;" horiz-adv-x="618" 
d="M246 29l-240 556h144l163 -394l154 394h142l-349 -855h-137zM144 703q0 32 19.5 52t52.5 20q34 0 53 -20t19 -52t-19 -51.5t-53 -19.5t-53 19.5t-19 51.5zM335 703q0 32 19.5 52t52.5 20t52.5 -20t19.5 -52t-19.5 -51.5t-52.5 -19.5q-35 0 -53.5 19.5t-18.5 51.5z" />
    <glyph glyph-name="Amacron" unicode="&#x100;" horiz-adv-x="687" 
d="M275 730h137l260 -730h-142l-45 130h-283l-45 -130h-142zM248 260h192l-96 277zM213 866h264v-86h-264v86z" />
    <glyph glyph-name="amacron" unicode="&#x101;" horiz-adv-x="671" 
d="M308 -12q-53 0 -104.5 20.5t-92.5 59.5t-66 95.5t-25 128.5q0 73 24.5 129.5t65 95.5t92.5 59.5t108 20.5q58 0 107 -22t81 -60v70h135v-585h-135v76q-32 -41 -82 -64.5t-108 -23.5zM330 112q37 0 69.5 14t55.5 39t36.5 58t13.5 71q0 37 -13.5 70t-36.5 57.5t-55.5 38.5
t-69.5 14q-38 0 -70 -14t-56 -38t-37.5 -57t-13.5 -71t13.5 -71.5t37.5 -58t56 -38.5t70 -14zM203 732h264v-86h-264v86z" />
    <glyph glyph-name="Abreve" unicode="&#x102;" horiz-adv-x="687" 
d="M275 730h137l260 -730h-142l-45 130h-283l-45 -130h-142zM343 775q-41 0 -71.5 13t-50.5 35.5t-29.5 54t-9.5 67.5h85q0 -48 19.5 -71t56.5 -25q36 2 56 25t20 71h86q0 -36 -11.5 -67.5t-32.5 -54t-51 -35.5t-67 -13zM248 260h192l-96 277z" />
    <glyph glyph-name="abreve" unicode="&#x103;" horiz-adv-x="671" 
d="M308 -12q-53 0 -104.5 20.5t-92.5 59.5t-66 95.5t-25 128.5q0 73 24.5 129.5t65 95.5t92.5 59.5t108 20.5q58 0 107 -22t81 -60v70h135v-585h-135v76q-32 -41 -82 -64.5t-108 -23.5zM330 112q37 0 69.5 14t55.5 39t36.5 58t13.5 71q0 37 -13.5 70t-36.5 57.5t-55.5 38.5
t-69.5 14q-38 0 -70 -14t-56 -38t-37.5 -57t-13.5 -71t13.5 -71.5t37.5 -58t56 -38.5t70 -14zM323 643q-41 0 -71.5 13t-50.5 35.5t-29.5 54t-9.5 67.5h85q0 -48 19.5 -71t56.5 -25q36 2 56 25t20 71h86q0 -36 -11.5 -67.5t-32.5 -54t-51 -35.5t-67 -13z" />
    <glyph glyph-name="Aogonek" unicode="&#x104;" horiz-adv-x="687" 
d="M585 -227q-65 0 -104.5 31.5t-39.5 77.5q0 32 18 62t69 62l-43 124h-283l-45 -130h-142l260 730h137l260 -730q-41 -27 -66.5 -44.5t-39.5 -29.5t-19 -20.5t-5 -18.5q0 -17 13 -24t30 -7q20 0 33 9t27 20l79 -54q-26 -24 -64.5 -41t-74.5 -17zM248 260h192l-96 277z" />
    <glyph glyph-name="aogonek" unicode="&#x105;" horiz-adv-x="671" 
d="M308 -12q-53 0 -104.5 20.5t-92.5 59.5t-66 95.5t-25 128.5q0 73 24.5 129.5t65 95.5t92.5 59.5t108 20.5q58 0 107 -22t81 -60v70h135v-585h1q-57 -35 -81 -64t-24 -47q0 -17 10.5 -25t27.5 -8q15 0 27.5 9t22.5 21l79 -55q-26 -27 -58 -43.5t-76 -16.5
q-58 0 -94.5 30.5t-37.5 77.5q-1 38 17.5 67.5t50.5 56.5v73q-32 -41 -82 -64.5t-108 -23.5zM330 112q37 0 69.5 14t55.5 39t36.5 58t13.5 71q0 37 -13.5 70t-36.5 57.5t-55.5 38.5t-69.5 14q-38 0 -70 -14t-56 -38t-37.5 -57t-13.5 -71t13.5 -71.5t37.5 -58t56 -38.5
t70 -14z" />
    <glyph glyph-name="Cacute" unicode="&#x106;" horiz-adv-x="738" 
d="M464 950h126l-150 -170h-91zM397 -10q-84 0 -153.5 29.5t-118.5 80t-76 119t-27 146.5q0 82 29 150.5t79.5 118.5t119 78t147.5 28q51 0 98.5 -13t89 -36.5t75 -57t57.5 -74.5l-119 -76q-32 57 -81 90t-120 33q-52 0 -96 -18.5t-76 -51t-50 -76.5t-18 -95q0 -50 18 -93.5
t49.5 -76t75 -51t94.5 -18.5q76 0 128.5 38.5t81.5 98.5l124 -65q-24 -47 -58.5 -85t-77 -65.5t-92 -42.5t-103.5 -15z" />
    <glyph glyph-name="cacute" unicode="&#x107;" horiz-adv-x="617" 
d="M391 815h126l-150 -170h-91zM324 -12q-64 0 -119.5 24t-96.5 65t-64.5 96.5t-23.5 118.5q0 64 23.5 119.5t64.5 97t96.5 65t119.5 23.5q49 0 92.5 -13.5t79.5 -37.5t63 -57t44 -73l-121 -51q-20 48 -61.5 76.5t-95.5 28.5q-37 0 -68.5 -14t-55 -38t-36.5 -56.5t-13 -69.5
q0 -36 13 -68.5t36.5 -56.5t55 -38t69.5 -14q57 0 97.5 30.5t60.5 78.5l121 -52q-17 -41 -44 -74.5t-62.5 -58t-79.5 -38t-95 -13.5z" />
    <glyph glyph-name="Ccircumflex" unicode="&#x108;" horiz-adv-x="738" 
d="M397 -10q-84 0 -153.5 29.5t-118.5 80t-76 119t-27 146.5q0 82 29 150.5t79.5 118.5t119 78t147.5 28q51 0 98.5 -13t89 -36.5t75 -57t57.5 -74.5l-119 -76q-32 57 -81 90t-120 33q-52 0 -96 -18.5t-76 -51t-50 -76.5t-18 -95q0 -50 18 -93.5t49.5 -76t75 -51t94.5 -18.5
q76 0 128.5 38.5t81.5 98.5l124 -65q-24 -47 -58.5 -85t-77 -65.5t-92 -42.5t-103.5 -15zM359 950h84l119 -170h-102l-59 89l-59 -89h-102z" />
    <glyph glyph-name="ccircumflex" unicode="&#x109;" horiz-adv-x="617" 
d="M324 -12q-64 0 -119.5 24t-96.5 65t-64.5 96.5t-23.5 118.5q0 64 23.5 119.5t64.5 97t96.5 65t119.5 23.5q49 0 92.5 -13.5t79.5 -37.5t63 -57t44 -73l-121 -51q-20 48 -61.5 76.5t-95.5 28.5q-37 0 -68.5 -14t-55 -38t-36.5 -56.5t-13 -69.5q0 -36 13 -68.5t36.5 -56.5
t55 -38t69.5 -14q57 0 97.5 30.5t60.5 78.5l121 -52q-17 -41 -44 -74.5t-62.5 -58t-79.5 -38t-95 -13.5zM283 809h84l119 -170h-102l-59 89l-59 -89h-102z" />
    <glyph glyph-name="Cdotaccent" unicode="&#x10a;" horiz-adv-x="738" 
d="M397 -10q-84 0 -153.5 29.5t-118.5 80t-76 119t-27 146.5q0 82 29 150.5t79.5 118.5t119 78t147.5 28q51 0 98.5 -13t89 -36.5t75 -57t57.5 -74.5l-119 -76q-32 57 -81 90t-120 33q-52 0 -96 -18.5t-76 -51t-50 -76.5t-18 -95q0 -50 18 -93.5t49.5 -76t75 -51t94.5 -18.5
q76 0 128.5 38.5t81.5 98.5l124 -65q-24 -47 -58.5 -85t-77 -65.5t-92 -42.5t-103.5 -15zM324 849q0 35 21.5 57t57.5 22q37 0 58 -22t21 -57t-21 -56.5t-58 -21.5q-38 0 -58.5 21.5t-20.5 56.5z" />
    <glyph glyph-name="cdotaccent" unicode="&#x10b;" horiz-adv-x="617" 
d="M324 -12q-64 0 -119.5 24t-96.5 65t-64.5 96.5t-23.5 118.5q0 64 23.5 119.5t64.5 97t96.5 65t119.5 23.5q49 0 92.5 -13.5t79.5 -37.5t63 -57t44 -73l-121 -51q-20 48 -61.5 76.5t-95.5 28.5q-37 0 -68.5 -14t-55 -38t-36.5 -56.5t-13 -69.5q0 -36 13 -68.5t36.5 -56.5
t55 -38t69.5 -14q57 0 97.5 30.5t60.5 78.5l121 -52q-17 -41 -44 -74.5t-62.5 -58t-79.5 -38t-95 -13.5zM244 713q0 35 21.5 57t57.5 22q37 0 58 -22t21 -57t-21 -56.5t-58 -21.5q-38 0 -58.5 21.5t-20.5 56.5z" />
    <glyph glyph-name="Ccaron" unicode="&#x10c;" horiz-adv-x="738" 
d="M397 -10q-84 0 -153.5 29.5t-118.5 80t-76 119t-27 146.5q0 82 29 150.5t79.5 118.5t119 78t147.5 28q51 0 98.5 -13t89 -36.5t75 -57t57.5 -74.5l-119 -76q-32 57 -81 90t-120 33q-52 0 -96 -18.5t-76 -51t-50 -76.5t-18 -95q0 -50 18 -93.5t49.5 -76t75 -51t94.5 -18.5
q76 0 128.5 38.5t81.5 98.5l124 -65q-24 -47 -58.5 -85t-77 -65.5t-92 -42.5t-103.5 -15zM237 950h102l59 -89l59 89h102l-119 -170h-84z" />
    <glyph glyph-name="ccaron" unicode="&#x10d;" horiz-adv-x="617" 
d="M324 -12q-64 0 -119.5 24t-96.5 65t-64.5 96.5t-23.5 118.5q0 64 23.5 119.5t64.5 97t96.5 65t119.5 23.5q49 0 92.5 -13.5t79.5 -37.5t63 -57t44 -73l-121 -51q-20 48 -61.5 76.5t-95.5 28.5q-37 0 -68.5 -14t-55 -38t-36.5 -56.5t-13 -69.5q0 -36 13 -68.5t36.5 -56.5
t55 -38t69.5 -14q57 0 97.5 30.5t60.5 78.5l121 -52q-17 -41 -44 -74.5t-62.5 -58t-79.5 -38t-95 -13.5zM172 815h102l59 -89l59 89h102l-119 -170h-84z" />
    <glyph glyph-name="Dcaron" unicode="&#x10e;" horiz-adv-x="648" 
d="M42 730h199q92 0 164 -28t121.5 -77t75 -115.5t25.5 -144.5t-28 -145t-78.5 -115.5t-120.5 -76.5t-153 -28h-205v730zM178 604v-478h53q60 0 108 18t81.5 50.5t52 76t18.5 94.5q0 52 -16.5 96t-49.5 76t-83 49.5t-117 17.5h-47zM105 950h102l59 -89l59 89h102l-119 -170
h-84z" />
    <glyph glyph-name="dcaron" unicode="&#x10f;" horiz-adv-x="742" 
d="M308 -12q-53 0 -104.5 20.5t-92.5 59.5t-66 95.5t-25 128.5q0 73 24.5 129.5t65 95.5t92.5 59.5t108 20.5q57 0 106 -21.5t81 -59.5v224h136v-740h-135v76q-32 -41 -82 -64.5t-108 -23.5zM330 112q37 0 69.5 14t55.5 39t36.5 58t13.5 71q0 37 -13.5 70t-36.5 57.5
t-55.5 38.5t-69.5 14q-38 0 -70 -14t-56 -38t-37.5 -57t-13.5 -71t13.5 -71.5t37.5 -58t56 -38.5t70 -14zM679 732h109l-51 -171h-83z" />
    <glyph glyph-name="Dcroat" unicode="&#x110;" horiz-adv-x="695" 
d="M20 424h69v306h199q92 0 164 -28t121.5 -77t75 -115.5t25.5 -144.5t-28 -145t-78.5 -115.5t-120.5 -76.5t-153 -28h-205v309h-69v115zM225 604v-180h165v-115h-165v-183h53q60 0 108 18t81.5 50.5t52 76t18.5 94.5q0 52 -16.5 96t-49.5 76t-83 49.5t-117 17.5h-47z" />
    <glyph glyph-name="dcroat" unicode="&#x111;" horiz-adv-x="679" 
d="M430 682h67v58h136v-58h61v-74h-61v-608h-135v76q-32 -41 -82 -64.5t-108 -23.5q-53 0 -104.5 20.5t-92.5 59.5t-66 95.5t-25 128.5q0 73 24.5 129.5t65 95.5t92.5 59.5t108 20.5q57 0 106 -21.5t81 -59.5v92h-67v74zM330 112q37 0 69.5 14t55.5 39t36.5 58t13.5 71
q0 37 -13.5 70t-36.5 57.5t-55.5 38.5t-69.5 14q-38 0 -70 -14t-56 -38t-37.5 -57t-13.5 -71t13.5 -71.5t37.5 -58t56 -38.5t70 -14z" />
    <glyph glyph-name="Emacron" unicode="&#x112;" horiz-adv-x="509" 
d="M42 730h433v-130h-297v-168h297v-130h-297v-172h297v-130h-433v730zM127 866h264v-86h-264v86z" />
    <glyph glyph-name="emacron" unicode="&#x113;" 
d="M329 -12q-69 0 -126 23.5t-97.5 64.5t-63 96.5t-22.5 118.5q0 64 23.5 120t64.5 97t96.5 65t119.5 24q65 0 120.5 -22.5t95.5 -63t62.5 -95.5t22.5 -120v-51h-476q14 -62 61 -100t119 -38q57 0 99 28t63 75l111 -64q-38 -71 -106.5 -114.5t-166.5 -43.5zM324 478
q-61 0 -105.5 -33t-62.5 -87h332q-15 59 -58 89.5t-106 30.5zM199 729h264v-86h-264v86z" />
    <glyph glyph-name="Ebreve" unicode="&#x114;" horiz-adv-x="509" 
d="M42 730h433v-130h-297v-168h297v-130h-297v-172h297v-130h-433v730zM262 775q-41 0 -71.5 13t-50.5 35.5t-29.5 54t-9.5 67.5h85q0 -48 19.5 -71t56.5 -25q36 2 56 25t20 71h86q0 -36 -11.5 -67.5t-32.5 -54t-51 -35.5t-67 -13z" />
    <glyph glyph-name="ebreve" unicode="&#x115;" 
d="M329 -12q-69 0 -126 23.5t-97.5 64.5t-63 96.5t-22.5 118.5q0 64 23.5 120t64.5 97t96.5 65t119.5 24q65 0 120.5 -22.5t95.5 -63t62.5 -95.5t22.5 -120v-51h-476q14 -62 61 -100t119 -38q57 0 99 28t63 75l111 -64q-38 -71 -106.5 -114.5t-166.5 -43.5zM329 640
q-41 0 -71.5 13t-50.5 35.5t-29.5 54t-9.5 67.5h85q0 -48 19.5 -71t56.5 -25q36 2 56 25t20 71h86q0 -36 -11.5 -67.5t-32.5 -54t-51 -35.5t-67 -13zM324 478q-61 0 -105.5 -33t-62.5 -87h332q-15 59 -58 89.5t-106 30.5z" />
    <glyph glyph-name="Edotaccent" unicode="&#x116;" horiz-adv-x="509" 
d="M42 730h433v-130h-297v-168h297v-130h-297v-172h297v-130h-433v730zM197 849q0 35 21.5 57t57.5 22q37 0 58 -22t21 -57t-21 -56.5t-58 -21.5q-38 0 -58.5 21.5t-20.5 56.5z" />
    <glyph glyph-name="edotaccent" unicode="&#x117;" 
d="M329 -12q-69 0 -126 23.5t-97.5 64.5t-63 96.5t-22.5 118.5q0 64 23.5 120t64.5 97t96.5 65t119.5 24q65 0 120.5 -22.5t95.5 -63t62.5 -95.5t22.5 -120v-51h-476q14 -62 61 -100t119 -38q57 0 99 28t63 75l111 -64q-38 -71 -106.5 -114.5t-166.5 -43.5zM324 478
q-61 0 -105.5 -33t-62.5 -87h332q-15 59 -58 89.5t-106 30.5zM247 708q0 35 21.5 57t57.5 22q37 0 58 -22t21 -57t-21 -56.5t-58 -21.5q-38 0 -58.5 21.5t-20.5 56.5z" />
    <glyph glyph-name="Eogonek" unicode="&#x118;" horiz-adv-x="509" 
d="M42 730h433v-130h-297v-168h297v-130h-297v-172h297v-130h1q-41 -27 -66.5 -44.5t-39.5 -29.5t-19 -20.5t-5 -18.5q0 -17 13 -24t30 -7q20 0 33 9t27 20l79 -54q-26 -24 -64.5 -41t-74.5 -17q-65 0 -104.5 31.5t-39.5 77.5q0 30 16 58.5t61 59.5h-280v730z" />
    <glyph glyph-name="eogonek" unicode="&#x119;" 
d="M343 -224q-65 0 -104.5 31.5t-39.5 77.5q0 28 13.5 54.5t50.5 54.5q-55 10 -100 37t-76.5 66.5t-49 88.5t-17.5 105q0 64 23.5 120t64.5 97t96.5 65t119.5 24q65 0 120.5 -22.5t95.5 -63t62.5 -95.5t22.5 -120v-51h-476q14 -62 61 -100t119 -38q57 0 99 28t63 75l111 -64
q-28 -51 -71 -88.5t-102 -55.5q-41 -27 -66 -44t-39 -29t-19 -20.5t-5 -18.5q0 -17 13 -24t30 -7q20 0 33 9t27 20l79 -54q-26 -24 -64.5 -41t-74.5 -17zM324 478q-61 0 -105.5 -33t-62.5 -87h332q-15 59 -58 89.5t-106 30.5z" />
    <glyph glyph-name="Ecaron" unicode="&#x11a;" horiz-adv-x="509" 
d="M42 730h433v-130h-297v-168h297v-130h-297v-172h297v-130h-433v730zM96 950h102l59 -89l59 89h102l-119 -170h-84z" />
    <glyph glyph-name="ecaron" unicode="&#x11b;" 
d="M329 -12q-69 0 -126 23.5t-97.5 64.5t-63 96.5t-22.5 118.5q0 64 23.5 120t64.5 97t96.5 65t119.5 24q65 0 120.5 -22.5t95.5 -63t62.5 -95.5t22.5 -120v-51h-476q14 -62 61 -100t119 -38q57 0 99 28t63 75l111 -64q-38 -71 -106.5 -114.5t-166.5 -43.5zM324 478
q-61 0 -105.5 -33t-62.5 -87h332q-15 59 -58 89.5t-106 30.5zM166 810h102l59 -89l59 89h102l-119 -170h-84z" />
    <glyph glyph-name="Gcircumflex" unicode="&#x11c;" horiz-adv-x="780" 
d="M401 -10q-86 0 -155.5 30t-119.5 81.5t-77 119.5t-27 144q0 78 28 146.5t77.5 119t118 80t149.5 29.5q57 0 107 -14t92.5 -38.5t76 -59t56.5 -75.5l-120 -72q-34 63 -86.5 95t-124.5 32q-51 0 -94.5 -19.5t-76 -52.5t-50.5 -77t-18 -94q0 -51 18 -95t50.5 -77t77.5 -52
t98 -19q82 0 136.5 43t74.5 115h-233v130h379v-54q0 -74 -25 -140.5t-71.5 -116.5t-112.5 -79.5t-148 -29.5zM353 950h84l119 -170h-102l-59 89l-59 -89h-102z" />
    <glyph glyph-name="gcircumflex" unicode="&#x11d;" horiz-adv-x="673" 
d="M499 78q-32 -42 -82 -66t-109 -24q-53 0 -104.5 20.5t-92.5 59.5t-66 95.5t-25 128.5q0 73 24.5 129.5t65 95.5t92.5 59.5t108 20.5q58 0 107 -23.5t81 -63.5v75h135v-570q0 -62 -19.5 -116t-57.5 -94.5t-94.5 -64t-130.5 -23.5q-57 0 -103.5 12.5t-83.5 35t-65 53
t-48 67.5l120 73q16 -29 33 -51t38.5 -36.5t48.5 -22t62 -7.5q38 0 69 14t52.5 37t33 54t11.5 64v68zM330 112q37 0 69.5 14t55.5 39t36.5 58t13.5 71q0 37 -13.5 70t-36.5 57.5t-55.5 38.5t-69.5 14q-38 0 -70 -14t-56 -38t-37.5 -57t-13.5 -71t13.5 -71.5t37.5 -58
t56 -38.5t70 -14zM302 815h84l119 -170h-102l-59 89l-59 -89h-102z" />
    <glyph glyph-name="Gbreve" unicode="&#x11e;" horiz-adv-x="780" 
d="M401 -10q-86 0 -155.5 30t-119.5 81.5t-77 119.5t-27 144q0 78 28 146.5t77.5 119t118 80t149.5 29.5q57 0 107 -14t92.5 -38.5t76 -59t56.5 -75.5l-120 -72q-34 63 -86.5 95t-124.5 32q-51 0 -94.5 -19.5t-76 -52.5t-50.5 -77t-18 -94q0 -51 18 -95t50.5 -77t77.5 -52
t98 -19q82 0 136.5 43t74.5 115h-233v130h379v-54q0 -74 -25 -140.5t-71.5 -116.5t-112.5 -79.5t-148 -29.5zM394 775q-41 0 -71.5 13t-50.5 35.5t-29.5 54t-9.5 67.5h85q0 -48 19.5 -71t56.5 -25q36 2 56 25t20 71h86q0 -36 -11.5 -67.5t-32.5 -54t-51 -35.5t-67 -13z" />
    <glyph glyph-name="gbreve" unicode="&#x11f;" horiz-adv-x="673" 
d="M499 78q-32 -42 -82 -66t-109 -24q-53 0 -104.5 20.5t-92.5 59.5t-66 95.5t-25 128.5q0 73 24.5 129.5t65 95.5t92.5 59.5t108 20.5q58 0 107 -23.5t81 -63.5v75h135v-570q0 -62 -19.5 -116t-57.5 -94.5t-94.5 -64t-130.5 -23.5q-57 0 -103.5 12.5t-83.5 35t-65 53
t-48 67.5l120 73q16 -29 33 -51t38.5 -36.5t48.5 -22t62 -7.5q38 0 69 14t52.5 37t33 54t11.5 64v68zM330 112q37 0 69.5 14t55.5 39t36.5 58t13.5 71q0 37 -13.5 70t-36.5 57.5t-55.5 38.5t-69.5 14q-38 0 -70 -14t-56 -38t-37.5 -57t-13.5 -71t13.5 -71.5t37.5 -58
t56 -38.5t70 -14zM340 638q-41 0 -71.5 13t-50.5 35.5t-29.5 54t-9.5 67.5h85q0 -48 19.5 -71t56.5 -25q36 2 56 25t20 71h86q0 -36 -11.5 -67.5t-32.5 -54t-51 -35.5t-67 -13z" />
    <glyph glyph-name="Gdotaccent" unicode="&#x120;" horiz-adv-x="780" 
d="M401 -10q-86 0 -155.5 30t-119.5 81.5t-77 119.5t-27 144q0 78 28 146.5t77.5 119t118 80t149.5 29.5q57 0 107 -14t92.5 -38.5t76 -59t56.5 -75.5l-120 -72q-34 63 -86.5 95t-124.5 32q-51 0 -94.5 -19.5t-76 -52.5t-50.5 -77t-18 -94q0 -51 18 -95t50.5 -77t77.5 -52
t98 -19q82 0 136.5 43t74.5 115h-233v130h379v-54q0 -74 -25 -140.5t-71.5 -116.5t-112.5 -79.5t-148 -29.5zM319 849q0 35 21.5 57t57.5 22q37 0 58 -22t21 -57t-21 -56.5t-58 -21.5q-38 0 -58.5 21.5t-20.5 56.5z" />
    <glyph glyph-name="gdotaccent" unicode="&#x121;" horiz-adv-x="673" 
d="M499 78q-32 -42 -82 -66t-109 -24q-53 0 -104.5 20.5t-92.5 59.5t-66 95.5t-25 128.5q0 73 24.5 129.5t65 95.5t92.5 59.5t108 20.5q58 0 107 -23.5t81 -63.5v75h135v-570q0 -62 -19.5 -116t-57.5 -94.5t-94.5 -64t-130.5 -23.5q-57 0 -103.5 12.5t-83.5 35t-65 53
t-48 67.5l120 73q16 -29 33 -51t38.5 -36.5t48.5 -22t62 -7.5q38 0 69 14t52.5 37t33 54t11.5 64v68zM330 112q37 0 69.5 14t55.5 39t36.5 58t13.5 71q0 37 -13.5 70t-36.5 57.5t-55.5 38.5t-69.5 14q-38 0 -70 -14t-56 -38t-37.5 -57t-13.5 -71t13.5 -71.5t37.5 -58
t56 -38.5t70 -14zM249 713q0 35 21.5 57t57.5 22q37 0 58 -22t21 -57t-21 -56.5t-58 -21.5q-38 0 -58.5 21.5t-20.5 56.5z" />
    <glyph glyph-name="Gcommaaccent" unicode="&#x122;" horiz-adv-x="780" 
d="M401 -10q-86 0 -155.5 30t-119.5 81.5t-77 119.5t-27 144q0 78 28 146.5t77.5 119t118 80t149.5 29.5q57 0 107 -14t92.5 -38.5t76 -59t56.5 -75.5l-120 -72q-34 63 -86.5 95t-124.5 32q-51 0 -94.5 -19.5t-76 -52.5t-50.5 -77t-18 -94q0 -51 18 -95t50.5 -77t77.5 -52
t98 -19q82 0 136.5 43t74.5 115h-233v130h379v-54q0 -74 -25 -140.5t-71.5 -116.5t-112.5 -79.5t-148 -29.5zM314 -250l34 204h119l-70 -204h-83z" />
    <glyph glyph-name="gcommaaccent" unicode="&#x123;" horiz-adv-x="673" 
d="M499 78q-32 -42 -82 -66t-109 -24q-53 0 -104.5 20.5t-92.5 59.5t-66 95.5t-25 128.5q0 73 24.5 129.5t65 95.5t92.5 59.5t108 20.5q58 0 107 -23.5t81 -63.5v75h135v-570q0 -62 -19.5 -116t-57.5 -94.5t-94.5 -64t-130.5 -23.5q-57 0 -103.5 12.5t-83.5 35t-65 53
t-48 67.5l120 73q16 -29 33 -51t38.5 -36.5t48.5 -22t62 -7.5q38 0 69 14t52.5 37t33 54t11.5 64v68zM330 112q37 0 69.5 14t55.5 39t36.5 58t13.5 71q0 37 -13.5 70t-36.5 57.5t-55.5 38.5t-69.5 14q-38 0 -70 -14t-56 -38t-37.5 -57t-13.5 -71t13.5 -71.5t37.5 -58
t56 -38.5t70 -14zM279 645l34 204h119l-70 -204h-83z" />
    <glyph glyph-name="Hcircumflex" unicode="&#x124;" horiz-adv-x="636" 
d="M458 301h-280v-301h-136v730h136v-299h280v299h136v-730h-136v301zM275 950h84l119 -170h-102l-59 89l-59 -89h-102z" />
    <glyph glyph-name="hcircumflex" unicode="&#x125;" horiz-adv-x="619" 
d="M39 740h135v-225q30 38 74.5 60t100.5 22q109 0 170.5 -66t61.5 -184v-347h-138v332q0 69 -33 108.5t-99 39.5q-29 0 -53.5 -10.5t-43 -31t-29 -50t-10.5 -67.5v-321h-136v740zM67 946h84l119 -170h-102l-59 89l-59 -89h-102z" />
    <glyph glyph-name="Hbar" unicode="&#x126;" horiz-adv-x="695" 
d="M14 632h57v98h136v-98h280v98h136v-98h57v-103h-57v-529h-136v301h-280v-301h-136v529h-57v103zM207 431h280v98h-280v-98z" />
    <glyph glyph-name="hbar" unicode="&#x127;" horiz-adv-x="627" 
d="M-11 678h58v62h135v-62h63v-73h-63v-90q30 38 74.5 60t100.5 22q109 0 170.5 -66t61.5 -184v-347h-138v332q0 69 -33 108.5t-99 39.5q-29 0 -53.5 -10.5t-43 -31t-29 -50t-10.5 -67.5v-321h-136v605h-58v73z" />
    <glyph glyph-name="Itilde" unicode="&#x128;" horiz-adv-x="230" 
d="M47 730h136v-730h-136v730zM-47 780q0 61 27.5 98t76.5 37q25 0 43 -7.5t34 -16.5q14 -10 26.5 -17.5t25.5 -7.5q28 0 28 45h78q0 -62 -26 -98.5t-79 -36.5q-29 0 -49.5 10.5t-37.5 20.5q-11 7 -21.5 12t-21.5 5q-26 0 -26 -44h-78z" />
    <glyph glyph-name="itilde" unicode="&#x129;" horiz-adv-x="214" 
d="M39 585h136v-585h-136v585zM-63 635q0 61 27.5 98t76.5 37q25 0 43 -7.5t34 -16.5q14 -10 26.5 -17.5t25.5 -7.5q28 0 28 45h78q0 -62 -26 -98.5t-79 -36.5q-29 0 -49.5 10.5t-37.5 20.5q-11 7 -21.5 12t-21.5 5q-26 0 -26 -44h-78z" />
    <glyph glyph-name="Imacron" unicode="&#x12a;" horiz-adv-x="230" 
d="M47 730h136v-730h-136v730zM-17 866h264v-86h-264v86z" />
    <glyph glyph-name="imacron" unicode="&#x12b;" horiz-adv-x="214" 
d="M39 585h136v-585h-136v585zM-23 721h264v-86h-264v86z" />
    <glyph glyph-name="Ibreve" unicode="&#x12c;" horiz-adv-x="230" 
d="M47 730h136v-730h-136v730zM113 775q-41 0 -71.5 13t-50.5 35.5t-29.5 54t-9.5 67.5h85q0 -48 19.5 -71t56.5 -25q36 2 56 25t20 71h86q0 -36 -11.5 -67.5t-32.5 -54t-51 -35.5t-67 -13z" />
    <glyph glyph-name="ibreve" unicode="&#x12d;" horiz-adv-x="214" 
d="M39 585h136v-585h-136v585zM111 629q-41 0 -71.5 13t-50.5 35.5t-29.5 54t-9.5 67.5h85q0 -48 19.5 -71t56.5 -25q36 2 56 25t20 71h86q0 -36 -11.5 -67.5t-32.5 -54t-51 -35.5t-67 -13z" />
    <glyph glyph-name="Iogonek" unicode="&#x12e;" horiz-adv-x="230" 
d="M107 -229q-58 0 -94.5 30.5t-37.5 77.5q-1 39 18 69.5t54 57.5v724h136v-730h-4q-57 -35 -81 -64t-24 -47q0 -17 10.5 -25t27.5 -8q15 0 27.5 9t22.5 21l79 -55q-26 -27 -58 -43.5t-76 -16.5z" />
    <glyph glyph-name="iogonek" unicode="&#x12f;" horiz-adv-x="214" 
d="M48 -229q-58 0 -94.5 30.5t-37.5 77.5q-1 52 32.5 89t89.5 74l1 -1v544h136v-585h-55q-57 -35 -81 -64t-24 -47q0 -17 10.5 -25t27.5 -8q15 0 27.5 9t22.5 21l79 -55q-26 -27 -58 -43.5t-76 -16.5zM22 728q0 38 23 61.5t62 23.5q40 0 62.5 -23.5t22.5 -61.5t-22.5 -61
t-62.5 -23q-41 0 -63 23t-22 61z" />
    <glyph glyph-name="Idotaccent" unicode="&#x130;" horiz-adv-x="230" 
d="M47 730h136v-730h-136v730zM34 849q0 35 21.5 57t57.5 22q37 0 58 -22t21 -57t-21 -56.5t-58 -21.5q-38 0 -58.5 21.5t-20.5 56.5z" />
    <glyph glyph-name="dotlessi" unicode="&#x131;" horiz-adv-x="214" 
d="M39 585h136v-585h-136v585z" />
    <glyph glyph-name="IJ" unicode="&#x132;" horiz-adv-x="495" 
d="M237 133h8q23 0 37 2.5t22 10.5t11 22t3 38v524h136v-520q0 -59 -8 -99t-29 -64.5t-59 -35.5t-98 -11h-23v133zM41 730h136v-730h-136v730z" />
    <glyph glyph-name="ij" unicode="&#x133;" horiz-adv-x="434" 
d="M39 -112h99q39 0 63 4t37 16.5t17 36t4 61.5v579h136v-580q0 -69 -12 -116t-39.5 -75.5t-73 -40.5t-111.5 -12h-120v127zM39 585h136v-585h-136v585zM39 822h136v-163h-136v163zM259 822h136v-163h-136v163z" />
    <glyph glyph-name="Jcircumflex" unicode="&#x134;" horiz-adv-x="501" 
d="M247 -10q-88 0 -149 44.5t-79 120.5l134 44q8 -35 32.5 -58.5t59.5 -23.5q42 0 60.5 27.5t18.5 65.5v520h136v-508q0 -110 -55.5 -171t-157.5 -61zM345 950h84l119 -170h-102l-59 89l-59 -89h-102z" />
    <glyph glyph-name="jcircumflex" unicode="&#x135;" horiz-adv-x="214" 
d="M-82 -142q39 0 63 4t37 16.5t17 35.5t4 62v609h137v-610q0 -70 -12 -116.5t-40 -75t-74 -40.5t-113 -12h-19v127zM66 805h84l119 -170h-102l-59 89l-59 -89h-102z" />
    <glyph glyph-name="Kcommaaccent" unicode="&#x136;" horiz-adv-x="618" 
d="M257 351l-79 -98v-253h-136v730h136v-299l241 299h165l-231 -284l252 -446h-155zM223 -250l34 204h119l-70 -204h-83z" />
    <glyph glyph-name="kcommaaccent" unicode="&#x137;" horiz-adv-x="601" 
d="M39 740h135v-437l249 282h162l-226 -253l234 -332h-151l-175 252l-93 -103v-149h-135v740zM202 -240l34 204h119l-70 -204h-83z" />
    <glyph glyph-name="kgreenlandic" unicode="&#x138;" horiz-adv-x="601" 
d="M267 252l-93 -103v-149h-135v585h135v-282l249 282h162l-225 -253l232 -332h-150z" />
    <glyph glyph-name="Lacute" unicode="&#x139;" horiz-adv-x="481" 
d="M42 730h136v-600h267v-130h-403v730zM177 950h126l-150 -170h-91z" />
    <glyph glyph-name="lacute" unicode="&#x13a;" horiz-adv-x="214" 
d="M177 965h126l-150 -170h-91zM39 740h136v-740h-136v740z" />
    <glyph glyph-name="Lcommaaccent" unicode="&#x13b;" horiz-adv-x="481" 
d="M42 730h136v-600h267v-130h-403v730zM150 -250l34 204h119l-70 -204h-83z" />
    <glyph glyph-name="lcommaaccent" unicode="&#x13c;" horiz-adv-x="214" 
d="M13 -250l34 204h119l-70 -204h-83zM39 740h136v-740h-136v740z" />
    <glyph glyph-name="Lcaron" unicode="&#x13d;" horiz-adv-x="481" 
d="M42 730h136v-600h267v-130h-403v730zM258 730h109l-51 -171h-83z" />
    <glyph glyph-name="lcaron" unicode="&#x13e;" horiz-adv-x="282" 
d="M37 740h136v-740h-136v740zM220 740h109l-51 -171h-83z" />
    <glyph glyph-name="Ldot" unicode="&#x13f;" horiz-adv-x="481" 
d="M42 730h136v-600h267v-130h-403v730zM298 360q0 35 21.5 57t57.5 22q37 0 58 -22t21 -57t-21 -56.5t-58 -21.5q-38 0 -58.5 21.5t-20.5 56.5z" />
    <glyph glyph-name="ldot" unicode="&#x140;" horiz-adv-x="381" 
d="M39 740h136v-740h-136v740zM217 314q0 35 21.5 57t57.5 22q37 0 58 -22t21 -57t-21 -56.5t-58 -21.5q-38 0 -58.5 21.5t-20.5 56.5z" />
    <glyph glyph-name="Lslash" unicode="&#x141;" horiz-adv-x="525" 
d="M17 381l69 22v327h136v-284l155 50v-97l-155 -49v-220h267v-130h-403v307l-69 -22v96z" />
    <glyph glyph-name="lslash" unicode="&#x142;" horiz-adv-x="369" 
d="M29 467l86 28v245h135v-201l90 30v-98l-90 -30v-441h-135v396l-86 -28v99z" />
    <glyph glyph-name="Nacute" unicode="&#x143;" horiz-adv-x="690" 
d="M42 730h154l316 -497v497h136v-730h-145l-325 513v-513h-136v730zM422 950h126l-150 -170h-91z" />
    <glyph glyph-name="nacute" unicode="&#x144;" horiz-adv-x="618" 
d="M39 585h134v-72q29 38 73.5 61t101.5 23q109 0 170.5 -66t61.5 -184v-347h-137v333q0 68 -33 107.5t-99 39.5q-58 0 -97.5 -41t-39.5 -118v-321h-135v585zM373 810h126l-150 -170h-91z" />
    <glyph glyph-name="Ncommaaccent" unicode="&#x145;" horiz-adv-x="690" 
d="M42 730h154l316 -497v497h136v-730h-145l-325 513v-513h-136v730zM249 -250l34 204h119l-70 -204h-83z" />
    <glyph glyph-name="ncommaaccent" unicode="&#x146;" horiz-adv-x="618" 
d="M39 585h134v-72q29 38 73.5 61t101.5 23q109 0 170.5 -66t61.5 -184v-347h-137v333q0 68 -33 107.5t-99 39.5q-58 0 -97.5 -41t-39.5 -118v-321h-135v585zM220 -233l34 204h119l-70 -204h-83z" />
    <glyph glyph-name="Ncaron" unicode="&#x147;" horiz-adv-x="690" 
d="M42 730h154l316 -497v497h136v-730h-145l-325 513v-513h-136v730zM186 950h102l59 -89l59 89h102l-119 -170h-84z" />
    <glyph glyph-name="ncaron" unicode="&#x148;" horiz-adv-x="618" 
d="M39 585h134v-72q29 38 73.5 61t101.5 23q109 0 170.5 -66t61.5 -184v-347h-137v333q0 68 -33 107.5t-99 39.5q-58 0 -97.5 -41t-39.5 -118v-321h-135v585zM158 810h102l59 -89l59 89h102l-119 -170h-84z" />
    <glyph glyph-name="Eng" unicode="&#x14a;" horiz-adv-x="690" 
d="M436 -75h6q22 0 35.5 3t21 10.5t10.5 21t3 34.5v33l-334 494v-521h-136v730h154l316 -466v466h136v-731q0 -59 -10.5 -98.5t-33 -63.5t-59 -34.5t-89.5 -10.5h-20v133z" />
    <glyph glyph-name="eng" unicode="&#x14b;" horiz-adv-x="618" 
d="M322 -142q39 0 63 4t37 16.5t17 35.5t4 62v357q0 68 -33 107.5t-99 39.5q-58 0 -97.5 -41t-39.5 -118v-321h-135v585h134v-72q29 38 73.5 61t101.5 23q109 0 170.5 -66t61.5 -184v-372q0 -70 -12 -116.5t-39.5 -75t-73.5 -40.5t-113 -12h-20v127z" />
    <glyph glyph-name="Omacron" unicode="&#x14c;" horiz-adv-x="790" 
d="M258 866h264v-86h-264v86zM395 -10q-78 0 -146 29.5t-118.5 80t-79.5 119t-29 146.5t29 146t79.5 119t118.5 80.5t146 29.5t146 -29.5t119 -80.5t80 -119t29 -146t-29 -146.5t-80 -119t-119 -80t-146 -29.5zM395 124q50 0 93.5 19t76 51.5t51 76.5t18.5 94t-18.5 94
t-51 76.5t-76 51.5t-93.5 19t-93.5 -19t-75.5 -51.5t-50.5 -76.5t-18.5 -94t18.5 -94t50.5 -76.5t75.5 -51.5t93.5 -19z" />
    <glyph glyph-name="omacron" unicode="&#x14d;" 
d="M193 731h264v-86h-264v86zM323 -12q-63 0 -118.5 23.5t-96.5 65t-64.5 97t-23.5 118.5q0 64 23.5 119.5t64.5 96.5t96.5 65t118.5 24t118 -24t96.5 -65t65 -96.5t23.5 -119.5q0 -63 -23.5 -118.5t-65 -97t-96.5 -65t-118 -23.5zM323 115q36 0 67 14t54 38t36 56.5
t13 68.5q0 37 -13 69.5t-36 56.5t-54 38t-67 14t-67.5 -14t-54 -38t-35.5 -56.5t-13 -69.5q0 -36 13 -68.5t35.5 -56.5t54 -38t67.5 -14z" />
    <glyph glyph-name="Obreve" unicode="&#x14e;" horiz-adv-x="790" 
d="M395 -10q-78 0 -146 29.5t-118.5 80t-79.5 119t-29 146.5t29 146t79.5 119t118.5 80.5t146 29.5t146 -29.5t119 -80.5t80 -119t29 -146t-29 -146.5t-80 -119t-119 -80t-146 -29.5zM395 124q50 0 93.5 19t76 51.5t51 76.5t18.5 94t-18.5 94t-51 76.5t-76 51.5t-93.5 19
t-93.5 -19t-75.5 -51.5t-50.5 -76.5t-18.5 -94t18.5 -94t50.5 -76.5t75.5 -51.5t93.5 -19zM388 775q-41 0 -71.5 13t-50.5 35.5t-29.5 54t-9.5 67.5h85q0 -48 19.5 -71t56.5 -25q36 2 56 25t20 71h86q0 -36 -11.5 -67.5t-32.5 -54t-51 -35.5t-67 -13z" />
    <glyph glyph-name="obreve" unicode="&#x14f;" 
d="M323 -12q-63 0 -118.5 23.5t-96.5 65t-64.5 97t-23.5 118.5q0 64 23.5 119.5t64.5 96.5t96.5 65t118.5 24t118 -24t96.5 -65t65 -96.5t23.5 -119.5q0 -63 -23.5 -118.5t-65 -97t-96.5 -65t-118 -23.5zM323 115q36 0 67 14t54 38t36 56.5t13 68.5q0 37 -13 69.5t-36 56.5
t-54 38t-67 14t-67.5 -14t-54 -38t-35.5 -56.5t-13 -69.5q0 -36 13 -68.5t35.5 -56.5t54 -38t67.5 -14zM321 642q-41 0 -71.5 13t-50.5 35.5t-29.5 54t-9.5 67.5h85q0 -48 19.5 -71t56.5 -25q36 2 56 25t20 71h86q0 -36 -11.5 -67.5t-32.5 -54t-51 -35.5t-67 -13z" />
    <glyph glyph-name="Ohungarumlaut" unicode="&#x150;" horiz-adv-x="790" 
d="M370 950h120l-150 -170h-84zM536 950h120l-150 -170h-84zM395 -10q-78 0 -146 29.5t-118.5 80t-79.5 119t-29 146.5t29 146t79.5 119t118.5 80.5t146 29.5t146 -29.5t119 -80.5t80 -119t29 -146t-29 -146.5t-80 -119t-119 -80t-146 -29.5zM395 124q50 0 93.5 19t76 51.5
t51 76.5t18.5 94t-18.5 94t-51 76.5t-76 51.5t-93.5 19t-93.5 -19t-75.5 -51.5t-50.5 -76.5t-18.5 -94t18.5 -94t50.5 -76.5t75.5 -51.5t93.5 -19z" />
    <glyph glyph-name="ohungarumlaut" unicode="&#x151;" 
d="M303 808h120l-150 -170h-84zM469 808h120l-150 -170h-84zM323 -12q-63 0 -118.5 23.5t-96.5 65t-64.5 97t-23.5 118.5q0 64 23.5 119.5t64.5 96.5t96.5 65t118.5 24t118 -24t96.5 -65t65 -96.5t23.5 -119.5q0 -63 -23.5 -118.5t-65 -97t-96.5 -65t-118 -23.5zM323 115
q36 0 67 14t54 38t36 56.5t13 68.5q0 37 -13 69.5t-36 56.5t-54 38t-67 14t-67.5 -14t-54 -38t-35.5 -56.5t-13 -69.5q0 -36 13 -68.5t35.5 -56.5t54 -38t67.5 -14z" />
    <glyph glyph-name="OE" unicode="&#x152;" horiz-adv-x="1101" 
d="M634 83q-46 -44 -106.5 -68.5t-132.5 -24.5q-78 0 -146 29.5t-118.5 80t-79.5 119t-29 146.5t29 146t79.5 119t118.5 80.5t146 29.5q72 0 132.5 -25t106.5 -69v84h433v-130h-297v-168h297v-130h-297v-172h297v-130h-433v83zM395 124q48 0 90.5 18t75 49t52 73.5
t21.5 90.5v20q-2 48 -21.5 90t-52 73.5t-75 49.5t-90.5 18q-50 0 -93.5 -19t-75.5 -51.5t-50.5 -76.5t-18.5 -94t18.5 -94t50.5 -76.5t75.5 -51.5t93.5 -19z" />
    <glyph glyph-name="oe" unicode="&#x153;" horiz-adv-x="1121" 
d="M323 -12q-63 0 -118.5 23.5t-96.5 65t-64.5 97t-23.5 118.5q0 64 23.5 119.5t64.5 96.5t96.5 65t118.5 24q77 0 138 -32t100 -87q39 54 99 86.5t138 32.5q65 0 120.5 -22.5t96 -63t63 -95.5t22.5 -120v-47h-476q12 -64 60 -103t121 -39q57 0 100.5 29.5t66.5 76.5
l113 -49q-38 -80 -111 -128t-170 -48q-83 0 -145 31.5t-100 85.5q-40 -54 -100.5 -85.5t-135.5 -31.5zM323 115q36 0 67 14t54.5 38t36.5 56.5t13 68.5q0 37 -13 69.5t-36.5 56.5t-54.5 38t-67 14q-37 0 -68 -14t-54 -38t-36 -56.5t-13 -69.5q0 -36 13 -68.5t36 -56.5
t54 -38t68 -14zM800 478q-61 0 -104.5 -32t-63.5 -84h331q-17 57 -60 86.5t-103 29.5z" />
    <glyph glyph-name="Racute" unicode="&#x154;" horiz-adv-x="584" 
d="M42 0v730h234q65 0 115.5 -18.5t85.5 -52t53.5 -80t18.5 -103.5q0 -66 -31.5 -123.5t-91.5 -89.5l146 -263h-155l-117 223h-122v-223h-136zM264 348q42 0 70.5 10.5t46 29t25 42.5t7.5 51q0 56 -35.5 89t-113.5 33h-86v-255h86zM311 950h126l-150 -170h-91z" />
    <glyph glyph-name="racute" unicode="&#x155;" horiz-adv-x="431" 
d="M39 585h134v-87q40 87 150 87q32 0 57.5 -7t45.5 -18l-51 -128q-15 10 -33.5 16.5t-47.5 6.5q-59 0 -89.5 -33.5t-30.5 -109.5v-312h-135v585zM293 805h126l-150 -170h-91z" />
    <glyph glyph-name="Rcommaaccent" unicode="&#x156;" horiz-adv-x="584" 
d="M42 0v730h234q65 0 115.5 -18.5t85.5 -52t53.5 -80t18.5 -103.5q0 -66 -31.5 -123.5t-91.5 -89.5l146 -263h-155l-117 223h-122v-223h-136zM264 348q42 0 70.5 10.5t46 29t25 42.5t7.5 51q0 56 -35.5 89t-113.5 33h-86v-255h86zM207 -281l34 204h119l-70 -204h-83z" />
    <glyph glyph-name="rcommaaccent" unicode="&#x157;" horiz-adv-x="431" 
d="M39 585h134v-87q40 87 150 87q32 0 57.5 -7t45.5 -18l-51 -128q-15 10 -33.5 16.5t-47.5 6.5q-59 0 -89.5 -33.5t-30.5 -109.5v-312h-135v585zM10 -249l34 204h119l-70 -204h-83z" />
    <glyph glyph-name="Rcaron" unicode="&#x158;" horiz-adv-x="584" 
d="M42 0v730h234q65 0 115.5 -18.5t85.5 -52t53.5 -80t18.5 -103.5q0 -66 -31.5 -123.5t-91.5 -89.5l146 -263h-155l-117 223h-122v-223h-136zM264 348q42 0 70.5 10.5t46 29t25 42.5t7.5 51q0 56 -35.5 89t-113.5 33h-86v-255h86zM131 950h102l59 -89l59 89h102l-119 -170
h-84z" />
    <glyph glyph-name="rcaron" unicode="&#x159;" horiz-adv-x="431" 
d="M39 585h134v-87q40 87 150 87q32 0 57.5 -7t45.5 -18l-51 -128q-15 10 -33.5 16.5t-47.5 6.5q-59 0 -89.5 -33.5t-30.5 -109.5v-312h-135v585zM60 805h102l59 -89l59 89h102l-119 -170h-84z" />
    <glyph glyph-name="Sacute" unicode="&#x15a;" horiz-adv-x="563" 
d="M337 950h126l-150 -170h-91zM288 -10q-99 0 -167.5 37.5t-117.5 93.5l124 98q28 -48 69 -73.5t91 -25.5q27 0 47.5 8t35 21.5t21.5 31.5t7 37q0 23 -13 39t-34 27.5t-48.5 20.5t-56.5 18q-37 12 -74 26t-66.5 37.5t-48 58t-18.5 86.5q0 44 18 82t50.5 66.5t76.5 44.5
t97 16q44 0 79.5 -8t65 -22t54 -33.5t46.5 -42.5l-112 -85q-47 70 -132 70q-50 0 -76 -24t-26 -59q0 -22 12 -37t32.5 -26.5t47.5 -20.5l57 -19q37 -12 74.5 -27.5t68 -40t49.5 -60.5t19 -88q0 -43 -17 -84t-49 -72.5t-79 -51t-107 -19.5z" />
    <glyph glyph-name="sacute" unicode="&#x15b;" horiz-adv-x="518" 
d="M320 811h126l-150 -170h-91zM259 -12q-97 0 -161 36.5t-99 105.5l125 60q21 -41 57 -63t84 -22q50 0 75 21t25 50q0 16 -11.5 26t-30 17.5t-43.5 12.5t-52 11q-38 7 -74.5 18.5t-65.5 31t-47 50t-18 76.5q0 35 16 67.5t46 57.5t72.5 39.5t95.5 14.5q88 0 146.5 -32.5
t92.5 -88.5l-115 -58q-18 31 -50 49t-74 18q-48 0 -71 -19t-23 -44q0 -29 34 -41.5t100 -26.5q36 -8 72.5 -19t66.5 -30.5t48.5 -50t18.5 -76.5q0 -31 -14 -64.5t-43.5 -62t-74.5 -46.5t-108 -18z" />
    <glyph glyph-name="Scircumflex" unicode="&#x15c;" horiz-adv-x="563" 
d="M288 -10q-99 0 -167.5 37.5t-117.5 93.5l124 98q28 -48 69 -73.5t91 -25.5q27 0 47.5 8t35 21.5t21.5 31.5t7 37q0 23 -13 39t-34 27.5t-48.5 20.5t-56.5 18q-37 12 -74 26t-66.5 37.5t-48 58t-18.5 86.5q0 44 18 82t50.5 66.5t76.5 44.5t97 16q44 0 79.5 -8t65 -22
t54 -33.5t46.5 -42.5l-112 -85q-47 70 -132 70q-50 0 -76 -24t-26 -59q0 -22 12 -37t32.5 -26.5t47.5 -20.5l57 -19q37 -12 74.5 -27.5t68 -40t49.5 -60.5t19 -88q0 -43 -17 -84t-49 -72.5t-79 -51t-107 -19.5zM235 950h84l119 -170h-102l-59 89l-59 -89h-102z" />
    <glyph glyph-name="scircumflex" unicode="&#x15d;" horiz-adv-x="518" 
d="M259 -12q-97 0 -161 36.5t-99 105.5l125 60q21 -41 57 -63t84 -22q50 0 75 21t25 50q0 16 -11.5 26t-30 17.5t-43.5 12.5t-52 11q-38 7 -74.5 18.5t-65.5 31t-47 50t-18 76.5q0 35 16 67.5t46 57.5t72.5 39.5t95.5 14.5q88 0 146.5 -32.5t92.5 -88.5l-115 -58
q-18 31 -50 49t-74 18q-48 0 -71 -19t-23 -44q0 -29 34 -41.5t100 -26.5q36 -8 72.5 -19t66.5 -30.5t48.5 -50t18.5 -76.5q0 -31 -14 -64.5t-43.5 -62t-74.5 -46.5t-108 -18zM217 805h84l119 -170h-102l-59 89l-59 -89h-102z" />
    <glyph glyph-name="Scedilla" unicode="&#x15e;" horiz-adv-x="563" 
d="M273 -240q-40 0 -77.5 16.5t-66.5 42.5l78 47q17 -14 33.5 -24t42.5 -10q22 0 38.5 9t16.5 22q0 27 -58 27h-50v104q-76 10 -130.5 44.5t-96.5 82.5l124 98q28 -48 69 -73.5t91 -25.5q27 0 47.5 8t35 21.5t21.5 31.5t7 37q0 23 -13 39t-34 27.5t-48.5 20.5t-56.5 18
q-37 12 -74 26t-66.5 37.5t-48 58t-18.5 86.5q0 44 18 82t50.5 66.5t76.5 44.5t97 16q44 0 79.5 -8t65 -22t54 -33.5t46.5 -42.5l-112 -85q-47 70 -132 70q-50 0 -76 -24t-26 -59q0 -22 12 -37t32.5 -26.5t47.5 -20.5l57 -19q37 -12 74.5 -27.5t68 -40t49.5 -60.5t19 -88
q0 -41 -15 -80t-44 -70t-71 -51.5t-96 -24.5v-44q56 2 85.5 -20.5t29.5 -59.5q0 -23 -12 -43t-33 -34t-49.5 -22t-61.5 -8z" />
    <glyph glyph-name="scedilla" unicode="&#x15f;" horiz-adv-x="518" 
d="M246 -240q-40 0 -77.5 16.5t-66.5 42.5l78 47q17 -14 33.5 -24t42.5 -10q22 0 38.5 9t16.5 22q0 27 -58 27h-50v102q-74 9 -124 44t-80 94l125 60q21 -41 57 -63t84 -22q50 0 75 21t25 50q0 16 -11.5 26t-30 17.5t-43.5 12.5t-52 11q-38 7 -74.5 18.5t-65.5 31t-47 50
t-18 76.5q0 35 16 67.5t46 57.5t72.5 39.5t95.5 14.5q88 0 146.5 -32.5t92.5 -88.5l-115 -58q-18 31 -50 49t-74 18q-48 0 -71 -19t-23 -44q0 -29 34 -41.5t100 -26.5q36 -8 72.5 -19t66.5 -30.5t48.5 -50t18.5 -76.5q0 -29 -12.5 -61t-38.5 -59t-66 -46.5t-95 -23.5v-42
q56 2 85.5 -20.5t29.5 -59.5q0 -23 -12 -43t-33 -34t-49.5 -22t-61.5 -8z" />
    <glyph glyph-name="Scaron" unicode="&#x160;" horiz-adv-x="563" 
d="M288 -10q-99 0 -167.5 37.5t-117.5 93.5l124 98q28 -48 69 -73.5t91 -25.5q27 0 47.5 8t35 21.5t21.5 31.5t7 37q0 23 -13 39t-34 27.5t-48.5 20.5t-56.5 18q-37 12 -74 26t-66.5 37.5t-48 58t-18.5 86.5q0 44 18 82t50.5 66.5t76.5 44.5t97 16q44 0 79.5 -8t65 -22
t54 -33.5t46.5 -42.5l-112 -85q-47 70 -132 70q-50 0 -76 -24t-26 -59q0 -22 12 -37t32.5 -26.5t47.5 -20.5l57 -19q37 -12 74.5 -27.5t68 -40t49.5 -60.5t19 -88q0 -43 -17 -84t-49 -72.5t-79 -51t-107 -19.5zM122 950h102l59 -89l59 89h102l-119 -170h-84z" />
    <glyph glyph-name="scaron" unicode="&#x161;" horiz-adv-x="518" 
d="M259 -12q-97 0 -161 36.5t-99 105.5l125 60q21 -41 57 -63t84 -22q50 0 75 21t25 50q0 16 -11.5 26t-30 17.5t-43.5 12.5t-52 11q-38 7 -74.5 18.5t-65.5 31t-47 50t-18 76.5q0 35 16 67.5t46 57.5t72.5 39.5t95.5 14.5q88 0 146.5 -32.5t92.5 -88.5l-115 -58
q-18 31 -50 49t-74 18q-48 0 -71 -19t-23 -44q0 -29 34 -41.5t100 -26.5q36 -8 72.5 -19t66.5 -30.5t48.5 -50t18.5 -76.5q0 -31 -14 -64.5t-43.5 -62t-74.5 -46.5t-108 -18zM97 811h102l59 -89l59 89h102l-119 -170h-84z" />
    <glyph glyph-name="Tcommaaccent" unicode="&#x162;" horiz-adv-x="598" 
d="M206 -250l34 204h119l-70 -204h-83zM233 600h-195v130h527v-130h-196v-600h-136v600z" />
    <glyph glyph-name="tcommaaccent" unicode="&#x163;" horiz-adv-x="399" 
d="M18 585h100v89l136 93v-182h119v-121h-119v-219q0 -38 4 -61.5t16.5 -36t36 -16.5t62.5 -4v-127h-19q-68 0 -113.5 12t-72.5 40.5t-38.5 75t-11.5 116.5v220h-100v121zM145 -243l34 204h119l-70 -204h-83z" />
    <glyph glyph-name="Tcaron" unicode="&#x164;" horiz-adv-x="598" 
d="M233 600h-195v130h527v-130h-196v-600h-136v600zM135 950h102l59 -89l59 89h102l-119 -170h-84z" />
    <glyph glyph-name="tcaron" unicode="&#x165;" horiz-adv-x="399" 
d="M18 585h100v89l136 93v-182h119v-121h-119v-219q0 -38 4 -61.5t16.5 -36t36 -16.5t62.5 -4v-127h-19q-68 0 -113.5 12t-72.5 40.5t-38.5 75t-11.5 116.5v220h-100v121zM322 805h109l-51 -171h-83z" />
    <glyph glyph-name="Tbar" unicode="&#x166;" horiz-adv-x="598" 
d="M108 433h125v167h-195v130h527v-130h-196v-167h120v-130h-120v-303h-136v303h-125v130z" />
    <glyph glyph-name="tbar" unicode="&#x167;" horiz-adv-x="399" 
d="M18 585h100v89l136 93v-182h119v-121h-119v-103h119v-111h-119v-5q0 -38 4 -61.5t16.5 -36t36 -16.5t62.5 -4v-127h-19q-68 0 -113.5 12t-72.5 40.5t-38.5 75t-11.5 116.5v6h-100v111h100v103h-100v121z" />
    <glyph glyph-name="Utilde" unicode="&#x168;" horiz-adv-x="608" 
d="M304 -10q-57 0 -105 16.5t-83.5 49.5t-55 82t-19.5 114v478h136v-486q0 -27 9.5 -50.5t26.5 -40.5t40 -27t50 -10t50 10t40.5 27t27.5 40.5t10 50.5v486h136v-478q0 -65 -20 -114t-55 -82t-83 -49.5t-105 -16.5zM126 780q0 61 27.5 98t76.5 37q25 0 43 -7.5t34 -16.5
q14 -10 26.5 -17.5t25.5 -7.5q28 0 28 45h78q0 -62 -26 -98.5t-79 -36.5q-29 0 -49.5 10.5t-37.5 20.5q-11 7 -21.5 12t-21.5 5q-26 0 -26 -44h-78z" />
    <glyph glyph-name="utilde" unicode="&#x169;" horiz-adv-x="608" 
d="M569 0h-134v67q-28 -37 -70 -58t-98 -21q-52 0 -93.5 17t-71 49.5t-45 78.5t-15.5 105v347h137v-333q0 -68 30.5 -107.5t94.5 -39.5q56 0 93 41t37 118v321h135v-585zM141 634q0 61 27.5 98t76.5 37q25 0 43 -7.5t34 -16.5q14 -10 26.5 -17.5t25.5 -7.5q28 0 28 45h78
q0 -62 -26 -98.5t-79 -36.5q-29 0 -49.5 10.5t-37.5 20.5q-11 7 -21.5 12t-21.5 5q-26 0 -26 -44h-78z" />
    <glyph glyph-name="Umacron" unicode="&#x16a;" horiz-adv-x="608" 
d="M304 -10q-57 0 -105 16.5t-83.5 49.5t-55 82t-19.5 114v478h136v-486q0 -27 9.5 -50.5t26.5 -40.5t40 -27t50 -10t50 10t40.5 27t27.5 40.5t10 50.5v486h136v-478q0 -65 -20 -114t-55 -82t-83 -49.5t-105 -16.5zM172 866h264v-86h-264v86z" />
    <glyph glyph-name="umacron" unicode="&#x16b;" horiz-adv-x="608" 
d="M569 0h-134v67q-28 -37 -70 -58t-98 -21q-52 0 -93.5 17t-71 49.5t-45 78.5t-15.5 105v347h137v-333q0 -68 30.5 -107.5t94.5 -39.5q56 0 93 41t37 118v321h135v-585zM174 725h264v-86h-264v86z" />
    <glyph glyph-name="Ubreve" unicode="&#x16c;" horiz-adv-x="608" 
d="M304 -10q-57 0 -105 16.5t-83.5 49.5t-55 82t-19.5 114v478h136v-486q0 -27 9.5 -50.5t26.5 -40.5t40 -27t50 -10t50 10t40.5 27t27.5 40.5t10 50.5v486h136v-478q0 -65 -20 -114t-55 -82t-83 -49.5t-105 -16.5zM308 775q-41 0 -71.5 13t-50.5 35.5t-29.5 54t-9.5 67.5
h85q0 -48 19.5 -71t56.5 -25q36 2 56 25t20 71h86q0 -36 -11.5 -67.5t-32.5 -54t-51 -35.5t-67 -13z" />
    <glyph glyph-name="ubreve" unicode="&#x16d;" horiz-adv-x="608" 
d="M569 0h-134v67q-28 -37 -70 -58t-98 -21q-52 0 -93.5 17t-71 49.5t-45 78.5t-15.5 105v347h137v-333q0 -68 30.5 -107.5t94.5 -39.5q56 0 93 41t37 118v321h135v-585zM309 623q-41 0 -71.5 13t-50.5 35.5t-29.5 54t-9.5 67.5h85q0 -48 19.5 -71t56.5 -25q36 2 56 25
t20 71h86q0 -36 -11.5 -67.5t-32.5 -54t-51 -35.5t-67 -13z" />
    <glyph glyph-name="Uring" unicode="&#x16e;" horiz-adv-x="608" 
d="M302 729q-24 0 -45 9t-37 25t-25 37t-9 45q0 25 9 46.5t25 37.5t37 25t45 9t45.5 -9t37.5 -25t25 -37.5t9 -46.5q0 -24 -9 -45t-25 -37t-37.5 -25t-45.5 -9zM302 806q17 0 29 11.5t12 27.5q0 17 -12 29t-29 12t-28.5 -12t-11.5 -29q0 -16 11.5 -27.5t28.5 -11.5zM304 -10
q-57 0 -105 16.5t-83.5 49.5t-55 82t-19.5 114v478h136v-486q0 -27 9.5 -50.5t26.5 -40.5t40 -27t50 -10t50 10t40.5 27t27.5 40.5t10 50.5v486h136v-478q0 -65 -20 -114t-55 -82t-83 -49.5t-105 -16.5z" />
    <glyph glyph-name="uring" unicode="&#x16f;" horiz-adv-x="608" 
d="M569 0h-134v67q-28 -37 -70 -58t-98 -21q-52 0 -93.5 17t-71 49.5t-45 78.5t-15.5 105v347h137v-333q0 -68 30.5 -107.5t94.5 -39.5q56 0 93 41t37 118v321h135v-585zM305 599q-24 0 -45 9t-37 25t-25 37t-9 45q0 25 9 46.5t25 37.5t37 25t45 9t45.5 -9t37.5 -25
t25 -37.5t9 -46.5q0 -24 -9 -45t-25 -37t-37.5 -25t-45.5 -9zM305 676q17 0 29 11.5t12 27.5q0 17 -12 29t-29 12t-28.5 -12t-11.5 -29q0 -16 11.5 -27.5t28.5 -11.5z" />
    <glyph glyph-name="Uhungarumlaut" unicode="&#x170;" horiz-adv-x="608" 
d="M304 -10q-57 0 -105 16.5t-83.5 49.5t-55 82t-19.5 114v478h136v-486q0 -27 9.5 -50.5t26.5 -40.5t40 -27t50 -10t50 10t40.5 27t27.5 40.5t10 50.5v486h136v-478q0 -65 -20 -114t-55 -82t-83 -49.5t-105 -16.5zM275 950h120l-150 -170h-84zM441 950h120l-150 -170h-84z
" />
    <glyph glyph-name="uhungarumlaut" unicode="&#x171;" horiz-adv-x="608" 
d="M569 0h-134v67q-28 -37 -70 -58t-98 -21q-52 0 -93.5 17t-71 49.5t-45 78.5t-15.5 105v347h137v-333q0 -68 30.5 -107.5t94.5 -39.5q56 0 93 41t37 118v321h135v-585zM442 805h120l-150 -170h-84zM276 805h120l-150 -170h-84z" />
    <glyph glyph-name="Uogonek" unicode="&#x172;" horiz-adv-x="608" 
d="M316 -222q-65 0 -104.5 31.5t-39.5 77.5q0 28 13.5 54.5t51.5 55.5q-88 17 -142 81t-54 174v478h136v-486q0 -27 9.5 -50.5t26.5 -40.5t40 -27t50 -10t50 10t40.5 27t27.5 40.5t10 50.5v486h136v-478q0 -100 -45 -161.5t-119 -85.5q-41 -27 -66.5 -44.5t-39.5 -29.5
t-19 -20.5t-5 -18.5q0 -17 13 -24t30 -7q20 0 33 9t27 20l79 -54q-26 -24 -64.5 -41t-74.5 -17z" />
    <glyph glyph-name="uogonek" unicode="&#x173;" horiz-adv-x="608" 
d="M569 0q-57 -35 -81 -64t-24 -47q0 -17 10.5 -25t27.5 -8q15 0 27.5 9t22.5 21l79 -55q-26 -27 -58 -43.5t-76 -16.5q-58 0 -94.5 30.5t-37.5 77.5q-1 39 17.5 68.5t52.5 56.5v63q-28 -37 -70 -58t-98 -21q-52 0 -93.5 17t-71 49.5t-45 78.5t-15.5 105v347h137v-333
q0 -68 30.5 -107.5t94.5 -39.5q56 0 93 41t37 118v321h135v-585z" />
    <glyph glyph-name="Wcircumflex" unicode="&#x174;" horiz-adv-x="1023" 
d="M14 730h142l138 -511l153 511h134l152 -509l137 509h137l-206 -730h-135l-153 515l-153 -515h-138zM469 950h84l119 -170h-102l-59 89l-59 -89h-102z" />
    <glyph glyph-name="wcircumflex" unicode="&#x175;" horiz-adv-x="995" 
d="M18 585h138l129 -403l147 403h134l144 -404l134 404h137l-205 -585h-130l-148 405l-152 -405h-133zM455 804h84l119 -170h-102l-59 89l-59 -89h-102z" />
    <glyph glyph-name="Ycircumflex" unicode="&#x176;" horiz-adv-x="629" 
d="M245 346l-232 384h150l151 -253l152 253h150l-235 -387v-343h-136v346zM272 950h84l119 -170h-102l-59 89l-59 -89h-102z" />
    <glyph glyph-name="ycircumflex" unicode="&#x177;" horiz-adv-x="618" 
d="M246 29l-240 556h144l163 -394l154 394h142l-349 -855h-137zM267 805h84l119 -170h-102l-59 89l-59 -89h-102z" />
    <glyph glyph-name="Ydieresis" unicode="&#x178;" horiz-adv-x="629" 
d="M245 346l-232 384h150l151 -253l152 253h150l-235 -387v-343h-136v346zM146 849q0 32 19.5 52t52.5 20q34 0 53 -20t19 -52t-19 -51.5t-53 -19.5t-53 19.5t-19 51.5zM337 849q0 32 19.5 52t52.5 20t52.5 -20t19.5 -52t-19.5 -51.5t-52.5 -19.5q-35 0 -53.5 19.5
t-18.5 51.5z" />
    <glyph glyph-name="Zacute" unicode="&#x179;" horiz-adv-x="556" 
d="M36 125l323 475h-312v130h472v-124l-323 -476h323v-130h-483v125zM337 950h126l-150 -170h-91z" />
    <glyph glyph-name="zacute" unicode="&#x17a;" horiz-adv-x="577" 
d="M28 123l340 342h-333v120h509v-123l-340 -342h346v-120h-522v123zM356 805h126l-150 -170h-91z" />
    <glyph glyph-name="Zdotaccent" unicode="&#x17b;" horiz-adv-x="556" 
d="M36 125l323 475h-312v130h472v-124l-323 -476h323v-130h-483v125zM203 849q0 35 21.5 57t57.5 22q37 0 58 -22t21 -57t-21 -56.5t-58 -21.5q-38 0 -58.5 21.5t-20.5 56.5z" />
    <glyph glyph-name="zdotaccent" unicode="&#x17c;" horiz-adv-x="577" 
d="M28 123l340 342h-333v120h509v-123l-340 -342h346v-120h-522v123zM218 704q0 35 21.5 57t57.5 22q37 0 58 -22t21 -57t-21 -56.5t-58 -21.5q-38 0 -58.5 21.5t-20.5 56.5z" />
    <glyph glyph-name="Zcaron" unicode="&#x17d;" horiz-adv-x="556" 
d="M36 125l323 475h-312v130h472v-124l-323 -476h323v-130h-483v125zM122 950h102l59 -89l59 89h102l-119 -170h-84z" />
    <glyph glyph-name="zcaron" unicode="&#x17e;" horiz-adv-x="577" 
d="M28 123l340 342h-333v120h509v-123l-340 -342h346v-120h-522v123zM136 805h102l59 -89l59 89h102l-119 -170h-84z" />
    <glyph glyph-name="florin" unicode="&#x192;" horiz-adv-x="588" 
d="M48 425h191l25 89q17 62 42 103.5t58 66.5t75 35.5t94 10.5h10v-125q-34 0 -57.5 -4t-40 -14.5t-27 -28.5t-17.5 -45l-25 -88h165v-120h-199l-25 -89q-17 -60 -39 -101.5t-52 -67t-69 -36.5t-89 -11h-22v125q30 0 52 4.5t38 15t26.5 28.5t17.5 44l25 88h-157v120z" />
    <glyph glyph-name="Aringacute" unicode="&#x1fa;" horiz-adv-x="687" 
d="M261 691q-14 15 -22.5 35.5t-8.5 43.5q0 25 9 46.5t25 37.5t37 25t45 9t45.5 -9t37.5 -25t25 -37.5t9 -46.5t-9.5 -46.5t-26.5 -37.5l245 -686h-142l-45 130h-283l-45 -130h-142zM248 260h192l-96 276zM414 1100h126l-150 -170h-91zM346 731q17 0 29 11.5t12 27.5
q0 17 -12 29t-29 12t-28.5 -12t-11.5 -29q0 -16 11.5 -27.5t28.5 -11.5z" />
    <glyph glyph-name="aringacute" unicode="&#x1fb;" horiz-adv-x="671" 
d="M308 -12q-53 0 -104.5 20.5t-92.5 59.5t-66 95.5t-25 128.5q0 56 15 103t41 83.5t61 62t75 39.5q-14 26 -14 56q0 25 9 46.5t25 37.5t37 25t45 9t45.5 -9t37.5 -25t25 -37.5t9 -46.5q0 -32 -17 -60q51 -21 84 -61v70h135v-585h-135v76q-32 -41 -82 -64.5t-108 -23.5z
M330 112q37 0 69.5 14t55.5 39t36.5 58t13.5 71q0 37 -13.5 70t-36.5 57.5t-55.5 38.5t-69.5 14q-38 0 -70 -14t-56 -38t-37.5 -57t-13.5 -71t13.5 -71.5t37.5 -58t56 -38.5t70 -14zM382 958h126l-150 -170h-91zM314 597q17 0 29 11.5t12 27.5q0 17 -12 29t-29 12t-28.5 -12
t-11.5 -29q0 -15 10.5 -26.5t25.5 -12.5h4z" />
    <glyph glyph-name="AEacute" unicode="&#x1fc;" horiz-adv-x="938" 
d="M346 730h558v-130h-386l42 -168h344v-130h-311l43 -172h268v-130h-378l-32 129h-281l-58 -129h-142zM269 255h194l-68 279zM605 950h126l-150 -170h-91z" />
    <glyph glyph-name="aeacute" unicode="&#x1fd;" horiz-adv-x="1035" 
d="M719 -12q-84 0 -147.5 33t-102.5 90q-15 -26 -39 -48t-54.5 -39t-67.5 -26.5t-78 -9.5q-56 0 -95.5 12.5t-65.5 35t-38.5 52.5t-12.5 66q0 41 14.5 71t40.5 51.5t61.5 36.5t76.5 25q37 10 72 18t62.5 17.5t44.5 22t17 31.5q0 26 -27 44.5t-81 18.5q-73 0 -107 -32.5
t-34 -77.5v-3h-124v2q0 103 68.5 160.5t190.5 57.5q72 0 126 -21.5t84 -63.5q40 40 93.5 62.5t116.5 22.5q65 0 120 -22.5t95.5 -63t63.5 -95.5t23 -120v-47h-477q12 -64 59.5 -103t121.5 -39q57 0 101 29.5t65 76.5l114 -49q-37 -80 -110 -128t-170 -48zM237 100
q36 0 67 14.5t54 35t37 44t17 41.5q0 1 0.5 9.5t0 19t-1 19.5t-1.5 11q-5 -14 -41 -26.5t-93 -25.5q-62 -14 -92.5 -31.5t-30.5 -52.5q0 -26 19.5 -42t64.5 -16zM713 478q-60 0 -103 -32t-63 -84h330q-17 57 -60 86.5t-104 29.5zM584 808h126l-150 -170h-91z" />
    <glyph glyph-name="Oslashacute" unicode="&#x1fe;" horiz-adv-x="790" 
d="M116 114q-45 51 -69.5 114.5t-24.5 136.5q0 78 29 146t79.5 119t118.5 80.5t146 29.5q51 0 97.5 -13.5t88.5 -36.5l33 40h157l-95 -117q44 -50 68.5 -113t24.5 -135q0 -78 -29 -146.5t-80 -119t-119 -80t-146 -29.5q-51 0 -97 12.5t-87 35.5l-30 -38h-157zM157 365
q0 -41 12 -77.5t34 -66.5l292 362q-23 11 -48 17t-52 6q-50 0 -93.5 -19t-75.5 -51.5t-50.5 -76.5t-18.5 -94zM395 124q50 0 93.5 19t76 51.5t51 76.5t18.5 94q0 39 -12 75t-33 65l-291 -361q45 -20 97 -20zM448 950h126l-150 -170h-91z" />
    <glyph glyph-name="oslashacute" unicode="&#x1ff;" 
d="M323 -12q-40 0 -76.5 9.5t-68.5 26.5l-19 -24h-139l73 92q-35 40 -54 91t-19 109q0 64 23.5 119.5t64.5 96.5t96.5 65t118.5 24q39 0 75 -9.5t68 -26.5l19 24h139l-73 -92q35 -40 55 -91.5t20 -109.5q0 -63 -23.5 -118.5t-65 -97t-96.5 -65t-118 -23.5zM323 115
q36 0 67 14t54.5 38t36.5 56.5t13 68.5q0 52 -27 96l-207 -261q28 -12 63 -12zM152 292q0 -52 25 -94l207 260q-29 12 -61 12q-37 0 -68 -14t-54 -38t-36 -56.5t-13 -69.5zM393 810h126l-150 -170h-91z" />
    <glyph glyph-name="Scommaaccent" unicode="&#x218;" horiz-adv-x="563" 
d="M187 -249l34 204h119l-70 -204h-83zM288 -10q-99 0 -167.5 37.5t-117.5 93.5l124 98q28 -48 69 -73.5t91 -25.5q27 0 47.5 8t35 21.5t21.5 31.5t7 37q0 23 -13 39t-34 27.5t-48.5 20.5t-56.5 18q-37 12 -74 26t-66.5 37.5t-48 58t-18.5 86.5q0 44 18 82t50.5 66.5
t76.5 44.5t97 16q44 0 79.5 -8t65 -22t54 -33.5t46.5 -42.5l-112 -85q-47 70 -132 70q-50 0 -76 -24t-26 -59q0 -22 12 -37t32.5 -26.5t47.5 -20.5l57 -19q37 -12 74.5 -27.5t68 -40t49.5 -60.5t19 -88q0 -43 -17 -84t-49 -72.5t-79 -51t-107 -19.5z" />
    <glyph glyph-name="scommaaccent" unicode="&#x219;" horiz-adv-x="518" 
d="M165 -254l34 204h119l-70 -204h-83zM259 -12q-97 0 -161 36.5t-99 105.5l125 60q21 -41 57 -63t84 -22q50 0 75 21t25 50q0 16 -11.5 26t-30 17.5t-43.5 12.5t-52 11q-38 7 -74.5 18.5t-65.5 31t-47 50t-18 76.5q0 35 16 67.5t46 57.5t72.5 39.5t95.5 14.5
q88 0 146.5 -32.5t92.5 -88.5l-115 -58q-18 31 -50 49t-74 18q-48 0 -71 -19t-23 -44q0 -29 34 -41.5t100 -26.5q36 -8 72.5 -19t66.5 -30.5t48.5 -50t18.5 -76.5q0 -31 -14 -64.5t-43.5 -62t-74.5 -46.5t-108 -18z" />
    <glyph glyph-name="dotlessj" unicode="&#x237;" horiz-adv-x="214" 
d="M-82 -142q39 0 63 4t37 16.5t17 35.5t4 62v609h137v-610q0 -70 -12 -116.5t-40 -75t-74 -40.5t-113 -12h-19v127z" />
    <glyph glyph-name="circumflex" unicode="&#x2c6;" horiz-adv-x="472" 
d="M194 720h84l119 -170h-102l-59 89l-59 -89h-102z" />
    <glyph glyph-name="caron" unicode="&#x2c7;" horiz-adv-x="472" 
d="M74 720h102l59 -89l59 89h102l-119 -170h-84z" />
    <glyph glyph-name="breve" unicode="&#x2d8;" horiz-adv-x="472" 
d="M235 545q-41 0 -71.5 13t-50.5 35.5t-29.5 54t-9.5 67.5h85q0 -48 19.5 -71t56.5 -25q36 2 56 25t20 71h86q0 -36 -11.5 -67.5t-32.5 -54t-51 -35.5t-67 -13z" />
    <glyph glyph-name="dotaccent" unicode="&#x2d9;" horiz-adv-x="473" 
d="M147 619q0 35 21.5 57t57.5 22q37 0 58 -22t21 -57t-21 -56.5t-58 -21.5q-38 0 -58.5 21.5t-20.5 56.5z" />
    <glyph glyph-name="ring" unicode="&#x2da;" horiz-adv-x="472" 
d="M235 546q-24 0 -45 9t-37 25t-25 37t-9 45q0 25 9 46.5t25 37.5t37 25t45 9t45.5 -9t37.5 -25t25 -37.5t9 -46.5q0 -24 -9 -45t-25 -37t-37.5 -25t-45.5 -9zM235 623q17 0 29 11.5t12 27.5q0 17 -12 29t-29 12t-28.5 -12t-11.5 -29q0 -16 11.5 -27.5t28.5 -11.5z" />
    <glyph glyph-name="ogonek" unicode="&#x2db;" horiz-adv-x="472" 
d="M232 -227q-65 0 -104.5 31.5t-39.5 77.5q0 20 7 39t24 38.5t46 40t73 42.5l81 -42q-41 -27 -66.5 -44.5t-39.5 -29.5t-19 -20.5t-5 -18.5q0 -17 13 -24t30 -7q20 0 33 9t27 20l79 -54q-26 -24 -64.5 -41t-74.5 -17z" />
    <glyph glyph-name="tilde" unicode="&#x2dc;" horiz-adv-x="472" 
d="M64 550q0 61 27.5 98t76.5 37q25 0 43 -7.5t34 -16.5q14 -10 26.5 -17.5t25.5 -7.5q28 0 28 45h78q0 -62 -26 -98.5t-79 -36.5q-29 0 -49.5 10.5t-37.5 20.5q-11 7 -21.5 12t-21.5 5q-26 0 -26 -44h-78v0z" />
    <glyph glyph-name="hungarumlaut" unicode="&#x2dd;" horiz-adv-x="472" 
d="M150 720h120l-150 -170h-84zM316 720h120l-150 -170h-84z" />
    <glyph glyph-name="acutecomb" unicode="&#x301;" horiz-adv-x="0" 
d="M-226 815h126l-150 -170h-91z" />
    <glyph glyph-name="uni0328" unicode="&#x328;" horiz-adv-x="472" 
d="M248 -229q-58 0 -94.5 30.5t-37.5 77.5q-1 52 32.5 89t89.5 74l82 -42q-57 -35 -81 -64t-24 -47q0 -17 10.5 -25t27.5 -8q15 0 27.5 9t22.5 21l79 -55q-26 -27 -58 -43.5t-76 -16.5z" />
    <glyph glyph-name="pi" unicode="&#x3c0;" horiz-adv-x="779" 
d="M36 730h706v-130h-129v-394q0 -22 2 -35.5t8.5 -21t19.5 -10t34 -2.5h65v-137h-103q-51 0 -83 13t-49 38.5t-23.5 63t-6.5 86.5l1 399h-184v-600h-136v600h-122v130z" />
    <glyph glyph-name="pi" unicode="&#x3d6;" horiz-adv-x="779" 
d="M36 730h706v-130h-129v-394q0 -22 2 -35.5t8.5 -21t19.5 -10t34 -2.5h65v-137h-103q-51 0 -83 13t-49 38.5t-23.5 63t-6.5 86.5l1 399h-184v-600h-136v600h-122v130z" />
    <glyph glyph-name="uni0400" unicode="&#x400;" horiz-adv-x="509" 
d="M42 730h433v-130h-297v-168h297v-130h-297v-172h297v-130h-433v730zM72 950h127l114 -170h-91z" />
    <glyph glyph-name="uni0401" unicode="&#x401;" horiz-adv-x="509" 
d="M42 730h433v-130h-297v-168h297v-130h-297v-172h297v-130h-433v730zM95 849q0 32 19.5 52t52.5 20q34 0 53 -20t19 -52t-19 -51.5t-53 -19.5t-53 19.5t-19 51.5zM286 849q0 32 19.5 52t52.5 20t52.5 -20t19.5 -52t-19.5 -51.5t-52.5 -19.5q-35 0 -53.5 19.5t-18.5 51.5z
" />
    <glyph glyph-name="uni0402" unicode="&#x402;" horiz-adv-x="758" 
d="M489 111q51 0 81 31.5t30 82.5q0 50 -33.5 82t-108.5 32q-53 0 -101 -15v-324h-136v600h-195v130h527v-130h-196v-148q28 9 58.5 14t62.5 5q61 0 109.5 -18t82 -50t51 -76.5t17.5 -98.5q0 -50 -16 -94t-46 -76t-73 -50.5t-98 -18.5q-15 0 -33 2t-38 9v120q11 -5 27.5 -7
t27.5 -2z" />
    <glyph glyph-name="uni0403" unicode="&#x403;" horiz-adv-x="483" 
d="M42 730h417v-130h-281v-600h-136v730zM308 950h126l-150 -170h-91z" />
    <glyph glyph-name="uni0404" unicode="&#x404;" horiz-adv-x="738" 
d="M397 -10q-84 0 -153.5 29.5t-118.5 80t-76 119t-27 146.5q0 82 29 150.5t79.5 118.5t119 78t147.5 28q51 0 98.5 -13.5t89 -37.5t75 -58t57.5 -76l-118 -75q-32 59 -81 93t-121 34q-44 0 -82 -13t-68.5 -36.5t-51.5 -56t-31 -71.5h314v-126h-315q10 -39 31 -72t51 -56.5
t68 -37t81 -13.5q76 0 128 37.5t81 97.5l125 -66q-24 -46 -58.5 -83.5t-77 -64.5t-92 -41.5t-103.5 -14.5z" />
    <glyph glyph-name="uni0405" unicode="&#x405;" horiz-adv-x="563" 
d="M288 -10q-50 0 -91 10t-76 27.5t-64 41.5t-54 52l124 98q28 -48 68.5 -73.5t91.5 -25.5q27 0 47.5 8t35 21.5t21.5 31.5t7 37q0 23 -13 39t-34 27.5t-48.5 20.5t-56.5 18q-37 12 -74 26.5t-66.5 37.5t-48 57.5t-18.5 86.5q0 44 18 82t50.5 66.5t76.5 44.5t97 16
q44 0 79.5 -8t65 -22t54 -33.5t46.5 -42.5l-112 -85q-46 70 -132 70q-51 0 -76.5 -24t-25.5 -59q0 -22 12 -37t32.5 -26.5t47.5 -20.5l57 -19q37 -12 74.5 -27.5t68 -40t49.5 -60.5t19 -88q0 -43 -17 -84t-49 -72.5t-79 -51t-107 -19.5z" />
    <glyph glyph-name="uni0406" unicode="&#x406;" horiz-adv-x="230" 
d="M47 730h136v-730h-136v730z" />
    <glyph glyph-name="uni0407" unicode="&#x407;" horiz-adv-x="230" 
d="M152 918h134v-137h-134v137zM-55 918h134v-137h-134v137zM47 730h136v-730h-136v730z" />
    <glyph glyph-name="uni0408" unicode="&#x408;" horiz-adv-x="501" 
d="M247 -10q-88 0 -149 44.5t-79 120.5l134 44q8 -35 32.5 -58.5t59.5 -23.5q42 0 60.5 27.5t18.5 65.5v520h136v-508q0 -111 -55 -171.5t-158 -60.5z" />
    <glyph glyph-name="uni0409" unicode="&#x409;" horiz-adv-x="954" 
d="M6 0l369 730h202v-262h94q60 0 108.5 -16.5t82.5 -47.5t52.5 -74t18.5 -96t-18.5 -96t-52.5 -74t-82.5 -47.5t-108.5 -16.5h-230v572l-286 -572h-149zM668 126q60 0 94 29t34 79q0 51 -34 79.5t-94 28.5h-91v-216h91z" />
    <glyph glyph-name="uni040A" unicode="&#x40a;" horiz-adv-x="961" 
d="M448 301h-270v-301h-136v730h136v-299h270v299h136v-262h94q60 0 108.5 -16.5t82.5 -47.5t52.5 -74t18.5 -96t-18.5 -96t-52.5 -74t-82.5 -47.5t-108.5 -16.5h-230v301zM675 126q60 0 94 29t34 79q0 51 -34 79.5t-94 28.5h-91v-216h91z" />
    <glyph glyph-name="uni040B" unicode="&#x40b;" horiz-adv-x="759" 
d="M211 600h-185v130h527v-130h-206v-146q54 17 120 17q61 0 109 -18t81 -50t50 -76t17 -96v-231h-136v213q0 57 -32.5 91.5t-108.5 34.5q-55 0 -100 -15v-324h-136v600z" />
    <glyph glyph-name="uni040C" unicode="&#x40c;" horiz-adv-x="607" 
d="M434 0l-209 301h-47v-301h-136v730h136v-299h45l209 299h157l-256 -357l266 -373h-165zM362 950h126l-150 -170h-91z" />
    <glyph glyph-name="uni040D" unicode="&#x40d;" horiz-adv-x="665" 
d="M623 0h-136v514l-301 -514h-144v730h136v-501l292 501h153v-730zM158 950h127l114 -170h-91z" />
    <glyph glyph-name="uni040E" unicode="&#x40e;" horiz-adv-x="653" 
d="M164 730l177 -351l158 351h146l-337 -730h-145l109 232l-259 498h151zM338 857q38 0 59 23.5t23 68.5h93q0 -37 -11 -68.5t-33 -54.5t-54.5 -36t-76.5 -13t-76.5 13t-54.5 36t-33 54.5t-11 68.5h93q2 -45 23 -68.5t59 -23.5z" />
    <glyph glyph-name="uni040F" unicode="&#x40f;" horiz-adv-x="626" 
d="M249 -136v136h-207v730h136v-600h270v600h136v-730h-207v-136h-128z" />
    <glyph glyph-name="uni0410" unicode="&#x410;" horiz-adv-x="687" 
d="M275 730h137l260 -730h-142l-45 130h-283l-45 -130h-142zM248 260h192l-96 277z" />
    <glyph glyph-name="uni0411" unicode="&#x411;" horiz-adv-x="573" 
d="M487 730v-128h-309v-150h114q60 0 108 -16t82 -46t52 -71.5t18 -92.5t-18 -92.5t-52 -71.5t-82 -46t-108 -16h-250v730h445zM289 126q60 0 93 27t33 73q0 47 -33 73.5t-93 26.5h-111v-200h111z" />
    <glyph glyph-name="uni0412" unicode="&#x412;" horiz-adv-x="573" 
d="M42 730h230q121 0 187.5 -52t66.5 -152q0 -95 -80 -142q51 -23 78.5 -65t27.5 -103q0 -108 -70.5 -162t-191.5 -54h-248v730zM178 312v-187h112q63 0 94 24.5t31 69.5q0 22 -6.5 39.5t-21.5 29.5t-40 18t-63 6h-106zM178 605v-166h94q65 0 91 24t26 63q0 42 -27 60.5
t-90 18.5h-94z" />
    <glyph glyph-name="uni0413" unicode="&#x413;" horiz-adv-x="483" 
d="M42 730h417v-130h-281v-600h-136v730z" />
    <glyph glyph-name="uni0414" unicode="&#x414;" horiz-adv-x="743" 
d="M443 730l217 -600h73v-267h-127v137h-469v-137h-127v267h73l217 600h143zM223 128h297l-149 420z" />
    <glyph glyph-name="uni0415" unicode="&#x415;" horiz-adv-x="509" 
d="M42 730h433v-130h-297v-168h297v-130h-297v-172h297v-130h-433v730z" />
    <glyph glyph-name="uni0416" unicode="&#x416;" horiz-adv-x="941" 
d="M403 0v302h-34l-199 -302h-160l252 374l-245 356h158l201 -299h27v299h137v-299h27l201 299h156l-246 -357l253 -373h-163l-200 302h-28v-302h-137z" />
    <glyph glyph-name="uni0417" unicode="&#x417;" horiz-adv-x="583" 
d="M288 -10q-94 0 -160.5 31.5t-115.5 91.5l112 90q31 -42 71 -63t93 -21q60 0 98.5 25.5t38.5 70.5t-37 70t-104 25h-86v124h81q66 0 97.5 26.5t31.5 66.5q0 38 -31.5 64t-91.5 26q-51 0 -87 -22t-62 -59l-110 80q44 57 108.5 90.5t151.5 33.5q60 0 107.5 -14.5t81 -41.5
t51.5 -64.5t18 -83.5q0 -51 -22.5 -91t-64.5 -67q48 -23 76.5 -65t28.5 -103q0 -47 -19 -87t-54 -69.5t-86 -46.5t-115 -17z" />
    <glyph glyph-name="uni0418" unicode="&#x418;" horiz-adv-x="665" 
d="M623 0h-136v514l-301 -514h-144v730h136v-501l292 501h153v-730z" />
    <glyph glyph-name="uni0419" unicode="&#x419;" horiz-adv-x="665" 
d="M623 0h-136v514l-301 -514h-144v730h136v-501l292 501h153v-730zM346 857q38 0 59 23.5t23 68.5h93q0 -37 -11 -68.5t-33 -54.5t-54.5 -36t-76.5 -13t-76.5 13t-54.5 36t-33 54.5t-11 68.5h93q2 -45 23 -68.5t59 -23.5z" />
    <glyph glyph-name="uni041A" unicode="&#x41a;" horiz-adv-x="607" 
d="M434 0l-209 301h-47v-301h-136v730h136v-299h45l209 299h157l-256 -357l266 -373h-165z" />
    <glyph glyph-name="uni041B" unicode="&#x41b;" horiz-adv-x="682" 
d="M667 0h-142l-184 534l-184 -534h-142l257 730h137z" />
    <glyph glyph-name="uni041C" unicode="&#x41c;" horiz-adv-x="798" 
d="M42 730h135l221 -307l230 307h129v-730h-136v512l-224 -302l-219 297v-507h-136v730z" />
    <glyph glyph-name="uni041D" unicode="&#x41d;" horiz-adv-x="636" 
d="M458 301h-280v-301h-136v730h136v-299h280v299h136v-730h-136v301z" />
    <glyph glyph-name="uni041E" unicode="&#x41e;" horiz-adv-x="790" 
d="M395 -10q-78 0 -146 29.5t-118.5 80t-79.5 119t-29 146.5t29 146t79.5 119t118.5 80.5t146 29.5t146 -29.5t119 -80.5t80 -119t29 -146t-29 -146.5t-80 -119t-119 -80t-146 -29.5zM395 124q50 0 93.5 19t76 51.5t51 76.5t18.5 94t-18.5 94t-51 76.5t-76 51.5t-93.5 19
t-93.5 -19t-75.5 -51.5t-50.5 -76.5t-18.5 -94t18.5 -94t50.5 -76.5t75.5 -51.5t93.5 -19z" />
    <glyph glyph-name="uni041F" unicode="&#x41f;" horiz-adv-x="626" 
d="M448 600h-270v-600h-136v730h542v-730h-136v600z" />
    <glyph glyph-name="uni0420" unicode="&#x420;" horiz-adv-x="581" 
d="M42 730h250q57 0 105 -20.5t83 -55.5t55 -82.5t20 -101.5t-20 -102t-55 -83t-83.5 -55.5t-105.5 -20.5h-113v-209h-136v730zM178 604v-269h104q30 0 55 10.5t43 29t28 43t10 52.5t-10 52.5t-28 42.5t-43 28.5t-55 10.5h-104z" />
    <glyph glyph-name="uni0421" unicode="&#x421;" horiz-adv-x="738" 
d="M397 -10q-84 0 -153.5 29.5t-118.5 80t-76 119t-27 146.5q0 82 29 150.5t79.5 118.5t119 78t147.5 28q51 0 98.5 -13t89 -36.5t75 -57t57.5 -74.5l-119 -76q-32 57 -80.5 90t-120.5 33q-52 0 -96 -18.5t-76 -51t-50 -76.5t-18 -95q0 -50 18 -93.5t49.5 -76t75 -51
t94.5 -18.5q76 0 128.5 38.5t81.5 98.5l124 -65q-24 -47 -58.5 -85t-77 -65.5t-92 -42.5t-103.5 -15z" />
    <glyph glyph-name="uni0422" unicode="&#x422;" horiz-adv-x="579" 
d="M221 600h-195v130h527v-130h-196v-600h-136v600z" />
    <glyph glyph-name="uni0423" unicode="&#x423;" horiz-adv-x="653" 
d="M164 730l177 -351l158 351h146l-337 -730h-145l109 232l-259 498h151z" />
    <glyph glyph-name="uni0424" unicode="&#x424;" horiz-adv-x="828" 
d="M482 750v-86q68 -2 128.5 -21.5t105.5 -57t71 -92t26 -124.5q0 -71 -26 -125t-71 -91.5t-105.5 -57.5t-128.5 -21v-95h-136v95q-68 1 -128.5 21t-105.5 57.5t-71 91.5t-26 125q0 70 26 124.5t71 92t105.5 57t128.5 21.5v86h136zM148 369q0 -41 15.5 -72t42.5 -52
t63 -32.5t77 -12.5v338q-41 -1 -77 -12.5t-63 -32.5t-42.5 -52.5t-15.5 -71.5zM680 369q0 40 -16 71.5t-43 52.5t-63 32.5t-76 12.5v-338q40 1 76 12.5t63 32.5t43 52t16 72z" />
    <glyph glyph-name="uni0425" unicode="&#x425;" horiz-adv-x="630" 
d="M315 251l-151 -251h-153l223 369l-218 361h152l147 -243l147 243h153l-220 -361l224 -369h-152z" />
    <glyph glyph-name="uni0426" unicode="&#x426;" horiz-adv-x="675" 
d="M538 -137v137h-496v730h136v-600h270v600h136v-600h81v-267h-127z" />
    <glyph glyph-name="uni0427" unicode="&#x427;" horiz-adv-x="600" 
d="M422 238q-27 -10 -58 -14.5t-63 -4.5q-63 0 -112.5 19.5t-83.5 54.5t-51.5 83t-17.5 105v249h136v-231q0 -67 34.5 -107.5t114.5 -40.5q26 0 52 4t49 13v362h136v-730h-136v238z" />
    <glyph glyph-name="uni0428" unicode="&#x428;" horiz-adv-x="924" 
d="M746 730h136v-730h-840v730h136v-600h216v600h136v-600h216v600z" />
    <glyph glyph-name="uni0429" unicode="&#x429;" horiz-adv-x="973" 
d="M836 -137v137h-794v730h136v-600h216v600h136v-600h216v600h136v-600h81v-267h-127z" />
    <glyph glyph-name="uni042A" unicode="&#x42a;" horiz-adv-x="727" 
d="M340 730v-262h104q60 0 108.5 -16.5t82.5 -47.5t52.5 -74t18.5 -96t-18.5 -96t-52.5 -74t-82.5 -47.5t-108.5 -16.5h-240v600h-180v130h316zM441 126q60 0 94 29t34 79q0 51 -34 79.5t-94 28.5h-101v-216h101z" />
    <glyph glyph-name="uni042B" unicode="&#x42b;" horiz-adv-x="772" 
d="M594 730h136v-730h-136v730zM178 730v-262h104q60 0 108.5 -16.5t82.5 -47.5t52.5 -74t18.5 -96t-18.5 -96t-52.5 -74t-82.5 -47.5t-108.5 -16.5h-240v730h136zM279 126q60 0 94 29t34 79q0 51 -34 79.5t-94 28.5h-101v-216h101z" />
    <glyph glyph-name="uni042C" unicode="&#x42c;" horiz-adv-x="565" 
d="M178 730v-262h104q60 0 108.5 -16.5t82.5 -47.5t52.5 -74t18.5 -96t-18.5 -96t-52.5 -74t-82.5 -47.5t-108.5 -16.5h-240v730h136zM279 126q60 0 94 29t34 79q0 51 -34 79.5t-94 28.5h-101v-216h101z" />
    <glyph glyph-name="uni042D" unicode="&#x42d;" horiz-adv-x="738" 
d="M341 -10q-54 0 -103.5 14.5t-92 41.5t-77 64.5t-58.5 83.5l125 66q29 -60 81 -97.5t128 -37.5q43 0 80.5 13.5t67.5 37t51.5 56.5t30.5 72h-314v126h314q-10 39 -31.5 71.5t-51.5 56t-68.5 36.5t-81.5 13q-72 0 -121 -34t-81 -93l-118 75q24 42 57.5 76t75 58t89 37.5
t98.5 13.5q79 0 147.5 -28t119 -78t79.5 -118.5t29 -150.5q0 -78 -27 -146.5t-76 -119t-118.5 -80t-153.5 -29.5z" />
    <glyph glyph-name="uni042E" unicode="&#x42e;" horiz-adv-x="1010" 
d="M625 -10q-69 0 -129.5 23.5t-108 64.5t-79 98t-41.5 125h-89v-301h-136v730h136v-299h89q11 67 42.5 123.5t79 97.5t108 64.5t128.5 23.5q76 0 142.5 -29t116 -79.5t77.5 -119t28 -147.5t-28 -147.5t-77 -119t-115.5 -79.5t-143.5 -29zM625 124q49 0 90.5 18.5t72.5 50.5
t48.5 76.5t17.5 95.5t-17.5 95t-48.5 76.5t-72.5 51t-90.5 18.5q-48 0 -90 -18.5t-72.5 -50.5t-48 -76.5t-17.5 -95.5t17.5 -95.5t48 -76.5t72.5 -50.5t90 -18.5z" />
    <glyph glyph-name="uni042F" unicode="&#x42f;" horiz-adv-x="583" 
d="M405 0v223h-124l-116 -223h-153l144 259q-60 33 -91 91t-31 126q0 57 19 103.5t55 80t88 52t118 18.5h227v-730h-136zM405 348v255h-86q-78 0 -113.5 -32.5t-35.5 -89.5q0 -27 7.5 -51t25 -42.5t46 -29t70.5 -10.5h86z" />
    <glyph glyph-name="uni0430" unicode="&#x430;" horiz-adv-x="671" 
d="M308 -12q-53 0 -104.5 20.5t-92.5 59.5t-66 95.5t-25 128.5q0 73 24.5 129.5t65 95.5t92.5 59.5t108 20.5q58 0 107 -22t81 -60v70h135v-585h-135v76q-32 -42 -82 -65t-108 -23zM330 112q37 0 69.5 14t55.5 39t36.5 58t13.5 71q0 37 -13.5 70t-36.5 57.5t-55.5 38.5
t-69.5 14q-38 0 -70 -14t-56 -38t-37.5 -57t-13.5 -71t13.5 -71.5t37.5 -58t56 -38.5t70 -14z" />
    <glyph glyph-name="uni0431" unicode="&#x431;" horiz-adv-x="632" 
d="M563 638l-207 -23q-159 -18 -199 -164q28 43 79 69t116 26q54 0 101.5 -20t82.5 -56t55 -86t20 -109q0 -61 -22 -113.5t-60.5 -91t-91.5 -60.5t-116 -22q-74 0 -127 28t-90 73q-41 51 -59 120t-18 149q0 88 22.5 161t73.5 124q80 80 226 95l203 21zM324 114q34 0 62 12
t48.5 33t32 50t11.5 62t-11.5 61.5t-32 49t-48.5 32.5t-62 12q-33 0 -61.5 -12t-49.5 -32.5t-32.5 -49t-11.5 -61.5t11.5 -62t32.5 -50t49.5 -33t61.5 -12z" />
    <glyph glyph-name="uni0432" unicode="&#x432;" horiz-adv-x="556" 
d="M39 585h266q100 0 156 -41t56 -116q0 -84 -72 -124q89 -41 89 -135q0 -81 -58 -125t-165 -44h-272v585zM170 114h143q40 0 62 16t22 48t-21.5 48t-62.5 16h-143v-128zM170 356h139q36 0 55.5 15t19.5 44t-19.5 43.5t-55.5 14.5h-139v-117z" />
    <glyph glyph-name="uni0433" unicode="&#x433;" horiz-adv-x="466" 
d="M446 460h-272v-460h-135v585h407v-125z" />
    <glyph glyph-name="uni0434" unicode="&#x434;" horiz-adv-x="672" 
d="M403 585l200 -461h63v-254h-119v130h-422v-130h-119v254h63l200 461h134zM207 122h256l-128 302z" />
    <glyph glyph-name="uni0435" unicode="&#x435;" 
d="M329 -12q-69 0 -126 23.5t-97.5 64.5t-63 96.5t-22.5 118.5q0 64 23.5 120t64.5 97t96.5 65t119.5 24q65 0 120.5 -22.5t95.5 -63t62.5 -95.5t22.5 -120v-51h-476q14 -63 61 -100.5t119 -37.5q57 0 99 27.5t63 75.5l111 -64q-38 -72 -106 -115t-167 -43zM324 478
q-61 0 -105.5 -33t-62.5 -87h332q-15 60 -58 90t-106 30z" />
    <glyph glyph-name="uni0436" unicode="&#x436;" horiz-adv-x="862" 
d="M365 232h-40l-166 -232h-151l214 301l-208 284h147l167 -230h37v230h132v-230h37l169 230h146l-211 -283v-1l216 -301h-153l-166 232h-38v-232h-132v232z" />
    <glyph glyph-name="uni0437" unicode="&#x437;" horiz-adv-x="529" 
d="M265 -12q-84 0 -146 26.5t-107 77.5l95 87q32 -35 71.5 -51.5t87.5 -16.5q51 0 79.5 17.5t28.5 47.5q0 32 -29.5 48t-80.5 16h-89v115h86q48 0 73.5 16.5t25.5 44.5q0 26 -25 43t-71 17q-48 0 -83 -17t-64 -49l-95 82q42 51 105.5 78t138.5 27q52 0 94.5 -12t71.5 -34
t45 -53t16 -68q0 -45 -20.5 -76.5t-54.5 -51.5q40 -16 65 -49t25 -85q0 -38 -16 -71t-46.5 -57t-76 -38t-104.5 -14z" />
    <glyph glyph-name="uni0438" unicode="&#x438;" horiz-adv-x="609" 
d="M570 0h-133v387l-264 -387h-134v585h133v-377l257 377h141v-585z" />
    <glyph glyph-name="uni0439" unicode="&#x439;" horiz-adv-x="609" 
d="M316 710q38 0 59 23.5t23 68.5h93q0 -37 -11 -68.5t-33 -54.5t-54.5 -36t-76.5 -13t-76.5 13t-54.5 36t-33 54.5t-11 68.5h93q2 -45 23 -68.5t59 -23.5zM570 0h-133v387l-264 -387h-134v585h133v-377l257 377h141v-585z" />
    <glyph glyph-name="uni043A" unicode="&#x43a;" horiz-adv-x="595" 
d="M425 0l-202 231h-49v-231h-135v585h135v-229h41l204 229h160l-253 -284l265 -301h-166z" />
    <glyph glyph-name="uni043B" unicode="&#x43b;" horiz-adv-x="620" 
d="M10 0l237 585h126l237 -585h-141l-160 406l-160 -406h-139z" />
    <glyph glyph-name="uni043C" unicode="&#x43c;" horiz-adv-x="711" 
d="M39 585h126l190 -230l198 230h119v-585h-132v385l-186 -213l-183 209v-381h-132v585z" />
    <glyph glyph-name="uni043D" unicode="&#x43d;" horiz-adv-x="601" 
d="M427 233h-253v-233h-135v585h135v-228h253v228h135v-585h-135v233z" />
    <glyph glyph-name="uni043E" unicode="&#x43e;" 
d="M323 -12q-63 0 -118.5 23.5t-96.5 65t-64.5 97t-23.5 118.5q0 64 23.5 119.5t64.5 97t96.5 65t118.5 23.5t118 -23.5t96.5 -65t65 -97t23.5 -119.5q0 -63 -23.5 -118.5t-65 -97t-96.5 -65t-118 -23.5zM323 115q36 0 67 14t54 38t36 56.5t13 68.5q0 37 -13 69.5t-36 56.5
t-54 38t-67 14t-67.5 -14t-54 -38t-35.5 -56.5t-13 -69.5q0 -36 13 -68.5t35.5 -56.5t54 -38t67.5 -14z" />
    <glyph glyph-name="uni043F" unicode="&#x43f;" horiz-adv-x="591" 
d="M417 461h-243v-461h-135v585h513v-585h-135v461z" />
    <glyph glyph-name="uni0440" unicode="&#x440;" horiz-adv-x="668" 
d="M364 -12q-60 0 -110 21t-81 60v-338h-134v854h134v-78q31 42 80.5 66t109.5 24q55 0 107 -20.5t92 -59.5t64.5 -95.5t24.5 -129.5q0 -72 -25 -128.5t-65.5 -95.5t-92 -59.5t-104.5 -20.5zM342 112q37 0 69 14t56 38.5t37.5 58t13.5 71.5t-13.5 71t-37.5 57t-56 38t-69 14
q-38 0 -70 -14t-55 -38.5t-36 -57.5t-13 -70q0 -38 13 -71t36 -58t55 -39t70 -14z" />
    <glyph glyph-name="uni0441" unicode="&#x441;" horiz-adv-x="617" 
d="M324 -12q-64 0 -119.5 24t-96.5 65t-64.5 96.5t-23.5 118.5q0 64 23.5 119.5t64.5 97t96.5 65t119.5 23.5q49 0 92.5 -13.5t79.5 -37.5t63 -57t44 -73l-121 -51q-20 48 -61.5 76.5t-95.5 28.5q-37 0 -68.5 -14t-55 -38t-36.5 -56.5t-13 -69.5q0 -36 13 -68.5t36.5 -56.5
t55 -38t69.5 -14q57 0 97.5 30.5t60.5 78.5l121 -52q-17 -41 -44 -74.5t-62.5 -58t-79.5 -38t-95 -13.5z" />
    <glyph glyph-name="uni0442" unicode="&#x442;" horiz-adv-x="529" 
d="M197 460h-184v125h503v-125h-184v-460h-135v460z" />
    <glyph glyph-name="uni0443" unicode="&#x443;" horiz-adv-x="618" 
d="M246 29l-240 556h144l163 -394l154 394h142l-349 -855h-137z" />
    <glyph glyph-name="uni0444" unicode="&#x444;" horiz-adv-x="780" 
d="M457 765v-172q66 -3 122 -26.5t97 -63.5t64 -93.5t23 -115.5t-23.5 -116t-64.5 -93.5t-97 -63t-121 -24.5v-246h-133v245q-65 1 -121.5 24.5t-97.5 63.5t-64.5 94t-23.5 116t23.5 116t64.5 93.5t97 63.5t122 26v172h133zM148 295q0 -36 13.5 -67.5t37 -55t55.5 -38
t70 -15.5v351q-38 -2 -70 -15.5t-55.5 -37t-37 -55t-13.5 -67.5zM631 295q0 36 -13 67.5t-36.5 54.5t-55.5 37t-69 16v-351q37 1 69 15.5t55 38t36.5 55t13.5 67.5z" />
    <glyph glyph-name="uni0445" unicode="&#x445;" horiz-adv-x="614" 
d="M225 298l-212 287h165l133 -186l132 186h160l-210 -289l224 -296h-165l-143 195l-139 -195h-165z" />
    <glyph glyph-name="uni0446" unicode="&#x446;" horiz-adv-x="635" 
d="M506 -130v130h-467v585h135v-461h243v461h135v-461h73v-254h-119z" />
    <glyph glyph-name="uni0447" unicode="&#x447;" horiz-adv-x="561" 
d="M387 187q-26 -7 -54.5 -11t-55.5 -4q-62 0 -109 15.5t-79 43.5t-48.5 67.5t-16.5 86.5v200h135v-178q0 -51 30.5 -80.5t106.5 -29.5q22 0 45.5 2t45.5 7v279h135v-585h-135v187z" />
    <glyph glyph-name="uni0448" unicode="&#x448;" horiz-adv-x="869" 
d="M695 585h135v-585h-791v585h135v-461h193v461h135v-461h193v461z" />
    <glyph glyph-name="uni0449" unicode="&#x449;" horiz-adv-x="913" 
d="M784 -130v130h-745v585h135v-461h193v461h135v-461h193v461h135v-461h73v-254h-119z" />
    <glyph glyph-name="uni044A" unicode="&#x44a;" horiz-adv-x="665" 
d="M298 585v-175h118q53 0 96.5 -16t74 -44t47 -65t16.5 -79t-16.5 -79.5t-47 -65.5t-73 -44.5t-94.5 -16.5h-256v464h-150v121h285zM411 118q46 0 75.5 25t29.5 63t-29.5 63t-75.5 25h-113v-176h113z" />
    <glyph glyph-name="uni044B" unicode="&#x44b;" horiz-adv-x="743" 
d="M39 585h135v-175h118q53 0 96.5 -16t74 -44t47 -65t16.5 -79t-16.5 -79.5t-47 -65.5t-73 -44.5t-94.5 -16.5h-256v585zM287 118q46 0 75.5 25t29.5 63t-29.5 63t-75.5 25h-113v-176h113zM568 585h136v-585h-136v585z" />
    <glyph glyph-name="uni044C" unicode="&#x44c;" horiz-adv-x="541" 
d="M39 585h135v-175h118q53 0 96.5 -16t74 -44t47 -65t16.5 -79t-16.5 -79.5t-47 -65.5t-73 -44.5t-94.5 -16.5h-256v585zM287 118q46 0 75.5 25t29.5 63t-29.5 63t-75.5 25h-113v-176h113z" />
    <glyph glyph-name="uni044D" unicode="&#x44d;" horiz-adv-x="619" 
d="M228 350h237q-15 55 -62 90t-111 35q-55 0 -95.5 -26.5t-63.5 -74.5l-116 60q36 73 108.5 118t166.5 45q66 0 122 -23t97 -63.5t64.5 -96.5t23.5 -121q0 -64 -23 -119.5t-63.5 -97t-97.5 -65t-124 -23.5q-50 0 -93 12.5t-78 35t-62.5 53.5t-45.5 68l117 59
q20 -45 62 -75.5t100 -30.5q65 0 112.5 35.5t62.5 91.5h-238v113z" />
    <glyph glyph-name="uni044E" unicode="&#x44e;" horiz-adv-x="860" 
d="M544 -12q-58 0 -107 18.5t-87 51t-63 77t-34 97.5h-79v-232h-135v585h135v-227h80q10 51 35.5 95t63 76t86 50t105.5 18q65 0 119.5 -24t93.5 -65t61 -96.5t22 -119.5q0 -63 -22 -118.5t-61 -96.5t-93.5 -65t-119.5 -24zM544 115q38 0 68 14t51 38t32.5 56.5t11.5 68.5
q0 37 -11.5 69.5t-32.5 56.5t-51 38t-68 14t-68.5 -14t-51.5 -38t-32 -56.5t-11 -69.5q0 -36 11 -68.5t32 -56.5t51.5 -38t68.5 -14z" />
    <glyph glyph-name="uni044F" unicode="&#x44f;" horiz-adv-x="554" 
d="M15 0l103 211q-43 27 -64.5 72.5t-21.5 96.5q0 46 15.5 84t45 65t72.5 41.5t97 14.5h253v-585h-133v176h-142l-82 -176h-143zM382 293v174h-114q-51 0 -74.5 -22.5t-23.5 -60.5q0 -19 5 -35.5t16.5 -29t30 -19.5t46.5 -7h114z" />
    <glyph glyph-name="uni0450" unicode="&#x450;" 
d="M329 -12q-69 0 -126 23.5t-97.5 64.5t-63 96.5t-22.5 118.5q0 64 23.5 120t64.5 97t96.5 65t119.5 24q65 0 120.5 -22.5t95.5 -63t62.5 -95.5t22.5 -120v-51h-476q14 -63 61 -100.5t119 -37.5q57 0 99 27.5t63 75.5l111 -64q-38 -72 -106 -115t-167 -43zM324 478
q-61 0 -105.5 -33t-62.5 -87h332q-15 60 -58 90t-106 30zM156 810h127l114 -170h-91z" />
    <glyph glyph-name="uni0451" unicode="&#x451;" 
d="M329 -12q-69 0 -126 23.5t-97.5 64.5t-63 96.5t-22.5 118.5q0 64 23.5 120t64.5 97t96.5 65t119.5 24q65 0 120.5 -22.5t95.5 -63t62.5 -95.5t22.5 -120v-51h-476q14 -63 61 -100.5t119 -37.5q57 0 99 27.5t63 75.5l111 -64q-38 -72 -106 -115t-167 -43zM324 478
q-61 0 -105.5 -33t-62.5 -87h332q-15 60 -58 90t-106 30zM156 703q0 32 19.5 52t52.5 20q34 0 53 -20t19 -52t-19 -51.5t-53 -19.5t-53 19.5t-19 51.5zM347 703q0 32 19.5 52t52.5 20t52.5 -20t19.5 -52t-19.5 -51.5t-52.5 -19.5q-35 0 -53.5 19.5t-18.5 51.5z" />
    <glyph glyph-name="uni0452" unicode="&#x452;" horiz-adv-x="627" 
d="M451 292q0 69 -33 108.5t-99 39.5q-29 0 -53.5 -10.5t-43 -31t-29 -50t-10.5 -67.5v-281h-136v605h-58v78h58v57h135v-57h191v-78h-191v-130q30 38 74 60t101 22q109 0 170.5 -66t61.5 -184v-332q0 -70 -12 -116.5t-39.5 -75t-73.5 -40.5t-113 -12h-20v127q39 0 62.5 4
t36.5 16.5t17 35.5t4 62v316v0z" />
    <glyph glyph-name="uni0453" unicode="&#x453;" horiz-adv-x="466" 
d="M446 460h-272v-460h-135v585h407v-125zM295 794h126l-150 -170h-91z" />
    <glyph glyph-name="uni0454" unicode="&#x454;" horiz-adv-x="619" 
d="M391 350v-113h-239q15 -56 62.5 -91.5t113.5 -35.5q58 0 100 30.5t62 75.5l117 -59q-18 -37 -45.5 -68t-62.5 -53.5t-78.5 -35t-92.5 -12.5q-68 0 -124.5 23.5t-97 65t-63.5 97t-23 119.5q0 65 23.5 121t64.5 96.5t97 63.5t122 23q94 0 166.5 -45t108.5 -118l-116 -60
q-23 48 -63.5 74.5t-95.5 26.5q-64 0 -111 -35t-63 -90h238z" />
    <glyph glyph-name="uni0455" unicode="&#x455;" horiz-adv-x="518" 
d="M259 -12q-97 0 -161 36.5t-99 105.5l125 60q43 -85 141 -85q51 0 75.5 21t24.5 50q0 16 -11.5 26.5t-30 17.5t-43.5 12t-52 11q-38 8 -74.5 19t-65.5 30.5t-47 50t-18 76.5q0 35 16.5 67.5t46.5 57t72.5 39.5t94.5 15q88 0 146.5 -32t92.5 -89l-115 -58q-18 31 -50 49
t-74 18q-48 0 -71 -19t-23 -44q0 -29 34 -41.5t100 -26.5q36 -7 72.5 -18.5t66.5 -31t48.5 -50t18.5 -76.5q0 -31 -14 -64.5t-43.5 -61.5t-74.5 -46.5t-108 -18.5z" />
    <glyph glyph-name="uni0456" unicode="&#x456;" horiz-adv-x="214" 
d="M39 585h136v-585h-136v585zM22 728q0 38 23 61.5t62 23.5q40 0 62.5 -23.5t22.5 -61.5t-22.5 -61t-62.5 -23q-42 0 -63.5 23t-21.5 61z" />
    <glyph glyph-name="uni0457" unicode="&#x457;" horiz-adv-x="214" 
d="M145 791h135v-161h-135v161zM-68 791h136v-161h-136v161zM39 585h136v-585h-136v585z" />
    <glyph glyph-name="uni0458" unicode="&#x458;" horiz-adv-x="213" 
d="M-82 -142q39 0 63 4t37 16.5t17 35.5t4 62v609h136v-610q0 -69 -12 -116t-40 -75.5t-73.5 -40.5t-112.5 -12h-19v127zM22 728q0 38 23 61.5t62 23.5q40 0 62.5 -23.5t22.5 -61.5t-22.5 -61t-62.5 -23q-42 0 -63.5 23t-21.5 61z" />
    <glyph glyph-name="uni0459" unicode="&#x459;" horiz-adv-x="882" 
d="M388 455l-241 -454l-145 -1l313 585h208v-175h110q53 0 96.5 -16t74 -44t47 -65t16.5 -79t-16.5 -79.5t-47 -65.5t-73 -44.5t-94.5 -16.5h-248v455zM628 118q46 0 75.5 25t29.5 63t-29.5 63t-75.5 25h-105v-176h105z" />
    <glyph glyph-name="uni045A" unicode="&#x45a;" horiz-adv-x="909" 
d="M415 233h-241v-233h-135v585h135v-228h241v228h135v-175h110q53 0 96.5 -16t74 -44t47 -65t16.5 -79t-16.5 -79.5t-47 -65.5t-73 -44.5t-94.5 -16.5h-248v233zM655 118q46 0 75.5 25t29.5 63t-29.5 63t-75.5 25h-105v-176h105z" />
    <glyph glyph-name="uni045B" unicode="&#x45b;" horiz-adv-x="627" 
d="M-11 683h58v57h135v-57h191v-78h-191v-130q30 38 74 60t101 22q109 0 170.5 -66t61.5 -184v-307h-138v292q0 69 -33 108.5t-99 39.5q-29 0 -53.5 -10.5t-43 -31t-29 -50t-10.5 -67.5v-281h-136v605h-58v78z" />
    <glyph glyph-name="uni045C" unicode="&#x45c;" horiz-adv-x="595" 
d="M425 0l-202 231h-49v-231h-135v585h135v-229h41l204 229h160l-253 -284l265 -301h-166zM352 794h126l-150 -170h-91z" />
    <glyph glyph-name="uni045D" unicode="&#x45d;" horiz-adv-x="609" 
d="M570 0h-133v387l-264 -387h-134v585h133v-377l257 377h141v-585zM124 810h127l114 -170h-91z" />
    <glyph glyph-name="uni045E" unicode="&#x45e;" horiz-adv-x="618" 
d="M246 29l-240 556h144l163 -394l154 394h142l-349 -855h-137zM310 701q38 0 59 24t23 69h93q0 -37 -11 -68.5t-33 -54.5t-54.5 -36t-76.5 -13t-76.5 13t-54.5 36t-33 54.5t-11 68.5h93q2 -45 23 -69t59 -24z" />
    <glyph glyph-name="uni045F" unicode="&#x45f;" horiz-adv-x="591" 
d="M236 -130v130h-197v585h135v-461h243v461h135v-585h-197v-130h-119z" />
    <glyph glyph-name="uni0490" unicode="&#x490;" horiz-adv-x="483" 
d="M459 862v-262h-281v-600h-136v730h290v132h127z" />
    <glyph glyph-name="uni0491" unicode="&#x491;" horiz-adv-x="466" 
d="M446 711v-251h-272v-460h-135v585h287v126h120z" />
    <glyph glyph-name="uni0E3F" unicode="&#xe3f;" horiz-adv-x="489" 
d="M36 657h178v73h69v-74q88 -6 135 -48t47 -119q0 -42 -17.5 -71.5t-48.5 -48.5q34 -20 52.5 -51.5t18.5 -76.5q0 -42 -13 -73.5t-37.5 -54t-59 -35t-77.5 -16.5v-62h-69v61h-178v596zM170 181h44v124h-44v-124zM170 427h44v111h-44v-111zM334 245q0 23 -12 37.5t-39 19.5
v-118q24 6 37.5 21.5t13.5 39.5zM332 485q0 42 -49 51v-107q25 5 37 19.5t12 36.5z" />
    <glyph glyph-name="Wgrave" unicode="&#x1e80;" horiz-adv-x="1023" 
d="M14 730h142l138 -511l153 511h134l152 -509l137 509h137l-206 -730h-135l-153 515l-153 -515h-138zM312 950h127l114 -170h-91z" />
    <glyph glyph-name="wgrave" unicode="&#x1e81;" horiz-adv-x="995" 
d="M18 585h138l129 -403l147 403h134l144 -404l134 404h137l-205 -585h-130l-148 405l-152 -405h-133zM304 805h127l114 -170h-91z" />
    <glyph glyph-name="Wacute" unicode="&#x1e82;" horiz-adv-x="1023" 
d="M14 730h142l138 -511l153 511h134l152 -509l137 509h137l-206 -730h-135l-153 515l-153 -515h-138zM578 950h126l-150 -170h-91z" />
    <glyph glyph-name="wacute" unicode="&#x1e83;" horiz-adv-x="995" 
d="M18 585h138l129 -403l147 403h134l144 -404l134 404h137l-205 -585h-130l-148 405l-152 -405h-133zM567 806h126l-150 -170h-91z" />
    <glyph glyph-name="Wdieresis" unicode="&#x1e84;" horiz-adv-x="1023" 
d="M14 730h142l138 -511l153 511h134l152 -509l137 509h137l-206 -730h-135l-153 515l-153 -515h-138zM345 849q0 32 19.5 52t52.5 20q34 0 53 -20t19 -52t-19 -51.5t-53 -19.5t-53 19.5t-19 51.5zM536 849q0 32 19.5 52t52.5 20t52.5 -20t19.5 -52t-19.5 -51.5t-52.5 -19.5
q-35 0 -53.5 19.5t-18.5 51.5z" />
    <glyph glyph-name="wdieresis" unicode="&#x1e85;" horiz-adv-x="995" 
d="M18 585h138l129 -403l147 403h134l144 -404l134 404h137l-205 -585h-130l-148 405l-152 -405h-133zM334 702q0 32 19.5 52t52.5 20q34 0 53 -20t19 -52t-19 -51.5t-53 -19.5t-53 19.5t-19 51.5zM525 702q0 32 19.5 52t52.5 20t52.5 -20t19.5 -52t-19.5 -51.5t-52.5 -19.5
q-35 0 -53.5 19.5t-18.5 51.5z" />
    <glyph glyph-name="Ygrave" unicode="&#x1ef2;" horiz-adv-x="629" 
d="M245 346l-232 384h150l151 -253l152 253h150l-235 -387v-343h-136v346zM116 950h127l114 -170h-91z" />
    <glyph glyph-name="ygrave" unicode="&#x1ef3;" horiz-adv-x="618" 
d="M246 29l-240 556h144l163 -394l154 394h142l-349 -855h-137zM115 807h127l114 -170h-91z" />
    <glyph glyph-name="figuredash" unicode="&#x2012;" horiz-adv-x="623" 
d="M36 312h551v-115h-551v115z" />
    <glyph glyph-name="endash" unicode="&#x2013;" horiz-adv-x="473" 
d="M36 312h401v-115h-401v115z" />
    <glyph glyph-name="emdash" unicode="&#x2014;" horiz-adv-x="673" 
d="M36 312h601v-115h-601v115z" />
    <glyph glyph-name="uni2015" unicode="&#x2015;" horiz-adv-x="973" 
d="M36 312h901v-115h-901v115z" />
    <glyph glyph-name="quoteleft" unicode="&#x2018;" horiz-adv-x="207" 
d="M176 526h-83l-70 204h119z" />
    <glyph glyph-name="quoteright" unicode="&#x2019;" horiz-adv-x="207" 
d="M28 526l34 204h119l-70 -204h-83z" />
    <glyph glyph-name="quotesinglbase" unicode="&#x201a;" horiz-adv-x="207" 
d="M22 -117l34 204h119l-70 -204h-83z" />
    <glyph glyph-name="quotedblleft" unicode="&#x201c;" horiz-adv-x="368" 
d="M180 526h-83l-70 204h118zM341 526h-84l-69 204h118z" />
    <glyph glyph-name="quotedblright" unicode="&#x201d;" horiz-adv-x="368" 
d="M28 526l34 204h119l-70 -204h-83zM189 526l34 204h119l-70 -204h-83z" />
    <glyph glyph-name="quotedblbase" unicode="&#x201e;" horiz-adv-x="368" 
d="M22 -117l34 204h119l-70 -204h-83zM183 -117l34 204h119l-70 -204h-83z" />
    <glyph glyph-name="dagger" unicode="&#x2020;" horiz-adv-x="526" 
d="M36 500h159v230h136v-230h158v-121h-158v-379h-136v379h-159v121z" />
    <glyph glyph-name="daggerdbl" unicode="&#x2021;" horiz-adv-x="526" 
d="M36 555h159v175h136v-175h158v-120h-158v-131h158v-120h-158v-184h-136v184h-159v120h159v131h-159v120z" />
    <glyph glyph-name="bullet" unicode="&#x2022;" horiz-adv-x="395" 
d="M198 144q-23 0 -43 9t-35 24t-24 35t-9 43t9 43t24 35t35 24t43 9q22 0 42.5 -9t35.5 -24t24 -35t9 -43t-9 -43t-24 -35t-35.5 -24t-42.5 -9z" />
    <glyph glyph-name="ellipsis" unicode="&#x2026;" horiz-adv-x="577" 
d="M33 62q0 33 20 53.5t54 20.5q35 0 54 -20.5t19 -53.5q0 -32 -19.5 -52.5t-54.5 -20.5q-34 0 -53.5 20.5t-19.5 52.5zM215 62q0 33 20 53.5t54 20.5q35 0 54 -20.5t19 -53.5q0 -32 -19.5 -52.5t-54.5 -20.5q-34 0 -53.5 20.5t-19.5 52.5zM397 62q0 33 20 53.5t54 20.5
q35 0 54 -20.5t19 -53.5q0 -32 -19.5 -52.5t-54.5 -20.5q-34 0 -53.5 20.5t-19.5 52.5z" />
    <glyph glyph-name="perthousand" unicode="&#x2030;" horiz-adv-x="1204" 
d="M640 730h172l-627 -730h-172zM625 -11q-37 0 -69.5 14t-57 38.5t-38.5 57t-14 69.5t14 69.5t38.5 56.5t57 38t69.5 14t69.5 -14t56.5 -38t38 -56.5t14 -69.5t-14 -69.5t-38 -57t-56.5 -38.5t-69.5 -14zM625 103q26 0 45 19t19 46q0 26 -19 45.5t-45 19.5q-27 0 -46 -19.5
t-19 -45.5q0 -27 19 -46t46 -19zM201 383q-37 0 -69.5 14t-57 38.5t-38.5 57t-14 69.5t14 69.5t38.5 56.5t57 38t69.5 14t69.5 -14t56.5 -38t38 -56.5t14 -69.5t-14 -69.5t-38 -57t-56.5 -38.5t-69.5 -14zM201 496q26 0 45.5 19.5t19.5 46.5q0 26 -19.5 45.5t-45.5 19.5
t-45.5 -19.5t-19.5 -45.5q0 -27 19.5 -46.5t45.5 -19.5zM1003 -11q-37 0 -69.5 14t-56.5 38.5t-38 57t-14 69.5t14 69.5t38 56.5t56.5 38t69.5 14t69.5 -14t57 -38t38.5 -56.5t14 -69.5t-14 -69.5t-38.5 -57t-57 -38.5t-69.5 -14zM1003 103q26 0 45.5 19t19.5 46
q0 26 -19.5 45.5t-45.5 19.5t-45.5 -19.5t-19.5 -45.5q0 -27 19.5 -46t45.5 -19z" />
    <glyph glyph-name="minute" unicode="&#x2032;" horiz-adv-x="207" 
d="M28 526l34 204h119l-70 -204h-83z" />
    <glyph glyph-name="second" unicode="&#x2033;" horiz-adv-x="368" 
d="M28 526l34 204h119l-70 -204h-83zM189 526l34 204h119l-70 -204h-83z" />
    <glyph glyph-name="guilsinglleft" unicode="&#x2039;" horiz-adv-x="275" 
d="M53 214v83l169 119v-101l-89 -60l89 -59v-101z" />
    <glyph glyph-name="guilsinglright" unicode="&#x203a;" horiz-adv-x="275" 
d="M53 197l89 59l-89 60v101l169 -119v-83l-169 -119v101z" />
    <glyph glyph-name="fraction" unicode="&#x2044;" horiz-adv-x="704" 
d="M538 730h156l-527 -730h-156z" />
    <glyph glyph-name="uni2070" unicode="&#x2070;" horiz-adv-x="454" 
d="M226 302q-45 0 -84.5 17t-68.5 46.5t-45.5 69t-16.5 84.5t16.5 84.5t45.5 69t68.5 46.5t84.5 17t85 -17t69 -46.5t46 -69t17 -84.5t-17 -84.5t-46 -69t-68.5 -46.5t-85.5 -17zM226 413q46 0 74 31t28 75q0 22 -7.5 41t-21 33.5t-32.5 23t-41 8.5q-45 0 -73 -31t-28 -75
q0 -22 7.5 -41t20.5 -33.5t31.5 -23t41.5 -8.5z" />
    <glyph glyph-name="uni2074" unicode="&#x2074;" horiz-adv-x="363" 
d="M183 392h-169v99l168 239h105v-243h62v-95h-62v-84h-104v84zM183 487v77l-53 -77h53z" />
    <glyph glyph-name="uni2075" unicode="&#x2075;" horiz-adv-x="320" 
d="M157 302q-52 0 -91.5 21t-60.5 57l108 57q13 -29 44 -29q19 0 30.5 11.5t11.5 30.5q0 18 -12 29t-32 11q-14 0 -26 -8t-17 -19l-102 35l32 232h242v-103h-155l-7 -45q10 4 22 6.5t27 2.5q63 0 101 -37t38 -104q0 -33 -11.5 -60.5t-32 -47t-48.5 -30t-61 -10.5z" />
    <glyph glyph-name="uni2076" unicode="&#x2076;" horiz-adv-x="352" 
d="M176 302q-36 0 -66.5 12t-52.5 33t-34 49.5t-12 61.5q0 32 12.5 64.5t28.5 58.5l94 149h129l-76 -119q30 -1 56 -12t45 -31t30 -48t11 -62q0 -33 -12 -61.5t-34 -49.5t-52.5 -33t-66.5 -12zM176 406q23 0 39 15.5t16 38.5q0 22 -16 37.5t-39 15.5t-37.5 -15.5
t-14.5 -38.5q0 -22 14.5 -37.5t37.5 -15.5z" />
    <glyph glyph-name="uni2077" unicode="&#x2077;" horiz-adv-x="307" 
d="M176 626h-162v104h279v-98l-144 -324h-121z" />
    <glyph glyph-name="uni2078" unicode="&#x2078;" horiz-adv-x="328" 
d="M163 302q-32 0 -59 9.5t-47 27.5t-31.5 44t-11.5 59q0 26 10.5 49.5t29.5 41.5q-28 31 -28 76q0 61 38.5 94t98.5 33q61 0 100 -33t39 -94q0 -43 -26 -75q17 -17 27 -40t10 -52q0 -33 -11.5 -59t-31.5 -44t-47.5 -27.5t-59.5 -9.5zM163 398q20 0 32.5 12.5t12.5 31.5
q0 17 -12.5 29.5t-32.5 12.5t-32 -12.5t-12 -29.5q0 -19 12 -31.5t32 -12.5zM163 574q18 0 28 10t10 25q0 14 -9.5 24.5t-27.5 10.5t-27.5 -10.5t-9.5 -24.5q0 -15 9.5 -25t26.5 -10z" />
    <glyph glyph-name="uni2079" unicode="&#x2079;" horiz-adv-x="352" 
d="M153 428q-29 0 -55 11t-45.5 30.5t-30.5 47.5t-11 63q0 33 12 61.5t34 49.5t52.5 33t66.5 12t66.5 -12t52.5 -33t34 -49.5t12 -61.5q0 -32 -12 -64.5t-29 -58.5l-94 -149h-128zM176 525q23 0 38.5 15.5t15.5 38.5t-15.5 38t-38.5 15t-38 -15t-15 -38t15 -38.5t38 -15.5z
" />
    <glyph glyph-name="uni207A" unicode="&#x207a;" horiz-adv-x="247" 
d="M16 564h63v61h88v-61h63v-91h-63v-61h-88v61h-63v91z" />
    <glyph glyph-name="uni207B" unicode="&#x207b;" horiz-adv-x="247" 
d="M16 563h214v-90h-214v90z" />
    <glyph glyph-name="uni207C" unicode="&#x207c;" horiz-adv-x="241" 
d="M14 612h213v-86h-213v86zM14 510h213v-87h-213v87z" />
    <glyph glyph-name="uni207D" unicode="&#x207d;" horiz-adv-x="266" 
d="M173 216q-74 56 -112.5 130t-38.5 171t39 170.5t111 129.5l68 -91q-54 -40 -79.5 -92.5t-25.5 -116.5q0 -129 105 -210l-67 -91v0z" />
    <glyph glyph-name="uni207E" unicode="&#x207e;" horiz-adv-x="266" 
d="M26 307q105 81 105 210q0 64 -25.5 116.5t-79.5 92.5l68 91q72 -56 111 -129.5t39 -170.5t-38.5 -171t-111.5 -130z" />
    <glyph glyph-name="uni2080" unicode="&#x2080;" horiz-adv-x="454" 
d="M226 -6q-45 0 -84.5 17t-68.5 46.5t-45.5 69t-16.5 84.5t16.5 84.5t45.5 69t68.5 46.5t84.5 17t85 -17t69 -46.5t46 -69t17 -84.5t-17 -84.5t-46 -69t-68.5 -46.5t-85.5 -17zM226 105q46 0 74 31t28 75q0 22 -7.5 41t-21 33.5t-32.5 23t-41 8.5q-45 0 -73 -31t-28 -75
q0 -22 7.5 -41t20.5 -33.5t31.5 -23t41.5 -8.5z" />
    <glyph glyph-name="uni2081" unicode="&#x2081;" horiz-adv-x="298" 
d="M14 104h81v166q-11 -14 -27 -20t-36 -6h-6v107h3q21 0 34.5 7t21.5 17.5t11 23t3 23.5h109v-318h78v-104h-272v104z" />
    <glyph glyph-name="uni2082" unicode="&#x2082;" horiz-adv-x="330" 
d="M14 83q0 31 10.5 55t27 42t37 31t40.5 24q30 17 52.5 31t22.5 33q0 13 -10.5 22.5t-30.5 9.5q-23 0 -38.5 -17t-23.5 -37l-97 50q23 47 63 74t98 27q34 0 62.5 -9.5t49 -26.5t31.5 -40.5t11 -51.5q0 -30 -11 -53t-28 -40t-38 -30t-41 -23q-26 -14 -45 -25.5t-21 -24.5
h181v-104h-302v83z" />
    <glyph glyph-name="uni2083" unicode="&#x2083;" horiz-adv-x="325" 
d="M158 -6q-43 0 -84 12.5t-69 40.5l85 77q27 -28 61 -28q20 0 32.5 9.5t12.5 26.5t-16.5 25t-42.5 8h-44v98h42q25 0 38.5 9.5t13.5 26.5q0 31 -43 31q-16 0 -30 -7.5t-22 -20.5l-80 69q25 27 62.5 42t73.5 15q70 0 113.5 -33.5t43.5 -91.5q0 -50 -42 -83q25 -15 38.5 -38
t13.5 -53q0 -29 -11 -53.5t-31.5 -42.5t-49.5 -28.5t-65 -10.5z" />
    <glyph glyph-name="uni2084" unicode="&#x2084;" horiz-adv-x="363" 
d="M183 84h-169v99l168 239h105v-243h62v-95h-62v-84h-104v84zM183 179v77l-53 -77h53z" />
    <glyph glyph-name="uni2085" unicode="&#x2085;" horiz-adv-x="320" 
d="M157 -6q-52 0 -91.5 21t-60.5 57l108 57q13 -29 44 -29q19 0 30.5 11.5t11.5 30.5q0 18 -12 29t-32 11q-14 0 -26 -8t-17 -19l-102 35l32 232h242v-103h-155l-7 -45q10 4 22 6.5t27 2.5q63 0 101 -37t38 -104q0 -33 -11.5 -60.5t-32 -47t-48.5 -30t-61 -10.5z" />
    <glyph glyph-name="uni2086" unicode="&#x2086;" horiz-adv-x="352" 
d="M176 -6q-36 0 -66.5 12t-52.5 33t-34 49.5t-12 61.5q0 32 12.5 64.5t28.5 58.5l94 149h129l-76 -119q30 -1 56 -12t45 -31t30 -48t11 -62q0 -33 -12 -61.5t-34 -49.5t-52.5 -33t-66.5 -12zM176 98q23 0 39 15.5t16 38.5q0 22 -16 37.5t-39 15.5t-37.5 -15.5t-14.5 -38.5
q0 -22 14.5 -37.5t37.5 -15.5z" />
    <glyph glyph-name="uni2087" unicode="&#x2087;" horiz-adv-x="307" 
d="M176 318h-162v104h279v-98l-144 -324h-121z" />
    <glyph glyph-name="uni2088" unicode="&#x2088;" horiz-adv-x="328" 
d="M163 -6q-32 0 -59 9.5t-47 27.5t-31.5 44t-11.5 59q0 26 10.5 49.5t29.5 41.5q-28 31 -28 76q0 61 38.5 94t98.5 33q61 0 100 -33t39 -94q0 -43 -26 -75q17 -17 27 -40t10 -52q0 -33 -11.5 -59t-31.5 -44t-47.5 -27.5t-59.5 -9.5zM163 90q20 0 32.5 12.5t12.5 31.5
q0 17 -12.5 29.5t-32.5 12.5t-32 -12.5t-12 -29.5q0 -19 12 -31.5t32 -12.5zM163 266q18 0 28 10t10 25q0 14 -9.5 24.5t-27.5 10.5t-27.5 -10.5t-9.5 -24.5q0 -15 9.5 -25t26.5 -10z" />
    <glyph glyph-name="uni2089" unicode="&#x2089;" horiz-adv-x="352" 
d="M153 120q-29 0 -55 11t-45.5 30.5t-30.5 47.5t-11 63q0 33 12 61.5t34 49.5t52.5 33t66.5 12t66.5 -12t52.5 -33t34 -49.5t12 -61.5q0 -32 -12 -64.5t-29 -58.5l-94 -149h-128zM176 217q23 0 38.5 15.5t15.5 38.5t-15.5 38t-38.5 15t-38 -15t-15 -38t15 -38.5t38 -15.5z
" />
    <glyph glyph-name="uni208A" unicode="&#x208a;" horiz-adv-x="247" 
d="M16 256h63v61h88v-61h63v-91h-63v-61h-88v61h-63v91z" />
    <glyph glyph-name="uni208B" unicode="&#x208b;" horiz-adv-x="247" 
d="M16 255h214v-90h-214v90z" />
    <glyph glyph-name="uni208C" unicode="&#x208c;" horiz-adv-x="241" 
d="M14 304h213v-86h-213v86zM14 202h213v-87h-213v87z" />
    <glyph glyph-name="uni208D" unicode="&#x208d;" horiz-adv-x="266" 
d="M173 -92q-74 56 -112.5 130t-38.5 171t39 170.5t111 129.5l68 -91q-54 -40 -79.5 -92.5t-25.5 -116.5q0 -129 105 -210l-67 -91v0z" />
    <glyph glyph-name="uni208E" unicode="&#x208e;" horiz-adv-x="266" 
d="M26 -1q105 81 105 210q0 64 -25.5 116.5t-79.5 92.5l68 91q72 -56 111 -129.5t39 -170.5t-38.5 -171t-111.5 -130z" />
    <glyph glyph-name="uni20A1" unicode="&#x20a1;" horiz-adv-x="738" 
d="M76 -120l78 192q-63 51 -97.5 127t-34.5 166q0 82 29 150.5t79.5 118.5t119 78t147.5 28h15t15 -1l42 101h75l-47 -114q13 -3 25 -7.5t23 -9.5l54 131h75l-68 -164q69 -46 111 -117l-119 -76q-10 17 -21 32.5t-25 28.5l-172 -418h14q70 0 121 35t80 88l122 -70
q-50 -85 -131 -137t-189 -52q-19 0 -36.5 2t-34.5 4l-47 -116h-74l54 133q-26 10 -47 21l-63 -154h-73zM157 365q0 -45 14 -84t40 -71l161 395q-47 -5 -86.5 -25t-68 -51.5t-44.5 -73.5t-16 -90zM265 162q21 -13 46 -22l183 445q-11 5 -23 9.5t-25 6.5z" />
    <glyph glyph-name="uni20A2" unicode="&#x20a2;" horiz-adv-x="738" 
d="M397 -10q-85 0 -154 29.5t-118 80t-76 119t-27 146.5q0 82 29 150.5t79.5 118.5t119 78t147.5 28q51 0 98.5 -13t89 -36.5t75 -57t57.5 -74.5l-119 -76q-32 57 -81 90t-120 33q-52 0 -96 -18.5t-76 -51t-50 -76.5t-18 -95q0 -76 39 -135.5t105 -85.5v296h133v-82
q19 39 53 60.5t85 21.5h27v-130h-57q-57 0 -82 -31t-25 -102v-48q60 10 102.5 45.5t67.5 86.5l122 -67q-24 -47 -58 -84.5t-76.5 -64t-92 -41t-103.5 -14.5z" />
    <glyph glyph-name="franc" unicode="&#x20a3;" horiz-adv-x="486" 
d="M36 730h413v-130h-277v-101h277v-114h-277v-61h277v-115h-277v-209h-136v730z" />
    <glyph glyph-name="lira" unicode="&#x20a4;" horiz-adv-x="705" 
d="M85 477h68q-4 20 -4 47q0 47 17 87t47.5 68.5t73 44.5t93.5 16q91 0 150 -38.5t80 -105.5l-128 -47q-10 35 -36 54t-65 19q-24 0 -43 -8t-32.5 -21t-21 -30.5t-7.5 -36.5q0 -24 5 -49h210v-98h-173l14 -33h159v-98h-126q3 -15 5 -31.5t2 -33.5q0 -14 -2 -28t-5 -27
q24 -13 46.5 -21.5t45.5 -8.5q40 0 56 19t16 63v48h139v-65q0 -39 -9.5 -70.5t-30.5 -54.5t-54.5 -35.5t-82.5 -12.5q-53 0 -95 17t-78 39q-26 -27 -59.5 -42t-70.5 -15q-66 0 -102 25.5t-36 78.5q0 48 34.5 78.5t87.5 30.5q30 0 58 -8.5t54 -21.5q1 3 1 10q0 33 -14 66
h-187v98h128q-11 15 -21 33h-107v98zM189 69q33 0 58 23q-18 11 -35 17.5t-33 6.5q-14 0 -20.5 -6.5t-6.5 -15.5q0 -11 9.5 -18t27.5 -7z" />
    <glyph glyph-name="uni20A6" unicode="&#x20a6;" horiz-adv-x="808" 
d="M30 455h90v275h145l153 -275h134v275h136v-275h90v-66h-90v-33h90v-66h-90v-290h-135l-162 290h-135v-290h-136v290h-90v66h90v33h-90v66zM256 356h98l-19 33h-79v-33zM474 356h78v33h-97zM256 531v-76h42zM552 216v74h-41z" />
    <glyph glyph-name="peseta" unicode="&#x20a7;" horiz-adv-x="1396" 
d="M534 380q-13 -38 -36.5 -69t-56 -54t-72 -35.5t-84.5 -12.5h-113v-209h-136v730h250q53 0 98.5 -17.5t80 -48.5t56 -73t26.5 -91h72v117l134 74v-191h105v-120h-105v-163q0 -30 3 -48t13 -27.5t29 -13t51 -3.5h242q72 0 72 40q0 22 -31 30t-74 14q-31 4 -63.5 11.5
t-59 22.5t-43.5 40.5t-17 67.5q0 35 14 64.5t40 50.5t62.5 33t81.5 11q87 0 137.5 -31t79.5 -83l-118 -51q-11 25 -35.5 40t-58.5 15q-35 0 -51 -11.5t-16 -28.5q0 -11 8.5 -17t23.5 -10.5t34.5 -7.5t41.5 -6q30 -5 62 -13t57.5 -24.5t42 -43.5t16.5 -69q0 -31 -10.5 -61.5
t-35 -54.5t-65 -39t-101.5 -14h-256q-59 0 -99.5 11t-65 36t-35 66.5t-10.5 102.5v164h-85zM172 604v-269h105q30 0 55 10.5t43 29t27.5 43t9.5 52.5t-9.5 52.5t-27.5 42.5t-43 28.5t-55 10.5h-105z" />
    <glyph glyph-name="uni20A8" unicode="&#x20a8;" horiz-adv-x="987" 
d="M734 -1q-58 0 -123.5 12t-136 50t-144.5 109t-148 190h68q40 0 68 12t45.5 30.5t25 41t7.5 42.5q0 56 -33.5 86.5t-112.5 30.5h-78v-603h-136v730h229q63 0 112.5 -19t84 -52t53 -77.5t18.5 -95.5q0 -32 -7.5 -63.5t-23 -59.5t-39.5 -50.5t-56 -37.5q40 -48 81.5 -77.5
t83.5 -46t85 -22t86 -5.5q45 0 65.5 11t20.5 30q0 11 -8.5 18t-22.5 11.5t-33.5 7.5t-40.5 6q-31 4 -63.5 11.5t-59 23t-43.5 41.5t-17 67q0 35 14 64.5t40 50.5t62.5 33t81.5 11q87 0 138 -31t79 -83l-118 -51q-11 25 -35 40t-59 15t-51 -11.5t-16 -28.5q0 -11 8.5 -17
t23.5 -10.5t34.5 -7.5t41.5 -7q30 -5 62 -13t57.5 -24t42 -43t16.5 -69q0 -31 -11 -61.5t-37 -55t-70 -39.5t-111 -14z" />
    <glyph glyph-name="uni20A9" unicode="&#x20a9;" horiz-adv-x="1078" 
d="M26 455h91l-78 275h142l74 -275h143l83 275h124l82 -275h143l74 275h138l-78 -275h89v-66h-108l-10 -33h118v-66h-136l-82 -290h-134l-87 290h-143l-86 -290h-139l-83 290h-137v66h119l-10 33h-109v66zM282 356h87l10 33h-106zM717 356h86l9 33h-105zM491 356h104l-10 33
h-84zM300 290l23 -86l26 86h-49zM737 290l26 -86l23 86h-49zM543 530l-23 -75h45z" />
    <glyph glyph-name="uni20AA" unicode="&#x20aa;" horiz-adv-x="802" 
d="M234 550q43 0 69.5 -4t41.5 -16.5t20 -35t5 -59.5v-309h69q57 0 94 9t58.5 29t29.5 53t8 80v433h136v-433q0 -142 -75 -219.5t-238 -77.5h-218v550zM36 730h218q164 0 239 -77.5t75 -219.5v-135q0 -33 -6 -55.5t-21.5 -36t-42 -19.5t-66.5 -6v252q0 48 -8 80.5t-29 52.5
t-58.5 29t-95.5 9h-69v-604h-136v730z" />
    <glyph glyph-name="Euro" unicode="&#x20ac;" horiz-adv-x="588" 
d="M31 517h91q3 48 22.5 88.5t52 70.5t76 47t96.5 17q59 0 106 -21t80 -57l-102 -91q-15 16 -36 25.5t-48 9.5q-48 0 -75.5 -25.5t-34.5 -63.5h224l-18 -106h-208v-92h194l-17 -106h-176q6 -39 32.5 -63.5t75.5 -24.5q32 0 51.5 13.5t33.5 32.5l122 -80q-31 -47 -82 -74
t-124 -27q-58 0 -103 16.5t-76 45.5t-48 70t-19 91h-90v106h90v92h-90v106z" />
    <glyph glyph-name="uni20AE" unicode="&#x20ae;" horiz-adv-x="598" 
d="M121 375l110 45v180h-195v130h526v-130h-195v-124l107 44v-75l-107 -44v-56l107 44v-75l-107 -44v-270h-136v214l-110 -45v75l110 45v56l-110 -45v75z" />
    <glyph glyph-name="uni20B1" unicode="&#x20b1;" horiz-adv-x="726" 
d="M35 554h77v176h250q45 0 84.5 -13t72 -36.5t56 -56t36.5 -70.5h90v-66h-77q1 -5 1 -9v-9q0 -10 -1 -15h77v-66h-89q-12 -39 -36 -72t-56.5 -57t-72.5 -37.5t-86 -13.5h-113v-209h-136v389h-77v66h77v33h-77v66zM352 335q36 0 64.5 14.5t45.5 39.5h-214v-54h104zM248 604
v-50h211q-18 23 -45 36.5t-62 13.5h-104zM488 470q0 5 -0.5 9t-0.5 9h-239v-33h239q0 4 0.5 7.5t0.5 7.5z" />
    <glyph glyph-name="uni20B4" unicode="&#x20b4;" horiz-adv-x="632" 
d="M606 243h-382q-4 -9 -5.5 -19t-1.5 -19q0 -38 25.5 -63.5t73.5 -25.5t84 26t61 71l123 -94q-23 -27 -50 -51t-60 -42t-72 -28t-85 -10q-60 0 -105 17t-75.5 45t-46 64.5t-15.5 75.5q0 15 2 27.5t5 25.5h-56v98h580v-98zM606 390h-580v98h377q5 10 8.5 22t3.5 26
q0 35 -24 58.5t-75 23.5q-41 0 -74 -17.5t-56 -54.5l-112 88q44 46 102 76t137 30q55 0 100 -15.5t76.5 -42.5t49 -64t17.5 -79q0 -12 -1.5 -25.5t-4.5 -25.5h56v-98z" />
    <glyph glyph-name="uni20B8" unicode="&#x20b8;" horiz-adv-x="567" 
d="M215 459h-195v130h527v-130h-196v-459h-136v459zM547 631h-527v99h527v-99z" />
    <glyph glyph-name="uni20BD" unicode="&#x20bd;" horiz-adv-x="629" 
d="M443 85h-203v-85h-136v85h-73v102h73v40h-73v122h73v381h239q57 0 105 -19.5t83 -54t54.5 -81t19.5 -100.5q0 -53 -19.5 -98.5t-55 -78.5t-83.5 -52t-105 -19h-102v-40h203v-102zM240 604v-255h93q30 0 55 9.5t42.5 26t27.5 40t10 50.5q0 28 -10 51.5t-27.5 41t-42.5 27
t-55 9.5h-93z" />
    <glyph glyph-name="servicemark" unicode="&#x2120;" horiz-adv-x="627" 
d="M272 730h91l70 -92l75 92h83v-290h-96v141l-64 -72l-63 72v-141h-96v290zM136 433q-42 0 -72.5 15.5t-50.5 43.5l82 52q5 -11 17.5 -20t23.5 -9q8 0 14 4.5t6 10.5q0 7 -10 11t-24.5 7.5t-32 9t-32 16t-24.5 27t-10 43.5q0 39 32 65.5t83 26.5q36 0 63.5 -15.5
t44.5 -38.5l-73 -46q-7 11 -15.5 17.5t-19.5 6.5q-22 0 -22 -13q0 -4 10 -7t24.5 -7.5t32 -11t32 -17.5t24.5 -27.5t10 -40.5q0 -47 -31 -75t-82 -28z" />
    <glyph glyph-name="trademark" unicode="&#x2122;" horiz-adv-x="650" 
d="M295 730h91l70 -91l75 91h83v-290h-96v141l-64 -72l-63 72v-141h-96v290zM99 641h-73v89h239v-89h-71v-201h-95v201z" />
    <glyph glyph-name="ohm" unicode="&#x2126;" horiz-adv-x="829" 
d="M26 130h171q-21 27 -39.5 59t-33 68t-23 76t-8.5 84q0 67 25 126t68 103t101.5 69.5t126.5 25.5q67 0 126 -25.5t102.5 -69.5t69 -103t25.5 -126q-1 -88 -32 -160.5t-73 -126.5h171v-130h-290l-54 114q33 40 59 77t44.5 73.5t28.5 75t10 81.5q0 40 -14 75t-39 61
t-59.5 41t-74.5 15q-39 0 -73 -15t-59 -41t-39 -61t-14 -75q0 -43 10 -81.5t28 -75t44.5 -73.5t59.5 -77l-45 -114h-300v130z" />
    <glyph glyph-name="uni2153" unicode="&#x2153;" horiz-adv-x="884" 
d="M612 730h156l-527 -730h-156zM717 -6q-43 0 -84 12.5t-69 40.5l85 77q27 -28 61 -28q20 0 32.5 9.5t12.5 26.5t-16.5 25t-42.5 8h-44v98h42q25 0 38.5 9.5t13.5 26.5q0 31 -43 31q-16 0 -30 -7.5t-22 -20.5l-80 69q25 27 62.5 42t73.5 15q70 0 113.5 -33.5t43.5 -91.5
q0 -50 -42 -83q25 -15 38.5 -38t13.5 -53q0 -29 -11 -53.5t-31.5 -42.5t-49.5 -28.5t-65 -10.5zM14 412h81v166q-11 -14 -27 -20t-36 -6h-6v107h3q21 0 34.5 7t21.5 17.5t11 23t3 23.5h109v-318h78v-104h-272v104z" />
    <glyph glyph-name="uni2154" unicode="&#x2154;" horiz-adv-x="913" 
d="M641 730h156l-527 -730h-156zM14 391q0 31 10.5 55t27 42t37 31t40.5 24q30 17 52.5 31t22.5 33q0 13 -10.5 22.5t-30.5 9.5q-23 0 -38.5 -17t-23.5 -37l-97 50q23 47 63 74t98 27q34 0 62.5 -9.5t49 -26.5t31.5 -40.5t11 -51.5q0 -30 -11 -53t-28 -40t-38 -30t-41 -23
q-26 -14 -45 -25.5t-21 -24.5h181v-104h-302v83zM746 -6q-43 0 -84 12.5t-69 40.5l85 77q27 -28 61 -28q20 0 32.5 9.5t12.5 26.5t-16.5 25t-42.5 8h-44v98h42q25 0 38.5 9.5t13.5 26.5q0 31 -43 31q-16 0 -30 -7.5t-22 -20.5l-80 69q25 27 62.5 42t73.5 15
q70 0 113.5 -33.5t43.5 -91.5q0 -50 -42 -83q25 -15 38.5 -38t13.5 -53q0 -29 -11 -53.5t-31.5 -42.5t-49.5 -28.5t-65 -10.5z" />
    <glyph glyph-name="uni2155" unicode="&#x2155;" horiz-adv-x="847" 
d="M612 730h156l-527 -730h-156zM684 -6q-52 0 -91.5 21t-60.5 57l108 57q13 -29 44 -29q19 0 30.5 11.5t11.5 30.5q0 18 -12 29t-32 11q-14 0 -26 -8t-17 -19l-102 35l32 232h242v-103h-155l-7 -45q10 4 22 6.5t27 2.5q63 0 101 -37t38 -104q0 -33 -11.5 -60.5t-32 -47
t-48.5 -30t-61 -10.5zM14 412h81v166q-11 -14 -27 -20t-36 -6h-6v107h3q21 0 34.5 7t21.5 17.5t11 23t3 23.5h109v-318h78v-104h-272v104z" />
    <glyph glyph-name="uni2156" unicode="&#x2156;" horiz-adv-x="877" 
d="M641 730h156l-527 -730h-156zM14 391q0 31 10.5 55t27 42t37 31t40.5 24q30 17 52.5 31t22.5 33q0 13 -10.5 22.5t-30.5 9.5q-23 0 -38.5 -17t-23.5 -37l-97 50q23 47 63 74t98 27q34 0 62.5 -9.5t49 -26.5t31.5 -40.5t11 -51.5q0 -30 -11 -53t-28 -40t-38 -30t-41 -23
q-26 -14 -45 -25.5t-21 -24.5h181v-104h-302v83zM713 -6q-52 0 -91.5 21t-60.5 57l108 57q13 -29 44 -29q19 0 30.5 11.5t11.5 30.5q0 18 -12 29t-32 11q-14 0 -26 -8t-17 -19l-102 35l32 232h242v-103h-155l-7 -45q10 4 22 6.5t27 2.5q63 0 101 -37t38 -104
q0 -33 -11.5 -60.5t-32 -47t-48.5 -30t-61 -10.5z" />
    <glyph glyph-name="uni2157" unicode="&#x2157;" horiz-adv-x="854" 
d="M619 730h156l-527 -730h-156zM691 -6q-52 0 -91.5 21t-60.5 57l108 57q13 -29 44 -29q19 0 30.5 11.5t11.5 30.5q0 18 -12 29t-32 11q-14 0 -26 -8t-17 -19l-102 35l32 232h242v-103h-155l-7 -45q10 4 22 6.5t27 2.5q63 0 101 -37t38 -104q0 -33 -11.5 -60.5t-32 -47
t-48.5 -30t-61 -10.5zM158 302q-43 0 -84 12.5t-69 40.5l85 77q27 -28 61 -28q20 0 32.5 9.5t12.5 26.5t-16.5 25t-42.5 8h-44v98h42q25 0 38.5 9.5t13.5 26.5q0 31 -43 31q-16 0 -30 -7.5t-22 -20.5l-80 69q25 27 62.5 42t73.5 15q70 0 113.5 -33.5t43.5 -91.5
q0 -50 -42 -83q25 -15 38.5 -38t13.5 -53q0 -29 -11 -53.5t-31.5 -42.5t-49.5 -28.5t-65 -10.5z" />
    <glyph glyph-name="uni2158" unicode="&#x2158;" horiz-adv-x="848" 
d="M612 730h156l-527 -730h-156zM685 -6q-52 0 -91.5 21t-60.5 57l108 57q13 -29 44 -29q19 0 30.5 11.5t11.5 30.5q0 18 -12 29t-32 11q-14 0 -26 -8t-17 -19l-102 35l32 232h242v-103h-155l-7 -45q10 4 22 6.5t27 2.5q63 0 101 -37t38 -104q0 -33 -11.5 -60.5t-32 -47
t-48.5 -30t-61 -10.5zM183 392h-169v99l168 239h105v-243h62v-95h-62v-84h-104v84zM183 487v77l-53 -77h53z" />
    <glyph glyph-name="uni2159" unicode="&#x2159;" horiz-adv-x="881" 
d="M612 730h156l-527 -730h-156zM705 -6q-36 0 -66.5 12t-52.5 33t-34 49.5t-12 61.5q0 32 12.5 64.5t28.5 58.5l94 149h129l-76 -119q30 -1 56 -12t45 -31t30 -48t11 -62q0 -33 -12 -61.5t-34 -49.5t-52.5 -33t-66.5 -12zM14 412h81v166q-11 -14 -27 -20t-36 -6h-6v107h3
q21 0 34.5 7t21.5 17.5t11 23t3 23.5h109v-318h78v-104h-272v104zM705 98q23 0 39 15.5t16 38.5q0 22 -16 37.5t-39 15.5t-37.5 -15.5t-14.5 -38.5q0 -22 14.5 -37.5t37.5 -15.5z" />
    <glyph glyph-name="uni215A" unicode="&#x215a;" horiz-adv-x="878" 
d="M610 730h156l-527 -730h-156zM702 -6q-36 0 -66.5 12t-52.5 33t-34 49.5t-12 61.5q0 32 12.5 64.5t28.5 58.5l94 149h129l-76 -119q30 -1 56 -12t45 -31t30 -48t11 -62q0 -33 -12 -61.5t-34 -49.5t-52.5 -33t-66.5 -12zM157 302q-52 0 -91.5 21t-60.5 57l108 57
q13 -29 44 -29q19 0 30.5 11.5t11.5 30.5q0 18 -12 29t-32 11q-14 0 -26 -8t-17 -19l-102 35l32 232h242v-103h-155l-7 -45q10 4 22 6.5t27 2.5q63 0 101 -37t38 -104q0 -33 -11.5 -60.5t-32 -47t-48.5 -30t-61 -10.5zM702 98q23 0 39 15.5t16 38.5q0 22 -16 37.5t-39 15.5
t-37.5 -15.5t-14.5 -38.5q0 -22 14.5 -37.5t37.5 -15.5z" />
    <glyph glyph-name="uni215B" unicode="&#x215b;" horiz-adv-x="856" 
d="M612 730h156l-527 -730h-156zM691 -6q-32 0 -59 9.5t-47 27.5t-31.5 44t-11.5 59q0 26 10.5 49.5t29.5 41.5q-28 31 -28 76q0 61 38.5 94t98.5 33q61 0 100 -33t39 -94q0 -43 -26 -75q17 -17 27 -40t10 -52q0 -33 -11.5 -59t-31.5 -44t-47.5 -27.5t-59.5 -9.5zM14 412h81
v166q-11 -14 -27 -20t-36 -6h-6v107h3q21 0 34.5 7t21.5 17.5t11 23t3 23.5h109v-318h78v-104h-272v104zM691 90q20 0 32.5 12.5t12.5 31.5q0 17 -12.5 29.5t-32.5 12.5t-32 -12.5t-12 -29.5q0 -19 12 -31.5t32 -12.5zM691 266q18 0 28 10t10 25q0 14 -9.5 24.5t-27.5 10.5
t-27.5 -10.5t-9.5 -24.5q0 -15 9.5 -25t26.5 -10z" />
    <glyph glyph-name="uni215C" unicode="&#x215c;" horiz-adv-x="862" 
d="M619 730h156l-527 -730h-156zM698 -6q-32 0 -59 9.5t-47 27.5t-31.5 44t-11.5 59q0 26 10.5 49.5t29.5 41.5q-28 31 -28 76q0 61 38.5 94t98.5 33q61 0 100 -33t39 -94q0 -43 -26 -75q17 -17 27 -40t10 -52q0 -33 -11.5 -59t-31.5 -44t-47.5 -27.5t-59.5 -9.5zM158 302
q-43 0 -84 12.5t-69 40.5l85 77q27 -28 61 -28q20 0 32.5 9.5t12.5 26.5t-16.5 25t-42.5 8h-44v98h42q25 0 38.5 9.5t13.5 26.5q0 31 -43 31q-16 0 -30 -7.5t-22 -20.5l-80 69q25 27 62.5 42t73.5 15q70 0 113.5 -33.5t43.5 -91.5q0 -50 -42 -83q25 -15 38.5 -38t13.5 -53
q0 -29 -11 -53.5t-31.5 -42.5t-49.5 -28.5t-65 -10.5zM698 90q20 0 32.5 12.5t12.5 31.5q0 17 -12.5 29.5t-32.5 12.5t-32 -12.5t-12 -29.5q0 -19 12 -31.5t32 -12.5zM698 266q18 0 28 10t10 25q0 14 -9.5 24.5t-27.5 10.5t-27.5 -10.5t-9.5 -24.5q0 -15 9.5 -25t26.5 -10z
" />
    <glyph glyph-name="uni215D" unicode="&#x215d;" horiz-adv-x="853" 
d="M610 730h156l-527 -730h-156zM688 -6q-32 0 -59 9.5t-47 27.5t-31.5 44t-11.5 59q0 26 10.5 49.5t29.5 41.5q-28 31 -28 76q0 61 38.5 94t98.5 33q61 0 100 -33t39 -94q0 -43 -26 -75q17 -17 27 -40t10 -52q0 -33 -11.5 -59t-31.5 -44t-47.5 -27.5t-59.5 -9.5zM157 302
q-52 0 -91.5 21t-60.5 57l108 57q13 -29 44 -29q19 0 30.5 11.5t11.5 30.5q0 18 -12 29t-32 11q-14 0 -26 -8t-17 -19l-102 35l32 232h242v-103h-155l-7 -45q10 4 22 6.5t27 2.5q63 0 101 -37t38 -104q0 -33 -11.5 -60.5t-32 -47t-48.5 -30t-61 -10.5zM688 90
q20 0 32.5 12.5t12.5 31.5q0 17 -12.5 29.5t-32.5 12.5t-32 -12.5t-12 -29.5q0 -19 12 -31.5t32 -12.5zM688 266q18 0 28 10t10 25q0 14 -9.5 24.5t-27.5 10.5t-27.5 -10.5t-9.5 -24.5q0 -15 9.5 -25t26.5 -10z" />
    <glyph glyph-name="uni215E" unicode="&#x215e;" horiz-adv-x="827" 
d="M584 730h156l-527 -730h-156zM662 -6q-32 0 -59 9.5t-47 27.5t-31.5 44t-11.5 59q0 26 10.5 49.5t29.5 41.5q-28 31 -28 76q0 61 38.5 94t98.5 33q61 0 100 -33t39 -94q0 -43 -26 -75q17 -17 27 -40t10 -52q0 -33 -11.5 -59t-31.5 -44t-47.5 -27.5t-59.5 -9.5zM176 626
h-162v104h279v-98l-144 -324h-121zM662 90q20 0 32.5 12.5t12.5 31.5q0 17 -12.5 29.5t-32.5 12.5t-32 -12.5t-12 -29.5q0 -19 12 -31.5t32 -12.5zM662 266q18 0 28 10t10 25q0 14 -9.5 24.5t-27.5 10.5t-27.5 -10.5t-9.5 -24.5q0 -15 9.5 -25t26.5 -10z" />
    <glyph glyph-name="uni215F" unicode="&#x215f;" horiz-adv-x="779" 
d="M612 730h156l-527 -730h-156zM14 412h81v166q-11 -14 -27 -20t-36 -6h-6v107h3q21 0 34.5 7t21.5 17.5t11 23t3 23.5h109v-318h78v-104h-272v104z" />
    <glyph glyph-name="arrowleft" unicode="&#x2190;" horiz-adv-x="896" 
d="M309 66q-37 79 -99.5 150t-136.5 118v57q37 25 72 60.5t64 73.5t50 75t29 65l122 -65q-20 -53 -54.5 -95.5t-73.5 -74.5h523v-130h-522q40 -26 75 -68t61 -90l-110 -76v0z" />
    <glyph glyph-name="arrowup" unicode="&#x2191;" horiz-adv-x="896" 
d="M374 522q-32 -39 -75 -73.5t-95 -53.5l-64 121q28 8 64.5 29t74.5 50t73.5 64t60.5 72h53q25 -37 60 -72t73 -64t74.5 -50t64.5 -29l-64 -121q-52 19 -94.5 53t-74.5 72v-520h-131v522z" />
    <glyph glyph-name="arrowright" unicode="&#x2192;" horiz-adv-x="896" 
d="M459 142q25 48 60.5 90t74.5 68h-521v130h523q-39 32 -73.5 74.5t-54.5 95.5l122 65q8 -28 29 -65t50 -75t64 -73.5t72 -60.5v-57q-74 -47 -136.5 -118t-99.5 -150z" />
    <glyph glyph-name="arrowdown" unicode="&#x2193;" horiz-adv-x="896" 
d="M412 -1q-25 37 -60 72t-73 64t-74.5 50t-64.5 29l64 122q52 -20 94.5 -54t74.5 -73v521h131v-522q32 39 74.5 73.5t95.5 54.5l64 -122q-28 -8 -64.5 -29t-74.5 -50t-73.5 -64t-60.5 -72h-53v0z" />
    <glyph glyph-name="uni2196" unicode="&#x2196;" horiz-adv-x="896" 
d="M290 430q6 -51 0 -105t-30 -105l-131 40q14 25 25.5 66t18 88.5t6.5 97.5t-8 94l37 37q43 -9 93 -9t97 6.5t88 17.5t67 25l39 -131q-51 -23 -104.5 -29t-103.5 -1l368 -370l-92 -92z" />
    <glyph glyph-name="uni2197" unicode="&#x2197;" horiz-adv-x="896" 
d="M129 152l370 370q-51 -5 -105 1t-105 29l40 131q25 -14 66 -25t88.5 -17.5t97.5 -6.5t94 8l37 -37q-9 -44 -9 -94t6.5 -97t17.5 -88t25 -66l-131 -40q-23 51 -29 104.5t-1 104.5l-370 -369z" />
    <glyph glyph-name="uni2198" unicode="&#x2198;" horiz-adv-x="896" 
d="M704 127q-44 9 -94 9t-97 -6t-88 -17.5t-66 -25.5l-40 131q50 23 103.5 29t104.5 1l-368 370l92 92l370 -370q-5 51 1 105t29 105l131 -40q-14 -26 -25.5 -66.5t-18 -88t-6.5 -97.5t8 -94l-36 -37v0z" />
    <glyph glyph-name="uni2199" unicode="&#x2199;" horiz-adv-x="896" 
d="M554 58q-26 14 -67 25.5t-88 18t-97 6.5t-94 -8l-37 37q9 43 9 93t-6.5 97.5t-18 88t-25.5 66.5l131 39q23 -51 29 -105t1 -104l370 369l92 -92l-370 -369q51 5 105 -1.5t105 -29.5l-39 -131v0z" />
    <glyph glyph-name="partialdiff" unicode="&#x2202;" horiz-adv-x="563" 
d="M279 -10q-52 0 -98.5 19.5t-82 54t-56 82t-20.5 103.5q0 54 18.5 99.5t51.5 78.5t77.5 51.5t95.5 18.5q27 0 49 -5.5t39 -15.5q-42 57 -112 118t-179 136h200q79 -62 132.5 -123t85.5 -120t45.5 -117t13.5 -114t-20 -104.5t-55 -84.5t-82.5 -56.5t-102.5 -20.5zM280 117
q26 0 49.5 10.5t41 28.5t28 42t10.5 51t-10 51.5t-27 42.5t-40.5 28.5t-50.5 10.5q-26 0 -49 -10t-40.5 -27.5t-28 -42t-10.5 -53.5t10.5 -53t27.5 -41.5t40 -27.5t49 -10z" />
    <glyph glyph-name="Delta" unicode="&#x2206;" horiz-adv-x="897" 
d="M20 0l429 742l428 -742h-857zM246 130h406l-203 352z" />
    <glyph glyph-name="product" unicode="&#x220f;" horiz-adv-x="779" 
d="M36 730h706v-130h-121v-600h-136v600h-191v-600h-136v600h-122v130z" />
    <glyph glyph-name="summation" unicode="&#x2211;" horiz-adv-x="563" 
d="M35 146l220 228l-213 226v130h486v-130h-312l213 -226l-234 -244h333v-130h-493v146z" />
    <glyph glyph-name="minus" unicode="&#x2212;" horiz-adv-x="442" 
d="M36 422h370v-115h-370v115z" />
    <glyph glyph-name="radical" unicode="&#x221a;" horiz-adv-x="789" 
d="M133 381h-88v119h181l126 -338l258 568h145l-343 -730h-133z" />
    <glyph glyph-name="infinity" unicode="&#x221e;" horiz-adv-x="893" 
d="M249 206q-37 0 -69.5 14t-56.5 38t-38 56.5t-14 69.5t14 69.5t38 57t56.5 38.5t69.5 14q29 0 56 -8.5t51.5 -22.5t47 -32t43.5 -38q21 20 43.5 38t46.5 32t50.5 22.5t55.5 8.5q37 0 69.5 -14t57 -38.5t38.5 -57t14 -69.5t-14 -69.5t-38.5 -56.5t-57 -38t-69.5 -14
q-58 0 -105.5 30t-90.5 70q-42 -40 -91 -70t-107 -30zM249 319q30 0 59.5 18.5t58.5 46.5q-29 28 -58.5 46.5t-59.5 18.5q-26 0 -45.5 -19.5t-19.5 -45.5t19.5 -45.5t45.5 -19.5zM643 319q26 0 45.5 19.5t19.5 45.5t-19.5 45.5t-45.5 19.5q-29 0 -57.5 -18.5t-58.5 -46.5
q30 -28 58.5 -46.5t57.5 -18.5z" />
    <glyph glyph-name="integral" unicode="&#x222b;" horiz-adv-x="364" 
d="M15 -90q32 0 51 3t28.5 13t12.5 27.5t3 46.5v514q0 61 11 102.5t36.5 66.5t67.5 36t104 11h11v-125q-32 0 -51 -3t-28.5 -13t-12.5 -28t-3 -48v-512q0 -61 -11 -102t-36.5 -66.5t-67.5 -36.5t-104 -11h-11v125z" />
    <glyph glyph-name="approxequal" unicode="&#x2248;" horiz-adv-x="441" 
d="M36 499q22 11 44 18.5t53 7.5q22 0 45.5 -6t46 -13t44 -13t41.5 -6q29 0 49.5 7t46.5 18v-115q-21 -12 -42 -18.5t-54 -6.5q-21 0 -44 6t-46.5 13t-45.5 13t-41 6q-30 0 -52 -7.5t-45 -18.5v115zM36 332q22 11 42.5 19t51.5 8q22 0 46 -6t48 -12.5t46 -12.5t42 -6
q15 0 26.5 1.5t22.5 4.5t21.5 7t23.5 10v-115q-21 -12 -41 -17.5t-53 -5.5q-21 0 -45 6t-48 12.5t-47 12.5t-42 6q-30 0 -50.5 -8t-43.5 -19v115z" />
    <glyph glyph-name="notequal" unicode="&#x2260;" horiz-adv-x="442" 
d="M331 504h75v-115h-126l-24 -52h150v-115h-201l-31 -69h-95l30 69h-73v115h123l22 52h-145v115h195l31 70h101z" />
    <glyph glyph-name="equivalence" unicode="&#x2261;" horiz-adv-x="442" 
d="M36 420h370v-115h-370v115zM36 253h370v-114h-370v114zM36 587h370v-115h-370v115z" />
    <glyph glyph-name="lessequal" unicode="&#x2264;" horiz-adv-x="442" 
d="M35 395v114l370 134v-119l-223 -72l223 -73v-118zM35 229h370v-115h-370v115z" />
    <glyph glyph-name="greaterequal" unicode="&#x2265;" horiz-adv-x="442" 
d="M35 379l223 73l-223 72v119l370 -134v-114l-370 -134v118zM35 229h370v-115h-370v115z" />
    <glyph glyph-name="squaremultiply" unicode="&#x22a0;" horiz-adv-x="926" 
d="M100 730h726v-730h-726v730zM236 130h454v470h-454v-470zM260 240l123 127l-124 129l80 78l122 -126l124 127l80 -78l-126 -130l125 -128l-80 -78l-123 126l-121 -125z" />
    <glyph glyph-name="house" unicode="&#x2302;" horiz-adv-x="874" 
d="M100 0v427l337 323l337 -323v-427h-674z" />
    <glyph glyph-name="blacksquare" unicode="&#x25a0;" horiz-adv-x="926" 
d="M100 730h726v-730h-726v730z" />
    <glyph glyph-name="whitesquare" unicode="&#x25a1;" horiz-adv-x="926" 
d="M100 730h726v-730h-726v730zM236 130h454v470h-454v-470z" />
    <glyph glyph-name="blacksmallsquare" unicode="&#x25aa;" horiz-adv-x="700" 
d="M100 500h500v-500h-500v500z" />
    <glyph glyph-name="whitesmallsquare" unicode="&#x25ab;" horiz-adv-x="700" 
d="M100 500h500v-500h-500v500zM234 133h232v234h-232v-234z" />
    <glyph glyph-name="triagup" unicode="&#x25b2;" horiz-adv-x="897" 
d="M20 0l429 742l428 -742h-857z" />
    <glyph glyph-name="triagrt" unicode="&#x25ba;" horiz-adv-x="897" 
d="M100 800l742 -428l-742 -429v857z" />
    <glyph glyph-name="triagdn" unicode="&#x25bc;" horiz-adv-x="897" 
d="M877 730l-428 -742l-429 742h857z" />
    <glyph glyph-name="triaglf" unicode="&#x25c4;" horiz-adv-x="897" 
d="M797 -57l-742 429l742 428v-857z" />
    <glyph glyph-name="lozenge" unicode="&#x25ca;" horiz-adv-x="843" 
d="M33 366l380 380l382 -382l-380 -380zM416 159l203 203l-208 208l-203 -203z" />
    <glyph glyph-name="whitecircle" unicode="&#x25cb;" horiz-adv-x="927" 
d="M463 -10q-78 0 -146 29.5t-118.5 80t-79.5 119t-29 146.5t29 146t79.5 119t118.5 80.5t146 29.5t146 -29.5t119 -80.5t80 -119t29 -146t-29 -146.5t-80 -119t-119 -80t-146 -29.5zM463 124q50 0 93.5 19t76 51.5t51 76.5t18.5 94t-18.5 94t-51 76.5t-76 51.5t-93.5 19
t-93.5 -19t-75.5 -51.5t-50.5 -76.5t-18.5 -94t18.5 -94t50.5 -76.5t75.5 -51.5t93.5 -19z" />
    <glyph glyph-name="bullseye" unicode="&#x25ce;" horiz-adv-x="927" 
d="M0 20h927v-20h-927v20z" />
    <glyph glyph-name="blackcircle" unicode="&#x25cf;" horiz-adv-x="927" 
d="M463 -10q-78 0 -146 29.5t-118.5 80t-79.5 119t-29 146.5t29 146t79.5 119t118.5 80.5t146 29.5t146 -29.5t119 -80.5t80 -119t29 -146t-29 -146.5t-80 -119t-119 -80t-146 -29.5z" />
    <glyph glyph-name="uni25E2" unicode="&#x25e2;" horiz-adv-x="897" 
d="M267 -73l-222 828l828 -222z" />
    <glyph glyph-name="uni25E3" unicode="&#x25e3;" horiz-adv-x="897" 
d="M26 533l828 222l-222 -828z" />
    <glyph glyph-name="uni25E4" unicode="&#x25e4;" horiz-adv-x="897" 
d="M29 168l606 606l222 -828z" />
    <glyph glyph-name="uni25E5" unicode="&#x25e5;" horiz-adv-x="897" 
d="M44 -58l223 828l605 -607z" />
    <glyph glyph-name="uni2605" unicode="&#x2605;" horiz-adv-x="900" 
d="M634 85l-187 135l-186 -135l72 219l-186 135l229 -1l72 218l71 -218l230 -1l-187 -134z" />
    <glyph glyph-name="uni263C" unicode="&#x263c;" horiz-adv-x="928" 
d="M287 365q0 36 14 67.5t37.5 55t55 37.5t67.5 14t67.5 -14t55 -37.5t37.5 -55t14 -67.5t-14 -67.5t-37.5 -55t-55 -37.5t-67.5 -14t-67.5 14t-55 37.5t-37.5 55t-14 67.5zM434 719h54l-17 -142h-20zM488 13h-54l17 142h20zM108 339v54l142 -17v-20zM814 393v-54l-142 17
v20zM140 519l28 47l115 -87l-10 -15zM782 213l-28 -47l-115 87l10 15zM261 659l47 28l55 -133l-15 -10zM661 73l-47 -28l-55 133l15 10zM614 687l47 -28l-87 -115l-15 10zM308 45l-47 28l87 115l15 -10zM752 566l30 -46l-133 -56l-10 16zM170 166l-30 46l133 56l10 -16z" />
    <glyph glyph-name="uni263E" unicode="&#x263e;" horiz-adv-x="787" 
d="M534 616q-50 0 -93.5 -20t-75.5 -54t-51 -79.5t-19 -97.5t19 -97.5t51 -79.5t75.5 -54t93.5 -20q18 0 36 3.5t35 8.5q-38 -27 -83.5 -42t-94.5 -15q-61 0 -115 23.5t-94 63.5t-63.5 94t-23.5 115t23.5 115t63.5 94t94 63.5t115 23.5q49 0 94.5 -15t83.5 -42
q-17 5 -35 8.5t-36 3.5z" />
    <glyph glyph-name="spade" unicode="&#x2660;" horiz-adv-x="920" 
d="M335 0q10 19 26 49.5t31 69t26 82.5t11 89q-9 -26 -24 -50.5t-36 -43.5t-48.5 -30.5t-61.5 -11.5q-35 0 -66 12.5t-54.5 34t-37 50.5t-13.5 61q0 43 13.5 80.5t42 75t73 77.5t106.5 90l140 112h1l140 -112q62 -50 105.5 -90t70.5 -77.5t39.5 -75t12.5 -80.5
q0 -32 -12.5 -60.5t-34 -50t-50 -34t-60.5 -12.5q-37 0 -66 11t-51.5 30t-38.5 43.5t-25 50.5q0 -45 12 -89t28 -82.5t33 -69t27 -49.5h-259z" />
    <glyph glyph-name="club" unicode="&#x2663;" horiz-adv-x="920" 
d="M336 0q9 17 22.5 43t27.5 58t25 69.5t16 77.5q-21 -52 -65 -85t-102 -33q-37 0 -69 14t-56 38t-38 56t-14 69t14 69t38 56t56 38t69 14q11 0 21.5 -2t20.5 -5q-19 41 -19 87q0 36 13.5 68t37.5 56t56 38t68 14t68 -14t56 -38t38 -56t14 -68q0 -45 -19 -88q22 8 46 8
q37 0 69 -14t56 -38t37.5 -56t13.5 -69t-14 -69t-38 -56t-56 -38t-69 -14q-58 0 -100.5 33t-62.5 84q5 -39 17.5 -76.5t27.5 -69.5t29.5 -58t23.5 -43h-259z" />
    <glyph glyph-name="heart" unicode="&#x2665;" horiz-adv-x="920" 
d="M89 550q0 39 14 73.5t39 60.5t58 41t72 15q38 0 70.5 -12.5t56.5 -34t39 -51t19 -63.5q4 34 19 63.5t39 51t56 34t71 12.5t73 -15t60 -41t41 -60.5t15 -73.5q0 -43 -13 -86.5t-41 -92.5t-72 -105.5t-106 -125.5l-142 -157l-141 157q-62 69 -105.5 125.5t-70.5 105.5
t-39 92.5t-12 86.5z" />
    <glyph glyph-name="diamond" unicode="&#x2666;" horiz-adv-x="920" 
d="M460 791l327 -401l-327 -400l-327 400z" />
    <glyph glyph-name="uni267B" unicode="&#x267b;" horiz-adv-x="921" 
d="M822 244l-91 -157q-7 -11 -14 -20.5t-16 -16.5t-21.5 -11t-30.5 -4h-54v-47l-106 128l106 127v-46h136q21 0 37.5 7.5t28.5 16.5q13 11 24 25zM182 111l-90 158q-6 11 -11 21.5t-6.5 22t1.5 24t12 28.5l27 46l-40 23l164 29l55 -156l-38 23q-18 -31 -33 -57
q-13 -22 -23.5 -40.5t-11.5 -20.5q-11 -18 -13 -36.5t0 -32.5q2 -17 9 -32h-2zM389 729h182q13 0 25 -1t22.5 -5.5t20 -13t18.5 -24.5l26 -46l41 23l-58 -157l-162 30l38 22l-67 118q-11 18 -25.5 29t-28.5 16q-16 6 -32 8v1zM260 670q4 6 12.5 14.5t19.5 14.5
q21 12 45 13.5t46 -4.5t39.5 -17.5t24.5 -24.5l-109 -189l-141 81zM302 35q-8 0 -19.5 2.5t-22.5 9.5q-21 12 -34.5 32t-19.5 42t-4.5 42.5t9.5 33.5h218v-162h-127zM832 381q9 -14 9 -41q0 -24 -10.5 -45.5t-27 -37.5t-34.5 -25.5t-33 -9.5l-109 189l140 80z" />
    <glyph glyph-name="uni267C" unicode="&#x267c;" horiz-adv-x="921" 
d="M837 366q0 -78 -29.5 -146.5t-80.5 -119t-119 -80t-146 -29.5t-147 29.5t-120 80t-80.5 119t-29.5 146.5t29.5 146.5t80.5 120t120 81t147 29.5t146 -29.5t119 -81t80.5 -120t29.5 -146.5zM255 520l109 -63l84 146q-6 10 -19 19t-30.5 13.5t-36 3.5t-34.5 -10
q-8 -5 -15 -11.5t-9 -11.5zM399 651q14 -2 26 -7q11 -5 22 -12.5t19 -21.5l53 -91l-30 -18l126 -23l44 122l-31 -18l-21 36q-14 24 -30 29t-37 5h-141v-1zM431 114v126h-170q-6 -11 -7 -26.5t4 -32.5t15 -32.5t27 -25.5q8 -5 17 -7t15 -2h99zM244 173q-4 12 -6 25
q-2 11 -0.5 25.5t9.5 28.5l53 91l30 -18l-43 121l-127 -22l31 -18l-21 -36q-15 -25 -10.5 -41t13.5 -34l70 -122h1zM697 468l-110 -63l85 -147q12 0 26 7.5t27 20t21 29.5t8 36q0 10 -2.5 18.5t-5.5 13.5zM738 277q-8 -11 -19 -19q-9 -7 -21.5 -12.5t-29.5 -5.5h-105v35
l-83 -98l83 -99v36h41q29 0 41.5 11.5t22.5 28.5l71 122z" />
    <glyph glyph-name="uni267D" unicode="&#x267d;" horiz-adv-x="921" 
d="M837 366q0 -78 -29.5 -146.5t-80.5 -119t-119 -80t-146 -29.5t-147 29.5t-120 80t-80.5 119t-29.5 146.5t29.5 146.5t80.5 120t120 81t147 29.5t146 -29.5t119 -81t80.5 -120t29.5 -146.5zM818 366q0 74 -28 139.5t-76 114t-113 76.5t-139 28q-75 0 -140 -28t-114 -76.5
t-77 -114t-28 -139.5t28 -139t77 -113.5t114 -76.5t140 -28q74 0 139 28t113 76.5t76 113.5t28 139zM304 606q2 5 9 11.5t15 11.5q16 9 34.5 10t36 -3.5t30.5 -13.5t19 -19l-84 -146l-109 63zM399 652h141q21 0 37 -5t30 -29l21 -36l31 18l-44 -122l-126 23l30 18l-53 91
q-8 14 -19 21.5t-22 12.5q-12 5 -26 7v1zM332 114q-6 0 -15 2t-17 7q-17 10 -27 25.5t-15 32.5t-4 32.5t7 26.5h170v-126h-99zM243 173l-70 122q-9 18 -13.5 34t10.5 41l21 36l-31 18l127 22l43 -121l-30 18l-53 -91q-8 -14 -9.5 -28.5t0.5 -25.5q2 -13 6 -25h-1zM746 383
q3 -5 5.5 -13.5t2.5 -18.5q0 -19 -8 -36t-21 -29.5t-27 -20t-26 -7.5l-85 147l110 63zM739 276l-71 -122q-10 -17 -22.5 -28.5t-41.5 -11.5h-41v-36l-83 99l83 98v-35h105q17 0 29.5 5.5t21.5 12.5q11 8 19 19z" />
    <glyph glyph-name="anglebracketleft" unicode="&#x3008;" horiz-adv-x="392" 
d="M11 250l227 480h144l-228 -480l228 -480h-144z" />
    <glyph glyph-name="anglebracketright" unicode="&#x3009;" horiz-adv-x="392" 
d="M11 -230l228 480l-228 480h144l227 -480l-227 -480h-144z" />
    <glyph glyph-name="commaaccent" unicode="&#xf6c3;" horiz-adv-x="473" 
d="M155 -249l34 204h119l-70 -204h-83z" />
    <glyph glyph-name="fi" unicode="&#xfb01;" horiz-adv-x="561" 
d="M26 500h85v14q0 61 10.5 102.5t36 66.5t67.5 36t104 11h11v-125q-32 0 -51 -3t-28.5 -13t-12.5 -28t-3 -48v-13h95v-120h-95v-380h-134v380h-85v120zM391 500h134v-500h-134v500zM391 689h134v-137h-134v137z" />
    <glyph glyph-name="fl" unicode="&#xfb02;" horiz-adv-x="561" 
d="M26 500h85v14q0 61 10.5 102.5t36 66.5t67.5 36t104 11h11v-125q-32 0 -51 -3t-28.5 -13t-12.5 -28t-3 -48v-13h95v-120h-95v-380h-134v380h-85v120zM391 730h134v-730h-134v730z" />
    <glyph glyph-name="underscoremonospace" unicode="&#xff3f;" horiz-adv-x="569" 
d="M36 -10h497v-115h-497v115z" />
    <glyph glyph-name="altcedilla" horiz-adv-x="472" 
d="M225 -240q-56 0 -92 14.5t-62 43.5l77 49q14 -17 32 -26t44 -9q22 0 38 8.5t16 21.5q0 28 -58 28h-7v57h24q63 1 97.5 -23t34.5 -61q0 -23 -12 -42t-32 -32.5t-46 -21t-54 -7.5z" />
    <glyph glyph-name="bar.smcp" horiz-adv-x="204" 
d="M36 686h132v-784h-132v784z" />
    <glyph glyph-name="seven.LP" horiz-adv-x="530" 
d="M353 600h-318v130h460v-118l-253 -612h-144z" />
    <glyph glyph-name="seven.LT" horiz-adv-x="588" 
d="M400 600h-355v130h498v-118l-288 -612h-144z" />
    <glyph glyph-name="seven.inf" horiz-adv-x="307" 
d="M176 318h-162v104h279v-98l-144 -324h-121z" />
    <glyph glyph-name="sevensixteenths" horiz-adv-x="1098" 
d="M584 730h156l-527 -730h-156zM922 -6q-36 0 -66.5 12t-52.5 33t-34 49.5t-12 61.5q0 32 12.5 64.5t28.5 58.5l94 149h129l-76 -119q30 -1 56 -12t45 -31t30 -48t11 -62q0 -33 -12 -61.5t-34 -49.5t-52.5 -33t-66.5 -12zM479 104h81v166q-11 -14 -27 -20t-36 -6h-6v107h3
q21 0 34.5 7t21.5 17.5t11 23t3 23.5h109v-318h78v-104h-272v104zM176 626h-162v104h279v-98l-144 -324h-121zM922 98q23 0 39 15.5t16 38.5q0 22 -16 37.5t-39 15.5t-37.5 -15.5t-14.5 -38.5q0 -22 14.5 -37.5t37.5 -15.5z" />
    <glyph glyph-name="one.LT" horiz-adv-x="588" 
d="M45 130h183v396q-17 -25 -50.5 -42t-67.5 -17h-11v143h5q36 0 60.5 11.5t40 29t22 38.5t6.5 41h131v-600h179v-130h-498v130z" />
    <glyph glyph-name="six.LP" horiz-adv-x="562" 
d="M282 -10q-57 0 -105 19t-82.5 52.5t-54 79t-19.5 97.5q0 51 15 101t41 88l189 303h160l-160 -248q21 6 43 6q48 0 90 -18.5t73.5 -51.5t49.5 -78.5t18 -100.5t-19.5 -100.5t-54 -78.5t-82 -51.5t-102.5 -18.5zM279 113q26 0 49 10t40.5 27.5t27.5 41t10 50.5q0 26 -10 49
t-27.5 40.5t-40.5 27.5t-49 10t-48.5 -10t-39.5 -27.5t-27 -40.5t-10 -50q0 -26 10 -49.5t27 -41t39.5 -27.5t48.5 -10z" />
    <glyph glyph-name="six.LT" horiz-adv-x="588" 
d="M295 -10q-57 0 -105.5 19.5t-84 54t-55 80.5t-19.5 99q0 51 15 98t41 85l188 304h161l-155 -240q21 6 41 6q49 0 91.5 -18.5t74.5 -52t50.5 -80t18.5 -102.5t-20 -102t-55 -80t-83 -52.5t-104 -18.5zM292 113q27 0 50.5 10.5t41.5 28.5t28.5 42.5t10.5 51.5t-10.5 51
t-28.5 42t-41.5 28.5t-50.5 10.5t-50 -10.5t-40.5 -28.5t-27.5 -42.5t-10 -51.5t10 -51t27.5 -42t40.5 -28.5t50 -10.5z" />
    <glyph glyph-name="six.inf" horiz-adv-x="352" 
d="M176 -6q-36 0 -66.5 12t-52.5 33t-34 49.5t-12 61.5q0 32 12.5 64.5t28.5 58.5l94 149h129l-76 -119q30 -1 56 -12t45 -31t30 -48t11 -62q0 -33 -12 -61.5t-34 -49.5t-52.5 -33t-66.5 -12zM176 98q23 0 39 15.5t16 38.5q0 22 -16 37.5t-39 15.5t-37.5 -15.5t-14.5 -38.5
q0 -22 14.5 -37.5t37.5 -15.5z" />
    <glyph glyph-name="Uumlaut" horiz-adv-x="690" 
d="M366 730h105v-147h-105v147zM219 730h105v-147h-105v147zM344 -10q-66 0 -121 19t-95.5 57.5t-63 95t-22.5 131.5v437h135v-441q0 -39 12.5 -70t35 -53.5t53 -34.5t65.5 -12t66 12t54 34.5t36.5 53.5t13.5 70v441h135v-437q0 -75 -23 -131.5t-63.5 -95t-96 -57.5
t-121.5 -19z" />
    <glyph glyph-name="slash.cap" horiz-adv-x="511" 
d="M357 730h144l-346 -730h-144z" />
    <glyph glyph-name="slash.smcp" horiz-adv-x="454" 
d="M300 596h138l-283 -596h-138z" />
    <glyph glyph-name="one.LP" horiz-adv-x="476" 
d="M35 130h144v396q-17 -25 -50.5 -42t-67.5 -17h-11v143h5q36 0 60.5 11.5t40 29t22 38.5t6.5 41h131v-600h135v-130h-415v130z" />
    <glyph glyph-name="anglebracketleft.cap" horiz-adv-x="392" 
d="M11 360l227 480h144l-228 -480l228 -480h-144z" />
    <glyph glyph-name="onesixteenth" horiz-adv-x="1126" 
d="M612 730h157l-527 -730h-157zM950 -6q-36 0 -66.5 12t-52.5 33t-34 49.5t-12 61.5q0 32 12.5 64.5t29.5 58.5l94 149h128l-76 -119q30 -1 56 -12t45.5 -31t30.5 -48t11 -62q0 -33 -12 -61.5t-34 -49.5t-52.5 -33t-67.5 -12zM14 412h81v166q-11 -14 -27 -20t-36 -6h-6v107
h3q21 0 34.5 7t21.5 17.5t11 23t3 23.5h109v-318h78v-104h-272v104zM507 104h82v167q-10 -14 -27 -20.5t-37 -6.5h-6v107h3q21 0 34.5 7t21.5 17.5t11 23t3 23.5h109v-318h78v-104h-272v104zM950 98q23 0 39 15.5t16 38.5q0 22 -16 37.5t-39 15.5q-22 0 -37 -15.5t-15 -38.5
q0 -22 15 -37.5t37 -15.5z" />
    <glyph glyph-name="scommaaccent.smcp" horiz-adv-x="488" 
d="M151 -249l34 204h119l-70 -204h-83zM244 -8q-43 0 -78 8.5t-63.5 23.5t-52 34.5t-42.5 41.5l117 92q22 -35 53 -55t66 -20q36 0 56.5 19t20.5 44q0 15 -9.5 26t-25.5 19t-37 14t-43 13q-30 9 -60 20.5t-54.5 31t-40 48.5t-15.5 73q0 39 15 72t42 57t64.5 37.5t82.5 13.5
q39 0 70 -7.5t56.5 -20t46 -29.5t37.5 -36l-108 -83q-17 28 -43 43.5t-58 15.5t-50.5 -16t-18.5 -39q0 -15 9 -25.5t24.5 -18.5t36 -14.5t43.5 -13.5q30 -9 61 -21.5t56.5 -32.5t41.5 -50t16 -74q0 -37 -14.5 -71.5t-42 -61t-68 -42.5t-91.5 -16z" />
    <glyph glyph-name="sterling.LP" horiz-adv-x="705" 
d="M67 417h101q-8 25 -13 53t-5 60q0 47 17 86t47.5 66.5t73 42.5t93.5 15q91 0 150.5 -39t80.5 -105l-129 -47q-10 35 -35.5 54t-64.5 19q-45 0 -70.5 -25.5t-25.5 -64.5q0 -30 8 -58.5t19 -56.5h166v-108h-121q8 -22 13 -43.5t5 -43.5q0 -47 -12 -87q25 -16 47.5 -26.5
t45.5 -10.5q40 0 56 19t16 63v48h139v-65q0 -39 -9.5 -70.5t-30.5 -54.5t-54.5 -35.5t-82.5 -12.5q-41 0 -82.5 20t-82.5 46q-24 -31 -59 -49t-83 -18q-81 0 -118.5 31.5t-37.5 85.5q0 52 33.5 87t95.5 35q29 0 54.5 -8t50.5 -20q-3 26 -16 52.5t-29 56.5h-151v108zM184 72
q17 0 32 10t27 27q-20 12 -38.5 19.5t-32.5 7.5q-17 0 -25.5 -9.5t-8.5 -20.5q0 -14 11.5 -24t34.5 -10z" />
    <glyph glyph-name="sterling.LT" horiz-adv-x="588" 
d="M54 436h56q-8 22 -13 46t-5 50q0 47 15.5 85.5t44.5 65.5t70 42t92 15q92 0 147 -39.5t76 -106.5l-129 -47q-10 35 -32 55t-60 20q-43 0 -64.5 -25t-21.5 -63q0 -26 7.5 -50t18.5 -48h193v-107h-142q15 -35 25.5 -73t10.5 -85q0 -14 -2 -26.5t-6 -26.5q23 -18 37 -18
q20 0 25.5 11t5.5 45v81h139v-77q0 -45 -6.5 -77t-22 -52.5t-42 -30.5t-65.5 -10q-33 0 -61.5 13.5t-53.5 33.5q-20 -22 -47 -35t-59 -13q-78 0 -115 30.5t-37 83.5q0 50 33 84t93 34q24 0 44.5 -7.5t39.5 -18.5q-5 32 -27 64.5t-47 69.5h-115v107zM170 85q23 0 44 16
q-14 11 -27 17.5t-26 6.5q-10 0 -15.5 -5.5t-5.5 -13.5q0 -9 8 -15t22 -6z" />
    <glyph glyph-name="scircumflex.smcp" horiz-adv-x="488" 
d="M244 -8q-43 0 -78 8.5t-63.5 23.5t-52 34.5t-42.5 41.5l117 92q22 -35 53 -55t66 -20q36 0 56.5 19t20.5 44q0 15 -9.5 26t-25.5 19t-37 14t-43 13q-30 9 -60 20.5t-54.5 31t-40 48.5t-15.5 73q0 39 15 72t42 57t64.5 37.5t82.5 13.5q39 0 70 -7.5t56.5 -20t46 -29.5
t37.5 -36l-108 -83q-17 28 -43 43.5t-58 15.5t-50.5 -16t-18.5 -39q0 -15 9 -25.5t24.5 -18.5t36 -14.5t43.5 -13.5q30 -9 61 -21.5t56.5 -32.5t41.5 -50t16 -74q0 -37 -14.5 -71.5t-42 -61t-68 -42.5t-91.5 -16zM207 816h84l119 -170h-102l-59 89l-59 -89h-102z" />
    <glyph glyph-name="omacron.smcp" horiz-adv-x="653" 
d="M326 -8q-64 0 -119.5 24t-97 65.5t-65 97t-23.5 119.5q0 63 23.5 119t65 97.5t97 65.5t119.5 24q63 0 119 -24t97.5 -65.5t65.5 -97.5t24 -119q0 -64 -24 -119.5t-65.5 -97t-97 -65.5t-119.5 -24zM326 124q37 0 68 13.5t53.5 37.5t35.5 55.5t13 67.5t-13 67.5t-35.5 55.5
t-54 37.5t-67.5 13.5t-67 -13.5t-53.5 -37.5t-35.5 -55.5t-13 -67.5t13 -67.5t35.5 -55.5t53.5 -37.5t67 -13.5zM194 732h264v-86h-264v86z" />
    <glyph glyph-name="t.smcp" horiz-adv-x="494" 
d="M183 471h-152v125h432v-125h-150v-471h-130v471z" />
    <glyph glyph-name="anglebracketright.cap" horiz-adv-x="392" 
d="M11 -120l228 480l-228 480h144l227 -480l-227 -480h-144z" />
    <glyph glyph-name="tbar.smcp" horiz-adv-x="494" 
d="M313 212v-212h-130v212h-101v125h101v134h-152v125h432v-125h-150v-134h99v-125h-99z" />
    <glyph glyph-name="ohungarumlaut.smcp" horiz-adv-x="653" 
d="M326 -8q-64 0 -119.5 24t-97 65.5t-65 97t-23.5 119.5q0 63 23.5 119t65 97.5t97 65.5t119.5 24q63 0 119 -24t97.5 -65.5t65.5 -97.5t24 -119q0 -64 -24 -119.5t-65.5 -97t-97 -65.5t-119.5 -24zM326 124q37 0 68 13.5t53.5 37.5t35.5 55.5t13 67.5t-13 67.5t-35.5 55.5
t-54 37.5t-67.5 13.5t-67 -13.5t-53.5 -37.5t-35.5 -55.5t-13 -67.5t13 -67.5t35.5 -55.5t53.5 -37.5t67 -13.5zM309 813h120l-150 -170h-84zM475 813h120l-150 -170h-84z" />
    <glyph glyph-name="tcaron.smcp" horiz-adv-x="494" 
d="M185 471h-152v125h432v-125h-150v-471h-130v471zM88 816h102l59 -89l59 89h102l-119 -170h-84z" />
    <glyph glyph-name="anglebracketright.smcp" horiz-adv-x="343" 
d="M11 -98l186 391l-187 393h139l186 -393l-185 -391h-139z" />
    <glyph glyph-name="tcommaaccent.smcp" horiz-adv-x="494" 
d="M156 -264l34 204h119l-70 -204h-83zM185 471h-152v125h432v-125h-150v-471h-130v471z" />
    <glyph glyph-name="thirteensixteenths" horiz-adv-x="1425" 
d="M911 730h157l-527 -730h-157zM1249 -6q-36 0 -66.5 12t-52.5 33t-34 49.5t-12 61.5q0 32 12.5 64.5t28.5 58.5l94 149h129l-76 -119q30 -1 56 -12t45 -31t30 -48t11 -62q0 -33 -12 -61.5t-33.5 -49.5t-52 -33t-67.5 -12zM450 302q-43 0 -84 12.5t-69 40.5l85 77
q27 -28 61 -28q20 0 32.5 9.5t12.5 26.5t-16.5 25t-42.5 8h-44v98h43q24 0 37.5 9.5t13.5 26.5q0 31 -43 31q-16 0 -30 -7.5t-22 -20.5l-80 69q25 27 62.5 42t73.5 15q70 0 113.5 -33.5t43.5 -91.5q0 -50 -42 -83q25 -15 38.5 -38t13.5 -53q0 -29 -11 -53.5t-31.5 -42.5
t-49.5 -28.5t-65 -10.5zM14 412h81v166q-11 -14 -27 -20t-36 -6h-6v107h3q21 0 34.5 7t21.5 17.5t11 23t3 23.5h109v-318h78v-104h-272v104zM806 104h81v166q-11 -14 -27 -20t-36 -6h-6v107h3q21 0 34.5 7t21.5 17.5t11 23t3 23.5h109v-318h78v-104h-272v104zM1249 98
q23 0 39 15.5t16 38.5q0 22 -16 37.5t-39 15.5t-37.5 -15.5t-14.5 -38.5q0 -22 14.5 -37.5t37.5 -15.5z" />
    <glyph glyph-name="ograve.smcp" horiz-adv-x="653" 
d="M326 -8q-64 0 -119.5 24t-97 65.5t-65 97t-23.5 119.5q0 63 23.5 119t65 97.5t97 65.5t119.5 24q63 0 119 -24t97.5 -65.5t65.5 -97.5t24 -119q0 -64 -24 -119.5t-65.5 -97t-97 -65.5t-119.5 -24zM326 124q37 0 68 13.5t53.5 37.5t35.5 55.5t13 67.5t-13 67.5t-35.5 55.5
t-54 37.5t-67.5 13.5t-67 -13.5t-53.5 -37.5t-35.5 -55.5t-13 -67.5t13 -67.5t35.5 -55.5t53.5 -37.5t67 -13.5zM144 816h127l114 -170h-91z" />
    <glyph glyph-name="thorn.smcp" horiz-adv-x="466" 
d="M37 596h134v-97h68q48 0 86 -16t64.5 -43t40.5 -63t14 -76q0 -41 -14 -77t-40 -63t-64.5 -43t-87.5 -16h-67v-102h-134v596zM171 375v-149h67q32 0 54 21t22 53q0 34 -22 54.5t-54 20.5h-67z" />
    <glyph glyph-name="three.LP" horiz-adv-x="502" 
d="M237 -10q-70 0 -128.5 23.5t-105.5 78.5l118 88q23 -35 52 -50.5t63 -15.5q47 0 77.5 25.5t30.5 71.5t-34.5 73.5t-90.5 27.5h-75v125h75q60 0 88 29t28 68q0 40 -28 64t-75 24q-43 0 -68.5 -19t-42.5 -51l-116 60q32 60 92.5 94t132.5 34q53 0 97 -14.5t75 -41t48 -64.5
t17 -85q0 -50 -22 -89.5t-61 -67.5q45 -26 70.5 -68t25.5 -99q0 -47 -16 -87.5t-46.5 -70t-76 -46.5t-104.5 -17z" />
    <glyph glyph-name="three.LT" horiz-adv-x="588" 
d="M298 -10q-47 0 -86.5 8t-72.5 24.5t-61.5 41.5t-54.5 60l118 85q29 -51 68 -73t90 -22q53 0 87.5 27t34.5 75q0 42 -27.5 68t-84.5 26h-95v125h93q29 0 50 8t34 22t19 31.5t6 37.5q0 16 -7.5 32t-22 28.5t-36 20t-49.5 7.5q-59 0 -92 -22t-56 -68l-118 59q39 75 106 112
t159 37q54 0 99.5 -14.5t78.5 -41t51.5 -63.5t18.5 -81q0 -54 -22.5 -96t-63.5 -69q45 -23 70 -63.5t25 -98.5q0 -47 -17.5 -87.5t-51 -70.5t-81.5 -47.5t-109 -17.5z" />
    <glyph glyph-name="three.inf" horiz-adv-x="325" 
d="M158 -6q-43 0 -84 12.5t-69 40.5l85 77q27 -28 61 -28q20 0 32.5 9.5t12.5 26.5t-16.5 25t-42.5 8h-44v98h42q25 0 38.5 9.5t13.5 26.5q0 31 -43 31q-16 0 -30 -7.5t-22 -20.5l-80 69q25 27 62.5 42t73.5 15q70 0 113.5 -33.5t43.5 -91.5q0 -50 -42 -83q25 -15 38.5 -38
t13.5 -53q0 -29 -11 -53.5t-31.5 -42.5t-49.5 -28.5t-65 -10.5z" />
    <glyph glyph-name="threequarteremdash" horiz-adv-x="573" 
d="M36 312h501v-115h-501v115z" />
    <glyph glyph-name="threequarteremdash.cap" horiz-adv-x="573" 
d="M36 416h501v-114h-501v114z" />
    <glyph glyph-name="anocross.smcp" horiz-adv-x="581" 
d="M225 596h131l206 -596h-136l-135 405l-136 -405h-135z" />
    <glyph glyph-name="oe.smcp" horiz-adv-x="885" 
d="M500 53q-35 -29 -78.5 -45t-95.5 -16q-64 0 -119.5 24t-97 65.5t-65 97t-23.5 119.5q0 63 23.5 119t65 97.5t97 65.5t119.5 24q52 0 95.5 -16.5t78.5 -45.5v54h354v-125h-221v-109h221v-126h-221v-111h221v-125h-354v53zM326 124q37 0 68 13.5t53.5 37.5t35.5 55.5
t13 67.5t-13 67.5t-35.5 55.5t-54 37.5t-67.5 13.5t-67 -13.5t-53.5 -37.5t-35.5 -55.5t-13 -67.5t13 -67.5t35.5 -55.5t53.5 -37.5t67 -13.5z" />
    <glyph glyph-name="threesixteenths" horiz-adv-x="1133" 
d="M619 730h156l-527 -730h-156zM957 -6q-36 0 -66.5 12t-52.5 33t-34 49.5t-12 61.5q0 32 12.5 64.5t28.5 58.5l94 149h129l-76 -119q30 -1 56 -12t45 -31t30 -48t11 -62q0 -33 -12 -61.5t-34 -49.5t-52.5 -33t-66.5 -12zM158 302q-43 0 -84 12.5t-69 40.5l85 77
q27 -28 61 -28q20 0 32.5 9.5t12.5 26.5t-16.5 25t-42.5 8h-44v98h42q25 0 38.5 9.5t13.5 26.5q0 31 -43 31q-16 0 -30 -7.5t-22 -20.5l-80 69q25 27 62.5 42t73.5 15q70 0 113.5 -33.5t43.5 -91.5q0 -50 -42 -83q25 -15 38.5 -38t13.5 -53q0 -29 -11 -53.5t-31.5 -42.5
t-49.5 -28.5t-65 -10.5zM514 104h81v166q-11 -14 -27 -20t-36 -6h-6v107h3q21 0 34.5 7t21.5 17.5t11 23t3 23.5h109v-318h78v-104h-272v104zM957 98q23 0 39 15.5t16 38.5q0 22 -16 37.5t-39 15.5t-37.5 -15.5t-14.5 -38.5q0 -22 14.5 -37.5t37.5 -15.5z" />
    <glyph glyph-name="aogonek.alt" horiz-adv-x="516" 
d="M411 -229q-58 0 -94.5 30.5t-37.5 77.5q-1 39 18 69t53 57v50q-27 -27 -67.5 -46t-92.5 -19q-82 0 -125.5 38.5t-43.5 100.5q0 35 12 61.5t33 46t50.5 33.5t65.5 23q30 8 59.5 15t52 14.5t36.5 17t14 23.5q0 19 -19 30.5t-57 11.5q-58 0 -83 -25t-25 -58v-3h-121v2
q0 91 58 140t165 49q46 0 85.5 -9.5t68.5 -29t46 -50t17 -73.5v-346l4 -2q-57 -35 -81 -64t-24 -47q0 -17 10.5 -25t27.5 -8q15 0 27.5 9t22.5 21l79 -55q-26 -27 -58 -43.5t-76 -16.5zM202 101q30 0 56.5 12t46.5 29t32 36.5t13 34.5v29q-3 -8 -32 -19.5t-74 -22.5
q-51 -11 -73 -25t-22 -37q0 -20 15 -28.5t38 -8.5z" />
    <glyph glyph-name="odieresis.smcp" horiz-adv-x="653" 
d="M326 -8q-64 0 -119.5 24t-97 65.5t-65 97t-23.5 119.5q0 63 23.5 119t65 97.5t97 65.5t119.5 24q63 0 119 -24t97.5 -65.5t65.5 -97.5t24 -119q0 -64 -24 -119.5t-65.5 -97t-97 -65.5t-119.5 -24zM326 124q37 0 68 13.5t53.5 37.5t35.5 55.5t13 67.5t-13 67.5t-35.5 55.5
t-54 37.5t-67.5 13.5t-67 -13.5t-53.5 -37.5t-35.5 -55.5t-13 -67.5t13 -67.5t35.5 -55.5t53.5 -37.5t67 -13.5zM159 715q0 32 19.5 52t52.5 20q34 0 53 -20t19 -52t-19 -51.5t-53 -19.5t-53 19.5t-19 51.5zM350 715q0 32 19.5 52t52.5 20t52.5 -20t19.5 -52t-19.5 -51.5
t-52.5 -19.5q-35 0 -53.5 19.5t-18.5 51.5z" />
    <glyph glyph-name="onethirdemdash" horiz-adv-x="392" 
d="M36 312h320v-115h-320v115z" />
    <glyph glyph-name="scedilla.smcp" horiz-adv-x="488" 
d="M234 -240q-40 0 -77.5 16.5t-66.5 42.5l78 47q17 -14 33.5 -24t42.5 -10q22 0 38.5 9t16.5 22q0 27 -58 27h-50v106q-63 9 -107 37.5t-76 66.5l117 92q22 -35 53 -55t66 -20q36 0 56.5 19t20.5 44q0 15 -9.5 26t-25.5 19t-37 14t-43 13q-30 9 -60 20.5t-54.5 31t-40 48.5
t-15.5 73q0 39 15 72t42 57t64.5 37.5t82.5 13.5q39 0 70 -7.5t56.5 -20t46 -29.5t37.5 -36l-108 -83q-17 28 -43 43.5t-58 15.5t-50.5 -16t-18.5 -39q0 -15 9 -25.5t24.5 -18.5t36 -14.5t43.5 -13.5q30 -9 61 -21.5t56.5 -32.5t41.5 -50t16 -74q0 -35 -12.5 -67t-36 -57.5
t-58 -43t-78.5 -21.5v-47q56 2 85.5 -20.5t29.5 -59.5q0 -23 -12 -43t-33 -34t-49.5 -22t-61.5 -8z" />
    <glyph glyph-name="onethirdemdash.cap" horiz-adv-x="392" 
d="M36 416h320v-114h-320v114z" />
    <glyph glyph-name="scaron.smcp" horiz-adv-x="488" 
d="M244 -8q-43 0 -78 8.5t-63.5 23.5t-52 34.5t-42.5 41.5l117 92q22 -35 53 -55t66 -20q36 0 56.5 19t20.5 44q0 15 -9.5 26t-25.5 19t-37 14t-43 13q-30 9 -60 20.5t-54.5 31t-40 48.5t-15.5 73q0 39 15 72t42 57t64.5 37.5t82.5 13.5q39 0 70 -7.5t56.5 -20t46 -29.5
t37.5 -36l-108 -83q-17 28 -43 43.5t-58 15.5t-50.5 -16t-18.5 -39q0 -15 9 -25.5t24.5 -18.5t36 -14.5t43.5 -13.5q30 -9 61 -21.5t56.5 -32.5t41.5 -50t16 -74q0 -37 -14.5 -71.5t-42 -61t-68 -42.5t-91.5 -16zM90 816h102l59 -89l59 89h102l-119 -170h-84z" />
    <glyph glyph-name="tripleprime" horiz-adv-x="468" 
d="M70 500q-4 9 -9.5 28.5t-11 41.5t-9.5 43t-4 33v84h105v-84q0 -13 -4 -34t-9.5 -43t-11 -41t-9.5 -28h-37zM215 500q-4 9 -9.5 28.5t-11 41.5t-9 43t-3.5 33v84h105v-84q0 -13 -4 -34t-9.5 -43t-11.5 -41t-10 -28h-37zM361 500q-4 9 -9.5 28.5t-11 41.5t-9.5 43t-4 33v84
h105v-84q0 -13 -4 -34t-9.5 -43t-11 -41t-9.5 -28h-37z" />
    <glyph glyph-name="two.LP" horiz-adv-x="536" 
d="M36 128q0 47 17 85t44.5 69.5t62 57.5t68.5 49q27 19 52 36.5t44 35t30.5 36t11.5 39.5q0 36 -25.5 61.5t-74.5 25.5q-48 0 -78.5 -29t-49.5 -75l-117 59q34 75 95.5 118.5t150.5 43.5q55 0 99 -16t75 -43.5t47 -65t16 -80.5q0 -44 -16 -78t-42 -62.5t-58.5 -52.5
t-65.5 -46q-29 -19 -55.5 -37.5t-47.5 -38.5t-34 -42t-13 -48h329v-130h-465v128z" />
    <glyph glyph-name="two.LT" horiz-adv-x="588" 
d="M46 128q0 47 19 85t49 69.5t67.5 57.5t74.5 49q30 19 57.5 36.5t48.5 35t33.5 36t12.5 39.5q0 36 -29 61.5t-85 25.5q-54 0 -89.5 -29t-56.5 -75l-118 59q36 75 102 118.5t161 43.5q60 0 107 -16t79.5 -43.5t49.5 -65t17 -80.5q0 -44 -18 -78t-46.5 -62.5t-64 -52.5
t-71.5 -46q-32 -19 -61 -37.5t-52 -38.5t-37 -42t-14 -48h361v-130h-497v128z" />
    <glyph glyph-name="two.inf" horiz-adv-x="330" 
d="M14 83q0 31 10.5 55t27 42t37 31t40.5 24q30 17 52.5 31t22.5 33q0 13 -10.5 22.5t-30.5 9.5q-23 0 -38.5 -17t-23.5 -37l-97 50q23 47 63 74t98 27q34 0 62.5 -9.5t49 -26.5t31.5 -40.5t11 -51.5q0 -30 -11 -53t-28 -40t-38 -30t-41 -23q-26 -14 -45 -25.5t-21 -24.5
h181v-104h-302v83z" />
    <glyph glyph-name="aogonek.smcp" horiz-adv-x="581" 
d="M225 596h131l206 -596q-41 -27 -66.5 -44.5t-39.5 -29.5t-19 -20.5t-5 -18.5q0 -17 13 -24t30 -7q20 0 33 9t27 20l79 -54q-26 -24 -64.5 -41t-74.5 -17q-65 0 -104.5 31.5t-39.5 77.5q0 32 19.5 63t72.5 64l-28 84h-209l-31 -93h-135zM227 216h127l-63 189z" />
    <glyph glyph-name="u.smcp" horiz-adv-x="519" 
d="M260 -8q-51 0 -92 14.5t-70 43t-45 70t-16 95.5v381h134v-385q0 -44 24 -70.5t64 -26.5t65 26.5t25 70.5v385h134v-381q0 -54 -16 -95.5t-45.5 -70t-70.5 -43t-91 -14.5z" />
    <glyph glyph-name="uacute.smcp" horiz-adv-x="519" 
d="M314 816h126l-150 -170h-91zM260 -8q-51 0 -92 14.5t-70 43t-45 70t-16 95.5v381h134v-385q0 -44 24 -70.5t64 -26.5t65 26.5t25 70.5v385h134v-381q0 -54 -16 -95.5t-45.5 -70t-70.5 -43t-91 -14.5z" />
    <glyph glyph-name="ubreve.smcp" horiz-adv-x="519" 
d="M260 -8q-51 0 -92 14.5t-70 43t-45 70t-16 95.5v381h134v-385q0 -44 24 -70.5t64 -26.5t65 26.5t25 70.5v385h134v-381q0 -54 -16 -95.5t-45.5 -70t-70.5 -43t-91 -14.5zM262 636q-41 0 -71.5 13t-50.5 35.5t-29.5 54t-9.5 67.5h85q0 -48 19.5 -71t56.5 -25q36 2 56 25
t20 71h86q0 -36 -11.5 -67.5t-32.5 -54t-51 -35.5t-67 -13z" />
    <glyph glyph-name="ucircumflex.smcp" horiz-adv-x="519" 
d="M260 -8q-51 0 -92 14.5t-70 43t-45 70t-16 95.5v381h134v-385q0 -44 24 -70.5t64 -26.5t65 26.5t25 70.5v385h134v-381q0 -54 -16 -95.5t-45.5 -70t-70.5 -43t-91 -14.5zM219 816h84l119 -170h-102l-59 89l-59 -89h-102z" />
    <glyph glyph-name="udieresis.smcp" horiz-adv-x="519" 
d="M94 715q0 32 19.5 52t52.5 20q34 0 53 -20t19 -52t-19 -51.5t-53 -19.5t-53 19.5t-19 51.5zM285 715q0 32 19.5 52t52.5 20t52.5 -20t19.5 -52t-19.5 -51.5t-52.5 -19.5q-35 0 -53.5 19.5t-18.5 51.5zM260 -8q-51 0 -92 14.5t-70 43t-45 70t-16 95.5v381h134v-385
q0 -44 24 -70.5t64 -26.5t65 26.5t25 70.5v385h134v-381q0 -54 -16 -95.5t-45.5 -70t-70.5 -43t-91 -14.5z" />
    <glyph glyph-name="ugrave.smcp" horiz-adv-x="519" 
d="M260 -8q-51 0 -92 14.5t-70 43t-45 70t-16 95.5v381h134v-385q0 -44 24 -70.5t64 -26.5t65 26.5t25 70.5v385h134v-381q0 -54 -16 -95.5t-45.5 -70t-70.5 -43t-91 -14.5zM66 813h127l114 -170h-91z" />
    <glyph glyph-name="uhungarumlaut.smcp" horiz-adv-x="519" 
d="M260 -8q-51 0 -92 14.5t-70 43t-45 70t-16 95.5v381h134v-385q0 -44 24 -70.5t64 -26.5t65 26.5t25 70.5v385h134v-381q0 -54 -16 -95.5t-45.5 -70t-70.5 -43t-91 -14.5zM236 816h120l-150 -170h-84zM402 816h120l-150 -170h-84z" />
    <glyph glyph-name="umacron.smcp" horiz-adv-x="519" 
d="M260 -8q-51 0 -92 14.5t-70 43t-45 70t-16 95.5v381h134v-385q0 -44 24 -70.5t64 -26.5t65 26.5t25 70.5v385h134v-381q0 -54 -16 -95.5t-45.5 -70t-70.5 -43t-91 -14.5zM130 732h264v-86h-264v86z" />
    <glyph glyph-name="ocircumflex.smcp" horiz-adv-x="653" 
d="M326 -8q-64 0 -119.5 24t-97 65.5t-65 97t-23.5 119.5q0 63 23.5 119t65 97.5t97 65.5t119.5 24q63 0 119 -24t97.5 -65.5t65.5 -97.5t24 -119q0 -64 -24 -119.5t-65.5 -97t-97 -65.5t-119.5 -24zM326 124q37 0 68 13.5t53.5 37.5t35.5 55.5t13 67.5t-13 67.5t-35.5 55.5
t-54 37.5t-67.5 13.5t-67 -13.5t-53.5 -37.5t-35.5 -55.5t-13 -67.5t13 -67.5t35.5 -55.5t53.5 -37.5t67 -13.5zM284 816h84l119 -170h-102l-59 89l-59 -89h-102z" />
    <glyph glyph-name="ampersand.smcp" horiz-adv-x="639" 
d="M414 36q-35 -21 -74 -33t-82 -12q-65 0 -110 17t-73 44t-40.5 62t-12.5 71q0 54 26 95.5t67 68.5q-26 44 -26 94q0 34 12.5 63.5t36 51t56 34t73.5 12.5q38 0 67 -8.5t51 -23.5t37.5 -34.5t26.5 -41.5l-128 -56q-6 19 -18 32t-32 13t-33 -12t-13 -30q0 -14 4.5 -25
t16 -26t31.5 -35.5t52 -52.5l98 -99q31 43 43 92h-94v123h227v-59q0 -60 -24.5 -122.5t-68.5 -116.5l120 -122h-179zM258 106q36 0 69 15l-105 107l-30 29q-20 -14 -29.5 -30.5t-9.5 -40.5q0 -33 27 -56.5t78 -23.5z" />
    <glyph glyph-name="sacute.smcp" horiz-adv-x="488" 
d="M307 816h126l-150 -170h-91zM244 -8q-43 0 -78 8.5t-63.5 23.5t-52 34.5t-42.5 41.5l117 92q22 -35 53 -55t66 -20q36 0 56.5 19t20.5 44q0 15 -9.5 26t-25.5 19t-37 14t-43 13q-30 9 -60 20.5t-54.5 31t-40 48.5t-15.5 73q0 39 15 72t42 57t64.5 37.5t82.5 13.5
q39 0 70 -7.5t56.5 -20t46 -29.5t37.5 -36l-108 -83q-17 28 -43 43.5t-58 15.5t-50.5 -16t-18.5 -39q0 -15 9 -25.5t24.5 -18.5t36 -14.5t43.5 -13.5q30 -9 61 -21.5t56.5 -32.5t41.5 -50t16 -74q0 -37 -14.5 -71.5t-42 -61t-68 -42.5t-91.5 -16z" />
    <glyph glyph-name="obreve.smcp" horiz-adv-x="653" 
d="M326 -8q-64 0 -119.5 24t-97 65.5t-65 97t-23.5 119.5q0 63 23.5 119t65 97.5t97 65.5t119.5 24q63 0 119 -24t97.5 -65.5t65.5 -97.5t24 -119q0 -64 -24 -119.5t-65.5 -97t-97 -65.5t-119.5 -24zM326 124q37 0 68 13.5t53.5 37.5t35.5 55.5t13 67.5t-13 67.5t-35.5 55.5
t-54 37.5t-67.5 13.5t-67 -13.5t-53.5 -37.5t-35.5 -55.5t-13 -67.5t13 -67.5t35.5 -55.5t53.5 -37.5t67 -13.5zM326 638q-41 0 -71.5 13t-50.5 35.5t-29.5 54t-9.5 67.5h85q0 -48 19.5 -71t56.5 -25q36 2 56 25t20 71h86q0 -36 -11.5 -67.5t-32.5 -54t-51 -35.5t-67 -13z
" />
    <glyph glyph-name="aring.alt" horiz-adv-x="516" 
d="M190 -10q-82 0 -125.5 38.5t-43.5 100.5q0 35 12 61.5t33 46t50.5 33.5t65.5 23q30 8 59.5 15t52 14.5t36.5 17t14 23.5q0 19 -19 30.5t-57 11.5q-58 0 -83 -25t-25 -58v-3h-121v2q0 91 58 140t165 49q46 0 85.5 -9.5t68.5 -29t46 -50t17 -73.5v-348h-129v55
q-27 -27 -67.5 -46t-92.5 -19zM264 543q-24 0 -45 9t-37 25t-25 37t-9 45q0 25 9 46.5t25 37.5t37 25t45 9t45.5 -9t37.5 -25t25 -37.5t9 -46.5q0 -24 -9 -45t-25 -37t-37.5 -25t-45.5 -9zM202 101q30 0 56.5 12t46.5 29t32 36.5t13 34.5v29q-3 -8 -32 -19.5t-74 -22.5
q-51 -11 -73 -25t-22 -37q0 -20 15 -28.5t38 -8.5zM264 620q17 0 29 11.5t12 27.5q0 17 -12 29t-29 12t-28.5 -12t-11.5 -29q0 -16 11.5 -27.5t28.5 -11.5z" />
    <glyph glyph-name="uni2015.cap" horiz-adv-x="973" 
d="M36 416h901v-114h-901v114z" />
    <glyph glyph-name="oacute.smcp" horiz-adv-x="653" 
d="M326 -8q-64 0 -119.5 24t-97 65.5t-65 97t-23.5 119.5q0 63 23.5 119t65 97.5t97 65.5t119.5 24q63 0 119 -24t97.5 -65.5t65.5 -97.5t24 -119q0 -64 -24 -119.5t-65.5 -97t-97 -65.5t-119.5 -24zM326 124q37 0 68 13.5t53.5 37.5t35.5 55.5t13 67.5t-13 67.5t-35.5 55.5
t-54 37.5t-67.5 13.5t-67 -13.5t-53.5 -37.5t-35.5 -55.5t-13 -67.5t13 -67.5t35.5 -55.5t53.5 -37.5t67 -13.5zM392 816h126l-150 -170h-91z" />
    <glyph glyph-name="aring.smcp" horiz-adv-x="581" 
d="M215 569q-20 16 -31 39.5t-11 50.5q0 25 9 46.5t25 37.5t37 25t45 9t45.5 -9t37.5 -25t25 -37.5t9 -46.5q0 -27 -11 -49.5t-30 -39.5l197 -570h-136l-31 93h-209l-31 -93h-135zM227 216h127l-63 189zM289 620q17 0 29 11.5t12 27.5q0 17 -12 29t-29 12t-28.5 -12
t-11.5 -29q0 -16 11.5 -27.5t28.5 -11.5z" />
    <glyph glyph-name="o.smcp" horiz-adv-x="653" 
d="M326 -8q-64 0 -119.5 24t-97 65.5t-65 97t-23.5 119.5q0 63 23.5 119t65 97.5t97 65.5t119.5 24q63 0 119 -24t97.5 -65.5t65.5 -97.5t24 -119q0 -64 -24 -119.5t-65.5 -97t-97 -65.5t-119.5 -24zM326 124q37 0 68 13.5t53.5 37.5t35.5 55.5t13 67.5t-13 67.5t-35.5 55.5
t-54 37.5t-67.5 13.5t-67 -13.5t-53.5 -37.5t-35.5 -55.5t-13 -67.5t13 -67.5t35.5 -55.5t53.5 -37.5t67 -13.5z" />
    <glyph glyph-name="numbersign.alt" horiz-adv-x="802" 
d="M405 146l-156 59l-77 -205h-139l95 253l-92 35v138l142 -54l53 139l-195 74v139l242 -92l37 98h139l-56 -145l157 -58l77 203h137l-95 -250l92 -34v-139l-141 53l-53 -139l194 -74v-138l-241 90l-38 -99h-137zM299 326l153 -58l52 138l-152 58z" />
    <glyph glyph-name="aringacute.alt" horiz-adv-x="516" 
d="M190 -10q-82 0 -125.5 38.5t-43.5 100.5q0 35 12 61.5t33 46t50.5 33.5t65.5 23q30 8 59.5 15t52 14.5t36.5 17t14 23.5q0 19 -19 30.5t-57 11.5q-58 0 -83 -25t-25 -58v-3h-121v2q0 91 58 140t165 49q46 0 85.5 -9.5t68.5 -29t46 -50t17 -73.5v-348h-129v55
q-27 -27 -67.5 -46t-92.5 -19zM263 546q-24 0 -45 9t-37 25t-25 37t-9 45q0 25 9 46.5t25 37.5t37 25t45 9t45.5 -9t37.5 -25t25 -37.5t9 -46.5q0 -24 -9 -45t-25 -37t-37.5 -25t-45.5 -9zM333 988h126l-150 -170h-91zM202 101q30 0 56.5 12t46.5 29t32 36.5t13 34.5v29
q-3 -8 -32 -19.5t-74 -22.5q-51 -11 -73 -25t-22 -37q0 -20 15 -28.5t38 -8.5zM263 623q17 0 29 11.5t12 27.5q0 17 -12 29t-29 12t-28.5 -12t-11.5 -29q0 -16 11.5 -27.5t28.5 -11.5z" />
    </font>
</defs>
</svg>
