<?xml version="1.0" standalone="no"?>
<!DOCTYPE svg PUBLIC "-//W3C//DTD SVG 1.1//EN" "http://www.w3.org/Graphics/SVG/1.1/DTD/svg11.dtd" >
<svg xmlns="http://www.w3.org/2000/svg">
<metadata></metadata>
<defs>
<font id="samsungone700" horiz-adv-x="0" >
<font-face units-per-em="2048" ascent="1588" descent="-460" />
<missing-glyph horiz-adv-x="424" />
<glyph />
<glyph />
<glyph unicode="&#xd;" />
<glyph />
<glyph horiz-adv-x="520" />
<glyph unicode="&#x9;" horiz-adv-x="1024" />
<glyph horiz-adv-x="424" />
<glyph unicode=" "  horiz-adv-x="424" />
<glyph unicode="&#x09;" horiz-adv-x="424" />
<glyph unicode="&#xa0;" horiz-adv-x="424" />
<glyph unicode="!" horiz-adv-x="718" d="M208 120q0 70 40 109t110 39q72 0 112 -39t40 -107q0 -70 -40 -109t-112 -39q-70 0 -110 39t-40 107zM226 1448h264l-38 -1024h-188z" />
<glyph unicode="&#x22;" horiz-adv-x="794" d="M118 1448h228l-40 -520h-148zM446 1448h228l-40 -520h-148z" />
<glyph unicode="#" horiz-adv-x="1380" d="M54 376v170h290l58 356h-264v170h292l62 376h192l-62 -376h254l64 376h190l-62 -376h258v-170h-286l-60 -356h258v-170h-286l-60 -376h-192l62 376h-256l-62 -376h-190l62 376h-262zM534 546h256l58 356h-254z" />
<glyph unicode="$" horiz-adv-x="1108" d="M78 130l74 184q164 -90 322 -98v416l-44 12q-174 48 -255 139t-81 243q0 176 98 281t278 125v186h164v-186q174 -16 340 -84l-74 -184q-162 56 -268 66l-2 -398l46 -14q176 -48 256 -139t80 -245q0 -174 -99 -282t-279 -134v-188h-164v184q-108 6 -209 36t-183 80z M318 1062q0 -70 36 -113t120 -73v354q-80 -12 -118 -52t-38 -116zM630 588l2 -366q80 14 118 58t38 120q0 72 -36 116t-122 72z" />
<glyph unicode="%" horiz-adv-x="1888" d="M102 1028q0 446 324 446q326 0 326 -446q0 -444 -326 -444q-324 0 -324 444zM302 1028q0 -146 30 -212t94 -66q66 0 96 66t30 212t-30 213t-96 67q-64 0 -94 -67t-30 -213zM490 0l708 1448h200l-706 -1448h-202zM1136 420q0 444 326 444t326 -444q0 -446 -326 -446 t-326 446zM1336 420q0 -146 30 -213t96 -67t96 67t30 213t-30 212t-96 66t-96 -66t-30 -212z" />
<glyph unicode="&#x26;" horiz-adv-x="1322" d="M106 334q0 106 44 185t144 155l106 82l-60 66q-74 84 -104 153t-30 153q0 166 104 256t296 90q186 0 289 -85t103 -237q0 -100 -51 -180t-179 -178l-62 -48l216 -244l112 248h226l-168 -370l-22 -44l198 -224l-164 -144l-160 178q-80 -88 -182 -130t-232 -42 q-202 0 -313 94t-111 266zM350 364q0 -176 206 -176q158 0 252 112l-278 310l-70 -54q-60 -48 -85 -91t-25 -101zM438 1130q0 -50 25 -96t97 -126l16 -18l68 52q80 62 106 99t26 89q0 70 -42 105t-128 35q-168 0 -168 -140z" />
<glyph unicode="'" horiz-adv-x="464" d="M118 1448h228l-40 -520h-148z" />
<glyph unicode="(" horiz-adv-x="668" d="M100 682q0 252 82 489t244 447l164 -122q-262 -346 -262 -812t262 -812l-164 -122q-162 210 -244 445t-82 487z" />
<glyph unicode=")" horiz-adv-x="668" d="M78 -128q262 346 262 812t-262 812l164 122q162 -210 244 -447t82 -489t-82 -487t-244 -445z" />
<glyph unicode="*" horiz-adv-x="1078" d="M108 1054l64 192l286 -114l-20 316h202l-22 -316l288 114l64 -192l-302 -80l198 -244l-156 -126l-172 266l-170 -266l-156 126l198 244z" />
<glyph unicode="+" horiz-adv-x="1154" d="M90 632v210h378v414h218v-414h378v-210h-378v-414h-218v414h-378z" />
<glyph unicode="," horiz-adv-x="490" d="M4 -262q78 84 111 165t33 193q0 72 -12 146h234q12 -68 12 -144q0 -138 -67 -251t-211 -217z" />
<glyph unicode="-" horiz-adv-x="822" d="M88 506v188h646v-188h-646z" />
<glyph unicode="." horiz-adv-x="520" d="M108 120q0 70 40 109t112 39t112 -39t40 -107q0 -70 -40 -109t-112 -39t-112 39t-40 107z" />
<glyph unicode="/" horiz-adv-x="902" d="M34 -172l648 1664h196l-648 -1664h-196z" />
<glyph unicode="0" horiz-adv-x="1252" d="M122 724q0 388 124 569t378 181q256 0 381 -181t125 -569q0 -386 -125 -568t-379 -182t-379 182t-125 568zM366 724q0 -280 62 -409t198 -129t198 129t62 409t-63 409t-199 129q-134 0 -196 -129t-62 -409z" />
<glyph unicode="1" horiz-adv-x="918" d="M54 1288l416 160h206v-1448h-238v1202l-316 -110z" />
<glyph unicode="2" horiz-adv-x="1070" d="M52 1330q88 64 214 104t246 40q132 0 233 -49t156 -137t55 -204q0 -104 -52 -206t-176 -242l-382 -428h620v-208h-900v210l484 560q94 110 130 173t36 123q0 88 -60 139t-164 51q-82 0 -168 -28t-164 -80z" />
<glyph unicode="3" horiz-adv-x="1128" d="M52 102l90 196q88 -50 180 -77t172 -27q128 0 198 68t70 192q0 116 -67 182t-185 66q-62 0 -130 -16l-92 118l412 436h-614v208h874v-208l-334 -344q174 -22 277 -141t103 -301q0 -142 -63 -251t-179 -169t-270 -60q-120 0 -240 35t-202 93z" />
<glyph unicode="4" horiz-adv-x="1166" d="M44 286v204l528 958h334v-958h176v-204h-176v-286h-232v286h-630zM290 490h384v744z" />
<glyph unicode="5" horiz-adv-x="1112" d="M68 94l88 194q82 -46 168 -71t160 -25q128 0 199 72t71 198q0 122 -65 189t-183 67q-56 0 -116 -15t-112 -43l-146 78l38 710h762v-208h-550l-26 -336q90 30 184 30q138 0 241 -58t160 -164t57 -244q0 -148 -64 -260t-180 -173t-270 -61q-116 0 -229 33t-187 87z" />
<glyph unicode="6" horiz-adv-x="1138" d="M90 476q0 168 62 313t214 329l296 356l186 -144l-298 -340q-52 -60 -76 -90q82 24 160 24q128 0 226 -58t151 -163t53 -243q0 -144 -60 -255t-169 -171t-253 -60q-148 0 -259 62t-172 176t-61 264zM330 478q0 -140 67 -218t185 -78q112 0 176 72t64 200q0 132 -68 206 t-188 74q-98 0 -190 -42q-46 -88 -46 -214z" />
<glyph unicode="7" horiz-adv-x="994" d="M24 1240v208h914v-208l-560 -1260l-224 92l536 1168h-666z" />
<glyph unicode="8" horiz-adv-x="1178" d="M90 378q0 120 81 223t215 153q-108 38 -175 134t-67 210q0 112 55 197t155 132t234 47t235 -47t156 -132t55 -197q0 -114 -67 -207t-177 -131q134 -40 216 -143t82 -235q0 -122 -62 -214t-175 -143t-263 -51t-263 50t-174 142t-61 212zM328 396q0 -102 69 -161t191 -59 t192 59t70 159q0 84 -72 157t-198 119q-118 -40 -185 -113t-67 -161zM380 1078q0 -76 58 -138t160 -96q94 34 147 94t53 138q0 92 -56 145t-154 53t-153 -52t-55 -144z" />
<glyph unicode="9" horiz-adv-x="1138" d="M74 988q0 144 60 255t169 171t253 60q148 0 259 -62t172 -176t61 -264q0 -168 -62 -313t-216 -329l-294 -356l-188 144l300 340l74 90q-72 -24 -158 -24q-128 0 -226 58t-151 163t-53 243zM316 994q0 -132 67 -206t189 -74q94 0 188 42q48 92 48 214q0 140 -67 218 t-185 78q-114 0 -177 -72t-63 -200z" />
<glyph unicode=":" horiz-adv-x="600" d="M148 120q0 70 40 109t112 39t112 -39t40 -107q0 -70 -40 -109t-112 -39t-112 39t-40 107zM148 790q0 70 40 109t112 39t112 -39t40 -107q0 -70 -40 -109t-112 -39t-112 39t-40 107z" />
<glyph unicode=";" horiz-adv-x="600" d="M54 -262q78 84 111 165t33 193q0 72 -12 146h234q12 -68 12 -144q0 -138 -67 -251t-211 -217zM148 790q0 70 40 109t112 39t112 -39t40 -107q0 -70 -40 -109t-112 -39t-112 39t-40 107z" />
<glyph unicode="&#x3c;" horiz-adv-x="866" d="M78 730l538 598l172 -160l-404 -438l404 -438l-172 -160z" />
<glyph unicode="=" horiz-adv-x="1154" d="M136 388v214h882v-214h-882zM136 858v214h882v-214h-882z" />
<glyph unicode="&#x3e;" horiz-adv-x="866" d="M78 292l404 438l-404 438l172 160l538 -598l-538 -598z" />
<glyph unicode="?" horiz-adv-x="1040" d="M84 1346q90 62 202 95t228 33q200 0 311 -98t111 -274q0 -100 -44 -172t-160 -160q-100 -78 -134 -127t-34 -119q0 -30 6 -100h-218q-6 76 -6 106q0 118 44 195t160 169q82 64 110 105t28 95q0 158 -194 158q-144 0 -316 -100zM310 120q0 70 40 109t112 39t112 -39 t40 -107q0 -70 -40 -109t-112 -39t-112 39t-40 107z" />
<glyph unicode="@" horiz-adv-x="1622" d="M126 724q0 228 86 401t244 268t366 95q204 0 359 -86t240 -244t85 -364q0 -196 -85 -315t-225 -119q-116 0 -172 80q-66 -90 -204 -90q-146 0 -227 99t-81 277t88 275t248 97q134 0 240 -72v-404q0 -116 92 -116q74 0 115 76t41 212q0 250 -135 388t-379 138 q-246 0 -382 -156t-136 -440q0 -286 142 -443t398 -157q178 0 310 76l66 -144q-70 -46 -169 -71t-207 -25q-220 0 -382 95t-249 268t-87 401zM678 726q0 -112 41 -169t121 -57q42 0 88 20v414q-42 14 -86 14q-164 0 -164 -222z" />
<glyph unicode="A" horiz-adv-x="1338" d="M40 0l498 1448h262l498 -1448h-254l-104 336h-544l-104 -336h-252zM460 546h414l-208 668z" />
<glyph unicode="B" horiz-adv-x="1294" d="M168 0v1448h238h270q214 0 332 -107t118 -301q0 -210 -188 -276q270 -78 270 -336q0 -204 -122 -316t-342 -112h-446h-130zM406 214h350q206 0 206 210q0 214 -218 214h-338v-424zM406 844h270q206 0 206 192q0 198 -218 198h-258v-390z" />
<glyph unicode="C" horiz-adv-x="1204" d="M86 694q0 238 79 414t226 271t345 95q108 0 211 -29t183 -81l-82 -186q-158 78 -316 78q-190 0 -294 -142t-104 -402q0 -256 107 -386t317 -130q180 0 302 70l82 -182q-64 -50 -169 -79t-227 -29q-314 0 -487 189t-173 529z" />
<glyph unicode="D" horiz-adv-x="1384" d="M168 0v1448h452q322 0 490 -182t168 -540q0 -360 -169 -543t-491 -183h-450zM408 214h208q206 0 310 129t104 383q0 508 -416 508h-206v-1020z" />
<glyph unicode="E" horiz-adv-x="1154" d="M168 0v1448h890v-214h-650v-386h480v-216h-480v-418h676v-214h-916z" />
<glyph unicode="F" horiz-adv-x="1078" d="M168 0v1448h876v-214h-636v-422h516v-216h-516v-596h-240z" />
<glyph unicode="G" horiz-adv-x="1336" d="M106 724q0 356 175 553t495 197q122 0 230 -28t184 -80l-72 -192q-180 84 -346 84q-418 0 -418 -534q0 -536 422 -536q98 0 192 26v382h-246v214h486v-726q-80 -52 -193 -81t-239 -29q-320 0 -495 197t-175 553z" />
<glyph unicode="H" horiz-adv-x="1406" d="M168 0v1448h240v-606h590v606h240v-1448h-240v628h-590v-628h-240z" />
<glyph unicode="I" horiz-adv-x="582" d="M172 0v1448h240v-1448h-240z" />
<glyph unicode="J" horiz-adv-x="932" d="M6 80l86 184q136 -74 248 -74q196 0 196 194v1064h240v-1078q0 -188 -112 -292t-314 -104q-104 0 -193 28t-151 78z" />
<glyph unicode="K" horiz-adv-x="1260" d="M168 0v1448h240v-722l552 722h286l-522 -640l554 -808h-286l-420 622l-164 -202v-420h-240z" />
<glyph unicode="L" horiz-adv-x="1060" d="M168 0v1448h240v-1232h600v-216h-840z" />
<glyph unicode="M" horiz-adv-x="1704" d="M168 0v1448h288l398 -938l390 938h292v-1448h-234v1066l-326 -778h-250l-330 778v-1066h-228z" />
<glyph unicode="N" horiz-adv-x="1450" d="M168 0v1448h230l648 -1040v1040h236v-1448h-230l-648 1042v-1042h-236z" />
<glyph unicode="O" horiz-adv-x="1430" d="M106 724q0 372 156 561t452 189t453 -189t157 -561t-157 -561t-453 -189t-452 189t-156 561zM354 724q0 -536 360 -536q362 0 362 536t-362 536q-360 0 -360 -536z" />
<glyph unicode="P" horiz-adv-x="1196" d="M168 0v1448h240h284q226 0 350 -127t124 -359t-128 -361t-358 -129h-272v-472h-240zM408 686h284q226 0 226 272q0 276 -238 276h-272v-548z" />
<glyph unicode="Q" horiz-adv-x="1430" d="M106 724q0 372 156 561t452 189t453 -189t157 -561q0 -440 -220 -626l246 -264l-156 -156l-276 322q-90 -26 -204 -26q-296 0 -452 189t-156 561zM354 724q0 -536 360 -536q362 0 362 536t-362 536q-360 0 -360 -536z" />
<glyph unicode="R" horiz-adv-x="1268" d="M168 0v1448h240h266q224 0 347 -122t123 -342q0 -168 -72 -280t-208 -158l364 -546h-288l-324 518h-208v-518h-240zM408 724h266q222 0 222 256t-230 256h-258v-512z" />
<glyph unicode="S" horiz-adv-x="1126" d="M68 102l78 192q190 -108 390 -108q134 0 202 50t68 146q0 80 -49 131t-155 79l-164 46q-186 52 -270 148t-84 256q0 202 126 316t352 114q108 0 223 -25t217 -71l-80 -192q-204 78 -364 78q-118 0 -180 -46t-62 -134q0 -80 50 -131t156 -79l164 -46q186 -52 270 -149 t84 -257q0 -210 -133 -327t-371 -117q-128 0 -251 33t-217 93z" />
<glyph unicode="T" horiz-adv-x="1058" d="M42 1232v216h606h368v-216h-368v-1232h-240v1232h-366z" />
<glyph unicode="U" horiz-adv-x="1374" d="M158 502v946h240v-932q0 -328 288 -328q290 0 290 328v932h240v-946q0 -252 -139 -390t-393 -138q-250 0 -388 138t-138 390z" />
<glyph unicode="V" horiz-adv-x="1266" d="M48 1448h254l334 -1194l330 1194h252l-454 -1448h-262z" />
<glyph unicode="W" horiz-adv-x="1794" d="M52 1448h248l236 -1168l232 1166h258l236 -1166l234 1168h246l-352 -1448h-262l-234 1116l-230 -1116h-262z" />
<glyph unicode="X" horiz-adv-x="1218" d="M42 0l434 734l-418 714h270l286 -516l290 516h268l-430 -712l434 -736h-272l-300 536l-294 -536h-268z" />
<glyph unicode="Y" horiz-adv-x="1178" d="M32 1448h258l302 -696l298 696h256l-440 -958v-490h-240v490z" />
<glyph unicode="Z" horiz-adv-x="1108" d="M74 0v214l674 1022h-648v212h920v-212l-676 -1024h686v-212h-956z" />
<glyph unicode="[" horiz-adv-x="712" d="M168 -222v1812h500v-182h-284v-1448h284v-182h-500z" />
<glyph unicode="\" horiz-adv-x="902" d="M24 1492h198l646 -1664h-196z" />
<glyph unicode="]" horiz-adv-x="712" d="M44 -40h284v1448h-284v182h500v-1812h-500v182z" />
<glyph unicode="^" horiz-adv-x="876" d="M24 1018l308 430h210l310 -430h-232l-182 278l-184 -278h-230z" />
<glyph unicode="_" horiz-adv-x="1200" d="M168 -124h864v-196h-864v196z" />
<glyph unicode="`" horiz-adv-x="1000" d="M214 1548v20h250l178 -318v-20h-180z" />
<glyph unicode="a" horiz-adv-x="1068" d="M62 304q0 194 151 285t479 93v50q0 168 -218 168q-128 0 -254 -56l-60 184q174 84 354 84q194 0 303 -92t109 -262v-758h-212v152q-102 -174 -322 -174q-158 0 -244 86t-86 240zM290 322q0 -142 160 -142q142 0 242 112v228q-210 -4 -306 -51t-96 -147z" />
<glyph unicode="b" horiz-adv-x="1158" d="M156 0v126v888v526h236v-570q102 142 282 142q188 0 292 -150t104 -420t-106 -419t-298 -149q-94 0 -171 38t-125 108v-120h-214zM392 286q42 -48 99 -74t119 -26q218 0 218 348q0 356 -228 356q-60 0 -109 -24t-99 -76v-504z" />
<glyph unicode="c" horiz-adv-x="964" d="M80 532q0 174 62 305t176 203t264 72q88 0 173 -25t149 -71l-86 -184q-134 64 -240 64q-122 0 -189 -92t-67 -258q0 -354 282 -354q112 0 230 62l82 -182q-130 -96 -324 -96q-244 0 -378 146t-134 410z" />
<glyph unicode="d" horiz-adv-x="1158" d="M88 544q0 268 106 418t298 150q84 0 154 -30t120 -88v546h236v-1540h-214v150q-104 -176 -304 -176q-188 0 -292 149t-104 421zM330 550q0 -356 228 -356q60 0 109 24t99 78v502q-42 48 -99 74t-119 26q-218 0 -218 -348z" />
<glyph unicode="e" horiz-adv-x="1088" d="M84 542q0 272 124 421t348 149q216 0 336 -138t120 -386q0 -62 -10 -118h-680q30 -280 292 -280q142 0 266 70l86 -178q-74 -50 -173 -78t-203 -28q-242 0 -374 149t-132 417zM324 636h452q-4 128 -63 198t-163 70q-198 0 -226 -268z" />
<glyph unicode="f" horiz-adv-x="738" d="M20 882v204h172v96q0 184 110 285t310 101q66 0 116 -10v-206q-54 8 -116 8q-186 0 -186 -178v-96h264v-204h-264v-882h-236v882h-170z" />
<glyph unicode="g" horiz-adv-x="1162" d="M88 574q0 256 107 397t301 141q94 0 171 -39t125 -109v122h214v-1056q0 -224 -128 -347t-362 -123q-92 0 -183 20t-161 56l68 190q128 -58 254 -58q276 0 276 262v148q-102 -144 -282 -144q-190 0 -295 142t-105 398zM330 580q0 -326 232 -326q60 0 110 25t98 77v442 q-42 48 -99 74t-119 26q-222 0 -222 -318z" />
<glyph unicode="h" horiz-adv-x="1176" d="M156 0v1540h236v-562q128 134 308 134q158 0 244 -93t86 -261v-758h-236v728q0 162 -180 162q-62 0 -116 -20t-106 -62v-808h-236z" />
<glyph unicode="i" horiz-adv-x="556" d="M132 1382q0 68 38 105t108 37q68 0 107 -38t39 -102q0 -68 -38 -105t-108 -37q-68 0 -107 38t-39 102zM160 0v1086h236v-1086h-236z" />
<glyph unicode="j" horiz-adv-x="556" d="M-122 -250q116 40 175 81t83 101t24 158v996h236v-1000q0 -152 -39 -247t-133 -160t-268 -123zM132 1382q0 68 38 105t108 37q68 0 107 -38t39 -102q0 -68 -38 -105t-108 -37q-68 0 -107 38t-39 102z" />
<glyph unicode="k" horiz-adv-x="1114" d="M156 0v1540h236v-938l396 484h274l-392 -458l418 -628h-272l-298 452l-126 -146v-306h-236z" />
<glyph unicode="l" horiz-adv-x="640" d="M152 262v1278h236v-1234q0 -56 24 -82t76 -26q30 0 74 6l16 -200q-72 -18 -152 -18q-274 0 -274 276z" />
<glyph unicode="m" horiz-adv-x="1772" d="M156 0v1086h214v-132q134 158 322 158q102 0 176 -45t110 -127q138 172 330 172q150 0 234 -93t84 -261v-758h-236v728q0 162 -168 162q-58 0 -109 -20t-103 -64v-48v-758h-236v728q0 162 -168 162q-58 0 -109 -20t-105 -62v-808h-236z" />
<glyph unicode="n" horiz-adv-x="1172" d="M156 0v1086h214v-132q134 158 328 158q156 0 242 -93t86 -261v-758h-236v728q0 162 -178 162q-118 0 -220 -82v-808h-236z" />
<glyph unicode="o" horiz-adv-x="1122" d="M88 542q0 280 123 425t351 145t350 -145t122 -425t-123 -424t-351 -144t-350 144t-122 424zM330 542q0 -178 58 -268t172 -90q116 0 174 90t58 268q0 358 -230 358q-232 0 -232 -358z" />
<glyph unicode="p" horiz-adv-x="1158" d="M156 126v888v72h214v-150q106 176 304 176q188 0 292 -150t104 -420t-106 -419t-298 -149q-84 0 -154 30t-120 88v-506h-236v540zM392 286q42 -48 99 -74t119 -26q218 0 218 348q0 356 -228 356q-60 0 -109 -24t-99 -76v-504z" />
<glyph unicode="q" horiz-adv-x="1158" d="M88 544q0 268 106 418t298 150q94 0 171 -38t125 -108v120h214v-1500h-236v530q-100 -142 -282 -142q-188 0 -292 149t-104 421zM330 550q0 -356 228 -356q60 0 109 24t99 78v502q-42 48 -99 74t-119 26q-218 0 -218 -348z" />
<glyph unicode="r" horiz-adv-x="808" d="M156 0v1086h214v-166q104 188 286 188q70 0 124 -26l-48 -224q-60 20 -130 20q-72 0 -122 -26t-88 -84v-768h-236z" />
<glyph unicode="s" horiz-adv-x="938" d="M52 82l82 192q148 -90 312 -90q192 0 192 120q0 48 -33 78t-105 48l-142 34q-150 34 -219 107t-69 199q0 160 105 250t297 90q96 0 192 -24t174 -66l-90 -190q-140 72 -280 72q-172 0 -172 -110q0 -44 34 -73t106 -47l142 -34q152 -36 220 -110t68 -202q0 -166 -110 -258 t-310 -92q-110 0 -213 28t-181 78z" />
<glyph unicode="t" horiz-adv-x="796" d="M28 882v204h172v302h236v-302h304v-204h-304v-504q0 -96 39 -139t127 -43q56 0 116 16l36 -200q-90 -28 -190 -28q-364 0 -364 354v544h-172z" />
<glyph unicode="u" horiz-adv-x="1156" d="M142 326v760h236v-728q0 -164 172 -164q62 0 113 24t101 76v792h236v-1086h-216v146q-118 -172 -322 -172q-152 0 -236 92t-84 260z" />
<glyph unicode="v" horiz-adv-x="1050" d="M38 1086h242l248 -848l244 848h240l-358 -1086h-256z" />
<glyph unicode="w" horiz-adv-x="1576" d="M42 1086h240l194 -842l192 842h242l196 -842l190 842h238l-304 -1086h-254l-190 796l-186 -796h-254z" />
<glyph unicode="x" horiz-adv-x="1024" d="M38 0l346 552l-332 534h262l202 -350l210 350h256l-344 -532l348 -554h-260l-218 370l-214 -370h-256z" />
<glyph unicode="y" horiz-adv-x="1042" d="M38 1086h242l244 -832l240 832h240l-344 -1046q-58 -178 -187 -293t-349 -187l-80 200q140 50 223 105t133 133z" />
<glyph unicode="z" horiz-adv-x="938" d="M66 0v200l528 686h-510v200h776v-200l-530 -686h540v-200h-804z" />
<glyph unicode="{" horiz-adv-x="758" d="M28 592v184q114 2 169 40t55 118v220q0 144 38 231t125 141t245 90l50 -176q-100 -24 -151 -56t-72 -85t-21 -145v-220q0 -204 -168 -248q168 -44 168 -252v-218q0 -94 21 -147t72 -85t151 -56l-50 -176q-158 36 -245 90t-125 142t-38 232v218q0 80 -55 118t-169 40z" />
<glyph unicode="|" horiz-adv-x="512" d="M168 -500v2132h176v-2132h-176z" />
<glyph unicode="}" horiz-adv-x="758" d="M48 -72q100 24 151 56t72 85t21 147v218q0 208 168 252q-168 44 -168 248v220q0 92 -21 145t-72 85t-151 56l50 176q158 -36 245 -90t125 -141t38 -231v-220q0 -80 55 -118t169 -40v-184q-114 -2 -169 -40t-55 -118v-218q0 -144 -38 -232t-125 -142t-245 -90z" />
<glyph unicode="~" horiz-adv-x="1154" d="M90 708q146 180 314 180q56 0 98 -17t94 -49q44 -28 75 -42t71 -14q48 0 91 27t91 85l140 -142q-146 -180 -314 -180q-58 0 -98 17t-94 49q-42 28 -75 42t-73 14q-46 0 -89 -27t-91 -85z" />
<glyph unicode="&#xa1;" horiz-adv-x="718" d="M208 946q0 70 40 109t112 39q70 0 110 -39t40 -107q0 -70 -40 -109t-110 -39q-72 0 -112 39t-40 107zM228 -380l38 1024h188l38 -1024h-264z" />
<glyph unicode="&#xa2;" horiz-adv-x="968" d="M80 566q0 206 109 343t295 165v230h164v-226q140 -16 244 -84l-84 -176q-74 36 -160 52v-608q96 10 178 56l78 -174q-104 -74 -256 -90v-224h-164v230q-194 28 -299 159t-105 347zM316 570q0 -126 41 -198t127 -98v590q-168 -48 -168 -294z" />
<glyph unicode="&#xa3;" horiz-adv-x="1066" d="M96 628v200h162q-8 18 -31 68t-35 100t-12 108q0 176 109 273t305 97q114 0 212 -32t164 -94l-116 -192q-126 96 -260 96q-174 0 -174 -160q0 -44 12 -85t38 -107q22 -54 28 -72h342v-200h-304v-4q0 -120 -47 -220t-149 -192h626v-212h-852v210l60 62q72 74 103 150 t31 172v34h-212z" />
<glyph unicode="&#xa4;" horiz-adv-x="1192" d="M88 110l138 172q-100 128 -100 344q0 214 100 342l-138 172l130 102l138 -168q100 52 240 52t240 -52l136 168l132 -102l-138 -172q100 -128 100 -342q0 -216 -100 -344l138 -172l-132 -102l-136 168q-100 -52 -240 -52t-240 52l-138 -168zM360 626q0 -294 236 -294 q116 0 176 74t60 220q0 292 -236 292t-236 -292z" />
<glyph unicode="&#xa5;" horiz-adv-x="1074" d="M26 1448h254l262 -720l254 720h252l-326 -772h204v-160h-272v-138h272v-162h-272v-216h-236v216h-274v162h274v138h-274v160h206z" />
<glyph unicode="&#xa6;" horiz-adv-x="512" d="M168 396h176v-896h-176v896zM168 738v894h176v-894h-176z" />
<glyph unicode="&#xa7;" horiz-adv-x="1068" d="M114 -322l82 198q200 -92 334 -92q192 0 192 172q0 70 -36 111t-128 67l-124 34q-166 46 -243 134t-77 232q0 166 100 288q-88 90 -88 248q0 190 112 296t318 106q92 0 186 -21t174 -59l-84 -192q-160 62 -280 62q-100 0 -149 -43t-49 -131q0 -74 36 -114t124 -64 l124 -34q164 -46 240 -134t76 -234q0 -164 -98 -284q94 -92 94 -254q0 -188 -110 -292t-310 -104q-102 0 -212 27t-204 77zM330 576q0 -80 43 -126t145 -76l124 -36l52 -18q44 68 44 150q0 80 -41 125t-141 75l-124 36l-56 18q-46 -64 -46 -148z" />
<glyph unicode="&#xa8;" horiz-adv-x="1000" d="M176 1366q0 64 34 99t98 35q62 0 97 -36t35 -96q0 -62 -34 -97t-98 -35q-62 0 -97 35t-35 95zM560 1366q0 64 34 99t98 35q62 0 97 -36t35 -96q0 -62 -34 -97t-98 -35q-62 0 -97 35t-35 95z" />
<glyph unicode="&#xa9;" horiz-adv-x="1672" d="M162 724q0 236 81 405t233 257t360 88q206 0 358 -89t234 -257t82 -404t-82 -404t-234 -257t-358 -89q-208 0 -360 88t-233 257t-81 405zM310 724q0 -288 138 -446t388 -158t388 158t138 446q0 290 -138 447t-388 157t-388 -157t-138 -447zM538 718q0 178 85 276t239 98 q62 0 118 -16t96 -44l-64 -132q-90 40 -152 40q-152 0 -152 -214q0 -218 168 -218q70 0 150 40l58 -130q-38 -28 -95 -45t-121 -17q-156 0 -243 95t-87 267z" />
<glyph unicode="&#xaa;" horiz-adv-x="1036" d="M122 842q0 150 125 217t405 67v36q0 118 -168 118q-106 0 -232 -48l-54 156q72 36 155 54t163 18q160 0 249 -68t89 -192v-550q-74 -38 -168 -58t-194 -20q-176 0 -273 71t-97 199zM178 220v170h658v-170h-658zM324 850q0 -106 168 -106q100 0 160 20v224 q-174 2 -251 -31t-77 -107z" />
<glyph unicode="&#xab;" horiz-adv-x="1202" d="M48 578l464 532l144 -138l-346 -390l346 -398l-146 -138zM540 578l464 532l144 -138l-346 -390l346 -398l-146 -138z" />
<glyph unicode="&#xac;" horiz-adv-x="1154" d="M118 798v212h918v-212v-338h-218v338h-700z" />
<glyph unicode="&#xad;" horiz-adv-x="822" d="M88 506v188h646v-188h-646z" />
<glyph unicode="&#xae;" horiz-adv-x="1672" d="M162 724q0 236 81 405t233 257t360 88q206 0 358 -89t234 -257t82 -404t-82 -404t-234 -257t-358 -89q-208 0 -360 88t-233 257t-81 405zM310 724q0 -288 138 -446t388 -158t388 158t138 446q0 290 -138 447t-388 157t-388 -157t-138 -447zM598 368v712h256 q114 0 178 -65t64 -181q0 -78 -29 -134t-85 -84l144 -248h-178l-116 220h-80v-220h-154zM752 720h94q88 0 88 110q0 112 -90 112h-92v-222z" />
<glyph unicode="&#xaf;" horiz-adv-x="1000" d="M184 1274v166h632v-166h-632z" />
<glyph unicode="&#xb0;" horiz-adv-x="908" d="M86 1104q0 108 46 192t130 130t192 46t192 -46t130 -130t46 -192t-46 -192t-130 -131t-192 -47t-192 47t-130 131t-46 192zM288 1104q0 -78 46 -127t120 -49t120 49t46 127t-46 126t-120 48t-120 -48t-46 -126z" />
<glyph unicode="&#xb1;" horiz-adv-x="1154" d="M90 128v206h974v-206h-974zM90 808v210h378v360h218v-360h378v-210h-378v-358h-218v358h-378z" />
<glyph unicode="&#xb2;" horiz-adv-x="762" d="M38 1444q158 110 330 110q138 0 215 -69t77 -193q0 -74 -33 -132t-123 -146l-214 -204h382v-162h-620v162l316 314q58 54 77 86t19 70q0 100 -116 100q-104 0 -226 -80z" />
<glyph unicode="&#xb3;" horiz-adv-x="810" d="M38 722l70 150q122 -64 236 -64q158 0 158 122q0 60 -36 90t-112 30q-50 0 -100 -12l-70 96l258 244h-374v162h598v-164l-208 -180q118 -16 181 -86t63 -184q0 -138 -94 -215t-264 -77q-176 0 -306 88z" />
<glyph unicode="&#xb4;" horiz-adv-x="1000" d="M366 1230v20l194 318h250v-20l-264 -318h-180z" />
<glyph unicode="&#xb5;" horiz-adv-x="1180" d="M156 -414v958v542h236v-722q0 -84 46 -128t130 -44q66 0 119 25t101 77v792h236v-1086h-214v146q-108 -160 -294 -160q-74 0 -124 26v-426h-236z" />
<glyph unicode="&#xb6;" horiz-adv-x="1150" d="M46 1032q0 198 124 307t348 109h464v-1448h-174v1282h-146v-1282h-170v620q-212 2 -329 111t-117 301z" />
<glyph unicode="&#xb7;" horiz-adv-x="520" d="M108 674q0 70 40 109t112 39t112 -39t40 -107q0 -70 -40 -109t-112 -39t-112 39t-40 107z" />
<glyph unicode="&#xb8;" horiz-adv-x="1000" d="M258 -422l38 114q98 -36 172 -36q48 0 74 17t26 49q0 64 -90 64q-44 0 -80 -14l-56 62l86 206l158 -12l-96 -136q28 4 42 4q104 0 162 -44t58 -124q0 -96 -69 -148t-195 -52t-230 50z" />
<glyph unicode="&#xb9;" horiz-adv-x="704" d="M38 1434l278 106h160v-892h-190v702l-196 -66z" />
<glyph unicode="&#xba;" horiz-adv-x="1048" d="M128 1016q0 220 104 333t294 113q188 0 291 -113t103 -333t-103 -333t-293 -113t-293 113t-103 333zM196 220v170h658v-170h-658zM334 1016q0 -270 190 -270t190 270t-188 270q-192 0 -192 -270z" />
<glyph unicode="&#xbb;" horiz-adv-x="1202" d="M54 186l346 392l-346 396l146 138l462 -532l-464 -532zM546 186l346 392l-346 396l146 138l462 -532l-464 -532z" />
<glyph unicode="&#xbc;" horiz-adv-x="1860" d="M38 1342l278 106h160v-892h-190v704l-196 -68zM418 46l818 1446l156 -90l-818 -1446zM1108 154v160l330 578h268v-578h106v-160h-106v-154h-186v154h-412zM1306 314h214v412z" />
<glyph unicode="&#xbd;" horiz-adv-x="1942" d="M38 1342l278 106h160v-892h-190v704l-196 -68zM418 46l818 1446l156 -90l-818 -1446zM1222 796q158 110 330 110q138 0 215 -68t77 -194q0 -72 -33 -132t-123 -144l-214 -206h382v-162h-620v162l316 314q58 54 77 86t19 70q0 100 -116 100q-102 0 -226 -78z" />
<glyph unicode="&#xbe;" horiz-adv-x="2002" d="M38 630l70 150q122 -64 236 -64q158 0 158 122q0 60 -36 90t-112 30q-50 0 -100 -12l-70 96l256 244h-372v162h598v-164l-206 -178q116 -16 179 -87t63 -183q0 -140 -94 -217t-264 -77q-176 0 -306 88zM560 46l818 1446l156 -90l-818 -1446zM1250 154v160l330 578h268 v-578h106v-160h-106v-154h-186v154h-412zM1448 314h214v412z" />
<glyph unicode="&#xbf;" horiz-adv-x="940" d="M104 -34q0 100 44 172t160 160q100 78 134 127t34 119q0 32 -6 100h218q6 -74 6 -106q0 -118 -44 -195t-160 -169q-82 -64 -110 -105t-28 -95q0 -158 192 -158q146 0 316 100l96 -194q-90 -62 -202 -95t-228 -33q-200 0 -311 98t-111 274zM426 946q0 70 40 109t112 39 t112 -39t40 -107q0 -70 -40 -109t-112 -39t-112 39t-40 107z" />
<glyph unicode="&#xc0;" horiz-adv-x="1338" d="M40 0l498 1448h262l498 -1448h-254l-104 336h-544l-104 -336h-252zM278 1828v24h270l276 -266v-24h-200zM460 546h414l-208 668z" />
<glyph unicode="&#xc1;" horiz-adv-x="1338" d="M40 0l498 1448h262l498 -1448h-254l-104 336h-544l-104 -336h-252zM460 546h414l-208 668zM510 1562v24l294 266h270v-24l-364 -266h-200z" />
<glyph unicode="&#xc2;" horiz-adv-x="1338" d="M40 0l498 1448h262l498 -1448h-254l-104 336h-544l-104 -336h-252zM318 1562v24l234 266h232l234 -266v-24h-178l-176 162l-172 -162h-174zM460 546h414l-208 668z" />
<glyph unicode="&#xc3;" horiz-adv-x="1338" d="M40 0l498 1448h262l498 -1448h-254l-104 336h-544l-104 -336h-252zM310 1576q4 136 61 211t155 75q54 0 94 -19t90 -53q32 -24 55 -35t45 -11q68 0 80 114h136q-4 -136 -61 -211t-155 -75q-54 0 -92 18t-92 54q-30 24 -53 36t-47 12q-68 0 -80 -116h-136zM460 546h414 l-208 668z" />
<glyph unicode="&#xc4;" horiz-adv-x="1338" d="M40 0l498 1448h262l498 -1448h-254l-104 336h-544l-104 -336h-252zM334 1690q0 64 35 98t97 34t97 -35t35 -95q0 -62 -35 -97t-97 -35t-97 35t-35 95zM460 546h414l-208 668zM740 1690q0 64 35 98t97 34t97 -35t35 -95q0 -62 -35 -97t-97 -35t-97 35t-35 95z" />
<glyph unicode="&#xc5;" horiz-adv-x="1338" d="M40 0l498 1448h262l498 -1448h-254l-104 336h-544l-104 -336h-252zM406 1764q0 110 69 171t193 61t193 -61t69 -171t-69 -171t-193 -61t-193 61t-69 171zM460 546h414l-208 668zM558 1764q0 -112 110 -112t110 112t-110 112t-110 -112z" />
<glyph unicode="&#xc6;" horiz-adv-x="1844" d="M-10 0l752 1448h240h768v-214h-624v-386h454v-216h-454v-418h650v-214h-882v318h-486l-162 -318h-256zM514 528h380v744z" />
<glyph unicode="&#xc7;" horiz-adv-x="1204" d="M86 694q0 238 79 414t226 271t345 95q108 0 211 -29t183 -81l-82 -186q-158 78 -316 78q-190 0 -294 -142t-104 -402q0 -256 107 -386t317 -130q180 0 302 70l82 -182q-62 -50 -165 -78t-223 -30l-60 -84q28 4 42 4q104 0 162 -44t58 -124q0 -96 -69 -148t-195 -52 q-130 0 -230 50l38 114q100 -36 170 -36q50 0 76 17t26 49q0 64 -90 64q-44 0 -80 -14l-56 62l64 152q-250 40 -387 223t-137 485z" />
<glyph unicode="&#xc8;" horiz-adv-x="1154" d="M168 0v1448h890v-214h-650v-386h480v-216h-480v-418h676v-214h-916zM224 1828v24h270l276 -266v-24h-200z" />
<glyph unicode="&#xc9;" horiz-adv-x="1154" d="M168 0v1448h890v-214h-650v-386h480v-216h-480v-418h676v-214h-916zM456 1562v24l294 266h270v-24l-364 -266h-200z" />
<glyph unicode="&#xca;" horiz-adv-x="1154" d="M168 0v1448h890v-214h-650v-386h480v-216h-480v-418h676v-214h-916zM264 1562v24l234 266h232l234 -266v-24h-178l-176 162l-172 -162h-174z" />
<glyph unicode="&#xcb;" horiz-adv-x="1154" d="M168 0v1448h890v-214h-650v-386h480v-216h-480v-418h676v-214h-916zM280 1690q0 64 35 98t97 34t97 -35t35 -95q0 -62 -35 -97t-97 -35t-97 35t-35 95zM686 1690q0 64 35 98t97 34t97 -35t35 -95q0 -62 -35 -97t-97 -35t-97 35t-35 95z" />
<glyph unicode="&#xcc;" horiz-adv-x="582" d="M-98 1828v24h270l276 -266v-24h-200zM172 0v1448h240v-1448h-240z" />
<glyph unicode="&#xcd;" horiz-adv-x="582" d="M134 1562v24l294 266h270v-24l-364 -266h-200zM172 0v1448h240v-1448h-240z" />
<glyph unicode="&#xce;" horiz-adv-x="582" d="M-58 1562v24l234 266h232l234 -266v-24h-178l-176 162l-172 -162h-174zM172 0v1448h240v-1448h-240z" />
<glyph unicode="&#xcf;" horiz-adv-x="582" d="M-42 1690q0 64 35 98t97 34t97 -35t35 -95q0 -62 -35 -97t-97 -35t-97 35t-35 95zM172 0v1448h240v-1448h-240zM364 1690q0 64 35 98t97 34t97 -35t35 -95q0 -62 -35 -97t-97 -35t-97 35t-35 95z" />
<glyph unicode="&#xd0;" horiz-adv-x="1384" d="M38 640v186h130v622h454q320 0 489 -182t169 -540q0 -360 -169 -543t-491 -183h-452v640h-130zM408 214h208q416 0 416 512q0 508 -416 508h-208v-408h328v-186h-328v-426z" />
<glyph unicode="&#xd1;" horiz-adv-x="1450" d="M168 0v1448h230l648 -1040v1040h236v-1448h-230l-648 1042v-1042h-236zM366 1576q4 136 61 211t155 75q54 0 94 -19t90 -53q32 -24 55 -35t45 -11q68 0 80 114h136q-4 -136 -61 -211t-155 -75q-54 0 -92 18t-92 54q-30 24 -53 36t-47 12q-68 0 -80 -116h-136z" />
<glyph unicode="&#xd2;" horiz-adv-x="1430" d="M106 724q0 372 156 561t452 189t453 -189t157 -561t-157 -561t-453 -189t-452 189t-156 561zM324 1828v24h270l276 -266v-24h-200zM354 724q0 -536 360 -536q362 0 362 536t-362 536q-360 0 -360 -536z" />
<glyph unicode="&#xd3;" horiz-adv-x="1430" d="M106 724q0 372 156 561t452 189t453 -189t157 -561t-157 -561t-453 -189t-452 189t-156 561zM354 724q0 -536 360 -536q362 0 362 536t-362 536q-360 0 -360 -536zM556 1562v24l294 266h270v-24l-364 -266h-200z" />
<glyph unicode="&#xd4;" horiz-adv-x="1430" d="M106 724q0 372 156 561t452 189t453 -189t157 -561t-157 -561t-453 -189t-452 189t-156 561zM354 724q0 -536 360 -536q362 0 362 536t-362 536q-360 0 -360 -536zM364 1562v24l234 266h232l234 -266v-24h-178l-176 162l-172 -162h-174z" />
<glyph unicode="&#xd5;" horiz-adv-x="1430" d="M106 724q0 372 156 561t452 189t453 -189t157 -561t-157 -561t-453 -189t-452 189t-156 561zM354 724q0 -536 360 -536q362 0 362 536t-362 536q-360 0 -360 -536zM356 1576q4 136 61 211t155 75q54 0 94 -19t90 -53q32 -24 55 -35t45 -11q68 0 80 114h136 q-4 -136 -61 -211t-155 -75q-54 0 -92 18t-92 54q-30 24 -53 36t-47 12q-68 0 -80 -116h-136z" />
<glyph unicode="&#xd6;" horiz-adv-x="1430" d="M106 724q0 372 156 561t452 189t453 -189t157 -561t-157 -561t-453 -189t-452 189t-156 561zM354 724q0 -536 360 -536q362 0 362 536t-362 536q-360 0 -360 -536zM380 1690q0 64 35 98t97 34t97 -35t35 -95q0 -62 -35 -97t-97 -35t-97 35t-35 95zM786 1690q0 64 35 98 t97 34t97 -35t35 -95q0 -62 -35 -97t-97 -35t-97 35t-35 95z" />
<glyph unicode="&#xd7;" horiz-adv-x="1154" d="M128 418l302 318l-302 318l148 152l300 -316l302 316l148 -152l-302 -318l302 -318l-148 -152l-302 316l-300 -316z" />
<glyph unicode="&#xd8;" horiz-adv-x="1430" d="M46 2l178 222q-118 188 -118 500q0 372 156 561t452 189q236 0 386 -128l92 122h192v-22l-178 -222q118 -188 118 -500q0 -372 -157 -561t-453 -189q-234 0 -384 128l-92 -122h-192v22zM346 724q0 -180 36 -300l586 750q-90 92 -254 92q-368 0 -368 -542zM462 274 q90 -92 252 -92q370 0 370 542q0 180 -36 300z" />
<glyph unicode="&#xd9;" horiz-adv-x="1374" d="M158 502v946h240v-932q0 -328 288 -328q290 0 290 328v932h240v-946q0 -252 -139 -390t-393 -138q-250 0 -388 138t-138 390zM296 1828v24h270l276 -266v-24h-200z" />
<glyph unicode="&#xda;" horiz-adv-x="1374" d="M158 502v946h240v-932q0 -328 288 -328q290 0 290 328v932h240v-946q0 -252 -139 -390t-393 -138q-250 0 -388 138t-138 390zM528 1562v24l294 266h270v-24l-364 -266h-200z" />
<glyph unicode="&#xdb;" horiz-adv-x="1374" d="M158 502v946h240v-932q0 -328 288 -328q290 0 290 328v932h240v-946q0 -252 -139 -390t-393 -138q-250 0 -388 138t-138 390zM336 1562v24l234 266h232l234 -266v-24h-178l-176 162l-172 -162h-174z" />
<glyph unicode="&#xdc;" horiz-adv-x="1374" d="M158 502v946h240v-932q0 -328 288 -328q290 0 290 328v932h240v-946q0 -252 -139 -390t-393 -138q-250 0 -388 138t-138 390zM352 1690q0 64 35 98t97 34t97 -35t35 -95q0 -62 -35 -97t-97 -35t-97 35t-35 95zM758 1690q0 64 35 98t97 34t97 -35t35 -95q0 -62 -35 -97 t-97 -35t-97 35t-35 95z" />
<glyph unicode="&#xdd;" horiz-adv-x="1178" d="M32 1448h258l302 -696l298 696h256l-440 -958v-490h-240v490zM428 1562v24l294 266h270v-24l-364 -266h-200z" />
<glyph unicode="&#xde;" horiz-adv-x="1232" d="M168 0v1448h240v-228h274q226 0 350 -125t124 -353q0 -230 -127 -357t-357 -125h-264v-260h-240zM408 474h274q226 0 226 264q0 268 -236 268h-264v-532z" />
<glyph unicode="&#xdf;" horiz-adv-x="1204" d="M156 0v1102q0 222 114 344t320 122q188 0 292 -96t104 -272q0 -232 -196 -350q172 -40 259 -149t87 -283q0 -206 -116 -319t-328 -113q-104 0 -192 28l42 192q72 -20 150 -20q218 0 218 214q0 280 -366 304v180q116 52 168 123t52 171q0 182 -168 182q-204 0 -204 -258 v-1102h-236z" />
<glyph unicode="&#xe0;" horiz-adv-x="1068" d="M62 304q0 194 151 285t479 93v50q0 168 -218 168q-128 0 -254 -56l-60 184q174 84 354 84q194 0 303 -92t109 -262v-758h-212v152q-102 -174 -322 -174q-158 0 -244 86t-86 240zM226 1548v20h250l178 -318v-20h-180zM290 322q0 -142 160 -142q142 0 242 112v228 q-210 -4 -306 -51t-96 -147z" />
<glyph unicode="&#xe1;" horiz-adv-x="1068" d="M62 304q0 194 151 285t479 93v50q0 168 -218 168q-128 0 -254 -56l-60 184q174 84 354 84q194 0 303 -92t109 -262v-758h-212v152q-102 -174 -322 -174q-158 0 -244 86t-86 240zM290 322q0 -142 160 -142q142 0 242 112v228q-210 -4 -306 -51t-96 -147zM378 1230v20 l194 318h250v-20l-264 -318h-180z" />
<glyph unicode="&#xe2;" horiz-adv-x="1068" d="M62 304q0 194 151 285t479 93v50q0 168 -218 168q-128 0 -254 -56l-60 184q174 84 354 84q194 0 303 -92t109 -262v-758h-212v152q-102 -174 -322 -174q-158 0 -244 86t-86 240zM198 1230v20l204 318h220l204 -318v-20h-168l-150 190l-150 -190h-160zM290 322 q0 -142 160 -142q142 0 242 112v228q-210 -4 -306 -51t-96 -147z" />
<glyph unicode="&#xe3;" horiz-adv-x="1068" d="M62 304q0 194 151 285t479 93v50q0 168 -218 168q-128 0 -254 -56l-60 184q174 84 354 84q194 0 303 -92t109 -262v-758h-212v152q-102 -174 -322 -174q-158 0 -244 86t-86 240zM154 1236q4 136 61 211t155 75q54 0 94 -19t90 -53q32 -24 55 -35t45 -11q68 0 80 114h136 q-4 -136 -61 -211t-155 -75q-54 0 -92 18t-92 54q-30 24 -53 36t-47 12q-68 0 -80 -116h-136zM290 322q0 -142 160 -142q142 0 242 112v228q-210 -4 -306 -51t-96 -147z" />
<glyph unicode="&#xe4;" horiz-adv-x="1068" d="M62 304q0 194 151 285t479 93v50q0 168 -218 168q-128 0 -254 -56l-60 184q174 84 354 84q194 0 303 -92t109 -262v-758h-212v152q-102 -174 -322 -174q-158 0 -244 86t-86 240zM188 1366q0 64 35 98t97 34t97 -35t35 -95q0 -62 -35 -97t-97 -35t-97 35t-35 95zM290 322 q0 -142 160 -142q142 0 242 112v228q-210 -4 -306 -51t-96 -147zM572 1366q0 64 35 98t97 34t97 -35t35 -95q0 -62 -35 -97t-97 -35t-97 35t-35 95z" />
<glyph unicode="&#xe5;" horiz-adv-x="1068" d="M62 304q0 194 151 285t479 93v50q0 168 -218 168q-128 0 -254 -56l-60 184q174 84 354 84q194 0 303 -92t109 -262v-758h-212v152q-102 -174 -322 -174q-158 0 -244 86t-86 240zM252 1434q0 110 68 171t192 61t192 -61t68 -171t-69 -171t-191 -61t-191 61t-69 171z M290 322q0 -142 160 -142q142 0 242 112v228q-210 -4 -306 -51t-96 -147zM402 1434q0 -114 110 -114t110 114t-110 114t-110 -114z" />
<glyph unicode="&#xe6;" horiz-adv-x="1656" d="M62 298q0 190 147 278t469 92v64q0 168 -212 168q-122 0 -246 -56l-60 184q174 84 348 84q214 0 308 -140q52 68 133 104t181 36q214 0 332 -137t118 -387q0 -62 -10 -118h-664q28 -280 284 -280q126 0 260 70l84 -178q-74 -50 -171 -78t-197 -28q-136 0 -238 51 t-164 151q-84 -104 -176 -152t-204 -48q-152 0 -237 84t-85 236zM290 316q0 -136 154 -136q148 0 258 140q-26 88 -28 186q-200 -2 -292 -48t-92 -142zM906 636h438q-2 128 -60 198t-158 70q-192 0 -220 -268z" />
<glyph unicode="&#xe7;" horiz-adv-x="964" d="M80 532q0 174 62 305t176 203t264 72q88 0 173 -25t149 -71l-86 -184q-134 64 -240 64q-122 0 -189 -92t-67 -258q0 -354 282 -354q112 0 230 62l82 -182q-130 -96 -324 -96h-8l-60 -84q28 4 42 4q104 0 162 -44t58 -124q0 -96 -69 -148t-195 -52q-130 0 -230 50l38 114 q100 -36 170 -36q50 0 76 17t26 49q0 64 -90 64q-44 0 -80 -14l-56 62l66 158q-174 42 -268 181t-94 359z" />
<glyph unicode="&#xe8;" horiz-adv-x="1088" d="M84 542q0 272 124 421t348 149q216 0 336 -138t120 -386q0 -62 -10 -118h-680q30 -280 292 -280q142 0 266 70l86 -178q-74 -50 -173 -78t-203 -28q-242 0 -374 149t-132 417zM268 1548v20h250l178 -318v-20h-180zM324 636h452q-4 128 -63 198t-163 70q-198 0 -226 -268z " />
<glyph unicode="&#xe9;" horiz-adv-x="1088" d="M84 542q0 272 124 421t348 149q216 0 336 -138t120 -386q0 -62 -10 -118h-680q30 -280 292 -280q142 0 266 70l86 -178q-74 -50 -173 -78t-203 -28q-242 0 -374 149t-132 417zM324 636h452q-4 128 -63 198t-163 70q-198 0 -226 -268zM420 1230v20l194 318h250v-20 l-264 -318h-180z" />
<glyph unicode="&#xea;" horiz-adv-x="1088" d="M84 542q0 272 124 421t348 149q216 0 336 -138t120 -386q0 -62 -10 -118h-680q30 -280 292 -280q142 0 266 70l86 -178q-74 -50 -173 -78t-203 -28q-242 0 -374 149t-132 417zM240 1230v20l204 318h220l204 -318v-20h-168l-150 190l-150 -190h-160zM324 636h452 q-4 128 -63 198t-163 70q-198 0 -226 -268z" />
<glyph unicode="&#xeb;" horiz-adv-x="1088" d="M84 542q0 272 124 421t348 149q216 0 336 -138t120 -386q0 -62 -10 -118h-680q30 -280 292 -280q142 0 266 70l86 -178q-74 -50 -173 -78t-203 -28q-242 0 -374 149t-132 417zM230 1366q0 64 35 98t97 34t97 -35t35 -95q0 -62 -35 -97t-97 -35t-97 35t-35 95zM324 636 h452q-4 128 -63 198t-163 70q-198 0 -226 -268zM614 1366q0 64 35 98t97 34t97 -35t35 -95q0 -62 -35 -97t-97 -35t-97 35t-35 95z" />
<glyph unicode="&#xec;" horiz-adv-x="556" d="M-8 1548v20h250l178 -318v-20h-180zM160 0v1086h236v-1086h-236z" />
<glyph unicode="&#xed;" horiz-adv-x="556" d="M144 1230v20l194 318h250v-20l-264 -318h-180zM160 0v1086h236v-1086h-236z" />
<glyph unicode="&#xee;" horiz-adv-x="556" d="M-36 1230v20l204 318h220l204 -318v-20h-168l-150 190l-150 -190h-160zM160 0v1086h236v-1086h-236z" />
<glyph unicode="&#xef;" horiz-adv-x="556" d="M-34 1366q0 62 34 97t94 35q62 0 96 -35t34 -95q0 -62 -34 -97t-96 -35q-60 0 -94 35t-34 95zM160 0v1086h236v-1086h-236zM332 1366q0 62 34 97t94 35q62 0 96 -35t34 -95q0 -62 -34 -97t-96 -35q-60 0 -94 35t-34 95z" />
<glyph unicode="&#xf0;" horiz-adv-x="1122" d="M78 524q0 260 117 401t331 141q150 0 236 -98q-70 172 -222 292l-238 -146l-72 126l188 98q-64 36 -150 68l-56 20l54 152l56 -20q152 -56 264 -122l206 128l72 -126l-156 -84q168 -134 247 -322t79 -446q0 -306 -120 -459t-358 -153q-230 0 -354 139t-124 411zM320 524 q0 -168 60 -254t176 -86q238 0 238 354q0 154 -62 240t-174 86q-238 0 -238 -340z" />
<glyph unicode="&#xf1;" horiz-adv-x="1172" d="M156 0v1086h214v-132q134 158 328 158q156 0 242 -93t86 -261v-758h-236v728q0 162 -178 162q-118 0 -220 -82v-808h-236zM234 1236q4 136 61 211t155 75q54 0 94 -19t90 -53q32 -24 55 -35t45 -11q68 0 80 114h136q-4 -136 -61 -211t-155 -75q-54 0 -92 18t-92 54 q-30 24 -53 36t-47 12q-68 0 -80 -116h-136z" />
<glyph unicode="&#xf2;" horiz-adv-x="1122" d="M88 542q0 280 123 425t351 145t350 -145t122 -425t-123 -424t-351 -144t-350 144t-122 424zM276 1548v20h250l178 -318v-20h-180zM330 542q0 -178 58 -268t172 -90q116 0 174 90t58 268q0 358 -230 358q-232 0 -232 -358z" />
<glyph unicode="&#xf3;" horiz-adv-x="1122" d="M88 542q0 280 123 425t351 145t350 -145t122 -425t-123 -424t-351 -144t-350 144t-122 424zM330 542q0 -178 58 -268t172 -90q116 0 174 90t58 268q0 358 -230 358q-232 0 -232 -358zM428 1230v20l194 318h250v-20l-264 -318h-180z" />
<glyph unicode="&#xf4;" horiz-adv-x="1122" d="M88 542q0 280 123 425t351 145t350 -145t122 -425t-123 -424t-351 -144t-350 144t-122 424zM248 1230v20l204 318h220l204 -318v-20h-168l-150 190l-150 -190h-160zM330 542q0 -178 58 -268t172 -90q116 0 174 90t58 268q0 358 -230 358q-232 0 -232 -358z" />
<glyph unicode="&#xf5;" horiz-adv-x="1122" d="M88 542q0 280 123 425t351 145t350 -145t122 -425t-123 -424t-351 -144t-350 144t-122 424zM204 1236q4 136 61 211t155 75q54 0 94 -19t90 -53q32 -24 55 -35t45 -11q68 0 80 114h136q-4 -136 -61 -211t-155 -75q-54 0 -92 18t-92 54q-30 24 -53 36t-47 12 q-68 0 -80 -116h-136zM330 542q0 -178 58 -268t172 -90q116 0 174 90t58 268q0 358 -230 358q-232 0 -232 -358z" />
<glyph unicode="&#xf6;" horiz-adv-x="1122" d="M88 542q0 280 123 425t351 145t350 -145t122 -425t-123 -424t-351 -144t-350 144t-122 424zM238 1366q0 64 35 98t97 34t97 -35t35 -95q0 -62 -35 -97t-97 -35t-97 35t-35 95zM330 542q0 -178 58 -268t172 -90q116 0 174 90t58 268q0 358 -230 358q-232 0 -232 -358z M622 1366q0 64 35 98t97 34t97 -35t35 -95q0 -62 -35 -97t-97 -35t-97 35t-35 95z" />
<glyph unicode="&#xf7;" horiz-adv-x="1154" d="M118 634v206h918v-206h-918zM440 354q0 62 39 100t99 38t99 -38t39 -100t-39 -101t-99 -39t-99 39t-39 101zM440 1118q0 62 39 101t99 39t99 -39t39 -101t-39 -100t-99 -38t-99 38t-39 100z" />
<glyph unicode="&#xf8;" horiz-adv-x="1122" d="M28 0l146 174q-86 144 -86 368q0 280 123 425t351 145q172 0 286 -90l60 84h186v-20l-146 -176q86 -142 86 -368q0 -280 -123 -424t-351 -144q-174 0 -286 88l-62 -82h-184v20zM320 542q0 -84 14 -168l384 480q-56 56 -156 56q-242 0 -242 -368zM404 230q56 -56 156 -56 q242 0 242 368q0 94 -16 168z" />
<glyph unicode="&#xf9;" horiz-adv-x="1156" d="M142 326v760h236v-728q0 -164 172 -164q62 0 113 24t101 76v792h236v-1086h-216v146q-118 -172 -322 -172q-152 0 -236 92t-84 260zM286 1548v20h250l178 -318v-20h-180z" />
<glyph unicode="&#xfa;" horiz-adv-x="1156" d="M142 326v760h236v-728q0 -164 172 -164q62 0 113 24t101 76v792h236v-1086h-216v146q-118 -172 -322 -172q-152 0 -236 92t-84 260zM438 1230v20l194 318h250v-20l-264 -318h-180z" />
<glyph unicode="&#xfb;" horiz-adv-x="1156" d="M142 326v760h236v-728q0 -164 172 -164q62 0 113 24t101 76v792h236v-1086h-216v146q-118 -172 -322 -172q-152 0 -236 92t-84 260zM258 1230v20l204 318h220l204 -318v-20h-168l-150 190l-150 -190h-160z" />
<glyph unicode="&#xfc;" horiz-adv-x="1156" d="M142 326v760h236v-728q0 -164 172 -164q62 0 113 24t101 76v792h236v-1086h-216v146q-118 -172 -322 -172q-152 0 -236 92t-84 260zM248 1366q0 64 35 98t97 34t97 -35t35 -95q0 -62 -35 -97t-97 -35t-97 35t-35 95zM632 1366q0 64 35 98t97 34t97 -35t35 -95 q0 -62 -35 -97t-97 -35t-97 35t-35 95z" />
<glyph unicode="&#xfd;" horiz-adv-x="1042" d="M38 1086h242l244 -832l240 832h240l-344 -1046q-58 -178 -187 -293t-349 -187l-80 200q140 50 223 105t133 133zM390 1230v20l194 318h250v-20l-264 -318h-180z" />
<glyph unicode="&#xfe;" horiz-adv-x="1158" d="M156 126v888v526h236v-570q102 142 282 142q188 0 292 -150t104 -420t-106 -419t-298 -149q-84 0 -154 30t-120 88v-506h-236v540zM392 286q42 -48 99 -74t119 -26q218 0 218 348q0 356 -228 356q-60 0 -109 -24t-99 -76v-504z" />
<glyph unicode="&#xff;" horiz-adv-x="1042" d="M38 1086h242l244 -832l240 832h240l-344 -1046q-58 -178 -187 -293t-349 -187l-80 200q140 50 223 105t133 133zM200 1366q0 64 35 98t97 34t97 -35t35 -95q0 -62 -35 -97t-97 -35t-97 35t-35 95zM584 1366q0 64 35 98t97 34t97 -35t35 -95q0 -62 -35 -97t-97 -35t-97 35 t-35 95z" />
<glyph unicode="&#x100;" horiz-adv-x="1338" d="M40 0l498 1448h262l498 -1448h-254l-104 336h-544l-104 -336h-252zM352 1614v166h632v-166h-632zM460 546h414l-208 668z" />
<glyph unicode="&#x101;" horiz-adv-x="1068" d="M62 304q0 194 151 285t479 93v50q0 168 -218 168q-128 0 -254 -56l-60 184q174 84 354 84q194 0 303 -92t109 -262v-758h-212v152q-102 -174 -322 -174q-158 0 -244 86t-86 240zM196 1274v166h632v-166h-632zM290 322q0 -142 160 -142q142 0 242 112v228 q-210 -4 -306 -51t-96 -147z" />
<glyph unicode="&#x102;" horiz-adv-x="1338" d="M40 0l498 1448h262l498 -1448h-254l-104 336h-544l-104 -336h-252zM356 1888h142q20 -150 172 -150t174 150h136q-6 -156 -87 -241t-225 -85t-225 85t-87 241zM460 546h414l-208 668z" />
<glyph unicode="&#x103;" horiz-adv-x="1068" d="M62 304q0 194 151 285t479 93v50q0 168 -218 168q-128 0 -254 -56l-60 184q174 84 354 84q194 0 303 -92t109 -262v-758h-212v152q-102 -174 -322 -174q-158 0 -244 86t-86 240zM200 1548h142q20 -150 172 -150t174 150h136q-6 -156 -87 -241t-225 -85t-225 85t-87 241z M290 322q0 -142 160 -142q142 0 242 112v228q-210 -4 -306 -51t-96 -147z" />
<glyph unicode="&#x104;" horiz-adv-x="1338" d="M40 0l498 1448h262l498 -1448q-168 -96 -168 -212q0 -82 94 -82q56 0 118 30l54 -128q-46 -28 -105 -44t-121 -16q-112 0 -174 52t-62 146q0 78 45 144t127 110h-62l-104 336h-544l-104 -336h-252zM460 546h414l-208 668z" />
<glyph unicode="&#x105;" horiz-adv-x="1068" d="M62 304q0 194 151 285t479 93v50q0 168 -218 168q-128 0 -254 -56l-60 184q174 84 354 84q194 0 303 -92t109 -262v-758q-168 -96 -168 -212q0 -82 94 -82q56 0 118 30l54 -128q-46 -28 -105 -44t-121 -16q-112 0 -174 52t-62 146q0 78 45 144t127 110h-18v158 q-62 -94 -140 -137t-184 -43q-158 0 -244 86t-86 240zM290 322q0 -142 160 -142q142 0 242 112v228q-210 -2 -306 -50t-96 -148z" />
<glyph unicode="&#x106;" horiz-adv-x="1204" d="M86 694q0 238 79 414t226 271t345 95q108 0 211 -29t183 -81l-82 -186q-158 78 -316 78q-190 0 -294 -142t-104 -402q0 -256 107 -386t317 -130q180 0 302 70l82 -182q-64 -50 -169 -79t-227 -29q-314 0 -487 189t-173 529zM546 1562v24l294 266h270v-24l-364 -266h-200z " />
<glyph unicode="&#x107;" horiz-adv-x="964" d="M80 532q0 174 62 305t176 203t264 72q88 0 173 -25t149 -71l-86 -184q-134 64 -240 64q-122 0 -189 -92t-67 -258q0 -354 282 -354q112 0 230 62l82 -182q-130 -96 -324 -96q-244 0 -378 146t-134 410zM398 1230v20l194 318h250v-20l-264 -318h-180z" />
<glyph unicode="&#x108;" horiz-adv-x="1204" d="M86 694q0 238 79 414t226 271t345 95q108 0 211 -29t183 -81l-82 -186q-158 78 -316 78q-190 0 -294 -142t-104 -402q0 -256 107 -386t317 -130q180 0 302 70l82 -182q-64 -50 -169 -79t-227 -29q-314 0 -487 189t-173 529zM354 1562v24l234 266h232l234 -266v-24h-178 l-176 162l-172 -162h-174z" />
<glyph unicode="&#x109;" horiz-adv-x="964" d="M80 532q0 174 62 305t176 203t264 72q88 0 173 -25t149 -71l-86 -184q-134 64 -240 64q-122 0 -189 -92t-67 -258q0 -354 282 -354q112 0 230 62l82 -182q-130 -96 -324 -96q-244 0 -378 146t-134 410zM218 1230v20l204 318h220l204 -318v-20h-168l-150 190l-150 -190 h-160z" />
<glyph unicode="&#x10a;" horiz-adv-x="1204" d="M86 694q0 238 79 414t226 271t345 95q108 0 211 -29t183 -81l-82 -186q-158 78 -316 78q-190 0 -294 -142t-104 -402q0 -256 107 -386t317 -130q180 0 302 70l82 -182q-64 -50 -169 -79t-227 -29q-314 0 -487 189t-173 529zM558 1706q0 68 38 105t108 37q68 0 107 -38 t39 -102q0 -68 -38 -105t-108 -37q-68 0 -107 38t-39 102z" />
<glyph unicode="&#x10b;" horiz-adv-x="964" d="M80 532q0 174 62 305t176 203t264 72q88 0 173 -25t149 -71l-86 -184q-134 64 -240 64q-122 0 -189 -92t-67 -258q0 -354 282 -354q112 0 230 62l82 -182q-130 -96 -324 -96q-244 0 -378 146t-134 410zM386 1382q0 68 38 105t108 37q68 0 107 -38t39 -102q0 -68 -38 -105 t-108 -37q-68 0 -107 38t-39 102z" />
<glyph unicode="&#x10c;" horiz-adv-x="1204" d="M86 694q0 238 79 414t226 271t345 95q108 0 211 -29t183 -81l-82 -186q-158 78 -316 78q-190 0 -294 -142t-104 -402q0 -256 107 -386t317 -130q180 0 302 70l82 -182q-64 -50 -169 -79t-227 -29q-314 0 -487 189t-173 529zM354 1828v24h180l174 -162l174 162h172v-24 l-234 -266h-232z" />
<glyph unicode="&#x10d;" horiz-adv-x="964" d="M80 532q0 174 62 305t176 203t264 72q88 0 173 -25t149 -71l-86 -184q-134 64 -240 64q-122 0 -189 -92t-67 -258q0 -354 282 -354q112 0 230 62l82 -182q-130 -96 -324 -96q-244 0 -378 146t-134 410zM218 1548v20h166l150 -190l150 190h162v-20l-204 -318h-220z" />
<glyph unicode="&#x10e;" horiz-adv-x="1384" d="M168 0v1448h452q322 0 490 -182t168 -540q0 -360 -169 -543t-491 -183h-450zM328 1828v24h180l174 -162l174 162h172v-24l-234 -266h-232zM408 214h208q206 0 310 129t104 383q0 508 -416 508h-206v-1020z" />
<glyph unicode="&#x10f;" horiz-adv-x="1158" d="M88 544q0 268 106 418t298 150q84 0 154 -30t120 -88v546h236v-580v-890v-70h-214v150q-104 -176 -304 -176q-188 0 -292 149t-104 421zM330 550q0 -356 228 -356q60 0 109 24t99 78v502q-42 48 -99 74t-119 26q-218 0 -218 -348zM1118 1092v448h200v-20l-64 -428h-136z " />
<glyph unicode="&#x110;" horiz-adv-x="1384" d="M38 640v186h130v622h452q322 0 490 -182t168 -540q0 -360 -169 -543t-491 -183h-450v640h-130zM408 214h208q206 0 310 129t104 383q0 508 -416 508h-206v-408h328v-186h-328v-426z" />
<glyph unicode="&#x111;" horiz-adv-x="1162" d="M88 526q0 262 107 407t301 145q84 0 154 -30t120 -88v262h-408v152h408v166h236v-166h128v-152h-128v-1222h-214v150q-104 -176 -304 -176q-190 0 -295 145t-105 407zM330 534q0 -340 232 -340q60 0 110 25t98 77v470q-42 48 -99 74t-119 26q-222 0 -222 -332z" />
<glyph unicode="&#x112;" horiz-adv-x="1154" d="M168 0v1448h890v-214h-650v-386h480v-216h-480v-418h676v-214h-916zM298 1614v166h632v-166h-632z" />
<glyph unicode="&#x113;" horiz-adv-x="1088" d="M84 542q0 272 124 421t348 149q216 0 336 -138t120 -386q0 -62 -10 -118h-680q30 -280 292 -280q142 0 266 70l86 -178q-74 -50 -173 -78t-203 -28q-242 0 -374 149t-132 417zM238 1274v166h632v-166h-632zM324 636h452q-4 128 -63 198t-163 70q-198 0 -226 -268z" />
<glyph unicode="&#x114;" horiz-adv-x="1154" d="M168 0v1448h890v-214h-650v-386h480v-216h-480v-418h676v-214h-916zM302 1888h142q22 -150 172 -150q154 0 174 150h136q-6 -156 -87 -241t-225 -85t-225 85t-87 241z" />
<glyph unicode="&#x115;" horiz-adv-x="1088" d="M84 542q0 272 124 421t348 149q216 0 336 -138t120 -386q0 -62 -10 -118h-680q30 -280 292 -280q142 0 266 70l86 -178q-74 -50 -173 -78t-203 -28q-242 0 -374 149t-132 417zM242 1548h142q20 -150 172 -150t174 150h136q-6 -156 -87 -241t-225 -85t-225 85t-87 241z M324 636h452q-4 128 -63 198t-163 70q-198 0 -226 -268z" />
<glyph unicode="&#x116;" horiz-adv-x="1154" d="M168 0v1448h890v-214h-650v-386h480v-216h-480v-418h676v-214h-916zM468 1706q0 68 38 105t108 37q68 0 107 -38t39 -102q0 -68 -38 -105t-108 -37q-68 0 -107 38t-39 102z" />
<glyph unicode="&#x117;" horiz-adv-x="1088" d="M84 542q0 272 124 421t348 149q216 0 336 -138t120 -386q0 -62 -10 -118h-680q30 -280 292 -280q142 0 266 70l86 -178q-74 -50 -173 -78t-203 -28q-242 0 -374 149t-132 417zM324 636h452q-4 128 -63 198t-163 70q-198 0 -226 -268zM408 1382q0 68 38 105t108 37 q68 0 107 -38t39 -102q0 -68 -38 -105t-108 -37q-68 0 -107 38t-39 102z" />
<glyph unicode="&#x118;" horiz-adv-x="1154" d="M168 0v1448h890v-214h-650v-386h480v-216h-480v-418h676v-214h2q-168 -96 -168 -212q0 -82 94 -82q56 0 118 30l54 -128q-46 -28 -105 -44t-121 -16q-112 0 -174 52t-62 146q0 78 45 144t127 110h-726z" />
<glyph unicode="&#x119;" horiz-adv-x="1088" d="M84 542q0 272 124 421t348 149q216 0 336 -138t120 -386q0 -62 -10 -118h-680q30 -280 292 -280q142 0 266 70l86 -178q-32 -20 -72 -40q-88 -46 -143 -116t-55 -138q0 -82 92 -82q56 0 120 30l54 -128q-44 -28 -104 -44t-122 -16q-112 0 -174 52t-62 146q0 66 32 126 t92 106q-12 -2 -34 -2q-242 0 -374 149t-132 417zM324 636h452q-4 128 -63 198t-163 70q-198 0 -226 -268z" />
<glyph unicode="&#x11a;" horiz-adv-x="1154" d="M168 0v1448h890v-214h-650v-386h480v-216h-480v-418h676v-214h-916zM264 1828v24h180l174 -162l174 162h172v-24l-234 -266h-232z" />
<glyph unicode="&#x11b;" horiz-adv-x="1088" d="M84 542q0 272 124 421t348 149q216 0 336 -138t120 -386q0 -62 -10 -118h-680q30 -280 292 -280q142 0 266 70l86 -178q-74 -50 -173 -78t-203 -28q-242 0 -374 149t-132 417zM240 1548v20h166l150 -190l150 190h162v-20l-204 -318h-220zM324 636h452q-4 128 -63 198 t-163 70q-198 0 -226 -268z" />
<glyph unicode="&#x11c;" horiz-adv-x="1336" d="M106 724q0 356 175 553t495 197q122 0 230 -28t184 -80l-72 -192q-180 84 -346 84q-418 0 -418 -534q0 -536 422 -536q98 0 192 26v382h-246v214h486v-726q-80 -52 -193 -81t-239 -29q-320 0 -495 197t-175 553zM370 1562v24l234 266h232l234 -266v-24h-178l-176 162 l-172 -162h-174z" />
<glyph unicode="&#x11d;" horiz-adv-x="1162" d="M88 574q0 256 107 397t301 141q94 0 171 -39t125 -109v122h214v-1056q0 -224 -128 -347t-362 -123q-92 0 -183 20t-161 56l68 190q128 -58 254 -58q276 0 276 262v148q-102 -144 -282 -144q-190 0 -295 142t-105 398zM260 1230v20l204 318h220l204 -318v-20h-168 l-150 190l-150 -190h-160zM330 580q0 -326 232 -326q60 0 110 25t98 77v442q-42 48 -99 74t-119 26q-222 0 -222 -318z" />
<glyph unicode="&#x11e;" horiz-adv-x="1336" d="M106 724q0 356 175 553t495 197q122 0 230 -28t184 -80l-72 -192q-180 84 -346 84q-418 0 -418 -534q0 -536 422 -536q98 0 192 26v382h-246v214h486v-726q-80 -52 -193 -81t-239 -29q-320 0 -495 197t-175 553zM408 1888h142q22 -150 172 -150q154 0 174 150h136 q-6 -156 -87 -241t-225 -85t-225 85t-87 241z" />
<glyph unicode="&#x11f;" horiz-adv-x="1162" d="M88 574q0 256 107 397t301 141q94 0 171 -39t125 -109v122h214v-1056q0 -224 -128 -347t-362 -123q-92 0 -183 20t-161 56l68 190q128 -58 254 -58q276 0 276 262v148q-102 -144 -282 -144q-190 0 -295 142t-105 398zM262 1548h142q20 -150 172 -150t174 150h136 q-6 -156 -87 -241t-225 -85t-225 85t-87 241zM330 580q0 -326 232 -326q60 0 110 25t98 77v442q-42 48 -99 74t-119 26q-222 0 -222 -318z" />
<glyph unicode="&#x120;" horiz-adv-x="1336" d="M106 724q0 356 175 553t495 197q122 0 230 -28t184 -80l-72 -192q-180 84 -346 84q-418 0 -418 -534q0 -536 422 -536q98 0 192 26v382h-246v214h486v-726q-80 -52 -193 -81t-239 -29q-320 0 -495 197t-175 553zM574 1706q0 68 38 105t108 37q68 0 107 -38t39 -102 q0 -68 -38 -105t-108 -37q-68 0 -107 38t-39 102z" />
<glyph unicode="&#x121;" horiz-adv-x="1162" d="M88 574q0 256 107 397t301 141q94 0 171 -39t125 -109v122h214v-1056q0 -224 -128 -347t-362 -123q-92 0 -183 20t-161 56l68 190q128 -58 254 -58q276 0 276 262v148q-102 -144 -282 -144q-190 0 -295 142t-105 398zM330 580q0 -326 232 -326q60 0 110 25t98 77v442 q-42 48 -99 74t-119 26q-222 0 -222 -318zM428 1382q0 68 38 105t108 37q68 0 107 -38t39 -102q0 -68 -38 -105t-108 -37q-68 0 -107 38t-39 102z" />
<glyph unicode="&#x122;" horiz-adv-x="1336" d="M106 724q0 356 175 553t495 197q122 0 230 -28t184 -80l-72 -192q-180 84 -346 84q-418 0 -418 -534q0 -536 422 -536q98 0 192 26v382h-246v214h486v-726q-80 -52 -193 -81t-239 -29q-320 0 -495 197t-175 553zM524 -476q50 56 70 110t20 134q0 54 -6 90h218 q8 -48 8 -88q0 -94 -53 -174t-171 -166z" />
<glyph unicode="&#x123;" horiz-adv-x="1162" d="M88 574q0 256 107 397t301 141q94 0 171 -39t125 -109v122h214v-1056q0 -224 -128 -347t-362 -123q-92 0 -183 20t-161 56l68 190q128 -58 254 -58q276 0 276 262v148q-102 -144 -282 -144q-190 0 -295 142t-105 398zM330 580q0 -326 232 -326q60 0 110 25t98 77v442 q-42 48 -99 74t-119 26q-222 0 -222 -318zM452 1304q0 94 53 174t171 166l86 -94q-50 -56 -70 -110t-20 -134q0 -54 6 -90h-218q-8 48 -8 88z" />
<glyph unicode="&#x124;" horiz-adv-x="1406" d="M168 0v1448h240v-606h590v606h240v-1448h-240v628h-590v-628h-240zM352 1562v24l234 266h232l234 -266v-24h-178l-176 162l-172 -162h-174z" />
<glyph unicode="&#x125;" horiz-adv-x="1176" d="M-76 1654v24l234 266h232l234 -266v-24h-178l-176 162l-172 -162h-174zM156 0v1540h236v-562q128 134 308 134q158 0 244 -93t86 -261v-758h-236v728q0 162 -180 162q-62 0 -116 -20t-106 -62v-808h-236z" />
<glyph unicode="&#x126;" horiz-adv-x="1406" d="M38 1046v182h130v220h240v-220h590v220h240v-220h130v-182h-130v-1046h-240v628h-590v-628h-240v1046h-130zM408 842h590v204h-590v-204z" />
<glyph unicode="&#x127;" horiz-adv-x="1180" d="M30 1216v164h126v160h236v-160h414v-164h-414v-274q128 134 310 134q158 0 245 -93t87 -261v-722h-236v692q0 162 -182 162q-64 0 -118 -20t-106 -62v-772h-236v1216h-126z" />
<glyph unicode="&#x128;" horiz-adv-x="582" d="M-38 1576q0 136 57 211t157 75q54 0 86 -19t66 -53q22 -24 40 -36t40 -12q72 0 80 116h134q0 -136 -56 -211t-158 -75q-54 0 -86 19t-66 55q-22 24 -40 36t-40 12q-72 0 -80 -118h-134zM172 0v1448h240v-1448h-240z" />
<glyph unicode="&#x129;" horiz-adv-x="556" d="M-52 1236q0 136 57 211t157 75q54 0 86 -19t66 -53q22 -24 40 -36t40 -12q72 0 80 116h134q0 -136 -56 -211t-158 -75q-54 0 -86 19t-66 55q-22 24 -40 36t-40 12q-72 0 -80 -118h-134zM160 0v1086h236v-1086h-236z" />
<glyph unicode="&#x12a;" horiz-adv-x="582" d="M-24 1614v166h632v-166h-632zM172 0v1448h240v-1448h-240z" />
<glyph unicode="&#x12b;" horiz-adv-x="556" d="M28 1274v166h500v-166h-500zM160 0v1086h236v-1086h-236z" />
<glyph unicode="&#x12c;" horiz-adv-x="582" d="M-20 1888h142q22 -150 172 -150q154 0 174 150h136q-6 -156 -87 -241t-225 -85t-225 85t-87 241zM172 0v1448h240v-1448h-240z" />
<glyph unicode="&#x12d;" horiz-adv-x="556" d="M-34 1548h142q20 -150 172 -150t174 150h136q-6 -156 -87 -241t-225 -85t-225 85t-87 241zM160 0v1086h236v-1086h-236z" />
<glyph unicode="&#x12e;" horiz-adv-x="582" d="M78 -254q0 76 39 142t111 112h-56v1448h240v-1448q-138 -104 -138 -212q0 -82 94 -82q56 0 118 30l54 -128q-46 -28 -104 -44t-120 -16q-112 0 -175 52t-63 146z" />
<glyph unicode="&#x12f;" horiz-adv-x="556" d="M64 -254q0 74 39 141t109 113h-52v1086h236v-1086q-136 -102 -136 -212q0 -82 92 -82q58 0 120 30l54 -128q-44 -28 -104 -44t-122 -16q-110 0 -173 52t-63 146zM132 1382q0 68 38 105t108 37q68 0 107 -38t39 -102q0 -68 -38 -105t-108 -37q-68 0 -107 38t-39 102z" />
<glyph unicode="&#x130;" horiz-adv-x="582" d="M146 1706q0 68 38 105t108 37q68 0 107 -38t39 -102q0 -68 -38 -105t-108 -37q-68 0 -107 38t-39 102zM172 0v1448h240v-1448h-240z" />
<glyph unicode="&#x131;" horiz-adv-x="556" d="M160 0v1086h236v-1086h-236z" />
<glyph unicode="&#x132;" horiz-adv-x="1354" d="M168 0v1448h240v-1448h-240zM546 40l76 200q122 -50 198 -50q162 0 162 194v1064h240v-1078q0 -188 -103 -292t-289 -104q-76 0 -150 17t-134 49z" />
<glyph unicode="&#x133;" horiz-adv-x="1112" d="M132 1382q0 68 38 105t108 37q68 0 107 -38t39 -102q0 -68 -38 -105t-108 -37q-68 0 -107 38t-39 102zM160 0v1086h236v-1086h-236zM434 -250q116 40 175 81t83 101t24 158v996h236v-1000q0 -152 -39 -247t-133 -160t-268 -123zM688 1382q0 68 38 105t108 37 q68 0 107 -38t39 -102q0 -68 -38 -105t-108 -37q-68 0 -107 38t-39 102z" />
<glyph unicode="&#x134;" horiz-adv-x="932" d="M6 80l86 184q136 -74 248 -74q196 0 196 194v1064h240v-1078q0 -188 -112 -292t-314 -104q-104 0 -193 28t-151 78zM306 1562v24l234 266h232l234 -266v-24h-178l-176 162l-172 -162h-174z" />
<glyph unicode="&#x135;" horiz-adv-x="556" d="M-122 -250q116 40 175 81t83 101t24 158v996h236v-1000q0 -152 -39 -247t-133 -160t-268 -123zM-36 1230v20l204 318h220l204 -318v-20h-168l-150 190l-150 -190h-160z" />
<glyph unicode="&#x136;" horiz-adv-x="1260" d="M168 0v1448h240v-722l552 722h286l-522 -640l554 -808h-286l-420 622l-164 -202v-420h-240zM490 -476q50 56 70 110t20 134q0 54 -6 90h218q8 -48 8 -88q0 -94 -53 -174t-171 -166z" />
<glyph unicode="&#x137;" horiz-adv-x="1114" d="M156 0v1540h236v-938l396 484h274l-392 -458l418 -628h-272l-298 452l-126 -146v-306h-236zM390 -476q50 56 70 110t20 134q0 54 -6 90h218q8 -48 8 -88q0 -94 -53 -174t-171 -166z" />
<glyph unicode="&#x138;" horiz-adv-x="1114" d="M156 0v1086h236v-484l396 484h274l-392 -458l418 -628h-272l-298 452l-126 -146v-306h-236z" />
<glyph unicode="&#x139;" horiz-adv-x="1060" d="M168 0v1448h240v-1232h600v-216h-840zM182 1562v24l296 266h270v-24l-364 -266h-202z" />
<glyph unicode="&#x13a;" horiz-adv-x="640" d="M112 1654v24l294 266h270v-24l-364 -266h-200zM152 262v1278h236v-1234q0 -56 24 -82t76 -26q30 0 74 6l16 -200q-72 -18 -152 -18q-274 0 -274 276z" />
<glyph unicode="&#x13b;" horiz-adv-x="1060" d="M168 0v1448h240v-1232h600v-216h-840zM406 -476q50 56 70 110t20 134q0 54 -6 90h218q8 -48 8 -88q0 -94 -53 -174t-171 -166z" />
<glyph unicode="&#x13c;" horiz-adv-x="640" d="M152 262v1278h236v-1234q0 -56 24 -82t76 -26q30 0 74 6l16 -200q-72 -18 -152 -18q-274 0 -274 276zM158 -476q50 56 70 110t20 134q0 54 -6 90h218q8 -48 8 -88q0 -94 -53 -174t-171 -166z" />
<glyph unicode="&#x13d;" horiz-adv-x="1060" d="M168 0v1448h240v-1232h600v-216h-840zM630 1092v448h200v-20l-64 -428h-136z" />
<glyph unicode="&#x13e;" horiz-adv-x="644" d="M152 262v1278h236v-1234q0 -56 24 -82t76 -26q30 0 74 6l16 -200q-72 -18 -152 -18q-274 0 -274 276zM522 1092v448h200v-20l-64 -428h-136z" />
<glyph unicode="&#x13f;" horiz-adv-x="1060" d="M168 0v1448h240v-1232h600v-216h-840zM658 812q0 68 38 105t108 37q68 0 107 -38t39 -102q0 -68 -38 -105t-108 -37q-68 0 -107 38t-39 102z" />
<glyph unicode="&#x140;" horiz-adv-x="780" d="M152 262v1278h236v-1234q0 -56 24 -82t76 -26q30 0 74 6l16 -200q-72 -18 -152 -18q-274 0 -274 276zM514 794q0 68 38 105t108 37q68 0 107 -38t39 -102q0 -68 -38 -105t-108 -37q-68 0 -107 38t-39 102z" />
<glyph unicode="&#x141;" horiz-adv-x="1068" d="M56 422v194l120 66v766h240v-630l386 228h20v-194l-406 -230v-406h600v-216h-840v484l-100 -62h-20z" />
<glyph unicode="&#x142;" horiz-adv-x="712" d="M42 538v190l158 96v716h236v-570l180 116h20v-190l-200 -122v-468q0 -56 24 -82t76 -26q30 0 74 6l16 -200q-72 -18 -152 -18q-274 0 -274 276v366l-138 -90h-20z" />
<glyph unicode="&#x143;" horiz-adv-x="1450" d="M168 0v1448h230l648 -1040v1040h236v-1448h-230l-648 1042v-1042h-236zM566 1562v24l294 266h270v-24l-364 -266h-200z" />
<glyph unicode="&#x144;" horiz-adv-x="1172" d="M156 0v1086h214v-132q134 158 328 158q156 0 242 -93t86 -261v-758h-236v728q0 162 -178 162q-118 0 -220 -82v-808h-236zM458 1230v20l194 318h250v-20l-264 -318h-180z" />
<glyph unicode="&#x145;" horiz-adv-x="1450" d="M168 0v1448h230l648 -1040v1040h236v-1448h-230l-648 1042v-1042h-236zM528 -476q50 56 70 110t20 134q0 54 -6 90h218q8 -48 8 -88q0 -94 -53 -174t-171 -166z" />
<glyph unicode="&#x146;" horiz-adv-x="1172" d="M156 0v1086h214v-132q134 158 328 158q156 0 242 -93t86 -261v-758h-236v728q0 162 -178 162q-118 0 -220 -82v-808h-236zM398 -476q50 56 70 110t20 134q0 54 -6 90h218q8 -48 8 -88q0 -94 -53 -174t-171 -166z" />
<glyph unicode="&#x147;" horiz-adv-x="1450" d="M168 0v1448h230l648 -1040v1040h236v-1448h-230l-648 1042v-1042h-236zM374 1828v24h180l174 -162l174 162h172v-24l-234 -266h-232z" />
<glyph unicode="&#x148;" horiz-adv-x="1172" d="M156 0v1086h214v-132q134 158 328 158q156 0 242 -93t86 -261v-758h-236v728q0 162 -178 162q-118 0 -220 -82v-808h-236zM278 1548v20h166l150 -190l150 190h162v-20l-204 -318h-220z" />
<glyph unicode="&#x149;" horiz-adv-x="1172" d="M-168 1138q64 68 91 135t27 161q0 62 -4 106h214q4 -44 4 -104q0 -110 -59 -203t-189 -187zM156 0v1086h214v-132q134 158 328 158q156 0 242 -93t86 -261v-758h-236v728q0 162 -178 162q-118 0 -220 -82v-808h-236z" />
<glyph unicode="&#x14a;" horiz-adv-x="1452" d="M168 0v1448h230l648 -1040v1040h236v-1448v-64q0 -178 -101 -277t-283 -99q-188 0 -306 98l86 180q114 -66 210 -66q158 0 158 178v60l-642 1032v-1042h-236z" />
<glyph unicode="&#x14b;" horiz-adv-x="1172" d="M156 0v1086h214v-132q134 158 328 158q156 0 242 -93t86 -261v-758v-104q0 -160 -86 -248t-242 -88q-144 0 -248 76l76 174q94 -42 156 -42q108 0 108 142v468v350q0 162 -178 162q-118 0 -220 -82v-808h-236z" />
<glyph unicode="&#x14c;" horiz-adv-x="1430" d="M106 724q0 372 156 561t452 189t453 -189t157 -561t-157 -561t-453 -189t-452 189t-156 561zM354 724q0 -536 360 -536q362 0 362 536t-362 536q-360 0 -360 -536zM398 1614v166h632v-166h-632z" />
<glyph unicode="&#x14d;" horiz-adv-x="1122" d="M88 542q0 280 123 425t351 145t350 -145t122 -425t-123 -424t-351 -144t-350 144t-122 424zM246 1274v166h632v-166h-632zM330 542q0 -178 58 -268t172 -90q116 0 174 90t58 268q0 358 -230 358q-232 0 -232 -358z" />
<glyph unicode="&#x14e;" horiz-adv-x="1430" d="M106 724q0 372 156 561t452 189t453 -189t157 -561t-157 -561t-453 -189t-452 189t-156 561zM354 724q0 -536 360 -536q362 0 362 536t-362 536q-360 0 -360 -536zM402 1888h142q22 -150 172 -150q154 0 174 150h136q-6 -156 -87 -241t-225 -85t-225 85t-87 241z" />
<glyph unicode="&#x14f;" horiz-adv-x="1122" d="M88 542q0 280 123 425t351 145t350 -145t122 -425t-123 -424t-351 -144t-350 144t-122 424zM250 1548h142q20 -150 172 -150t174 150h136q-6 -156 -87 -241t-225 -85t-225 85t-87 241zM330 542q0 -178 58 -268t172 -90q116 0 174 90t58 268q0 358 -230 358 q-232 0 -232 -358z" />
<glyph unicode="&#x150;" horiz-adv-x="1430" d="M106 724q0 372 156 561t452 189t453 -189t157 -561t-157 -561t-453 -189t-452 189t-156 561zM354 724q0 -536 360 -536q362 0 362 536t-362 536q-360 0 -360 -536zM424 1562v24l192 266h226v-24l-258 -266h-160zM756 1562v24l192 266h230v-24l-258 -266h-164z" />
<glyph unicode="&#x151;" horiz-adv-x="1122" d="M88 542q0 280 123 425t351 145t350 -145t122 -425t-123 -424t-351 -144t-350 144t-122 424zM310 1230v20l114 318h216v-20l-178 -318h-152zM330 542q0 -178 58 -268t172 -90q116 0 174 90t58 268q0 358 -230 358q-232 0 -232 -358zM612 1230v20l116 318h218v-20 l-182 -318h-152z" />
<glyph unicode="&#x152;" horiz-adv-x="1926" d="M106 724q0 358 156 541t452 183h338h778v-214h-622v-386h452v-216h-452v-418h648v-214h-882h-260q-296 0 -452 183t-156 541zM354 724q0 -254 91 -382t269 -128h260v1020h-260q-360 0 -360 -510z" />
<glyph unicode="&#x153;" horiz-adv-x="1762" d="M88 542q0 280 122 425t344 145q114 0 201 -44t145 -128q52 82 139 127t197 45q214 0 332 -137t118 -387q0 -62 -10 -118h-664q28 -280 284 -280q126 0 260 70l84 -178q-74 -50 -171 -78t-197 -28q-122 0 -217 42t-159 122q-116 -166 -344 -166q-222 0 -343 144t-121 424z M330 542q0 -358 222 -358q112 0 169 90t57 268q0 358 -224 358t-224 -358zM1012 636h438q-2 128 -60 198t-158 70q-192 0 -220 -268z" />
<glyph unicode="&#x154;" horiz-adv-x="1268" d="M168 0v1448h240h266q224 0 347 -122t123 -342q0 -168 -72 -280t-208 -158l364 -546h-288l-324 518h-208v-518h-240zM408 724h266q222 0 222 256t-230 256h-258v-512zM476 1562v24l294 266h270v-24l-364 -266h-200z" />
<glyph unicode="&#x155;" horiz-adv-x="808" d="M156 0v1086h214v-166q104 188 286 188q70 0 124 -26l-48 -224q-60 20 -130 20q-72 0 -122 -26t-88 -84v-768h-236zM334 1230v20l194 318h250v-20l-264 -318h-180z" />
<glyph unicode="&#x156;" horiz-adv-x="1268" d="M168 0v1448h240h266q224 0 347 -122t123 -342q0 -168 -72 -280t-208 -158l364 -546h-288l-324 518h-208v-518h-240zM408 724h266q222 0 222 256t-230 256h-258v-512zM476 -476q50 56 70 110t20 134q0 54 -6 90h218q8 -48 8 -88q0 -94 -53 -174t-171 -166z" />
<glyph unicode="&#x157;" horiz-adv-x="808" d="M78 -476q50 56 70 110t20 134q0 54 -6 90h218q8 -48 8 -88q0 -94 -53 -174t-171 -166zM156 0v1086h214v-166q104 188 286 188q70 0 124 -26l-48 -224q-60 20 -130 20q-72 0 -122 -26t-88 -84v-768h-236z" />
<glyph unicode="&#x158;" horiz-adv-x="1268" d="M168 0v1448h240h266q224 0 347 -122t123 -342q0 -168 -72 -280t-208 -158l364 -546h-288l-324 518h-208v-518h-240zM284 1828v24h180l174 -162l174 162h172v-24l-234 -266h-232zM408 724h266q222 0 222 256t-230 256h-258v-512z" />
<glyph unicode="&#x159;" horiz-adv-x="808" d="M154 1548v20h166l150 -190l150 190h162v-20l-204 -318h-220zM156 0v1086h214v-166q104 188 286 188q70 0 124 -26l-48 -224q-60 20 -130 20q-72 0 -122 -26t-88 -84v-768h-236z" />
<glyph unicode="&#x15a;" horiz-adv-x="1126" d="M68 102l78 192q190 -108 390 -108q134 0 202 50t68 146q0 80 -49 131t-155 79l-164 46q-186 52 -270 148t-84 256q0 202 126 316t352 114q108 0 223 -25t217 -71l-80 -192q-204 78 -364 78q-118 0 -180 -46t-62 -134q0 -80 50 -131t156 -79l164 -46q186 -52 270 -149 t84 -257q0 -210 -133 -327t-371 -117q-128 0 -251 33t-217 93zM380 1562v24l294 266h270v-24l-364 -266h-200z" />
<glyph unicode="&#x15b;" horiz-adv-x="938" d="M52 82l82 192q148 -90 312 -90q192 0 192 120q0 48 -33 78t-105 48l-142 34q-150 34 -219 107t-69 199q0 160 105 250t297 90q96 0 192 -24t174 -66l-90 -190q-140 72 -280 72q-172 0 -172 -110q0 -44 34 -73t106 -47l142 -34q152 -36 220 -110t68 -202q0 -166 -110 -258 t-310 -92q-110 0 -213 28t-181 78zM320 1230v20l194 318h250v-20l-264 -318h-180z" />
<glyph unicode="&#x15c;" horiz-adv-x="1126" d="M68 102l78 192q190 -108 390 -108q134 0 202 50t68 146q0 80 -49 131t-155 79l-164 46q-186 52 -270 148t-84 256q0 202 126 316t352 114q108 0 223 -25t217 -71l-80 -192q-204 78 -364 78q-118 0 -180 -46t-62 -134q0 -80 50 -131t156 -79l164 -46q186 -52 270 -149 t84 -257q0 -210 -133 -327t-371 -117q-128 0 -251 33t-217 93zM188 1562v24l234 266h232l234 -266v-24h-178l-176 162l-172 -162h-174z" />
<glyph unicode="&#x15d;" horiz-adv-x="938" d="M52 82l82 192q148 -90 312 -90q192 0 192 120q0 48 -33 78t-105 48l-142 34q-150 34 -219 107t-69 199q0 160 105 250t297 90q96 0 192 -24t174 -66l-90 -190q-140 72 -280 72q-172 0 -172 -110q0 -44 34 -73t106 -47l142 -34q152 -36 220 -110t68 -202q0 -166 -110 -258 t-310 -92q-110 0 -213 28t-181 78zM140 1230v20l204 318h220l204 -318v-20h-168l-150 190l-150 -190h-160z" />
<glyph unicode="&#x15e;" horiz-adv-x="1126" d="M68 102l78 192q190 -108 390 -108q134 0 202 50t68 146q0 80 -49 131t-155 79l-164 46q-186 52 -270 148t-84 256q0 202 126 316t352 114q108 0 223 -25t217 -71l-80 -192q-204 78 -364 78q-118 0 -180 -46t-62 -134q0 -80 50 -131t156 -79l164 -46q186 -52 270 -149 t84 -257q0 -192 -114 -308t-320 -134l-62 -86q28 4 42 4q104 0 162 -44t58 -124q0 -96 -69 -148t-195 -52q-130 0 -230 50l38 114q100 -36 170 -36q50 0 76 17t26 49q0 64 -90 64q-44 0 -80 -14l-56 62l60 146q-110 10 -210 41t-178 81z" />
<glyph unicode="&#x15f;" horiz-adv-x="938" d="M52 82l82 192q148 -90 312 -90q192 0 192 120q0 48 -33 78t-105 48l-142 34q-150 34 -219 107t-69 199q0 160 105 250t297 90q96 0 192 -24t174 -66l-90 -190q-140 72 -280 72q-172 0 -172 -110q0 -44 34 -73t106 -47l142 -34q152 -36 220 -110t68 -202q0 -152 -92 -242 t-260 -106l-62 -86q28 4 42 4q104 0 162 -44t58 -124q0 -96 -69 -148t-195 -52q-130 0 -230 50l38 114q100 -36 170 -36q50 0 76 17t26 49q0 64 -90 64q-44 0 -80 -14l-56 62l60 146q-188 20 -312 102z" />
<glyph unicode="&#x160;" horiz-adv-x="1126" d="M68 102l78 192q190 -108 390 -108q134 0 202 50t68 146q0 80 -49 131t-155 79l-164 46q-186 52 -270 148t-84 256q0 202 126 316t352 114q108 0 223 -25t217 -71l-80 -192q-204 78 -364 78q-118 0 -180 -46t-62 -134q0 -80 50 -131t156 -79l164 -46q186 -52 270 -149 t84 -257q0 -210 -133 -327t-371 -117q-128 0 -251 33t-217 93zM188 1828v24h180l174 -162l174 162h172v-24l-234 -266h-232z" />
<glyph unicode="&#x161;" horiz-adv-x="938" d="M52 82l82 192q148 -90 312 -90q192 0 192 120q0 48 -33 78t-105 48l-142 34q-150 34 -219 107t-69 199q0 160 105 250t297 90q96 0 192 -24t174 -66l-90 -190q-140 72 -280 72q-172 0 -172 -110q0 -44 34 -73t106 -47l142 -34q152 -36 220 -110t68 -202q0 -166 -110 -258 t-310 -92q-110 0 -213 28t-181 78zM140 1548v20h166l150 -190l150 190h162v-20l-204 -318h-220z" />
<glyph unicode="&#x162;" horiz-adv-x="1058" d="M42 1232v216h606h368v-216h-368v-1232h-54l-76 -108q28 4 42 4q104 0 162 -44t58 -124q0 -96 -69 -148t-195 -52q-130 0 -230 50l38 114q100 -36 170 -36q50 0 76 17t26 49q0 64 -90 64q-44 0 -80 -14l-56 62l70 166h-32v1232h-366z" />
<glyph unicode="&#x163;" horiz-adv-x="796" d="M28 882v204h172v302h236v-302h304v-204h-304v-504q0 -96 39 -139t127 -43q56 0 116 16l36 -200q-90 -28 -190 -28l-44 2l-66 -94q28 4 42 4q104 0 162 -44t58 -124q0 -96 -69 -148t-195 -52q-130 0 -230 50l38 114q100 -36 170 -36q50 0 76 17t26 49q0 64 -90 64 q-44 0 -80 -14l-56 62l76 182q-182 72 -182 322v544h-172z" />
<glyph unicode="&#x164;" horiz-adv-x="1058" d="M42 1232v216h606h368v-216h-368v-1232h-240v1232h-366zM178 1828v24h180l174 -162l174 162h172v-24l-234 -266h-232z" />
<glyph unicode="&#x165;" horiz-adv-x="796" d="M28 882v204h172v302h236v-302h304v-204h-304v-504q0 -96 39 -139t127 -43q56 0 116 16l36 -200q-90 -28 -190 -28q-364 0 -364 354v544h-172zM540 1188v352h202v-20l-50 -332h-152z" />
<glyph unicode="&#x166;" horiz-adv-x="1058" d="M42 1232v216h606h368v-216h-368v-456h244v-188h-244v-588h-240v588h-242v188h242v456h-366z" />
<glyph unicode="&#x167;" horiz-adv-x="796" d="M28 532v168h172v182h-172v204h172v302h236v-302h304v-204h-304v-182h304v-168h-304v-154q0 -96 39 -139t127 -43q56 0 116 16l36 -200q-90 -28 -190 -28q-364 0 -364 354v194h-172z" />
<glyph unicode="&#x168;" horiz-adv-x="1374" d="M158 502v946h240v-932q0 -328 288 -328q290 0 290 328v932h240v-946q0 -252 -139 -390t-393 -138q-250 0 -388 138t-138 390zM328 1576q4 136 61 211t155 75q54 0 94 -19t90 -53q32 -24 55 -35t45 -11q68 0 80 114h136q-4 -136 -61 -211t-155 -75q-54 0 -92 18t-92 54 q-30 24 -53 36t-47 12q-68 0 -80 -116h-136z" />
<glyph unicode="&#x169;" horiz-adv-x="1156" d="M142 326v760h236v-728q0 -164 172 -164q62 0 113 24t101 76v792h236v-1086h-216v146q-118 -172 -322 -172q-152 0 -236 92t-84 260zM214 1236q4 136 61 211t155 75q54 0 94 -19t90 -53q32 -24 55 -35t45 -11q68 0 80 114h136q-4 -136 -61 -211t-155 -75q-54 0 -92 18 t-92 54q-30 24 -53 36t-47 12q-68 0 -80 -116h-136z" />
<glyph unicode="&#x16a;" horiz-adv-x="1374" d="M158 502v946h240v-932q0 -328 288 -328q290 0 290 328v932h240v-946q0 -252 -139 -390t-393 -138q-250 0 -388 138t-138 390zM370 1614v166h632v-166h-632z" />
<glyph unicode="&#x16b;" horiz-adv-x="1156" d="M142 326v760h236v-728q0 -164 172 -164q62 0 113 24t101 76v792h236v-1086h-216v146q-118 -172 -322 -172q-152 0 -236 92t-84 260zM256 1274v166h632v-166h-632z" />
<glyph unicode="&#x16c;" horiz-adv-x="1374" d="M158 502v946h240v-932q0 -328 288 -328q290 0 290 328v932h240v-946q0 -252 -139 -390t-393 -138q-250 0 -388 138t-138 390zM374 1888h142q22 -150 172 -150q154 0 174 150h136q-6 -156 -87 -241t-225 -85t-225 85t-87 241z" />
<glyph unicode="&#x16d;" horiz-adv-x="1156" d="M142 326v760h236v-728q0 -164 172 -164q62 0 113 24t101 76v792h236v-1086h-216v146q-118 -172 -322 -172q-152 0 -236 92t-84 260zM260 1548h142q20 -150 172 -150t174 150h136q-6 -156 -87 -241t-225 -85t-225 85t-87 241z" />
<glyph unicode="&#x16e;" horiz-adv-x="1374" d="M158 502v946h240v-932q0 -328 288 -328q290 0 290 328v932h240v-946q0 -252 -139 -390t-393 -138q-250 0 -388 138t-138 390zM424 1764q0 110 69 171t193 61t193 -61t69 -171t-69 -171t-193 -61t-193 61t-69 171zM576 1764q0 -112 110 -112t110 112t-110 112t-110 -112z " />
<glyph unicode="&#x16f;" horiz-adv-x="1156" d="M142 326v760h236v-728q0 -164 172 -164q62 0 113 24t101 76v792h236v-1086h-216v146q-118 -172 -322 -172q-152 0 -236 92t-84 260zM312 1434q0 110 68 171t192 61t192 -61t68 -171t-69 -171t-191 -61t-191 61t-69 171zM462 1434q0 -114 110 -114t110 114t-110 114 t-110 -114z" />
<glyph unicode="&#x170;" horiz-adv-x="1374" d="M158 502v946h240v-932q0 -328 288 -328q290 0 290 328v932h240v-946q0 -252 -139 -390t-393 -138q-250 0 -388 138t-138 390zM396 1562v24l192 266h226v-24l-258 -266h-160zM728 1562v24l192 266h230v-24l-258 -266h-164z" />
<glyph unicode="&#x171;" horiz-adv-x="1156" d="M142 326v760h236v-728q0 -164 172 -164q62 0 113 24t101 76v792h236v-1086h-216v146q-118 -172 -322 -172q-152 0 -236 92t-84 260zM320 1230v20l114 318h216v-20l-178 -318h-152zM622 1230v20l116 318h218v-20l-182 -318h-152z" />
<glyph unicode="&#x172;" horiz-adv-x="1374" d="M158 502v946h240v-932q0 -328 286 -328q292 0 292 328v932h240v-946q0 -148 -46 -248t-156 -188l-54 -44q-68 -56 -106 -117t-38 -117q0 -82 92 -82q58 0 120 30l54 -128q-44 -28 -104 -44t-122 -16q-110 0 -173 52t-63 146q0 124 106 230q-14 -2 -42 -2q-250 0 -388 138 t-138 390z" />
<glyph unicode="&#x173;" horiz-adv-x="1156" d="M142 326v760h236v-728q0 -164 172 -164q62 0 113 24t101 76v792h236v-1086q-168 -96 -168 -212q0 -82 94 -82q56 0 118 30l54 -128q-46 -28 -105 -44t-121 -16q-112 0 -174 52t-62 146q0 76 44 142t124 110h-16v156q-68 -94 -147 -137t-179 -43q-152 0 -236 92t-84 260z " />
<glyph unicode="&#x174;" horiz-adv-x="1794" d="M52 1448h248l236 -1168l232 1166h258l236 -1166l234 1168h246l-352 -1448h-262l-234 1116l-230 -1116h-262zM544 1562v24l234 266h232l234 -266v-24h-178l-176 162l-172 -162h-174z" />
<glyph unicode="&#x175;" horiz-adv-x="1576" d="M42 1086h240l194 -842l192 842h242l196 -842l190 842h238l-304 -1086h-254l-190 796l-186 -796h-254zM476 1230v20l204 318h220l204 -318v-20h-168l-150 190l-150 -190h-160z" />
<glyph unicode="&#x176;" horiz-adv-x="1178" d="M32 1448h258l302 -696l298 696h256l-440 -958v-490h-240v490zM236 1562v24l234 266h232l234 -266v-24h-178l-176 162l-172 -162h-174z" />
<glyph unicode="&#x177;" horiz-adv-x="1042" d="M38 1086h242l244 -832l240 832h240l-344 -1046q-58 -178 -187 -293t-349 -187l-80 200q140 50 223 105t133 133zM210 1230v20l204 318h220l204 -318v-20h-168l-150 190l-150 -190h-160z" />
<glyph unicode="&#x178;" horiz-adv-x="1178" d="M32 1448h258l302 -696l298 696h256l-440 -958v-490h-240v490zM252 1690q0 64 35 98t97 34t97 -35t35 -95q0 -62 -35 -97t-97 -35t-97 35t-35 95zM658 1690q0 64 35 98t97 34t97 -35t35 -95q0 -62 -35 -97t-97 -35t-97 35t-35 95z" />
<glyph unicode="&#x179;" horiz-adv-x="1108" d="M74 0v214l674 1022h-648v212h920v-212l-676 -1024h686v-212h-956zM392 1562v24l294 266h270v-24l-364 -266h-200z" />
<glyph unicode="&#x17a;" horiz-adv-x="938" d="M66 0v200l528 686h-510v200h776v-200l-530 -686h540v-200h-804zM330 1230v20l194 318h250v-20l-264 -318h-180z" />
<glyph unicode="&#x17b;" horiz-adv-x="1108" d="M74 0v214l674 1022h-648v212h920v-212l-676 -1024h686v-212h-956zM404 1706q0 68 38 105t108 37q68 0 107 -38t39 -102q0 -68 -38 -105t-108 -37q-68 0 -107 38t-39 102z" />
<glyph unicode="&#x17c;" horiz-adv-x="938" d="M66 0v200l528 686h-510v200h776v-200l-530 -686h540v-200h-804zM318 1382q0 68 38 105t108 37q68 0 107 -38t39 -102q0 -68 -38 -105t-108 -37q-68 0 -107 38t-39 102z" />
<glyph unicode="&#x17d;" horiz-adv-x="1108" d="M74 0v214l674 1022h-648v212h920v-212l-676 -1024h686v-212h-956zM200 1828v24h180l174 -162l174 162h172v-24l-234 -266h-232z" />
<glyph unicode="&#x17e;" horiz-adv-x="938" d="M66 0v200l528 686h-510v200h776v-200l-530 -686h540v-200h-804zM150 1548v20h166l150 -190l150 190h162v-20l-204 -318h-220z" />
<glyph unicode="&#x17f;" horiz-adv-x="588" d="M156 0v1114v68q0 184 105 285t295 101q66 0 116 -10v-206q-54 8 -116 8q-166 0 -166 -178v-38v-1144h-234z" />
<glyph unicode="&#x2c6;" horiz-adv-x="1000" d="M186 1230v20l204 318h220l204 -318v-20h-166l-150 190l-150 -190h-162z" />
<glyph unicode="&#x2da;" horiz-adv-x="1000" d="M240 1434q0 110 68 171t192 61t192 -61t68 -171t-69 -171t-191 -61t-191 61t-69 171zM390 1434q0 -114 110 -114t110 114t-110 114t-110 -114z" />
<glyph unicode="&#x2dc;" horiz-adv-x="1000" d="M142 1236q4 136 61 211t155 75q54 0 94 -19t90 -53q32 -24 55 -35t45 -11q68 0 80 114h136q-4 -136 -61 -211t-155 -75q-54 0 -92 18t-92 54q-30 24 -53 36t-47 12q-68 0 -80 -116h-136z" />
<glyph unicode="&#x400;" horiz-adv-x="1150" d="M168 0v1448h890v-214h-650v-386h480v-216h-480v-418h676v-214h-916zM238 1828v24h270l276 -266v-24h-200z" />
<glyph unicode="&#x401;" horiz-adv-x="1150" d="M168 0v1448h890v-214h-650v-386h480v-216h-480v-418h676v-214h-916zM290 1690q0 64 35 98t97 34t97 -35t35 -95q0 -62 -35 -97t-97 -35t-97 35t-35 95zM696 1690q0 64 35 98t97 34t97 -35t35 -95q0 -62 -35 -97t-97 -35t-97 35t-35 95z" />
<glyph unicode="&#x402;" horiz-adv-x="1554" d="M42 1232v216h974v-216h-368v-402q154 66 324 66q218 0 335 -120t117 -348v-124q0 -172 -48 -289t-149 -197t-267 -138l-84 206q170 62 239 158t69 276v66q0 158 -66 227t-204 69q-134 0 -266 -60v-622h-240v1232h-366z" />
<glyph unicode="&#x403;" horiz-adv-x="1044" d="M168 0v1448h842v-214h-602v-1234h-240zM420 1562v24l294 266h270v-24l-364 -266h-200z" />
<glyph unicode="&#x404;" horiz-adv-x="1200" d="M86 704q0 234 80 408t227 268t347 94q108 0 210 -28t178 -80l-82 -184q-152 76 -310 76q-166 0 -268 -106t-128 -304h572v-216h-576q36 -436 422 -436q180 0 298 70l84 -182q-64 -50 -168 -79t-226 -29q-314 0 -487 191t-173 537z" />
<glyph unicode="&#x405;" horiz-adv-x="1126" d="M68 102l78 192q190 -108 390 -108q134 0 202 50t68 146q0 80 -49 131t-155 79l-164 46q-186 52 -270 148t-84 256q0 202 126 316t352 114q108 0 223 -25t217 -71l-80 -192q-204 78 -364 78q-118 0 -180 -46t-62 -134q0 -80 50 -131t156 -79l164 -46q186 -52 270 -149 t84 -257q0 -210 -133 -327t-371 -117q-128 0 -251 33t-217 93z" />
<glyph unicode="&#x406;" horiz-adv-x="582" d="M172 0v1448h240v-1448h-240z" />
<glyph unicode="&#x407;" horiz-adv-x="582" d="M-14 1690q0 62 34 97t96 35t98 -35t36 -95q0 -64 -35 -98t-99 -34q-62 0 -96 34t-34 96zM172 0v1448h240v-1448h-240zM332 1690q0 62 35 97t97 35t97 -35t35 -95q0 -64 -34 -98t-98 -34q-62 0 -97 34t-35 96z" />
<glyph unicode="&#x408;" horiz-adv-x="898" d="M-2 80l86 184q136 -74 248 -74q196 0 196 194v1064h240v-1078q0 -188 -112 -292t-314 -104q-104 0 -193 28t-151 78z" />
<glyph unicode="&#x409;" horiz-adv-x="2058" d="M32 184q112 58 170 117t85 147t39 246l54 754h852v-508h250q242 0 369 -121t127 -351q0 -224 -130 -346t-358 -122h-498v1232h-382l-42 -558q-16 -204 -56 -325t-125 -206t-245 -163zM1232 214h246q252 0 252 258q0 128 -61 191t-175 63h-262v-512z" />
<glyph unicode="&#x40a;" horiz-adv-x="2050" d="M168 0v1448h240v-550h576v550h242v-550h252q242 0 367 -114t125 -336q0 -214 -128 -331t-356 -117h-502v684h-576v-684h-240zM1226 214h248q248 0 248 238q0 232 -232 232h-264v-470z" />
<glyph unicode="&#x40b;" horiz-adv-x="1532" d="M42 1232v216h974v-216h-368v-402q160 66 318 66q208 0 322 -120t114 -348v-428h-240v386q0 158 -61 227t-193 69q-128 0 -260 -60v-622h-240v1232h-366z" />
<glyph unicode="&#x40c;" horiz-adv-x="1336" d="M168 0v1448h240v-688l94 48q168 84 246 144t130 170t92 326h246q-40 -208 -89 -338t-118 -214t-177 -154l462 -742h-280l-386 630l-58 -28l-162 -78v-524h-240zM524 1562v24l294 266h270v-24l-364 -266h-200z" />
<glyph unicode="&#x40d;" horiz-adv-x="1448" d="M168 0v1448h240v-1038l638 1038h234v-1448h-240v1040l-638 -1040h-234zM340 1828v24h270l276 -266v-24h-200z" />
<glyph unicode="&#x40e;" horiz-adv-x="1258" d="M38 1448h270l370 -790l312 790h238l-372 -924q-78 -194 -153 -301t-175 -166t-264 -97l-60 214q140 36 218 83t134 137zM304 1880h142q18 -68 68 -104t146 -36q178 0 214 140h138q-18 -156 -112 -234t-242 -78q-152 0 -245 78t-109 234z" />
<glyph unicode="&#x40f;" horiz-adv-x="1404" d="M168 0v1448h240v-1236h588v1236h240v-1448h-414l-28 -306h-170l-30 306h-426z" />
<glyph unicode="&#x410;" horiz-adv-x="1322" d="M32 0l498 1448h262l498 -1448h-254l-106 336h-542l-104 -336h-252zM450 546h416l-210 664z" />
<glyph unicode="&#x411;" horiz-adv-x="1246" d="M168 0v1448h240h660v-216h-660v-356h262q246 0 371 -112t125 -326q0 -208 -130 -323t-358 -115h-510zM408 214h258q122 0 187 57t65 171q0 112 -61 169t-175 57h-274v-454z" />
<glyph unicode="&#x412;" horiz-adv-x="1278" d="M168 0v1448h516q214 0 330 -106t116 -302q0 -204 -186 -276q268 -78 268 -336q0 -206 -120 -317t-342 -111h-582zM406 214h358q202 0 202 210q0 214 -216 214h-344v-424zM406 844h278q202 0 202 192q0 198 -216 198h-264v-390z" />
<glyph unicode="&#x413;" horiz-adv-x="1044" d="M168 0v1448h842v-214h-602v-1234h-240z" />
<glyph unicode="&#x414;" horiz-adv-x="1452" d="M30 212h86q80 50 123 115t62 149t31 218l66 754h828v-1236h164v-518h-178l-38 306h-928l-40 -306h-176v518zM412 212h574v1022h-360l-50 -560q-18 -188 -50 -287t-114 -175z" />
<glyph unicode="&#x415;" horiz-adv-x="1150" d="M168 0v1448h890v-214h-650v-386h480v-216h-480v-418h676v-214h-916z" />
<glyph unicode="&#x416;" horiz-adv-x="1984" d="M42 0l438 738q-98 64 -164 150t-113 219t-87 341h240q44 -226 94 -341t128 -177t238 -132l58 -26v676h238v-676l58 26q158 70 235 132t127 176t94 342h240q-42 -210 -88 -342t-109 -217t-161 -151l434 -738h-272l-366 632l-64 -28l-128 -52v-552h-238v552l-126 52l-66 28 l-370 -632h-270z" />
<glyph unicode="&#x417;" horiz-adv-x="1132" d="M22 86l90 190q178 -84 352 -84q168 0 260 61t92 181q0 118 -78 164t-214 46h-250v202h234q124 0 189 56t65 152q0 106 -78 158t-210 52q-84 0 -160 -21t-158 -59l-80 188q100 50 200 75t216 25q238 0 377 -97t139 -289q0 -228 -214 -318q270 -82 270 -344 q0 -222 -163 -335t-423 -113q-272 0 -456 110z" />
<glyph unicode="&#x418;" horiz-adv-x="1448" d="M168 0v1448h240v-1038l638 1038h234v-1448h-240v1040l-638 -1040h-234z" />
<glyph unicode="&#x419;" horiz-adv-x="1448" d="M168 0v1448h240v-1038l638 1038h234v-1448h-240v1040l-638 -1040h-234zM398 1880h142q18 -68 68 -104t146 -36q178 0 214 140h138q-18 -156 -112 -234t-242 -78q-152 0 -245 78t-109 234z" />
<glyph unicode="&#x41a;" horiz-adv-x="1336" d="M168 0v1448h240v-688l94 48q168 84 246 144t130 170t92 326h246q-40 -208 -89 -338t-118 -214t-177 -154l462 -742h-280l-386 630l-58 -28l-162 -78v-524h-240z" />
<glyph unicode="&#x41b;" horiz-adv-x="1412" d="M32 170q112 58 169 119t84 153t39 252l54 754h866v-1448h-240v1232h-398l-40 -558q-14 -204 -54 -329t-126 -212t-246 -165z" />
<glyph unicode="&#x41c;" horiz-adv-x="1704" d="M168 0v1448h288l396 -936l392 936h292v-1448h-234v1064l-326 -776h-250l-330 776v-1064h-228z" />
<glyph unicode="&#x41d;" horiz-adv-x="1406" d="M168 0v1448h240v-606h590v606h240v-1448h-240v628h-590v-628h-240z" />
<glyph unicode="&#x41e;" horiz-adv-x="1430" d="M106 724q0 372 156 561t452 189t453 -189t157 -561t-157 -561t-453 -189t-452 189t-156 561zM354 724q0 -536 360 -536q362 0 362 536t-362 536q-360 0 -360 -536z" />
<glyph unicode="&#x41f;" horiz-adv-x="1410" d="M168 0v1448h1076v-1448h-240v1232h-596v-1232h-240z" />
<glyph unicode="&#x420;" horiz-adv-x="1196" d="M168 0v1448h524q226 0 350 -127t124 -359t-128 -361t-358 -129h-272v-472h-240zM408 686h284q226 0 226 272q0 276 -238 276h-272v-548z" />
<glyph unicode="&#x421;" horiz-adv-x="1204" d="M88 704q0 234 80 408t227 268t347 94q110 0 211 -28t177 -80l-82 -184q-152 76 -308 76q-192 0 -298 -141t-106 -395q0 -260 107 -393t317 -133q180 0 298 70l84 -182q-64 -50 -168 -79t-226 -29q-312 0 -486 192t-174 536z" />
<glyph unicode="&#x422;" horiz-adv-x="1058" d="M42 1232v216h974v-216h-368v-1232h-240v1232h-366z" />
<glyph unicode="&#x423;" horiz-adv-x="1258" d="M38 1448h270l370 -790l312 790h238l-372 -924q-78 -194 -153 -301t-175 -166t-264 -97l-60 214q140 36 218 83t134 137z" />
<glyph unicode="&#x424;" horiz-adv-x="1544" d="M90 726q0 256 145 399t419 169v180h232v-180q276 -24 422 -168t146 -400t-146 -400t-422 -168v-184h-232v184q-274 26 -419 169t-145 399zM328 726q0 -156 83 -247t243 -113v720q-160 -22 -243 -114t-83 -246zM886 364q162 24 246 115t84 247t-84 247t-246 113v-722z" />
<glyph unicode="&#x425;" horiz-adv-x="1212" d="M38 0l430 734l-416 714h272l286 -498l282 498h268l-418 -712l432 -736h-272l-304 520l-292 -520h-268z" />
<glyph unicode="&#x426;" horiz-adv-x="1440" d="M168 0v1448h240v-1236h568v1236h240v-1236h164v-518h-182l-40 306h-990z" />
<glyph unicode="&#x427;" horiz-adv-x="1352" d="M130 1032v416h240v-372q0 -166 64 -244t212 -78q144 0 298 68v626h240v-1448h-240v614q-168 -74 -344 -74q-228 0 -349 130t-121 362z" />
<glyph unicode="&#x428;" horiz-adv-x="2052" d="M168 0v1448h240v-1236h498v1236h240v-1236h498v1236h240v-1448h-1716z" />
<glyph unicode="&#x429;" horiz-adv-x="2110" d="M168 0v1448h240v-1236h498v1236h240v-1236h498v1236h240v-1236h166v-518h-182l-38 306h-1662z" />
<glyph unicode="&#x42a;" horiz-adv-x="1488" d="M42 1232v216h536h70v-508h264q242 0 369 -121t127 -351q0 -224 -130 -346t-358 -122h-512v1232h-366zM648 214h260q252 0 252 258q0 128 -61 191t-175 63h-276v-512z" />
<glyph unicode="&#x42b;" horiz-adv-x="1750" d="M168 0v1448h240v-508h262q244 0 370 -121t126 -351q0 -224 -130 -346t-358 -122h-510zM408 214h258q252 0 252 258q0 128 -61 191t-175 63h-274v-512zM1342 0v1448h240v-1448h-240z" />
<glyph unicode="&#x42c;" horiz-adv-x="1246" d="M168 0v1448h240v-508h262q244 0 370 -121t126 -351q0 -224 -130 -346t-358 -122h-510zM408 214h258q252 0 252 258q0 128 -61 191t-175 63h-274v-512z" />
<glyph unicode="&#x42d;" horiz-adv-x="1204" d="M62 84l82 182q118 -70 298 -70q186 0 293 111t129 325h-572v216h576q-20 206 -120 308t-276 102q-158 0 -314 -76l-82 184q78 52 181 80t215 28q302 0 475 -190t173 -544q0 -234 -79 -406t-230 -265t-357 -93q-120 0 -224 29t-168 79z" />
<glyph unicode="&#x42e;" horiz-adv-x="1916" d="M168 0v1448h240v-606h266q22 314 167 473t399 159q278 0 424 -189t146 -561t-146 -561t-424 -189q-258 0 -403 165t-165 489h-264v-628h-240zM918 724q0 -536 320 -536q160 0 242 135t82 401t-82 401t-242 135q-320 0 -320 -536z" />
<glyph unicode="&#x42f;" horiz-adv-x="1264" d="M28 0l364 548q-136 46 -209 158t-73 278q0 220 123 342t347 122h516v-1448h-240v518h-220l-324 -518h-284zM358 980q0 -256 222 -256h276v512h-268q-230 0 -230 -256z" />
<glyph unicode="&#x430;" horiz-adv-x="1066" d="M60 304q0 194 150 285t480 93v50q0 168 -218 168q-128 0 -254 -56l-60 184q174 84 354 84q192 0 301 -92t109 -262v-758h-210v152q-102 -174 -322 -174q-158 0 -244 86t-86 240zM286 322q0 -142 162 -142q138 0 242 110v230q-210 -2 -307 -50t-97 -148z" />
<glyph unicode="&#x431;" horiz-adv-x="1142" d="M92 558q0 488 146 688q62 84 144 130t208 70t348 44l22 -210q-178 -18 -273 -34t-156 -43t-99 -77q-58 -76 -80 -228q124 94 284 94q202 0 310 -124t108 -356q0 -170 -64 -291t-175 -184t-249 -63q-228 0 -351 152t-123 432zM336 554q0 -370 232 -370q112 0 178 86 t66 236q0 142 -59 211t-183 69q-64 0 -119 -19t-113 -57q-2 -50 -2 -156z" />
<glyph unicode="&#x432;" horiz-adv-x="1076" d="M156 0v1086h432q170 0 266 -80t96 -220q0 -144 -150 -206q212 -60 212 -252q0 -154 -99 -241t-267 -87h-490zM388 186h236q70 0 108 38t38 106t-40 104t-110 36h-232v-284zM388 640h190q66 0 101 35t35 95q0 62 -38 96t-102 34h-186v-260z" />
<glyph unicode="&#x433;" horiz-adv-x="884" d="M156 0v1086h686v-200h-450v-886h-236z" />
<glyph unicode="&#x434;" horiz-adv-x="1258" d="M40 200h70q92 58 133 132t53 198l54 556h686v-886h162v-506h-170l-38 306h-740l-40 -306h-170v506zM392 200h408v686h-232l-40 -382q-10 -104 -42 -176t-94 -128z" />
<glyph unicode="&#x435;" horiz-adv-x="1086" d="M84 542q0 272 124 421t348 149q216 0 335 -137t119 -387q0 -76 -10 -118h-678q26 -280 292 -280q136 0 266 70l86 -178q-74 -50 -173 -78t-203 -28q-242 0 -374 149t-132 417zM324 636h452q-4 128 -63 198t-163 70q-198 0 -226 -268z" />
<glyph unicode="&#x436;" horiz-adv-x="1618" d="M38 0l324 554q-100 72 -155 189t-97 343h232q30 -158 64 -241t94 -135t174 -94l22 -8v478h228v-478l20 8q114 42 174 94t94 135t64 241h234q-44 -226 -99 -343t-155 -189l324 -554h-258l-260 456l-34 -12l-104 -38v-406h-228v406l-106 38l-34 12l-260 -456h-258z" />
<glyph unicode="&#x437;" horiz-adv-x="956" d="M36 58l82 182q132 -64 274 -64q116 0 183 39t67 119q0 78 -56 106t-168 28h-184v172h174q92 0 142 33t50 101q0 70 -56 106t-152 36q-108 0 -240 -62l-66 182q162 76 344 76q180 0 295 -72t115 -232q0 -80 -42 -139t-120 -93q92 -28 149 -91t57 -165q0 -164 -129 -254 t-347 -90q-104 0 -203 20t-169 62z" />
<glyph unicode="&#x438;" horiz-adv-x="1222" d="M156 0v1086h236v-710l448 710h226v-1086h-236v708l-450 -708h-224z" />
<glyph unicode="&#x439;" horiz-adv-x="1222" d="M156 0v1086h236v-710l448 710h226v-1086h-236v708l-450 -708h-224zM266 1540h142q18 -68 68 -104t146 -36q178 0 214 140h138q-18 -156 -112 -234t-242 -78q-152 0 -245 78t-109 234z" />
<glyph unicode="&#x43a;" horiz-adv-x="1140" d="M156 0v1086h236v-476l38 18q122 56 184 102t103 127t69 229h240q-44 -216 -108 -331t-172 -189l356 -566h-264l-290 458l-36 -16l-120 -56v-386h-236z" />
<glyph unicode="&#x43b;" horiz-adv-x="1182" d="M40 160q84 42 128 88t65 111t29 171l42 556h722v-1086h-236v886h-264l-32 -382q-12 -150 -45 -241t-104 -157t-205 -132z" />
<glyph unicode="&#x43c;" horiz-adv-x="1448" d="M156 0v1086h280l288 -664l292 664h274v-1086h-224v736l-250 -560h-192l-246 560v-736h-222z" />
<glyph unicode="&#x43d;" horiz-adv-x="1190" d="M156 0v1086h236v-422h406v422h236v-1086h-236v462h-406v-462h-236z" />
<glyph unicode="&#x43e;" horiz-adv-x="1122" d="M88 542q0 280 123 425t351 145t350 -145t122 -425t-123 -424t-351 -144t-350 144t-122 424zM330 542q0 -178 58 -268t172 -90q116 0 174 90t58 268q0 358 -230 358q-232 0 -232 -358z" />
<glyph unicode="&#x43f;" horiz-adv-x="1192" d="M156 0v1086h880v-1086h-236v886h-408v-886h-236z" />
<glyph unicode="&#x440;" horiz-adv-x="1158" d="M156 -414v1500h214v-152q106 178 304 178q188 0 292 -150t104 -420t-106 -419t-298 -149q-172 0 -274 118v-506h-236zM392 286q42 -48 99 -74t119 -26q218 0 218 348q0 356 -228 356q-60 0 -110 -24t-98 -78v-502z" />
<glyph unicode="&#x441;" horiz-adv-x="978" d="M80 532q0 172 62 304t175 204t263 72q88 0 173 -25t149 -71l-84 -182q-140 64 -242 64q-122 0 -188 -93t-66 -259q0 -354 280 -354q114 0 232 62l80 -182q-126 -96 -324 -96q-242 0 -376 146t-134 410z" />
<glyph unicode="&#x442;" horiz-adv-x="908" d="M32 886v200h834v-200h-300v-886h-236v886h-298z" />
<glyph unicode="&#x443;" horiz-adv-x="1018" d="M26 1086h242l244 -830l240 830h240l-344 -1046q-58 -178 -187 -293t-349 -187l-80 200q140 50 223 105t133 131z" />
<glyph unicode="&#x444;" horiz-adv-x="1466" d="M80 542q0 252 140 392t398 164v384h228v-384q260 -22 399 -163t139 -393t-139 -392t-399 -164v-400h-228v400q-260 24 -399 164t-139 392zM314 542q0 -152 77 -243t227 -115v718q-150 -26 -227 -117t-77 -243zM846 184q152 24 230 115t78 243q0 154 -78 245t-230 115 v-718z" />
<glyph unicode="&#x445;" horiz-adv-x="1008" d="M30 0l346 552l-332 534h262l202 -350l210 350h256l-344 -532l348 -554h-260l-218 370l-214 -370h-256z" />
<glyph unicode="&#x446;" horiz-adv-x="1240" d="M156 0v1086h236v-886h390v886h236v-886h162v-506h-172l-40 306h-812z" />
<glyph unicode="&#x447;" horiz-adv-x="1150" d="M124 752v334h236v-276q0 -112 45 -170t147 -58q98 0 202 46v458h236v-1086h-236v432q-140 -54 -274 -54q-172 0 -264 97t-92 277z" />
<glyph unicode="&#x448;" horiz-adv-x="1698" d="M156 0v1086h236v-886h340v886h236v-886h338v886h236v-1086h-1386z" />
<glyph unicode="&#x449;" horiz-adv-x="1764" d="M156 0v1086h236v-886h340v886h236v-886h338v886h236v-886h162v-506h-172l-40 306h-1336z" />
<glyph unicode="&#x44a;" horiz-adv-x="1242" d="M38 886v200h466h68v-346h168q202 0 316 -85t114 -273t-124 -285t-310 -97h-400v886h-298zM572 198h156q94 0 147 47t53 141q0 88 -50 130t-138 42h-168v-360z" />
<glyph unicode="&#x44b;" horiz-adv-x="1512" d="M156 0v1086h236v-346h168q202 0 317 -85t115 -273q0 -126 -59 -212t-158 -128t-217 -42h-402zM392 198h158q94 0 147 47t53 141q0 88 -50 130t-138 42h-170v-360zM1120 0v1086h236v-1086h-236z" />
<glyph unicode="&#x44c;" horiz-adv-x="1064" d="M156 0v1086h236v-346h168q202 0 317 -85t115 -273q0 -126 -59 -212t-158 -128t-217 -42h-402zM392 198h158q94 0 147 47t53 141q0 88 -50 130t-138 42h-170v-360z" />
<glyph unicode="&#x44d;" horiz-adv-x="990" d="M64 68l76 170q116 -60 232 -60q254 0 290 290h-408v172h410q-26 276 -272 276q-58 0 -111 -15t-117 -45l-78 166q144 90 326 90q238 0 368 -147t130 -409q0 -176 -62 -307t-178 -202t-274 -71q-208 0 -332 92z" />
<glyph unicode="&#x44e;" horiz-adv-x="1550" d="M156 0v1086h236v-426h180q24 222 139 337t305 115q216 0 332 -145t116 -425t-117 -424t-333 -144q-200 0 -316 125t-130 367h-176v-466h-236zM808 542q0 -178 52 -268t154 -90q206 0 206 358t-204 358q-208 0 -208 -358z" />
<glyph unicode="&#x44f;" horiz-adv-x="1110" d="M52 0l256 406q-88 36 -135 118t-47 196q0 170 98 268t272 98h458v-1086h-236v360h-184l-216 -360h-266zM368 716q0 -78 38 -123t112 -45h200v338h-194q-74 0 -115 -44t-41 -126z" />
<glyph unicode="&#x450;" horiz-adv-x="1086" d="M84 542q0 272 124 421t348 149q216 0 335 -137t119 -387q0 -76 -10 -118h-678q26 -280 292 -280q136 0 266 70l86 -178q-74 -50 -173 -78t-203 -28q-242 0 -374 149t-132 417zM266 1548v20h250l178 -318v-20h-180zM324 636h452q-4 128 -63 198t-163 70q-198 0 -226 -268z " />
<glyph unicode="&#x451;" horiz-adv-x="1086" d="M84 542q0 272 124 421t348 149q216 0 335 -137t119 -387q0 -76 -10 -118h-678q26 -280 292 -280q136 0 266 70l86 -178q-74 -50 -173 -78t-203 -28q-242 0 -374 149t-132 417zM230 1366q0 64 35 98t97 34t97 -35t35 -95q0 -62 -35 -97t-97 -35t-97 35t-35 95zM324 636 h452q-4 128 -63 198t-163 70q-198 0 -226 -268zM614 1366q0 64 35 98t97 34t97 -35t35 -95q0 -62 -35 -97t-97 -35t-97 35t-35 95z" />
<glyph unicode="&#x452;" horiz-adv-x="1170" d="M22 1222v152h126v166h236v-166h414v-152h-414v-280q126 132 310 132q158 0 244 -92t86 -260v-492q0 -158 -39 -259t-124 -169t-233 -122l-78 190q94 34 146 81t72 114t20 171v454q0 164 -180 164q-64 0 -118 -20t-106 -62v-772h-236v1222h-126z" />
<glyph unicode="&#x453;" horiz-adv-x="884" d="M156 0v1086h686v-200h-450v-886h-236zM372 1230v20l194 318h250v-20l-264 -318h-180z" />
<glyph unicode="&#x454;" horiz-adv-x="980" d="M80 532q0 172 62 304t176 204t264 72q88 0 173 -24t149 -68l-80 -166q-124 62 -234 62q-112 0 -179 -71t-83 -205h406v-172h-408q14 -144 86 -217t196 -73q128 0 232 58l76 -168q-60 -44 -150 -68t-182 -24q-236 0 -370 147t-134 409z" />
<glyph unicode="&#x455;" horiz-adv-x="938" d="M52 82l82 192q148 -90 312 -90q194 0 194 120q0 48 -33 78t-107 46l-142 36q-150 34 -219 107t-69 199q0 160 106 250t296 90q96 0 192 -24t174 -66l-88 -190q-144 72 -282 72q-172 0 -172 -110q0 -44 34 -73t106 -47l142 -34q152 -36 220 -110t68 -202q0 -166 -110 -258 t-310 -92q-110 0 -213 28t-181 78z" />
<glyph unicode="&#x456;" horiz-adv-x="556" d="M132 1382q0 68 38 105t108 37q68 0 107 -38t39 -102q0 -68 -38 -105t-108 -37q-68 0 -107 38t-39 102zM160 0v1086h236v-1086h-236z" />
<glyph unicode="&#x457;" horiz-adv-x="556" d="M-10 1366q0 64 34 99t96 35q60 0 94 -35t34 -97t-34 -96t-94 -34q-62 0 -96 34t-34 94zM160 0v1086h236v-1086h-236zM310 1366q0 64 33 99t95 35t96 -35t34 -97t-34 -96t-96 -34t-95 34t-33 94z" />
<glyph unicode="&#x458;" horiz-adv-x="556" d="M-122 -250q116 40 175 81t83 101t24 158v996h236v-1000q0 -152 -39 -247t-133 -160t-268 -123zM132 1382q0 68 38 105t108 37q68 0 107 -38t39 -102q0 -68 -38 -105t-108 -37q-68 0 -107 38t-39 102z" />
<glyph unicode="&#x459;" horiz-adv-x="1674" d="M40 162q84 44 129 88t66 108t29 172l40 556h710v-346h156q202 0 316 -85t114 -273t-124 -285t-308 -97h-390l2 886h-252l-32 -382q-12 -154 -45 -244t-103 -155t-206 -131zM1014 198h154q94 0 147 47t53 141q0 88 -50 130t-138 42h-166v-360z" />
<glyph unicode="&#x45a;" horiz-adv-x="1682" d="M156 0v1086h236v-386h394v386h236v-386h162q198 0 312 -80t114 -258t-123 -270t-305 -92h-396v498h-394v-498h-236zM1022 198h152q88 0 141 42t53 126q0 74 -50 112t-132 38h-164v-318z" />
<glyph unicode="&#x45b;" horiz-adv-x="1172" d="M22 1222v152h126v166h236v-166h414v-152h-414v-280q126 132 310 132q158 0 245 -92t87 -260v-722h-236v690q0 164 -182 164q-64 0 -118 -20t-106 -64v-770h-236v1222h-126z" />
<glyph unicode="&#x45c;" horiz-adv-x="1140" d="M156 0v1086h236v-476l38 18q122 56 184 102t103 127t69 229h240q-44 -216 -108 -331t-172 -189l356 -566h-264l-290 458l-36 -16l-120 -56v-386h-236zM464 1230v20l194 318h250v-20l-264 -318h-180z" />
<glyph unicode="&#x45d;" horiz-adv-x="1222" d="M156 0v1086h236v-710l448 710h226v-1086h-236v708l-450 -708h-224zM318 1548v20h250l178 -318v-20h-180z" />
<glyph unicode="&#x45e;" horiz-adv-x="1018" d="M26 1086h242l244 -830l240 830h240l-344 -1046q-58 -178 -187 -293t-349 -187l-80 200q140 50 223 105t133 131zM156 1540h142q18 -68 68 -104t146 -36q178 0 214 140h138q-18 -156 -112 -234t-242 -78q-152 0 -245 78t-109 234z" />
<glyph unicode="&#x45f;" horiz-adv-x="1192" d="M156 0v1086h236v-886h408v886h236v-1086h-324l-32 -306h-162l-30 306h-332z" />
<glyph unicode="&#x460;" horiz-adv-x="1698" d="M106 636q0 210 52 424t146 388h260q-212 -344 -212 -810q0 -456 210 -456q82 0 124 72t42 212v348h240v-348q0 -140 42 -212t124 -72q212 0 212 456q0 466 -212 810h260q94 -174 146 -388t52 -424q0 -314 -117 -487t-329 -173q-116 0 -194 52t-104 146q-26 -94 -104 -146 t-194 -52q-212 0 -328 173t-116 487z" />
<glyph unicode="&#x461;" horiz-adv-x="1444" d="M42 1086h240l196 -856l162 572l-74 284h236l192 -848q90 208 131 416t39 432h238q-2 -260 -77 -539t-219 -547h-258l-126 484l-122 -484h-254z" />
<glyph unicode="&#x462;" horiz-adv-x="1246" d="M-64 1158v182h232v200h240v-200h562v-182h-562v-226h262q244 0 370 -121t126 -349q0 -220 -130 -341t-358 -121h-510v1158h-232zM408 214h258q122 0 187 63t65 189q0 250 -236 250h-274v-502z" />
<glyph unicode="&#x463;" horiz-adv-x="1098" d="M54 924v152h136v372h236v-372h450v-152h-450v-184h168q202 0 316 -85t114 -273t-124 -285t-308 -97h-402v924h-136zM426 198h158q94 0 146 47t52 141q0 172 -188 172h-168v-360z" />
<glyph unicode="&#x464;" horiz-adv-x="1766" d="M168 0v1448h240v-606h250q34 294 205 463t441 169q108 0 210 -28t178 -80l-82 -184q-152 76 -310 76q-166 0 -269 -108t-127 -308h574v-214h-576q18 -214 124 -323t296 -109q180 0 298 70l84 -182q-64 -50 -168 -79t-226 -29q-296 0 -467 171t-191 481h-244v-628h-240z " />
<glyph unicode="&#x465;" horiz-adv-x="1444" d="M156 0v1086h236v-432h162q30 212 162 335t330 123q88 0 173 -24t149 -68l-80 -166q-124 62 -232 62q-112 0 -179 -71t-85 -205h406v-174h-406q14 -142 85 -215t195 -73q130 0 234 58l74 -168q-60 -44 -149 -68t-181 -24q-218 0 -350 124t-152 352h-156v-452h-236z" />
<glyph unicode="&#x466;" horiz-adv-x="1296" d="M40 0l478 1448h262l476 -1448h-254l-118 402h-126v-402h-222v402h-128l-116 -402h-252zM468 606h358l-180 612z" />
<glyph unicode="&#x467;" horiz-adv-x="1074" d="M26 0l382 1086h256l384 -1086h-240l-90 284h-82v-284h-202v284h-82l-90 -284h-236zM410 470h248l-124 388z" />
<glyph unicode="&#x468;" horiz-adv-x="1760" d="M168 0v1448h240v-836h296l276 836h264l476 -1448h-254l-118 402h-128v-402h-220v402h-130l-116 -402h-252l132 398h-226v-398h-240zM930 606h358l-178 614z" />
<glyph unicode="&#x469;" horiz-adv-x="1508" d="M156 0v1086h236v-604h240l212 604h254l384 -1086h-238l-92 284h-80v-284h-202v284h-82l-90 -284h-236l98 280h-168v-280h-236zM846 470h248l-126 388z" />
<glyph unicode="&#x46a;" horiz-adv-x="1840" d="M106 0q26 290 81 447t166 235t317 118l30 6l-412 642h254h890h130l-414 -642l26 -6q204 -40 314 -118t166 -235t82 -447h-240q-14 214 -51 332t-115 180t-224 96l-66 18v-626h-236v626l-64 -18q-148 -36 -227 -98t-117 -179t-52 -331h-238zM674 1242l254 -398l250 398 h-504z" />
<glyph unicode="&#x46b;" horiz-adv-x="1456" d="M88 0q16 222 58 346t126 184t232 76l8 2l-316 478h246h696h126l-320 -478l8 -2q148 -16 232 -76t126 -184t58 -346h-232q-2 158 -27 246t-82 133t-161 61l-26 2v-442h-224v442l-26 -2q-104 -16 -161 -60t-81 -133t-26 -247h-234zM562 896l170 -268l168 268h-338z" />
<glyph unicode="&#x46c;" horiz-adv-x="2278" d="M168 0v1448h240v-610h708l-392 610h256h890h130l-416 -642l28 -6q204 -40 313 -118t165 -235t82 -447h-240q-14 214 -51 332t-114 180t-223 96l-66 18v-626h-236v626l-66 -18q-148 -36 -226 -98t-116 -179t-52 -331h-240q24 250 67 398t125 234h-326v-632h-240z M1110 1242l254 -398l252 398h-506z" />
<glyph unicode="&#x46d;" horiz-adv-x="1862" d="M156 0v1086h236v-436h500l-290 436h246h696h126l-320 -478l8 -2q148 -16 232 -76t126 -184t58 -346h-232q-2 156 -27 245t-81 134t-160 61l-28 4v-444h-224v444l-26 -4q-104 -16 -161 -60t-81 -133t-26 -247h-234q12 170 38 279t74 177h-214v-456h-236zM968 896l170 -268 l168 268h-338z" />
<glyph unicode="&#x46e;" horiz-adv-x="1132" d="M36 -144q0 142 68 215t160 95t212 26q88 2 159 18t126 68t55 156q0 118 -78 164t-214 46h-250v202h234q124 0 189 56t65 152q0 106 -78 158t-210 52q-84 0 -160 -21t-158 -59l-80 188q146 76 308 94l-182 348h178l130 -270l70 156q64 134 200 134q54 0 92 -21t70 -67 l-80 -80q-32 38 -70 38q-20 0 -34 -10t-30 -38l-100 -192q178 -26 279 -121t101 -257q0 -228 -214 -318q270 -82 270 -344q0 -186 -101 -284t-225 -128t-260 -36q-98 -4 -152 -25t-54 -91q0 -104 146 -104q50 0 94 11t110 31q102 34 160 34q176 0 242 -234l-156 -54 q-18 44 -42 63t-58 19q-22 0 -47 -8t-53 -18q-66 -24 -125 -37t-143 -13q-364 0 -364 306z" />
<glyph unicode="&#x46f;" horiz-adv-x="956" d="M32 -134q0 182 105 244t269 66q100 4 168 33t68 125q0 78 -56 106t-168 28h-184v172h174q92 0 142 33t50 101q0 70 -56 106t-152 36q-108 0 -240 -62l-66 182q96 48 228 68l-178 336h172l126 -260l68 148q60 132 194 132q52 0 90 -22t70 -68l-76 -74q-34 36 -70 36 q-22 0 -37 -11t-29 -37l-96 -180q134 -22 213 -94t79 -202q0 -80 -42 -139t-120 -93q92 -28 149 -91t57 -165q0 -202 -145 -269t-331 -75q-72 -2 -110 -22t-38 -82q0 -100 122 -100q38 0 70 10t68 28q48 20 75 29t63 9q168 0 234 -226l-150 -50q-18 42 -41 61t-57 19 q-22 0 -38 -6t-42 -20q-42 -24 -86 -37t-120 -13q-326 0 -326 290z" />
<glyph unicode="&#x470;" horiz-adv-x="1414" d="M88 878v570h240v-566q0 -138 62 -213t196 -95v874h240v-874q134 20 197 95t63 213v566h240v-570q0 -474 -500 -522v-356h-240v356q-498 48 -498 522z" />
<glyph unicode="&#x471;" horiz-adv-x="1436" d="M142 416v670h236v-644q0 -116 54 -179t176 -73v1188h224v-1190q126 12 193 102t67 252q0 176 -19 291t-57 253h240q72 -270 72 -540q0 -268 -127 -412t-369 -156v-392h-224v390q-466 26 -466 440z" />
<glyph unicode="&#x472;" horiz-adv-x="1430" d="M106 724q0 372 156 561t452 189t453 -189t157 -561t-157 -561t-453 -189t-452 189t-156 561zM350 638q28 -450 364 -450q332 0 366 440q-86 -34 -170 -34q-78 0 -202 34q-52 12 -108 23t-104 11q-76 0 -146 -24zM350 820q86 34 170 34q78 0 202 -34q52 -12 108 -23 t104 -11q76 0 146 24q-28 450 -366 450q-330 0 -364 -440z" />
<glyph unicode="&#x473;" horiz-adv-x="1122" d="M88 542q0 280 123 425t351 145t350 -145t122 -425t-123 -424t-351 -144t-350 144t-122 424zM324 466q24 -284 236 -284q210 0 236 270q-52 -20 -110 -20q-40 0 -81 10t-49 12q-88 24 -140 24q-48 0 -92 -12zM324 634q56 18 110 18q40 0 81 -10t49 -12q88 -24 140 -24 q42 0 94 14q-24 284 -236 284q-208 0 -238 -270z" />
<glyph unicode="&#x474;" horiz-adv-x="1404" d="M48 1448h254l334 -1196l264 954q72 274 310 274q76 0 135 -32t111 -100l-130 -152q-72 66 -112 66q-30 0 -51 -29t-43 -99l-356 -1134h-262z" />
<glyph unicode="&#x475;" horiz-adv-x="1184" d="M38 1086h242l248 -848l178 614q76 266 296 266q72 0 130 -31t114 -99l-130 -148q-40 34 -64 48t-46 14q-30 0 -52 -27t-42 -93l-258 -782h-256z" />
<glyph unicode="&#x476;" horiz-adv-x="1404" d="M48 1448h254l334 -1196l264 954q72 274 310 274q76 0 135 -32t111 -100l-130 -152q-72 66 -112 66q-30 0 -51 -29t-43 -99l-356 -1134h-262zM202 1828v24h230l174 -266v-24h-164zM538 1828v24h226l174 -266v-24h-160z" />
<glyph unicode="&#x477;" horiz-adv-x="1184" d="M38 1086h242l248 -848l178 614q76 266 296 266q72 0 130 -31t114 -99l-130 -148q-40 34 -64 48t-46 14q-30 0 -52 -27t-42 -93l-258 -782h-256zM168 1548v20h218l100 -318v-20h-152zM474 1548v20h216l98 -318v-20h-152z" />
<glyph unicode="&#x478;" horiz-adv-x="2402" d="M106 724q0 372 156 561t452 189t453 -189t157 -561t-157 -561t-453 -189t-452 189t-156 561zM354 724q0 -536 360 -536q362 0 362 536t-362 536q-360 0 -360 -536zM1398 1086h242l244 -832l240 832h240l-344 -1046q-58 -178 -187 -293t-349 -187l-80 200q140 50 223 105 t133 133z" />
<glyph unicode="&#x479;" horiz-adv-x="2084" d="M88 542q0 280 123 425t351 145t350 -145t122 -425t-123 -424t-351 -144t-350 144t-122 424zM330 542q0 -178 58 -268t172 -90q116 0 174 90t58 268q0 358 -230 358q-232 0 -232 -358zM1080 1086h242l244 -832l240 832h240l-344 -1046q-58 -178 -187 -293t-349 -187 l-80 200q140 50 223 105t133 133z" />
<glyph unicode="&#x47a;" horiz-adv-x="1586" d="M106 724q0 326 127 505t369 211q50 102 192 102q68 0 117 -27t73 -75q242 -32 369 -211t127 -505t-127 -505t-369 -211q-24 -50 -73 -77t-117 -27t-118 27t-74 77q-242 32 -369 211t-127 505zM354 724q0 -226 61 -348t191 -154q54 94 188 94q66 0 114 -24t72 -70 q130 32 191 154t61 348t-61 348t-191 154q-54 -94 -186 -94q-66 0 -114 25t-74 71q-130 -32 -191 -155t-61 -349z" />
<glyph unicode="&#x47b;" horiz-adv-x="1196" d="M88 542q0 224 84 356t246 172q22 48 68 73t112 25t111 -26t67 -72q162 -38 247 -170t85 -358q0 -224 -85 -356t-247 -170q-46 -98 -178 -98q-66 0 -112 25t-68 73q-160 36 -245 168t-85 358zM330 542q0 -124 26 -200t82 -110q50 66 160 66q108 0 158 -66q110 68 110 310 q0 244 -110 312q-50 -66 -158 -66q-106 0 -160 66q-56 -34 -82 -111t-26 -201z" />
<glyph unicode="&#x47c;" horiz-adv-x="1698" d="M106 636q0 210 52 424t146 388h260q-212 -344 -212 -810q0 -456 210 -456q82 0 124 72t42 212h240q0 -140 42 -212t124 -72q212 0 212 456q0 466 -212 810h260q94 -174 146 -388t52 -424q0 -314 -117 -487t-329 -173q-116 0 -194 52t-104 146q-26 -94 -104 -146t-194 -52 q-212 0 -328 173t-116 487zM532 1580q0 134 60 208t168 74q44 0 79 -11t83 -33q54 -24 89 -35t81 -11h70v-190h-54q-74 0 -123 15t-105 41q-24 12 -49 21t-47 9q-74 0 -80 -88h-172zM682 1218q44 32 63 76t19 108q0 58 -14 120h222q10 -56 10 -114q0 -94 -53 -163t-171 -131 z" />
<glyph unicode="&#x47d;" horiz-adv-x="1554" d="M108 468q0 182 45 342t127 276h252q-88 -126 -136 -295t-48 -323q0 -148 36 -219t118 -71q76 0 117 65t41 179h236q0 -118 43 -181t115 -63q82 0 117 70t35 220q0 164 -50 332t-136 286h256q78 -116 124 -276t46 -342q0 -238 -93 -365t-279 -127q-102 0 -183 45t-113 153 q-32 -106 -114 -152t-182 -46q-190 0 -282 129t-92 363zM452 1200q0 134 60 208t168 74q44 0 79 -11t83 -33q54 -24 89 -35t81 -11h70v-190h-54q-74 0 -123 15t-105 41q-24 12 -49 21t-47 9q-74 0 -80 -88h-172zM602 838q44 32 63 76t19 108q0 58 -14 120h222 q10 -56 10 -114q0 -94 -53 -163t-171 -131z" />
<glyph unicode="&#x47e;" horiz-adv-x="1698" d="M106 636q0 210 52 424t146 388h260q-212 -344 -212 -810q0 -456 210 -456q82 0 124 72t42 212v348h240v-348q0 -140 42 -212t124 -72q212 0 212 456q0 466 -212 810h260q94 -174 146 -388t52 -424q0 -314 -117 -487t-329 -173q-116 0 -194 52t-104 146q-26 -94 -104 -146 t-194 -52q-212 0 -328 173t-116 487zM508 1828h682l-34 -256h-102l-16 126h-120l-16 -122h-106l-16 122h-120l-16 -126h-102z" />
<glyph unicode="&#x47f;" horiz-adv-x="1444" d="M42 1086h240l196 -856l162 572l-74 284h236l192 -848q90 208 131 416t39 432h238q-2 -260 -77 -539t-219 -547h-258l-126 484l-122 -484h-254zM398 1488h682l-34 -256h-102l-16 126h-120l-16 -122h-106l-16 122h-120l-16 -126h-102z" />
<glyph unicode="&#x480;" horiz-adv-x="1192" d="M86 694q0 238 79 414t226 271t345 95q108 0 211 -29t183 -81l-82 -186q-158 78 -316 78q-190 0 -294 -142t-104 -402q0 -256 107 -386t317 -130q88 0 162 18v-222v-366h-240v352q-282 20 -438 207t-156 509z" />
<glyph unicode="&#x481;" horiz-adv-x="952" d="M80 532q0 174 62 305t176 203t264 72q88 0 173 -25t149 -71l-86 -184q-134 64 -240 64q-122 0 -189 -92t-67 -258q0 -354 282 -354q60 0 130 20v-220v-366h-232v356q-202 26 -312 169t-110 381z" />
<glyph unicode="&#x482;" horiz-adv-x="1226" d="M42 536l82 164l334 -168l154 320l-336 170l82 164l334 -168l168 352l156 -74l-170 -356l338 -170l-82 -164l-334 168l-154 -320l336 -170l-82 -166l-334 170l-168 -352l-158 74l170 356z" />
<glyph unicode="&#x483;" d="M-1010 1314q0 62 35 95t99 33h500q10 46 43 71t89 25q62 0 97 -34t35 -92q0 -62 -35 -96t-97 -34h-500q-10 -46 -43 -71t-89 -25q-62 0 -98 34t-36 94z" />
<glyph unicode="&#x484;" d="M-924 1268v212h78q50 0 89 12t99 38q50 24 91 37t89 13q120 0 187 -83t67 -231h-190q-6 98 -90 98q-26 0 -48 -8t-60 -26q-58 -30 -113 -46t-139 -16h-60z" />
<glyph unicode="&#x485;" d="M-694 1540q0 64 12 114h220q-12 -54 -12 -120t19 -109t63 -75l-78 -104q-118 62 -171 131t-53 163z" />
<glyph unicode="&#x486;" d="M-728 1350q44 32 63 75t19 109t-12 120h220q12 -50 12 -114q0 -94 -53 -163t-171 -131z" />
<glyph unicode="&#x488;" d="M-1050 454q4 126 70 193t180 67t180 -67t70 -193h-114q-18 120 -138 120q-124 0 -138 -120h-110zM-850 -40q4 126 70 193t180 67t180 -67t70 -193h-114q-18 120 -138 120q-124 0 -138 -120h-110zM-850 948q4 126 70 193t180 67t180 -67t70 -193h-114q-18 120 -138 120 q-124 0 -138 -120h-110zM-250 -414q4 126 70 193t180 67t180 -67t70 -193h-114q-18 120 -138 120q-124 0 -138 -120h-110zM-250 1322q4 126 70 193t180 67t180 -67t70 -193h-114q-18 120 -138 120q-124 0 -138 -120h-110zM350 -40q4 126 70 193t180 67t180 -67t70 -193h-114 q-18 120 -138 120q-122 0 -138 -120h-110zM350 948q4 126 70 193t180 67t180 -67t70 -193h-114q-18 120 -138 120q-122 0 -138 -120h-110zM550 454q4 126 70 193t180 67t180 -67t70 -193h-114q-18 120 -138 120q-122 0 -138 -120h-110z" />
<glyph unicode="&#x489;" d="M-1064 664l86 78q50 -46 98 -64t120 -18q50 0 82 6v-196q-44 -8 -80 -8q-84 0 -156 48t-150 154zM-816 -110l4 114q68 4 115 25t99 73q32 32 52 62l140 -140q-6 -8 -21 -26t-31 -34q-86 -86 -230 -86q-56 0 -128 12zM-696 1260q0 56 12 128l114 -4q4 -68 26 -115t72 -99 q40 -38 60 -52l-138 -140q-36 28 -60 52q-86 86 -86 230zM-172 -406q46 50 64 99t18 121q0 20 -6 80h196q6 -30 6 -78q0 -86 -48 -159t-152 -147zM-106 1330q0 84 48 156t154 150l78 -86q-46 -50 -64 -98t-18 -120q0 -48 6 -82h-196q-8 44 -8 80zM408 22l140 140 q36 -28 60 -52q86 -86 86 -230q0 -56 -12 -128l-114 4q-4 68 -25 115t-73 99q-32 32 -62 52zM414 1122q18 28 50 62q44 44 99 64t129 20q58 0 130 -12l-4 -114q-68 -4 -115 -25t-97 -73q-36 -34 -54 -60zM678 470v198q8 0 31 3t49 3q84 0 157 -48t147 -152l-84 -78 q-50 46 -98 64t-120 18q-38 0 -82 -8z" />
<glyph unicode="&#x48a;" horiz-adv-x="1512" d="M168 0v1448h240v-1038l638 1038h234v-1236h184v-20l-190 -498h-186v20l66 286h-114v1040l-638 -1040h-234zM396 1880h144q18 -68 67 -104t145 -36q180 0 216 140h136q-16 -156 -110 -234t-244 -78t-243 78t-111 234z" />
<glyph unicode="&#x48b;" horiz-adv-x="1296" d="M156 0v1084h236v-708l448 708h224v-884h184v-20l-190 -486h-172v20l70 286h-128v708l-448 -708h-224zM266 1540h142q18 -68 68 -104t146 -36q178 0 214 140h138q-18 -156 -112 -234t-242 -78q-152 0 -245 78t-109 234z" />
<glyph unicode="&#x48c;" horiz-adv-x="1244" d="M38 1096v182h130v170h240v-170h340v-182h-340v-180h262q242 0 369 -122t127 -344q0 -212 -130 -331t-358 -119h-510v1096h-130zM408 214h258q122 0 187 61t65 179q0 120 -62 184t-174 64h-274v-488z" />
<glyph unicode="&#x48d;" horiz-adv-x="1098" d="M54 830v152h136v104h236v-104h266v-152h-266v-114h168q430 0 430 -348q0 -184 -123 -276t-309 -92h-402v830h-136zM426 198h158q198 0 198 174q0 160 -188 160h-168v-334z" />
<glyph unicode="&#x48e;" horiz-adv-x="1196" d="M168 0v1448h524q226 0 350 -127t124 -359q0 -182 -78 -301t-226 -165l54 -216l-164 -42l-58 234h-14h-272v-472h-240zM408 686h232l-48 202l162 42l54 -218q110 56 110 246q0 276 -238 276h-272v-548z" />
<glyph unicode="&#x48f;" horiz-adv-x="1158" d="M156 -414v1500h214v-152q106 178 304 178q188 0 292 -150t104 -420q0 -214 -68 -354t-194 -188l56 -182l-138 -42l-62 198q-170 0 -272 118v-506h-236zM392 286q40 -46 94 -72t112 -28l-54 182l136 42l56 -180q92 78 92 304q0 356 -228 356q-60 0 -110 -24t-98 -78v-502z " />
<glyph unicode="&#x490;" horiz-adv-x="1042" d="M168 0v1448h618l38 334h184v-548h-600v-1234h-240z" />
<glyph unicode="&#x491;" horiz-adv-x="882" d="M156 0v1086h470l38 334h178v-534h-450v-886h-236z" />
<glyph unicode="&#x492;" horiz-adv-x="1044" d="M38 640v186h130v622h842v-214h-602v-408h336v-186h-336v-640h-240v640h-130z" />
<glyph unicode="&#x493;" horiz-adv-x="916" d="M54 448v152h134v486h684v-200h-448v-286h270v-152h-270v-448h-236v448h-134z" />
<glyph unicode="&#x494;" horiz-adv-x="1312" d="M168 0v1448h842v-214h-602v-340h108q336 0 526 -121t190 -417v-40q0 -254 -113 -400t-361 -236l-84 204q112 44 180 96t103 133t35 205v24q0 140 -61 214t-171 101t-280 27h-72v-684h-240z" />
<glyph unicode="&#x495;" horiz-adv-x="1108" d="M156 0v1086h686v-200h-450v-278h68q266 0 418 -87t152 -331v-28q0 -170 -90 -289t-286 -193l-80 190q122 50 171 120t49 172v22q0 140 -93 186t-273 46h-36v-416h-236z" />
<glyph unicode="&#x496;" horiz-adv-x="2024" d="M42 0l438 738q-98 64 -164 150t-113 219t-87 341h240q44 -226 94 -341t128 -177t238 -132l58 -26v676h238v-676l58 26q158 70 235 132t127 176t94 342h240q-42 -210 -88 -342t-109 -217t-161 -151l308 -526h154v-518h-182l-38 306h-80l-366 632l-64 -28l-128 -52v-552 h-238v552l-126 52l-66 28l-370 -632h-270z" />
<glyph unicode="&#x497;" horiz-adv-x="1648" d="M38 0l324 554q-100 72 -155 189t-97 343h232q30 -158 64 -241t94 -135t174 -94l22 -8v478h228v-478l20 8q114 42 174 94t94 135t64 241h234q-44 -226 -99 -343t-155 -189l208 -354h130v-506h-172l-40 306h-60l-260 456l-34 -12l-104 -38v-406h-228v406l-106 38l-34 12 l-260 -456h-258z" />
<glyph unicode="&#x498;" horiz-adv-x="1132" d="M22 86l90 190q178 -84 352 -84q168 0 260 61t92 181q0 118 -78 164t-214 46h-250v202h234q124 0 189 56t65 152q0 106 -78 158t-210 52q-84 0 -160 -21t-158 -59l-80 188q100 50 200 75t216 25q238 0 377 -97t139 -289q0 -228 -214 -318q270 -82 270 -344 q0 -190 -121 -301t-325 -137l-26 -292h-170l-28 284q-216 16 -372 108z" />
<glyph unicode="&#x499;" horiz-adv-x="956" d="M36 58l82 182q132 -64 274 -64q116 0 183 39t67 119q0 78 -56 106t-168 28h-184v172h174q92 0 142 33t50 101q0 70 -56 106t-152 36q-108 0 -240 -62l-66 182q162 76 344 76q180 0 295 -72t115 -232q0 -80 -42 -139t-120 -93q92 -28 149 -91t57 -165q0 -136 -88 -221 t-244 -111l-30 -294h-162l-30 284q-184 14 -294 80z" />
<glyph unicode="&#x49a;" horiz-adv-x="1368" d="M168 0v1448h240v-688l94 48q168 84 246 144t130 170t92 326h246q-40 -208 -89 -338t-118 -214t-177 -154l330 -530h152v-518h-180l-40 306h-80l-386 630l-58 -28l-162 -78v-524h-240z" />
<glyph unicode="&#x49b;" horiz-adv-x="1162" d="M156 0v1086h236v-476l38 18q122 56 184 102t103 127t69 229h240q-44 -216 -108 -331t-172 -189l230 -366h130v-506h-172l-40 306h-56l-290 458l-36 -16l-120 -56v-386h-236z" />
<glyph unicode="&#x49c;" horiz-adv-x="1336" d="M168 0v1448h240v-700l128 66v370h176v-278q114 90 172 205t92 337h240q-36 -194 -85 -319t-118 -208t-175 -161l456 -760h-272l-312 550v-300h-174v344l-128 -62v-532h-240z" />
<glyph unicode="&#x49d;" horiz-adv-x="1140" d="M156 0v1086h236v-500l88 40v280h146v-200q64 58 103 151t57 229h240q-32 -198 -98 -311t-176 -193l350 -582h-258l-220 400v-238h-144v266l-88 -42v-386h-236z" />
<glyph unicode="&#x49e;" horiz-adv-x="1336" d="M38 1094v182h130v172h240v-172h250v-182h-250v-334l94 48q168 84 246 144t130 170t92 326h246q-40 -208 -89 -338t-118 -214t-177 -154l462 -742h-280l-386 630l-58 -28l-162 -78v-524h-240v1094h-130z" />
<glyph unicode="&#x49f;" horiz-adv-x="1174" d="M54 830v152h136v104h236v-104h178v-152h-178v-220l38 18q122 56 184 102t103 127t69 229h240q-44 -214 -109 -330t-171 -190l356 -566h-264l-292 458q-10 -6 -18 -9t-16 -7l-120 -56v-386h-236v830h-136z" />
<glyph unicode="&#x4a0;" horiz-adv-x="1578" d="M42 1232v216h516h90v-688l96 48q168 84 246 144t130 170t92 326h246q-40 -208 -89 -338t-118 -214t-177 -154l462 -742h-280l-388 630l-56 -28l-164 -78v-524h-240v1232h-366z" />
<glyph unicode="&#x4a1;" horiz-adv-x="1314" d="M32 886v200h438h96v-476l38 18q122 56 184 102t103 127t71 229h238q-44 -216 -108 -331t-172 -189l356 -566h-264l-290 458q-8 -4 -16 -7t-18 -9l-122 -56v-386h-236v886h-298z" />
<glyph unicode="&#x4a2;" horiz-adv-x="1462" d="M166 0v1448h240v-606h590v606h240v-1236h166v-518h-180l-40 306h-186v628h-590v-628h-240z" />
<glyph unicode="&#x4a3;" horiz-adv-x="1256" d="M156 0v1086h236v-422h406v422h236v-886h162v-506h-172l-40 306h-186v462h-406v-462h-236z" />
<glyph unicode="&#x4a4;" horiz-adv-x="1842" d="M168 0v1448h240v-606h574v606h828v-214h-588v-1234h-240v628h-574v-628h-240z" />
<glyph unicode="&#x4a5;" horiz-adv-x="1498" d="M156 0v1086h236v-422h392v422h672v-200h-436v-886h-236v462h-392v-462h-236z" />
<glyph unicode="&#x4a6;" horiz-adv-x="2128" d="M168 0v1448h1056v-554h108q336 0 526 -121t190 -417v-40q0 -254 -114 -400t-362 -236l-84 204q112 44 180 96t103 133t35 205v24q0 140 -61 214t-171 101t-280 27h-70v-684h-240v1232h-576v-1232h-240z" />
<glyph unicode="&#x4a7;" horiz-adv-x="1752" d="M156 0v1086h868v-408h70q270 0 425 -99t155 -355v-28q0 -194 -94 -317t-302 -199l-78 190q132 50 185 126t53 200v22q0 156 -97 212t-281 56h-36v-486h-236v886h-396v-886h-236z" />
<glyph unicode="&#x4a8;" horiz-adv-x="1706" d="M106 746q0 234 69 398t239 326l164 -146q-118 -122 -178 -259t-60 -313q0 -268 124 -425t352 -157h24q-124 110 -183 270t-59 390q0 190 54 335t159 227t253 82q156 0 272 -79t178 -228t62 -351q0 -192 -69 -360t-195 -286q146 -42 310 -70l-42 -208q-304 48 -500 132 q-122 -48 -270 -48q-226 0 -384 96t-239 270t-81 404zM832 830q0 -220 66 -356t212 -218q110 76 171 217t61 337q0 210 -76 331t-200 121q-118 0 -176 -113t-58 -319z" />
<glyph unicode="&#x4a9;" horiz-adv-x="1400" d="M88 550q0 178 51 303t175 259l166 -128q-80 -94 -118 -195t-38 -231q0 -174 79 -278t233 -118q-70 82 -101 194t-31 264q0 214 98 353t286 139q122 0 216 -60t145 -172t51 -262q0 -144 -54 -267t-152 -211q88 -26 238 -52l-36 -204q-274 48 -438 120q-92 -30 -200 -30 q-178 0 -306 73t-196 204t-68 299zM740 620q0 -156 34 -248t126 -150q84 54 127 152t43 230q0 136 -48 220t-132 84q-150 0 -150 -288z" />
<glyph unicode="&#x4aa;" horiz-adv-x="1200" d="M86 704q0 234 80 408t227 268t347 94q108 0 210 -28t178 -80l-82 -184q-152 76 -310 76q-190 0 -296 -141t-106 -395q0 -260 107 -393t317 -133q180 0 298 70l84 -182q-56 -44 -144 -72t-192 -34l-24 -284h-170l-28 298q-238 46 -367 231t-129 481z" />
<glyph unicode="&#x4ab;" horiz-adv-x="980" d="M80 532q0 172 62 304t176 204t264 72q88 0 173 -25t149 -71l-84 -182q-144 64 -242 64q-122 0 -189 -93t-67 -259q0 -354 282 -354q112 0 230 62l82 -182q-104 -80 -258 -92l-28 -286h-162l-28 300q-174 42 -267 181t-93 357z" />
<glyph unicode="&#x4ac;" horiz-adv-x="1058" d="M42 1232v216h974v-216h-368v-1020h166v-518h-180l-40 306h-186v1232h-366z" />
<glyph unicode="&#x4ad;" horiz-adv-x="908" d="M32 886v200h834v-200h-300v-686h162v-506h-172l-40 306h-186v886h-298z" />
<glyph unicode="&#x4ae;" horiz-adv-x="1162" d="M24 1448h258l302 -696l298 696h256l-438 -958v-490h-240v490z" />
<glyph unicode="&#x4af;" horiz-adv-x="1084" d="M26 1086h242l274 -740l276 740h240l-400 -990v-510h-236v510z" />
<glyph unicode="&#x4b0;" horiz-adv-x="1162" d="M24 1448h258l302 -696l298 696h256l-438 -958v-28h270v-182h-270v-280h-240v280h-270v182h270v28z" />
<glyph unicode="&#x4b1;" horiz-adv-x="1084" d="M26 1086h242l274 -740l276 740h240l-400 -990v-14h226v-152h-226v-344h-236v344h-226v152h226v14z" />
<glyph unicode="&#x4b2;" horiz-adv-x="1280" d="M38 0l430 734l-416 714h272l286 -498l282 498h268l-418 -712l308 -524h176v-518h-182l-40 306h-102l-304 520l-292 -520h-268z" />
<glyph unicode="&#x4b3;" horiz-adv-x="1080" d="M30 0l346 552l-332 534h262l202 -350l210 350h256l-344 -532l222 -354h172v-506h-172l-38 306h-96l-218 370l-214 -370h-256z" />
<glyph unicode="&#x4b4;" horiz-adv-x="1668" d="M42 1232v216h578h338v-216h-338v-1020h584v1236h240v-1236h164v-518h-182l-38 306h-1008v1232h-338z" />
<glyph unicode="&#x4b5;" horiz-adv-x="1382" d="M32 886v200h476h240v-200h-240v-686h416v886h236v-886h160v-506h-172l-40 306h-836v886h-240z" />
<glyph unicode="&#x4b6;" horiz-adv-x="1410" d="M130 1032v416h240v-372q0 -166 64 -244t212 -78q144 0 298 68v626h240v-1236h166v-518h-180l-40 306h-186v614q-168 -74 -344 -74q-228 0 -349 130t-121 362z" />
<glyph unicode="&#x4b7;" horiz-adv-x="1214" d="M124 752v334h236v-276q0 -112 45 -170t147 -58q98 0 202 46v458h236v-886h162v-506h-172l-40 306h-186v432q-140 -54 -274 -54q-172 0 -264 97t-92 277z" />
<glyph unicode="&#x4b8;" horiz-adv-x="1352" d="M130 1034v414h240v-374q0 -142 46 -221t148 -99v296h188v-294q94 16 192 60v632h240v-1448h-240v620q-96 -42 -192 -60v-278h-188v264q-212 10 -323 137t-111 351z" />
<glyph unicode="&#x4b9;" horiz-adv-x="1150" d="M124 760v326h236v-282q0 -94 30 -149t96 -73v256h150v-256q62 12 118 36v468h236v-1086h-236v440q-74 -28 -118 -36v-212h-150v194h-6q-172 0 -264 97t-92 277z" />
<glyph unicode="&#x4ba;" horiz-adv-x="1300" d="M168 0v1448h240v-556q160 66 320 66q210 0 325 -120t115 -348v-490h-240v448q0 158 -62 227t-196 69q-124 0 -262 -60v-684h-240z" />
<glyph unicode="&#x4bb;" horiz-adv-x="1176" d="M156 0v1540h236v-562q128 134 308 134q158 0 244 -93t86 -261v-758h-236v728q0 162 -180 162q-62 0 -116 -20t-106 -62v-808h-236z" />
<glyph unicode="&#x4bc;" horiz-adv-x="1630" d="M16 924q0 116 62 222l182 -62q-12 -24 -20 -58t-8 -60q0 -56 31 -88t99 -32h8q28 298 182 463t412 165q278 0 434 -181t156 -509q0 -100 -12 -146h-930q20 -210 126 -323t284 -113q194 0 376 94l90 -190q-90 -62 -215 -96t-259 -34q-292 0 -458 173t-188 489h-32 q-154 0 -237 75t-83 211zM612 848h696q-8 194 -96 300t-248 106q-310 0 -352 -406z" />
<glyph unicode="&#x4bd;" horiz-adv-x="1306" d="M16 698q0 46 13 93t33 81l164 -58q-22 -44 -22 -86q0 -46 24 -69t80 -23q22 228 142 352t324 124q218 0 337 -137t119 -387q0 -76 -10 -118h-678q26 -280 292 -280q136 0 266 70l84 -178q-74 -50 -172 -78t-202 -28q-224 0 -355 129t-149 365h-22q-132 0 -200 59t-68 169 zM542 636h454q-4 128 -63 198t-163 70q-200 0 -228 -268z" />
<glyph unicode="&#x4be;" horiz-adv-x="1630" d="M16 924q0 116 62 222l182 -62q-12 -24 -20 -58t-8 -60q0 -56 31 -88t99 -32h8q28 298 182 463t412 165q278 0 434 -181t156 -509q0 -100 -12 -146h-930q20 -210 126 -323t284 -113q194 0 376 94l90 -190q-76 -52 -176 -84t-210 -42l-26 -286h-170l-28 292 q-230 38 -361 207t-149 445h-32q-154 0 -237 75t-83 211zM612 848h696q-8 194 -96 300t-248 106q-310 0 -352 -406z" />
<glyph unicode="&#x4bf;" horiz-adv-x="1306" d="M16 698q0 46 13 93t33 81l164 -58q-22 -44 -22 -86q0 -46 24 -69t80 -23q22 228 142 352t324 124q218 0 337 -137t119 -387q0 -76 -10 -118h-678q26 -280 292 -280q136 0 266 70l84 -178q-116 -82 -288 -100l-30 -288h-160l-30 296q-164 34 -260 158t-110 322h-22 q-132 0 -200 59t-68 169zM542 636h454q-4 128 -63 198t-163 70q-200 0 -228 -268z" />
<glyph unicode="&#x4c0;" horiz-adv-x="582" d="M172 0v1448h238v-1448h-238z" />
<glyph unicode="&#x4c1;" horiz-adv-x="1984" d="M42 0l438 738q-98 64 -164 150t-113 219t-87 341h240q44 -226 94 -341t128 -177t238 -132l58 -26v676h238v-676l58 26q158 70 235 132t127 176t94 342h240q-42 -210 -88 -342t-109 -217t-161 -151l434 -738h-272l-366 632l-64 -28l-128 -52v-552h-238v552l-126 52l-66 28 l-370 -632h-270zM646 1880h142q18 -68 68 -104t146 -36q178 0 214 140h138q-18 -156 -112 -234t-242 -78q-152 0 -245 78t-109 234z" />
<glyph unicode="&#x4c2;" horiz-adv-x="1618" d="M38 0l324 554q-100 72 -155 189t-97 343h232q30 -158 64 -241t94 -135t174 -94l22 -8v478h228v-478l20 8q114 42 174 94t94 135t64 241h234q-44 -226 -99 -343t-155 -189l324 -554h-258l-260 456l-34 -12l-104 -38v-406h-228v406l-106 38l-34 12l-260 -456h-258z M462 1540h142q18 -68 68 -104t146 -36q178 0 214 140h138q-18 -156 -112 -234t-242 -78q-152 0 -245 78t-109 234z" />
<glyph unicode="&#x4c3;" horiz-adv-x="1336" d="M168 0v1448h240v-688l94 48q168 84 246 144t130 170t92 326h246q-40 -208 -89 -338t-118 -214t-177 -154l332 -520q34 -56 52 -109t18 -117q0 -106 -64 -182t-214 -134l-84 200q64 26 89 55t25 75q0 48 -36 102l-322 518l-58 -28l-162 -78v-524h-240z" />
<glyph unicode="&#x4c4;" horiz-adv-x="1136" d="M156 0v1086h236v-476l38 18q122 56 184 102t103 127t69 229h240q-44 -216 -108 -331t-172 -189l232 -362q36 -58 56 -108t20 -110q0 -108 -59 -179t-205 -127l-80 190q60 24 86 53t26 71q0 40 -36 94l-238 370l-36 -16l-120 -56v-386h-236z" />
<glyph unicode="&#x4c5;" horiz-adv-x="1478" d="M32 172q112 58 170 119t85 152t39 251l54 754h866v-1236h182v-20l-188 -498h-186v20l66 286h-114v1232h-396l-42 -558q-14 -206 -54 -330t-126 -211t-246 -165z" />
<glyph unicode="&#x4c6;" horiz-adv-x="1258" d="M40 162q84 42 129 88t66 110t29 170l40 556h722v-886h184v-20l-190 -486h-170v20l68 286h-128v886h-262l-32 -382q-12 -152 -45 -242t-104 -156t-205 -132z" />
<glyph unicode="&#x4c7;" horiz-adv-x="1406" d="M168 0v1448h240v-606h590v606h240v-1268q0 -142 -33 -233t-108 -153t-209 -114l-84 204q84 34 125 75t55 92t14 133v444h-590v-628h-240z" />
<glyph unicode="&#x4c8;" horiz-adv-x="1190" d="M156 0v1086h236v-422h406v422h236v-910q0 -146 -31 -235t-103 -148t-206 -113l-78 190q82 34 121 75t50 93t11 142v282h-406v-462h-236z" />
<glyph unicode="&#x4c9;" horiz-adv-x="1470" d="M168 0v1448h240v-606h590v606h240v-1236h184v-20l-190 -498h-184v20l64 286h-114v628h-590v-628h-240z" />
<glyph unicode="&#x4ca;" horiz-adv-x="1266" d="M156 0v1086h236v-422h406v422h236v-886h184v-20l-190 -486h-170v20l68 286h-128v462h-406v-462h-236z" />
<glyph unicode="&#x4cb;" horiz-adv-x="1352" d="M130 1070v378h240v-336q0 -166 64 -244t212 -78q140 0 298 70v588h240v-1448h-186l-38 -306h-182v518h166v438q-176 -74 -344 -74q-228 0 -349 130t-121 364z" />
<glyph unicode="&#x4cc;" horiz-adv-x="1150" d="M124 810v276h236v-218q0 -114 45 -171t147 -57q96 0 202 44v402h236v-1086h-184l-40 -306h-172v506h160v290q-136 -56 -274 -56q-172 0 -264 97t-92 279z" />
<glyph unicode="&#x4cd;" horiz-adv-x="1768" d="M168 0v1448h288l396 -936l392 936h292v-1236h184v-20l-190 -498h-186v20l66 286h-108v1064l-326 -776h-250l-330 776v-1064h-228z" />
<glyph unicode="&#x4ce;" horiz-adv-x="1522" d="M156 0v1086h280l288 -664l292 664h274v-886h184v-20l-190 -486h-170v20l70 286h-118v736l-250 -560h-192l-246 560v-736h-222z" />
<glyph unicode="&#x4cf;" horiz-adv-x="548" d="M156 0v1540h236v-1540h-236z" />
<glyph unicode="&#x4d0;" horiz-adv-x="1322" d="M32 0l498 1448h262l498 -1448h-254l-106 336h-542l-104 -336h-252zM308 1880h142q18 -68 68 -104t146 -36q178 0 214 140h138q-18 -156 -112 -234t-242 -78q-152 0 -245 78t-109 234zM450 546h416l-210 664z" />
<glyph unicode="&#x4d1;" horiz-adv-x="1066" d="M60 304q0 194 150 285t480 93v50q0 168 -218 168q-128 0 -254 -56l-60 184q174 84 354 84q192 0 301 -92t109 -262v-758h-210v152q-102 -174 -322 -174q-158 0 -244 86t-86 240zM174 1540h142q18 -68 68 -104t146 -36q178 0 214 140h138q-18 -156 -112 -234t-242 -78 q-152 0 -245 78t-109 234zM286 322q0 -142 162 -142q138 0 242 110v230q-210 -2 -307 -50t-97 -148z" />
<glyph unicode="&#x4d2;" horiz-adv-x="1322" d="M32 0l498 1448h262l498 -1448h-254l-106 336h-542l-104 -336h-252zM324 1690q0 64 35 98t97 34t97 -35t35 -95q0 -62 -35 -97t-97 -35t-97 35t-35 95zM450 546h416l-210 664zM730 1690q0 64 35 98t97 34t97 -35t35 -95q0 -62 -35 -97t-97 -35t-97 35t-35 95z" />
<glyph unicode="&#x4d3;" horiz-adv-x="1066" d="M60 304q0 194 150 285t480 93v50q0 168 -218 168q-128 0 -254 -56l-60 184q174 84 354 84q192 0 301 -92t109 -262v-758h-210v152q-102 -174 -322 -174q-158 0 -244 86t-86 240zM214 1366q0 64 35 98t97 34t97 -35t35 -95q0 -62 -35 -97t-97 -35t-97 35t-35 95zM286 322 q0 -142 162 -142q138 0 242 110v230q-210 -2 -307 -50t-97 -148zM598 1366q0 64 35 98t97 34t97 -35t35 -95q0 -62 -35 -97t-97 -35t-97 35t-35 95z" />
<glyph unicode="&#x4d4;" horiz-adv-x="1844" d="M-10 0l752 1448h1008v-214h-624v-386h454v-216h-454v-418h650v-214h-882v318h-486l-162 -318h-256zM514 528h380v742z" />
<glyph unicode="&#x4d5;" horiz-adv-x="1652" d="M60 298q0 190 146 278t468 92v64q0 168 -210 168q-122 0 -246 -56l-60 184q174 84 348 84q104 0 184 -35t124 -103q116 138 314 138q212 0 330 -137t118 -387q0 -76 -10 -118h-664q28 -280 284 -280q130 0 260 70l84 -178q-72 -50 -169 -78t-199 -28q-136 0 -238 52 t-164 150q-84 -104 -175 -152t-203 -48q-152 0 -237 84t-85 236zM286 316q0 -136 156 -136q148 0 256 140q-22 80 -28 186q-200 -4 -292 -49t-92 -141zM904 636h438q-4 128 -61 197t-159 69q-194 0 -218 -266z" />
<glyph unicode="&#x4d6;" horiz-adv-x="1150" d="M168 0v1448h890v-214h-650v-386h480v-216h-480v-418h676v-214h-916zM276 1880h142q18 -68 68 -104t146 -36q178 0 214 140h138q-18 -156 -112 -234t-242 -78q-152 0 -245 78t-109 234z" />
<glyph unicode="&#x4d7;" horiz-adv-x="1086" d="M84 542q0 272 124 421t348 149q216 0 335 -137t119 -387q0 -76 -10 -118h-678q26 -280 292 -280q136 0 266 70l86 -178q-74 -50 -173 -78t-203 -28q-242 0 -374 149t-132 417zM222 1540h142q18 -68 68 -104t146 -36q178 0 214 140h138q-18 -156 -112 -234t-242 -78 q-152 0 -245 78t-109 234zM324 636h452q-4 128 -63 198t-163 70q-198 0 -226 -268z" />
<glyph unicode="&#x4d8;" horiz-adv-x="1370" d="M76 672q0 92 12 140h930q-18 210 -123 323t-283 113q-180 0 -380 -94l-90 190q92 62 216 96t258 34q316 0 483 -191t167 -559q0 -364 -157 -556t-445 -192q-282 0 -435 182t-153 514zM322 602q10 -194 99 -300t247 -106q152 0 241 103t109 303h-696z" />
<glyph unicode="&#x4d9;" horiz-adv-x="1086" d="M76 498q0 62 10 118h678q-30 280 -290 280q-136 0 -268 -68l-84 176q74 50 172 78t204 28q242 0 373 -148t131 -418q0 -272 -124 -421t-350 -149q-216 0 -334 137t-118 387zM310 450q4 -128 61 -198t161 -70q202 0 230 268h-452z" />
<glyph unicode="&#x4da;" horiz-adv-x="1370" d="M76 672q0 92 12 140h930q-18 210 -123 323t-283 113q-180 0 -380 -94l-90 190q92 62 216 96t258 34q316 0 483 -191t167 -559q0 -364 -157 -556t-445 -192q-282 0 -435 182t-153 514zM322 602q10 -194 99 -300t247 -106q152 0 241 103t109 303h-696zM332 1690q0 64 35 98 t97 34t97 -35t35 -95q0 -62 -35 -97t-97 -35t-97 35t-35 95zM738 1690q0 64 35 98t97 34t97 -35t35 -95q0 -62 -35 -97t-97 -35t-97 35t-35 95z" />
<glyph unicode="&#x4db;" horiz-adv-x="1086" d="M76 498q0 62 10 118h678q-30 280 -290 280q-136 0 -268 -68l-84 176q74 50 172 78t204 28q242 0 373 -148t131 -418q0 -272 -124 -421t-350 -149q-216 0 -334 137t-118 387zM210 1366q0 64 35 98t97 34t97 -35t35 -95q0 -62 -35 -97t-97 -35t-97 35t-35 95zM310 450 q4 -128 61 -198t161 -70q202 0 230 268h-452zM594 1366q0 64 35 98t97 34t97 -35t35 -95q0 -62 -35 -97t-97 -35t-97 35t-35 95z" />
<glyph unicode="&#x4dc;" horiz-adv-x="1984" d="M42 0l438 738q-98 64 -164 150t-113 219t-87 341h240q44 -226 94 -341t128 -177t238 -132l58 -26v676h238v-676l58 26q158 70 235 132t127 176t94 342h240q-42 -210 -88 -342t-109 -217t-161 -151l434 -738h-272l-366 632l-64 -28l-128 -52v-552h-238v552l-126 52l-66 28 l-370 -632h-270zM666 1690q0 64 35 98t97 34t97 -35t35 -95q0 -62 -35 -97t-97 -35t-97 35t-35 95zM1072 1690q0 64 35 98t97 34t97 -35t35 -95q0 -62 -35 -97t-97 -35t-97 35t-35 95z" />
<glyph unicode="&#x4dd;" horiz-adv-x="1618" d="M38 0l324 554q-100 72 -155 189t-97 343h232q30 -158 64 -241t94 -135t174 -94l22 -8v478h228v-478l20 8q114 42 174 94t94 135t64 241h234q-44 -226 -99 -343t-155 -189l324 -554h-258l-260 456l-34 -12l-104 -38v-406h-228v406l-106 38l-34 12l-260 -456h-258z M486 1366q0 64 35 98t97 34t97 -35t35 -95q0 -62 -35 -97t-97 -35t-97 35t-35 95zM870 1366q0 64 35 98t97 34t97 -35t35 -95q0 -62 -35 -97t-97 -35t-97 35t-35 95z" />
<glyph unicode="&#x4de;" horiz-adv-x="1132" d="M22 86l90 190q178 -84 352 -84q168 0 260 61t92 181q0 118 -78 164t-214 46h-250v202h234q124 0 189 56t65 152q0 106 -78 158t-210 52q-84 0 -160 -21t-158 -59l-80 188q100 50 200 75t216 25q238 0 377 -97t139 -289q0 -228 -214 -318q270 -82 270 -344 q0 -222 -163 -335t-423 -113q-272 0 -456 110zM196 1690q0 64 35 98t97 34t97 -35t35 -95q0 -62 -35 -97t-97 -35t-97 35t-35 95zM602 1690q0 64 35 98t97 34t97 -35t35 -95q0 -62 -35 -97t-97 -35t-97 35t-35 95z" />
<glyph unicode="&#x4df;" horiz-adv-x="956" d="M36 58l82 182q132 -64 274 -64q116 0 183 39t67 119q0 78 -56 106t-168 28h-184v172h174q92 0 142 33t50 101q0 70 -56 106t-152 36q-108 0 -240 -62l-66 182q162 76 344 76q180 0 295 -72t115 -232q0 -80 -42 -139t-120 -93q92 -28 149 -91t57 -165q0 -164 -129 -254 t-347 -90q-104 0 -203 20t-169 62zM124 1366q0 64 35 98t97 34t97 -35t35 -95q0 -62 -35 -97t-97 -35t-97 35t-35 95zM508 1366q0 64 35 98t97 34t97 -35t35 -95q0 -62 -35 -97t-97 -35t-97 35t-35 95z" />
<glyph unicode="&#x4e0;" horiz-adv-x="1176" d="M24 84l88 194q192 -86 384 -86q166 0 257 68t91 194q0 136 -109 189t-321 53h-84v180l370 360h-594v212h888v-216l-372 -360q470 -48 470 -422q0 -156 -79 -263t-213 -160t-300 -53q-130 0 -253 27t-223 83z" />
<glyph unicode="&#x4e1;" horiz-adv-x="1006" d="M22 -358l82 184q144 -66 290 -66q144 0 226 69t82 201q0 140 -101 197t-277 57h-96v172l356 430h-494v200h762v-202l-366 -434q216 -22 337 -121t121 -303q0 -152 -71 -257t-191 -157t-268 -52q-236 0 -392 82z" />
<glyph unicode="&#x4e2;" horiz-adv-x="1448" d="M168 0v1448h240v-1038l638 1038h234v-1448h-240v1040l-638 -1040h-234zM424 1614v166h632v-166h-632z" />
<glyph unicode="&#x4e3;" horiz-adv-x="1222" d="M156 0v1086h236v-710l448 710h226v-1086h-236v708l-450 -708h-224zM296 1274v166h632v-166h-632z" />
<glyph unicode="&#x4e4;" horiz-adv-x="1448" d="M168 0v1448h240v-1038l638 1038h234v-1448h-240v1040l-638 -1040h-234zM406 1690q0 64 35 98t97 34t97 -35t35 -95q0 -62 -35 -97t-97 -35t-97 35t-35 95zM812 1690q0 64 35 98t97 34t97 -35t35 -95q0 -62 -35 -97t-97 -35t-97 35t-35 95z" />
<glyph unicode="&#x4e5;" horiz-adv-x="1222" d="M156 0v1086h236v-710l448 710h226v-1086h-236v708l-450 -708h-224zM288 1366q0 64 35 98t97 34t97 -35t35 -95q0 -62 -35 -97t-97 -35t-97 35t-35 95zM672 1366q0 64 35 98t97 34t97 -35t35 -95q0 -62 -35 -97t-97 -35t-97 35t-35 95z" />
<glyph unicode="&#x4e6;" horiz-adv-x="1430" d="M106 724q0 372 156 561t452 189t453 -189t157 -561t-157 -561t-453 -189t-452 189t-156 561zM354 724q0 -536 360 -536q362 0 362 536t-362 536q-360 0 -360 -536zM380 1690q0 64 35 98t97 34t97 -35t35 -95q0 -62 -35 -97t-97 -35t-97 35t-35 95zM786 1690q0 64 35 98 t97 34t97 -35t35 -95q0 -62 -35 -97t-97 -35t-97 35t-35 95z" />
<glyph unicode="&#x4e7;" horiz-adv-x="1122" d="M88 542q0 280 123 425t351 145t350 -145t122 -425t-123 -424t-351 -144t-350 144t-122 424zM240 1366q0 64 35 98t97 34t97 -35t35 -95q0 -62 -35 -97t-97 -35t-97 35t-35 95zM330 542q0 -178 58 -268t172 -90q116 0 174 90t58 268q0 358 -230 358q-232 0 -232 -358z M624 1366q0 64 35 98t97 34t97 -35t35 -95q0 -62 -35 -97t-97 -35t-97 35t-35 95z" />
<glyph unicode="&#x4e8;" horiz-adv-x="1430" d="M106 724q0 372 156 561t452 189t453 -189t157 -561t-157 -561t-453 -189t-452 189t-156 561zM356 634q30 -446 358 -446q330 0 360 446h-718zM358 838h714q-36 422 -358 422q-320 0 -356 -422z" />
<glyph unicode="&#x4e9;" horiz-adv-x="1122" d="M88 542q0 280 123 425t351 145t350 -145t122 -425t-123 -424t-351 -144t-350 144t-122 424zM328 460q12 -140 71 -212t161 -72q206 0 234 284h-466zM328 636h464q-28 274 -230 274q-204 0 -234 -274z" />
<glyph unicode="&#x4ea;" horiz-adv-x="1430" d="M106 724q0 372 156 561t452 189t453 -189t157 -561t-157 -561t-453 -189t-452 189t-156 561zM356 634q30 -446 358 -446q330 0 360 446h-718zM358 838h714q-36 422 -358 422q-320 0 -356 -422zM380 1690q0 64 35 98t97 34t97 -35t35 -95q0 -62 -35 -97t-97 -35t-97 35 t-35 95zM786 1690q0 64 35 98t97 34t97 -35t35 -95q0 -62 -35 -97t-97 -35t-97 35t-35 95z" />
<glyph unicode="&#x4eb;" horiz-adv-x="1122" d="M88 542q0 280 123 425t351 145t350 -145t122 -425t-123 -424t-351 -144t-350 144t-122 424zM236 1366q0 64 35 98t97 34t97 -35t35 -95q0 -62 -35 -97t-97 -35t-97 35t-35 95zM328 460q12 -140 71 -212t161 -72q206 0 234 284h-466zM328 636h464q-28 274 -230 274 q-204 0 -234 -274zM620 1366q0 64 35 98t97 34t97 -35t35 -95q0 -62 -35 -97t-97 -35t-97 35t-35 95z" />
<glyph unicode="&#x4ec;" horiz-adv-x="1204" d="M62 84l82 182q118 -70 298 -70q186 0 293 111t129 325h-572v216h576q-20 206 -120 308t-276 102q-158 0 -314 -76l-82 184q78 52 181 80t215 28q302 0 475 -190t173 -544q0 -234 -79 -406t-230 -265t-357 -93q-120 0 -224 29t-168 79zM212 1690q0 64 35 98t97 34t97 -35 t35 -95q0 -62 -35 -97t-97 -35t-97 35t-35 95zM618 1690q0 64 35 98t97 34t97 -35t35 -95q0 -62 -35 -97t-97 -35t-97 35t-35 95z" />
<glyph unicode="&#x4ed;" horiz-adv-x="990" d="M64 68l76 170q116 -60 232 -60q254 0 290 290h-408v172h410q-26 276 -272 276q-58 0 -111 -15t-117 -45l-78 166q144 90 326 90q238 0 368 -147t130 -409q0 -176 -62 -307t-178 -202t-274 -71q-208 0 -332 92zM140 1366q0 64 35 98t97 34t97 -35t35 -95q0 -62 -35 -97 t-97 -35t-97 35t-35 95zM524 1366q0 64 35 98t97 34t97 -35t35 -95q0 -62 -35 -97t-97 -35t-97 35t-35 95z" />
<glyph unicode="&#x4ee;" horiz-adv-x="1258" d="M38 1448h270l370 -790l312 790h238l-372 -924q-78 -194 -153 -301t-175 -166t-264 -97l-60 214q140 36 218 83t134 137zM344 1614v166h632v-166h-632z" />
<glyph unicode="&#x4ef;" horiz-adv-x="1018" d="M26 1086h242l244 -830l240 830h240l-344 -1046q-58 -178 -187 -293t-349 -187l-80 200q140 50 223 105t133 131zM196 1274v166h632v-166h-632z" />
<glyph unicode="&#x4f0;" horiz-adv-x="1258" d="M38 1448h270l370 -790l312 790h238l-372 -924q-78 -194 -153 -301t-175 -166t-264 -97l-60 214q140 36 218 83t134 137zM326 1690q0 64 35 98t97 34t97 -35t35 -95q0 -62 -35 -97t-97 -35t-97 35t-35 95zM732 1690q0 64 35 98t97 34t97 -35t35 -95q0 -62 -35 -97t-97 -35 t-97 35t-35 95z" />
<glyph unicode="&#x4f1;" horiz-adv-x="1018" d="M26 1086h242l244 -830l240 830h240l-344 -1046q-58 -178 -187 -293t-349 -187l-80 200q140 50 223 105t133 131zM188 1366q0 64 35 98t97 34t97 -35t35 -95q0 -62 -35 -97t-97 -35t-97 35t-35 95zM572 1366q0 64 35 98t97 34t97 -35t35 -95q0 -62 -35 -97t-97 -35t-97 35 t-35 95z" />
<glyph unicode="&#x4f2;" horiz-adv-x="1258" d="M38 1448h270l370 -790l312 790h238l-372 -924q-78 -194 -153 -301t-175 -166t-264 -97l-60 214q140 36 218 83t134 137zM370 1562v24l192 266h226v-24l-258 -266h-160zM702 1562v24l192 266h230v-24l-258 -266h-164z" />
<glyph unicode="&#x4f3;" horiz-adv-x="1018" d="M26 1086h242l244 -830l240 830h240l-344 -1046q-58 -178 -187 -293t-349 -187l-80 200q140 50 223 105t133 131zM260 1230v20l114 318h216v-20l-178 -318h-152zM562 1230v20l116 318h218v-20l-182 -318h-152z" />
<glyph unicode="&#x4f4;" horiz-adv-x="1352" d="M130 1032v416h240v-372q0 -166 64 -244t212 -78q144 0 298 68v626h240v-1448h-240v614q-168 -74 -344 -74q-228 0 -349 130t-121 362zM340 1690q0 64 35 98t97 34t97 -35t35 -95q0 -62 -35 -97t-97 -35t-97 35t-35 95zM746 1690q0 64 35 98t97 34t97 -35t35 -95 q0 -62 -35 -97t-97 -35t-97 35t-35 95z" />
<glyph unicode="&#x4f5;" horiz-adv-x="1150" d="M124 752v334h236v-276q0 -112 45 -170t147 -58q98 0 202 46v458h236v-1086h-236v432q-140 -54 -274 -54q-172 0 -264 97t-92 277zM254 1366q0 64 35 98t97 34t97 -35t35 -95q0 -62 -35 -97t-97 -35t-97 35t-35 95zM638 1366q0 64 35 98t97 34t97 -35t35 -95 q0 -62 -35 -97t-97 -35t-97 35t-35 95z" />
<glyph unicode="&#x4f6;" horiz-adv-x="1044" d="M168 0v1448h842v-214h-602v-1022h164v-518h-180l-40 306h-184z" />
<glyph unicode="&#x4f7;" horiz-adv-x="882" d="M156 0v1086h684v-200h-448v-686h160v-506h-172l-40 306h-184z" />
<glyph unicode="&#x4f8;" horiz-adv-x="1750" d="M168 0v1448h240v-508h262q244 0 370 -121t126 -351q0 -224 -130 -346t-358 -122h-510zM408 214h258q252 0 252 258q0 128 -61 191t-175 63h-274v-512zM548 1690q0 64 35 98t97 34t97 -35t35 -95q0 -62 -35 -97t-97 -35t-97 35t-35 95zM954 1690q0 64 35 98t97 34t97 -35 t35 -95q0 -62 -35 -97t-97 -35t-97 35t-35 95zM1342 0v1448h240v-1448h-240z" />
<glyph unicode="&#x4f9;" horiz-adv-x="1512" d="M156 0v1086h236v-346h168q202 0 317 -85t115 -273q0 -126 -59 -212t-158 -128t-217 -42h-402zM392 198h158q94 0 147 47t53 141q0 88 -50 130t-138 42h-170v-360zM438 1366q0 64 35 98t97 34t97 -35t35 -95q0 -62 -35 -97t-97 -35t-97 35t-35 95zM822 1366q0 64 35 98 t97 34t97 -35t35 -95q0 -62 -35 -97t-97 -35t-97 35t-35 95zM1120 0v1086h236v-1086h-236z" />
<glyph unicode="&#x4fa;" horiz-adv-x="1044" d="M38 652v188h130v608h842v-214h-602v-394h336v-188h-336v-440h180v-56q0 -132 -24 -216t-89 -147t-191 -113l-76 188q78 32 107 62t33 70h-180v652h-130z" />
<glyph unicode="&#x4fb;" horiz-adv-x="916" d="M54 466v152h134v468h684v-200h-448v-268h270v-152h-270v-266h164v-50q0 -132 -25 -217t-90 -145t-185 -108l-74 182q74 32 105 64t35 74h-166v466h-134z" />
<glyph unicode="&#x4fc;" horiz-adv-x="1210" d="M38 0l430 734l-414 714h272l284 -512l288 512h268l-426 -714l322 -510q36 -60 54 -114t18 -114q0 -108 -62 -184t-214 -132l-82 192q64 28 93 59t29 77q0 42 -38 104l-262 420l-292 -532h-268z" />
<glyph unicode="&#x4fd;" horiz-adv-x="1008" d="M30 0l346 552l-332 534h262l202 -350l210 350h256l-344 -532l240 -350q76 -108 76 -218t-57 -180t-203 -126l-78 184q60 24 88 54t28 74q0 40 -36 96l-188 282l-214 -370h-256z" />
<glyph unicode="&#x4fe;" horiz-adv-x="1212" d="M38 0l388 642h-266v186h266l-374 620h264l294 -528l290 528h260l-376 -620h270v-186h-268l388 -642h-264l-312 552l-300 -552h-260z" />
<glyph unicode="&#x4ff;" horiz-adv-x="1008" d="M30 0l312 478h-214v152h212l-296 456h254l210 -368l216 368h250l-308 -456h210v-152h-210l312 -478h-254l-224 388l-220 -388h-250z" />
<glyph unicode="&#x2000;" horiz-adv-x="1024" />
<glyph unicode="&#x2001;" horiz-adv-x="2048" />
<glyph unicode="&#x2002;" horiz-adv-x="1024" />
<glyph unicode="&#x2003;" horiz-adv-x="2048" />
<glyph unicode="&#x2004;" horiz-adv-x="682" />
<glyph unicode="&#x2005;" horiz-adv-x="512" />
<glyph unicode="&#x2006;" horiz-adv-x="340" />
<glyph unicode="&#x2007;" horiz-adv-x="1252" />
<glyph unicode="&#x2008;" horiz-adv-x="520" />
<glyph unicode="&#x2009;" horiz-adv-x="340" />
<glyph unicode="&#x200a;" horiz-adv-x="120" />
<glyph unicode="&#x200b;" />
<glyph unicode="&#x200c;" />
<glyph unicode="&#x200d;" />
<glyph unicode="&#x200e;" />
<glyph unicode="&#x200f;" />
<glyph unicode="&#x2010;" horiz-adv-x="822" d="M88 506v188h646v-188h-646z" />
<glyph unicode="&#x2011;" horiz-adv-x="822" d="M88 506v188h646v-188h-646z" />
<glyph unicode="&#x2012;" horiz-adv-x="1224" d="M88 516v178h1048v-178h-1048z" />
<glyph unicode="&#x2013;" horiz-adv-x="1224" d="M88 516v178h1048v-178h-1048z" />
<glyph unicode="&#x2014;" horiz-adv-x="1838" d="M88 516v178h1662v-178h-1662z" />
<glyph unicode="&#x2015;" horiz-adv-x="1838" d="M88 516v178h1662v-178h-1662z" />
<glyph unicode="&#x2016;" horiz-adv-x="878" d="M168 -500v2132h176v-2132h-176zM534 -500v2132h176v-2132h-176z" />
<glyph unicode="&#x2017;" horiz-adv-x="1198" d="M168 -124h862v-162h-862v162zM168 -388h862v-162h-862v162z" />
<glyph unicode="&#x2018;" horiz-adv-x="442" d="M76 1142q0 116 60 215t192 197l94 -96q-68 -72 -96 -143t-28 -171q0 -68 12 -146h-224q-10 66 -10 144z" />
<glyph unicode="&#x2019;" horiz-adv-x="412" d="M20 1040q68 72 96 143t28 173q0 70 -12 144h222q12 -74 12 -142q0 -118 -60 -217t-194 -197z" />
<glyph unicode="&#x201a;" horiz-adv-x="454" d="M16 -238q68 72 96 143t28 173q0 70 -12 144h222q12 -74 12 -142q0 -118 -60 -217t-194 -197z" />
<glyph unicode="&#x201b;" horiz-adv-x="412" d="M46 1358q0 68 12 142h222q-10 -62 -10 -144q0 -102 27 -173t95 -143l-92 -96q-134 98 -194 197t-60 217z" />
<glyph unicode="&#x201c;" horiz-adv-x="796" d="M76 1140q0 118 60 217t194 197l92 -96q-68 -72 -95 -143t-27 -173q0 -82 10 -144h-222q-12 76 -12 142zM430 1140q0 118 60 217t194 197l92 -96q-68 -72 -95 -143t-27 -173q0 -82 10 -144h-222q-12 76 -12 142z" />
<glyph unicode="&#x201d;" horiz-adv-x="768" d="M20 1040q68 72 96 143t28 173q0 70 -12 144h222q12 -74 12 -142q0 -118 -60 -217t-194 -197zM376 1040q68 72 96 143t28 173q0 70 -12 144h222q12 -74 12 -142q0 -118 -60 -217t-194 -197z" />
<glyph unicode="&#x201e;" horiz-adv-x="810" d="M16 -238q68 72 96 143t28 173q0 70 -12 144h222q12 -74 12 -142q0 -118 -60 -217t-194 -197zM372 -238q68 72 96 143t28 173q0 70 -12 144h222q12 -74 12 -142q0 -118 -60 -217t-194 -197z" />
<glyph unicode="&#x201f;" horiz-adv-x="768" d="M46 1358q0 68 12 142h222q-10 -62 -10 -144q0 -102 27 -173t95 -143l-92 -96q-134 98 -194 197t-60 217zM402 1358q0 68 12 142h222q-10 -62 -10 -144q0 -102 27 -173t95 -143l-92 -96q-134 98 -194 197t-60 217z" />
<glyph unicode="&#x2020;" horiz-adv-x="994" d="M130 926v224l296 -42l-64 340h270l-64 -340l294 42v-224l-294 50l52 -654h-246l52 654z" />
<glyph unicode="&#x2021;" horiz-adv-x="994" d="M130 298v224l288 -50v504l-288 -50v224l296 -42l-64 340h270l-64 -340l294 42v-224l-286 50v-504l286 50v-224l-294 42l64 -340h-270l64 340z" />
<glyph unicode="&#x2022;" horiz-adv-x="934" d="M136 694q0 158 87 245t243 87q158 0 245 -87t87 -245q0 -156 -87 -244t-245 -88q-156 0 -243 88t-87 244z" />
<glyph unicode="&#x2023;" horiz-adv-x="1004" d="M176 288l692 406l-692 406v-812z" />
<glyph unicode="&#x2024;" horiz-adv-x="1024" d="M360 120q0 70 40 109t112 39t112 -39t40 -107q0 -70 -40 -109t-112 -39t-112 39t-40 107z" />
<glyph unicode="&#x2025;" horiz-adv-x="1014" d="M108 120q0 70 40 109t112 39t112 -39t40 -107q0 -70 -40 -109t-112 -39t-112 39t-40 107zM600 120q0 70 40 109t112 39t112 -39t40 -107q0 -70 -40 -109t-112 -39t-112 39t-40 107z" />
<glyph unicode="&#x2026;" horiz-adv-x="1506" d="M108 120q0 70 40 109t112 39t112 -39t40 -107q0 -70 -40 -109t-112 -39t-112 39t-40 107zM600 120q0 70 40 109t112 39t112 -39t40 -107q0 -70 -40 -109t-112 -39t-112 39t-40 107zM1094 120q0 70 40 109t112 39t112 -39t40 -107q0 -70 -40 -109t-112 -39t-112 39 t-40 107z" />
<glyph unicode="&#x2027;" horiz-adv-x="520" d="M108 674q0 70 40 109t112 39t112 -39t40 -107q0 -70 -40 -109t-112 -39t-112 39t-40 107z" />
<glyph unicode="&#x202a;" />
<glyph unicode="&#x202b;" />
<glyph unicode="&#x202c;" />
<glyph unicode="&#x202d;" />
<glyph unicode="&#x202e;" />
<glyph unicode="&#x202f;" horiz-adv-x="312" />
<glyph unicode="&#x2030;" horiz-adv-x="2648" d="M102 1028q0 446 324 446q326 0 326 -446q0 -444 -326 -444q-324 0 -324 444zM302 1028q0 -146 30 -212t94 -66q66 0 96 66t30 212t-30 213t-96 67q-64 0 -94 -67t-30 -213zM490 0l708 1448h200l-706 -1448h-202zM1136 420q0 444 326 444t326 -444q0 -446 -326 -446 t-326 446zM1336 420q0 -146 30 -213t96 -67t96 67t30 213t-30 212t-96 66t-96 -66t-30 -212zM1896 420q0 444 324 444q326 0 326 -444q0 -446 -326 -446q-324 0 -324 446zM2094 420q0 -146 31 -213t95 -67q66 0 96 67t30 213t-30 212t-96 66q-64 0 -95 -67t-31 -211z" />
<glyph unicode="&#x2031;" horiz-adv-x="3406" d="M102 1028q0 446 324 446q326 0 326 -446q0 -444 -326 -444q-324 0 -324 444zM302 1028q0 -146 30 -212t94 -66q66 0 96 66t30 212t-30 213t-96 67q-64 0 -94 -67t-30 -213zM490 0l708 1448h200l-706 -1448h-202zM1136 420q0 444 326 444t326 -444q0 -446 -326 -446 t-326 446zM1336 420q0 -146 30 -213t96 -67t96 67t30 213t-30 212t-96 66t-96 -66t-30 -212zM1896 420q0 444 324 444q326 0 326 -444q0 -446 -326 -446q-324 0 -324 446zM2094 420q0 -146 31 -213t95 -67q66 0 96 67t30 213t-30 212t-96 66q-64 0 -95 -67t-31 -211z M2654 420q0 220 85 332t241 112t240 -112t84 -332t-84 -333t-240 -113t-241 113t-85 333zM2854 420q0 -142 31 -211t95 -69t94 69t30 211t-31 210t-93 68q-64 0 -95 -68t-31 -210z" />
<glyph unicode="&#x2032;" horiz-adv-x="432" d="M86 976v20l74 500h226v-20l-138 -500h-162z" />
<glyph unicode="&#x2033;" horiz-adv-x="754" d="M86 976v20l74 500h226v-20l-138 -500h-162zM406 976v20l74 500h226v-20l-138 -500h-162z" />
<glyph unicode="&#x2034;" horiz-adv-x="1074" d="M86 976v20l74 500h226v-20l-138 -500h-162zM406 976v20l74 500h226v-20l-138 -500h-162zM728 976v20l74 500h226v-20l-138 -500h-162z" />
<glyph unicode="&#x2035;" horiz-adv-x="432" d="M46 1476v20h226l74 -500v-20h-162z" />
<glyph unicode="&#x2036;" horiz-adv-x="754" d="M46 1476v20h226l74 -500v-20h-162zM368 1476v20h226l74 -500v-20h-162z" />
<glyph unicode="&#x2037;" horiz-adv-x="1074" d="M46 1476v20h226l74 -500v-20h-162zM368 1476v20h226l74 -500v-20h-162zM688 1476v20h226l74 -500v-20h-162z" />
<glyph unicode="&#x2038;" horiz-adv-x="818" d="M38 -426l264 466h214l264 -466v-24h-180l-194 308l-188 -308h-180v24z" />
<glyph unicode="&#x2039;" horiz-adv-x="710" d="M48 578l464 532l144 -138l-346 -390l346 -398l-146 -138z" />
<glyph unicode="&#x203a;" horiz-adv-x="710" d="M54 184l346 392l-346 396l146 138l460 -532l-462 -532z" />
<glyph unicode="&#x203b;" horiz-adv-x="1366" d="M92 544q0 58 34 90t92 32q60 0 93 -32t33 -88q0 -58 -33 -90t-93 -32q-58 0 -92 32t-34 88zM134 108l426 434l-426 434l120 126l428 -436l428 436l120 -126l-426 -434l426 -434l-120 -126l-428 436l-428 -436zM556 96q0 58 33 90t93 32t93 -32t33 -88q0 -58 -33 -90 t-93 -32t-93 32t-33 88zM556 992q0 58 33 89t93 31t93 -32t33 -86q0 -58 -33 -91t-93 -33t-93 32t-33 90zM1022 544q0 58 33 90t93 32t93 -32t33 -88q0 -58 -33 -90t-93 -32t-93 32t-33 88z" />
<glyph unicode="&#x203c;" horiz-adv-x="1370" d="M208 120q0 70 40 109t110 39q72 0 112 -39t40 -107q0 -70 -40 -109t-112 -39q-70 0 -110 39t-40 107zM226 1448h264l-38 -1024h-188zM860 120q0 70 40 109t110 39q72 0 112 -39t40 -107q0 -70 -40 -109t-112 -39q-70 0 -110 39t-40 107zM878 1448h264l-38 -1024h-188z " />
<glyph unicode="&#x203d;" horiz-adv-x="1040" d="M84 1346q90 62 202 95t228 33q200 0 311 -98t111 -274q0 -100 -44 -172t-160 -160q-94 -72 -174 -138l-6 -208h-182l-22 692h224l-12 -266q74 60 108 119t34 125q0 172 -208 172q-80 0 -157 -24t-165 -76zM310 120q0 70 40 109t112 39t112 -39t40 -107q0 -70 -40 -109 t-112 -39t-112 39t-40 107z" />
<glyph unicode="&#x203e;" horiz-adv-x="1200" d="M168 1622v196h864v-196h-864z" />
<glyph unicode="&#x203f;" horiz-adv-x="984" d="M-42 -220l92 86q150 -180 444 -180q296 0 446 180l86 -86q-74 -130 -214 -201t-320 -71t-320 71t-214 201z" />
<glyph unicode="&#x2040;" horiz-adv-x="984" d="M-42 1308q74 130 214 201t320 71t320 -71t214 -201l-92 -86q-150 180 -444 180q-296 0 -446 -180z" />
<glyph unicode="&#x2041;" horiz-adv-x="896" d="M38 -584l646 1282h174v-24l-336 -668l298 -590v-24h-180l-214 424l-214 -424h-174v24z" />
<glyph unicode="&#x2042;" horiz-adv-x="1396" d="M38 412l48 144l208 -82l-14 228h152l-14 -228l208 82l48 -144l-222 -58l146 -180l-118 -94l-124 194l-124 -194l-118 94l146 180zM382 1028l48 144l208 -82l-14 228h150l-14 -228l210 82l48 -144l-222 -58l146 -180l-118 -94l-124 194l-124 -194l-118 94l144 180z M722 412l48 144l208 -82l-14 228h150l-14 -228l210 82l48 -144l-222 -58l146 -180l-118 -94l-124 194l-124 -194l-118 94l144 180z" />
<glyph unicode="&#x2043;" horiz-adv-x="1140" d="M136 694q0 158 87 245t243 87h208q156 0 243 -88t87 -244q0 -158 -87 -245t-243 -87h-208q-156 0 -243 88t-87 244z" />
<glyph unicode="&#x2044;" horiz-adv-x="562" d="M-206 46l818 1446l156 -90l-818 -1446z" />
<glyph unicode="&#x2045;" horiz-adv-x="712" d="M168 -222v1812h500v-182h-284v-632h284v-182h-284v-634h284v-182h-500z" />
<glyph unicode="&#x2046;" horiz-adv-x="712" d="M44 -40h284v634h-284v182h284v632h-284v182h500v-1812h-500v182z" />
<glyph unicode="&#x2047;" horiz-adv-x="2028" d="M84 1346q90 62 202 95t228 33q200 0 311 -98t111 -274q0 -100 -44 -172t-160 -160q-100 -78 -134 -127t-34 -119q0 -30 6 -100h-218q-6 76 -6 106q0 118 44 195t160 169q82 64 110 105t28 95q0 158 -194 158q-144 0 -316 -100zM310 120q0 70 40 109t112 39t112 -39 t40 -107q0 -70 -40 -109t-112 -39t-112 39t-40 107zM1072 1346q90 62 202 95t228 33q200 0 311 -98t111 -274q0 -100 -44 -172t-160 -160q-100 -78 -134 -127t-34 -119q0 -30 6 -100h-218q-6 76 -6 106q0 118 44 195t160 169q82 64 110 105t28 95q0 158 -194 158 q-144 0 -316 -100zM1298 120q0 70 40 109t112 39t112 -39t40 -107q0 -70 -40 -109t-112 -39t-112 39t-40 107z" />
<glyph unicode="&#x2048;" horiz-adv-x="1666" d="M84 1346q90 62 202 95t228 33q200 0 311 -98t111 -274q0 -100 -44 -172t-160 -160q-100 -78 -134 -127t-34 -119q0 -30 6 -100h-218q-6 76 -6 106q0 118 44 195t160 169q82 64 110 105t28 95q0 158 -194 158q-144 0 -316 -100zM310 120q0 70 40 109t112 39t112 -39 t40 -107q0 -70 -40 -109t-112 -39t-112 39t-40 107zM1156 120q0 70 40 109t110 39q72 0 112 -39t40 -107q0 -70 -40 -109t-112 -39q-70 0 -110 39t-40 107zM1174 1448h264l-38 -1024h-188z" />
<glyph unicode="&#x2049;" horiz-adv-x="1666" d="M208 120q0 70 40 109t110 39q72 0 112 -39t40 -107q0 -70 -40 -109t-112 -39q-70 0 -110 39t-40 107zM226 1448h264l-38 -1024h-188zM710 1346q90 62 202 95t228 33q200 0 311 -98t111 -274q0 -100 -44 -172t-160 -160q-100 -78 -134 -127t-34 -119q0 -30 6 -100h-218 q-6 76 -6 106q0 118 44 195t160 169q82 64 110 105t28 95q0 158 -194 158q-144 0 -316 -100zM936 120q0 70 40 109t112 39t112 -39t40 -107q0 -70 -40 -109t-112 -39t-112 39t-40 107z" />
<glyph unicode="&#x204a;" horiz-adv-x="932" d="M66 850v236h760l-162 -1502h-240l134 1266h-492z" />
<glyph unicode="&#x204b;" horiz-adv-x="1150" d="M168 0v1448h174h288q226 0 350 -109t124 -307q0 -192 -117 -300t-331 -112v-620h-168v1282h-146v-1282h-174z" />
<glyph unicode="&#x204c;" horiz-adv-x="1006" d="M88 582q0 -120 71 -188t207 -68h206v512h-202q-140 0 -211 -69t-71 -187zM706 326h144v512h-144v-512z" />
<glyph unicode="&#x204d;" horiz-adv-x="1006" d="M156 326h144v512h-144v-512zM434 326h206q136 0 207 68t71 188q0 118 -71 187t-211 69h-202v-512z" />
<glyph unicode="&#x204e;" horiz-adv-x="1078" d="M108 532l64 192l286 -114l-20 316h202l-22 -316l288 114l64 -192l-302 -80l198 -244l-156 -126l-172 266l-170 -266l-156 126l198 244z" />
<glyph unicode="&#x204f;" horiz-adv-x="600" d="M148 792q0 68 40 107t112 39t112 -39t40 -109q0 -68 -40 -107t-112 -39t-112 39t-40 109zM168 98q0 76 12 144h234q-10 -84 -10 -146q0 -112 32 -193t110 -165l-100 -108q-144 104 -211 217t-67 251z" />
<glyph unicode="&#x2050;" horiz-adv-x="984" d="M-42 -220l92 86q150 -180 444 -180q296 0 446 180l86 -86q-74 -130 -214 -201t-320 -71t-320 71t-214 201zM-42 1308q74 130 214 201t320 71t320 -71t214 -201l-92 -86q-150 180 -444 180q-296 0 -446 -180z" />
<glyph unicode="&#x2051;" horiz-adv-x="928" d="M108 348l52 160l238 -94l-16 260h166l-18 -260l238 94l54 -160l-250 -66l164 -202l-130 -104l-140 220l-142 -220l-130 104l164 202zM108 1122l52 160l238 -96l-16 262h166l-18 -262l238 96l54 -160l-250 -66l164 -202l-130 -104l-140 220l-142 -220l-130 104l164 202z " />
<glyph unicode="&#x2052;" horiz-adv-x="1118" d="M168 1324q0 62 39 100t99 38t99 -38t39 -100t-39 -101t-99 -39t-99 39t-39 101zM198 -32l554 1568l168 -60l-554 -1568zM674 124q0 62 39 101t99 39t99 -39t39 -101t-39 -100t-99 -38t-99 38t-39 100z" />
<glyph unicode="&#x2053;" horiz-adv-x="1150" d="M88 584q146 180 314 180q56 0 98 -17t94 -49q44 -28 75 -42t71 -14q48 0 91 27t91 85l140 -142q-146 -180 -314 -180q-58 0 -98 17t-94 49q-42 28 -75 42t-73 14q-46 0 -89 -27t-91 -85z" />
<glyph unicode="&#x2054;" horiz-adv-x="984" d="M-42 -370q74 130 214 201t320 71t320 -71t214 -201l-92 -86q-150 180 -444 180q-296 0 -446 -180z" />
<glyph unicode="&#x2055;" horiz-adv-x="1068" d="M88 476v138h278l-192 190l98 100l188 -186v262h146v-262l186 188l100 -100l-192 -190h280v-138l-278 -2l192 -190l-100 -98l-188 188v-264h-146v262l-188 -186l-98 98l190 190h-276z" />
<glyph unicode="&#x2056;" horiz-adv-x="1354" d="M108 544q0 58 33 90t93 32t93 -32t33 -88q0 -58 -33 -90t-93 -32t-93 32t-33 88zM994 98q0 58 33 90t93 32t93 -33t33 -87q0 -58 -33 -91t-93 -33t-93 33t-33 89zM994 990q0 58 33 90t93 32t93 -32t33 -88q0 -58 -33 -91t-93 -33t-93 33t-33 89z" />
<glyph unicode="&#x2057;" horiz-adv-x="1394" d="M86 976v20l74 500h226v-20l-138 -500h-162zM406 976v20l74 500h226v-20l-138 -500h-162zM728 976v20l74 500h226v-20l-138 -500h-162zM1048 976v20l74 500h226v-20l-138 -500h-162z" />
<glyph unicode="&#x2058;" horiz-adv-x="1354" d="M108 544q0 58 33 90t93 32t93 -32t33 -88q0 -58 -33 -90t-93 -32t-93 32t-33 88zM552 98q0 58 33 90t91 32q60 0 93 -33t33 -87q0 -58 -33 -91t-93 -33q-58 0 -91 33t-33 89zM552 990q0 58 33 90t91 32q60 0 93 -32t33 -88q0 -58 -33 -91t-93 -33q-58 0 -91 33t-33 89z M994 544q0 58 33 90t93 32t93 -32t33 -88q0 -58 -33 -90t-93 -32t-93 32t-33 88z" />
<glyph unicode="&#x2059;" horiz-adv-x="1354" d="M108 98q0 58 33 90t93 32t93 -33t33 -87q0 -58 -33 -91t-93 -33t-93 33t-33 89zM108 990q0 58 33 90t93 32t93 -32t33 -88q0 -58 -33 -91t-93 -33t-93 33t-33 89zM552 544q0 58 33 90t91 32q60 0 93 -32t33 -88q0 -58 -33 -90t-93 -32q-58 0 -91 32t-33 88zM994 98 q0 58 33 90t93 32t93 -33t33 -87q0 -58 -33 -91t-93 -33t-93 33t-33 89zM994 990q0 58 33 90t93 32t93 -32t33 -88q0 -58 -33 -91t-93 -33t-93 33t-33 89z" />
<glyph unicode="&#x205a;" horiz-adv-x="468" d="M108 98q0 58 33 90t93 32t93 -33t33 -87q0 -58 -33 -91t-93 -33t-93 33t-33 89zM108 990q0 58 33 90t93 32t93 -32t33 -88q0 -58 -33 -91t-93 -33t-93 33t-33 89z" />
<glyph unicode="&#x205b;" horiz-adv-x="1154" d="M108 544q0 58 33 90t93 32t93 -32t33 -88q0 -58 -33 -90t-93 -32t-93 32t-33 88zM452 98q0 58 33 90t91 32q60 0 93 -33t33 -87q0 -58 -33 -91t-93 -33q-58 0 -91 33t-33 89zM452 990q0 58 33 90t91 32q60 0 93 -32t33 -88q0 -58 -33 -91t-93 -33q-58 0 -91 33t-33 89z M794 544q0 58 33 90t93 32t93 -32t33 -88q0 -58 -33 -90t-93 -32t-93 32t-33 88z" />
<glyph unicode="&#x205c;" horiz-adv-x="1354" d="M108 98q0 58 33 90t93 32t93 -33t33 -87q0 -58 -33 -91t-93 -33t-93 33t-33 89zM108 990q0 58 33 90t93 32t93 -32t33 -88q0 -58 -33 -91t-93 -33t-93 33t-33 89zM130 444v196h446v446h202v-446h446v-196h-446v-444h-202v444h-446zM994 98q0 58 33 90t93 32t93 -33 t33 -87q0 -58 -33 -91t-93 -33t-93 33t-33 89zM994 990q0 58 33 90t93 32t93 -32t33 -88q0 -58 -33 -91t-93 -33t-93 33t-33 89z" />
<glyph unicode="&#x205d;" horiz-adv-x="496" d="M108 110q0 64 37 100t103 36t104 -36t38 -98q0 -64 -37 -101t-105 -37q-66 0 -103 36t-37 100zM108 726q0 64 37 100t103 36t104 -36t38 -98q0 -66 -37 -102t-105 -36q-66 0 -103 36t-37 100zM108 1338q0 66 37 101t103 35q68 0 105 -35t37 -99t-37 -101t-105 -37 q-66 0 -103 37t-37 99z" />
<glyph unicode="&#x205e;" horiz-adv-x="496" d="M108 110q0 64 37 100t103 36t104 -36t38 -98q0 -64 -37 -101t-105 -37q-66 0 -103 36t-37 100zM108 520q0 64 37 100t103 36t104 -36t38 -98q0 -64 -37 -101t-105 -37q-66 0 -103 36t-37 100zM108 928q0 66 37 101t103 35t104 -36t38 -98q0 -64 -37 -101t-105 -37 q-66 0 -103 37t-37 99zM108 1338q0 66 37 101t103 35q68 0 105 -35t37 -99t-37 -101t-105 -37q-66 0 -103 37t-37 99z" />
<glyph unicode="&#x205f;" horiz-adv-x="456" />
<glyph unicode="&#x20a0;" horiz-adv-x="1448" d="M86 926q0 252 135 399t371 147q84 0 166 -22t142 -62l-70 -156q-120 54 -242 54q-138 0 -214 -91t-76 -255q0 -328 310 -328q36 0 52 2v410h698v-184h-490v-222h362v-188h-362v-246h512v-184h-720v426q-40 -4 -62 -4q-244 0 -378 132t-134 372z" />
<glyph unicode="&#x20a1;" horiz-adv-x="1192" d="M126 722q0 284 113 463t321 231l14 202h126l-12 -182h40q24 0 72 -4l12 186h128l-14 -208q86 -22 164 -76l-80 -182q-50 26 -98 40l-64 -950q76 14 160 52l82 -178q-112 -74 -258 -94l-12 -192h-128l12 184q-76 4 -110 12l-14 -196h-126l14 232q-166 70 -254 240t-88 420 zM370 722q0 -284 116 -402l58 856q-174 -104 -174 -454zM608 246q54 -16 112 -16l66 990q-20 2 -56 2q-20 0 -56 -4z" />
<glyph unicode="&#x20a2;" horiz-adv-x="1184" d="M106 694q0 238 75 414t217 271t338 95q102 0 199 -29t175 -81l-82 -182q-156 78 -296 78q-180 0 -279 -144t-99 -404q0 -200 53 -319t167 -167v580h190v-146q44 82 104 124t128 42q62 0 112 -24l-42 -196q-58 16 -116 16q-102 0 -168 -98v-330q154 6 258 70l82 -180 q-66 -52 -162 -80t-214 -28q-304 0 -472 189t-168 529z" />
<glyph unicode="&#x20a3;" horiz-adv-x="1220" d="M128 450v174h142v150h-142v174h142v500h876v-214h-636v-286h516v-174h-516v-150h516v-174h-516v-450h-240v450h-142z" />
<glyph unicode="&#x20a4;" horiz-adv-x="1066" d="M96 472v174h210q-4 64 -32 142h-178v174h106q-22 62 -22 142q0 176 109 273t305 97q114 0 212 -32t164 -94l-116 -192q-126 96 -260 96q-174 0 -174 -160q0 -52 26 -130h394v-174h-328q22 -76 24 -142h304v-174h-326q-42 -140 -174 -260h626v-212h-852v210l60 62 q92 98 120 200h-198z" />
<glyph unicode="&#x20a5;" horiz-adv-x="1688" d="M156 0v1086h214v-132q66 78 143 118t159 40q122 0 200 -78l136 398h146l-156 -432q112 112 246 112q142 0 220 -93t78 -261v-758h-236v732q0 162 -148 162q-90 0 -194 -84q2 -16 2 -48v-762h-216l4 320l-170 -552h-144l294 864v100q0 162 -148 162q-88 0 -194 -82v-812 h-236z" />
<glyph unicode="&#x20a6;" horiz-adv-x="1536" d="M116 552v108h142v128h-142v108h142v552h220l294 -552h286v552h226v-552h142v-108h-142v-128h142v-108h-142v-552h-220l-294 552h-286v-552h-226v552h-142zM484 660h228l-70 128h-158v-128zM484 894h102l-102 192v-192zM830 788l70 -128h158v128h-228zM956 554l102 -192 v192h-102z" />
<glyph unicode="&#x20a7;" horiz-adv-x="2506" d="M208 0v1448h236h98q184 0 299 -94t145 -268h166v286h234v-286h234v-200h-234v-572q0 -64 26 -94t80 -30q64 0 108 18l34 -194q-70 -28 -178 -28q-304 0 -304 312v588h-160q-20 -198 -140 -306t-322 -108h-86v-472h-236zM444 682h98q210 0 210 276q0 280 -222 280h-86 v-556zM1690 56l76 182q160 -66 262 -66q146 0 146 126q0 52 -28 85t-88 49l-84 22q-268 66 -268 318q0 160 92 249t258 89q78 0 158 -20t152 -54l-82 -178q-142 56 -234 56q-122 0 -122 -116q0 -98 114 -130l84 -20q268 -68 268 -322q0 -166 -96 -258t-270 -92 q-84 0 -173 21t-165 59z" />
<glyph unicode="&#x20a8;" horiz-adv-x="2150" d="M168 0v1448h240h266q224 0 347 -122t123 -342q0 -168 -72 -280t-208 -158l364 -546h-288l-324 518h-208v-518h-240zM408 724h266q222 0 222 256t-230 256h-258v-512zM1264 82l82 192q148 -90 312 -90q192 0 192 120q0 48 -33 78t-105 48l-142 34q-150 34 -219 107 t-69 199q0 160 105 250t297 90q96 0 192 -24t174 -66l-90 -190q-140 72 -280 72q-172 0 -172 -110q0 -44 34 -73t106 -47l142 -34q152 -36 220 -110t68 -202q0 -166 -110 -258t-310 -92q-110 0 -213 28t-181 78z" />
<glyph unicode="&#x20a9;" horiz-adv-x="1858" d="M84 1448h248l128 -644h214l126 642h256l130 -642h214l128 644h246l-156 -642h148v-146h-184l-160 -660h-262l-138 662h-190l-138 -662h-260l-160 660h-182v146h146zM488 662l80 -396l78 396h-158zM860 804h132l-66 316zM1214 662l80 -396l78 396h-158z" />
<glyph unicode="&#x20aa;" horiz-adv-x="1696" d="M168 0v1448h528q458 0 458 -494v-562h-210v562q0 292 -248 292h-318v-1246h-210zM552 42v1014h210v-862q78 -16 176 -16q390 0 390 350v920h210v-912q0 -268 -157 -414t-443 -146q-98 0 -199 17t-187 49z" />
<glyph unicode="&#x20ab;" horiz-adv-x="1154" d="M88 526q0 262 107 407t301 145q84 0 154 -30t120 -88v262h-408v152h408v166h236v-166h128v-152h-128v-1222h-214v150q-104 -176 -304 -176q-190 0 -295 145t-105 407zM116 -190h948v-174h-948v174zM330 534q0 -340 232 -340q60 0 110 25t98 77v470q-42 48 -99 74t-119 26 q-222 0 -222 -332z" />
<glyph unicode="&#x20ac;" horiz-adv-x="1236" d="M106 490v160h144v72v74h-144v160h162q44 250 185 384t359 134q86 0 169 -26t153 -72l-80 -180q-132 64 -240 64q-242 0 -302 -304h390v-160h-408v-74v-72h408v-160h-388q60 -298 300 -298q116 0 238 58l82 -180q-148 -96 -326 -96q-218 0 -357 134t-183 382h-162z" />
<glyph unicode="&#x20ad;" horiz-adv-x="1358" d="M128 632v204h142v612h240v-612h22l452 612h272l-462 -612h360v-204h-356l480 -632h-272l-478 632h-18v-632h-240v632h-142z" />
<glyph unicode="&#x20ae;" horiz-adv-x="1138" d="M82 1232v216h606h368v-216h-368v-280l226 116h24v-162l-250 -126v-150l226 116h24v-162l-250 -126v-458h-240v338l-214 -108h-24v158l238 122v150l-214 -110h-24v160l238 120v402h-366z" />
<glyph unicode="&#x20af;" horiz-adv-x="2578" d="M106 216q0 130 84 206t210 76q54 0 108 -18l104 738q-104 -16 -242 -68l-46 198q236 100 512 100q690 0 690 -604q0 -238 -86 -438t-236 -316t-332 -116q-90 0 -148 29t-98 79q-96 -108 -256 -108q-126 0 -195 64t-69 178zM318 228q0 -70 62 -70q40 0 67 35t35 101v6 q-34 20 -72 20q-44 0 -68 -24t-24 -68zM710 262q32 -36 70 -55t92 -19q114 0 208 85t149 230t55 317q0 206 -105 305t-331 107l-132 -938zM1464 -414l146 1030q36 252 164 374t336 122q188 0 284 -104t96 -308q0 -188 -55 -354t-164 -269t-263 -103q-80 0 -144 31t-102 87 l-72 -506h-226zM1788 286q32 -48 84 -74t114 -26q134 0 200 141t66 331q0 232 -178 232q-94 0 -157 -69t-79 -189z" />
<glyph unicode="&#x20b0;" horiz-adv-x="1274" d="M38 0l390 644h26l186 -308l86 144q4 10 10 16l-214 542q-36 90 -36 166q0 124 86 199t232 75q164 0 248 -103t84 -305q0 -126 -37 -245t-131 -287l196 -498q40 -100 40 -192q0 -138 -98 -220t-262 -82q-88 0 -164 24l34 194q74 -16 126 -16q128 0 128 116q0 44 -20 90 l-130 330l-170 -284h-26l-186 308l-184 -308h-214zM726 1198q0 -36 18 -88l130 -328q42 126 42 258q0 230 -116 230q-34 0 -54 -19t-20 -53z" />
<glyph unicode="&#x20b1;" horiz-adv-x="1430" d="M128 752v110h142v128h-142v108h142v350h498q182 0 299 -91t157 -259h138v-108h-122q4 -44 4 -68q0 -20 -4 -60h122v-110h-136q-40 -166 -158 -256t-300 -90h-260v-406h-238v752h-142zM508 614h240q90 0 147 33t83 105h-470v-138zM508 862h492q2 18 2 60l-2 68h-492v-128z M508 1098h468q-26 72 -82 107t-146 35h-240v-142z" />
<glyph unicode="&#x20b2;" horiz-adv-x="1334" d="M146 724q0 294 127 475t361 225v194h162v-180q108 -2 205 -28t165 -72l-72 -190q-156 74 -298 78v-420h388v-694q-72 -48 -173 -74t-215 -28v-180h-162v194q-234 44 -361 225t-127 475zM390 724q0 -396 244 -480v960q-244 -84 -244 -480zM796 222q84 0 152 18v362h-152 v-380z" />
<glyph unicode="&#x20b3;" horiz-adv-x="1330" d="M80 328v180h182l42 144h-224v182h276l178 614h262l178 -614h276v-182h-224l42 -144h182v-180h-130l94 -328h-254l-80 328h-432l-80 -328h-252l94 328h-130zM492 508h342l-36 144h-272zM572 834h182l-92 372z" />
<glyph unicode="&#x20b4;" horiz-adv-x="1242" d="M68 474v172h228q50 46 113 77t163 71h-504v172h720q26 52 26 116q0 180 -190 180q-114 0 -302 -72l-80 192q198 90 380 90q418 0 418 -364q0 -76 -20 -142h136v-172h-256q-44 -36 -94 -60t-142 -60q-32 -10 -70 -28h562v-172h-730q-14 -36 -14 -88q0 -200 236 -200 q142 0 290 84l78 -192q-150 -102 -368 -102q-462 0 -462 382q0 66 12 116h-130z" />
<glyph unicode="&#x20b5;" horiz-adv-x="1192" d="M126 722q0 304 128 487t362 219v190h166v-184q180 -12 308 -100l-80 -182q-106 54 -228 68v-988q106 8 226 62l82 -178q-136 -88 -308 -100v-186h-166v192q-234 34 -362 216t-128 484zM370 722q0 -408 246 -478v964q-246 -72 -246 -486z" />
<glyph unicode="&#x20b6;" horiz-adv-x="1294" d="M68 882v204h146v362h236v-362h36h174v114v248h234v-60v-302h304v-204h-304v-504q0 -96 40 -139t128 -43q54 0 114 16l36 -200q-90 -28 -188 -28q-366 0 -366 354v544h-172h-36v-882h-236v882h-146z" />
<glyph unicode="&#x20b7;" horiz-adv-x="1130" d="M68 0v444h108v-58q56 68 136 68q90 0 120 -70q56 70 136 70q64 0 99 -38t35 -108v-138q110 50 110 212q0 80 -49 131t-155 79l-164 46q-186 52 -270 148t-84 256q0 202 126 316t350 114q110 0 225 -25t217 -71l-80 -192q-206 78 -366 78q-118 0 -179 -46t-61 -134 q0 -82 49 -132t155 -78l164 -46q186 -52 270 -148t84 -258q0 -158 -88 -258t-254 -132v-30h-122v16h-40q-34 0 -94 4v-20h-122v42q-68 16 -136 48v-90h-120zM188 202q64 -28 136 -42v130q0 54 -60 54q-36 0 -76 -28v-114zM444 316q2 -2 2 -8v-162q60 -4 94 -4q28 0 40 2v146 q0 54 -60 54q-20 0 -36 -7t-40 -21z" />
<glyph unicode="&#x20b8;" horiz-adv-x="1098" d="M82 886v216h934v-216h-348v-886h-240v886h-346zM82 1232v216h934v-216h-934z" />
<glyph unicode="&#x20b9;" horiz-adv-x="1172" d="M110 912v174h520q-14 96 -71 142t-159 46h-290v174h302h634v-174h-290q92 -74 118 -188h172v-174h-168q-22 -166 -125 -264t-275 -112l560 -514v-22h-292l-594 548v170h248q106 0 162 46t70 148h-522z" />
<glyph unicode="&#x20ba;" horiz-adv-x="1114" d="M44 470v160l144 76v150l-120 -64h-24v160l144 76v420h236v-294l326 174h24v-160l-350 -186v-150l326 176h24v-162l-350 -186v-458h2q196 0 298 108t102 318h236q0 -304 -168 -472t-472 -168q-100 0 -234 16v532l-120 -66h-24z" />
<glyph unicode="&#x20bb;" horiz-adv-x="1448" d="M-8 1222q0 126 75 196t209 70q136 0 212 -69t76 -195v-68h192h258q194 0 300 -97t106 -275q0 -180 -109 -280t-305 -100l-120 142l-114 -160h-52l-122 200l-36 -16v-196q0 -94 56 -137t178 -43q76 0 190 22l36 -198q-112 -34 -230 -34q-460 0 -460 368v108l-226 -108 l-82 178l308 146v278h-64q-132 0 -204 71t-72 197zM190 1228q0 -82 80 -82h68v70q0 88 -74 88t-74 -76zM562 788l36 16h52l102 -170l104 150h52l144 -180q128 18 128 170q0 180 -174 180h-306h-138v-166z" />
<glyph unicode="&#x20bc;" horiz-adv-x="1756" d="M168 348q0 210 72 376t206 270t312 130v320l240 36v-356q178 -26 312 -130t206 -270t72 -376q0 -202 -30 -348h-236q14 78 17 155t3 193q0 230 -89 374t-255 182v-732l-240 -36v768q-166 -38 -255 -182t-89 -374q0 -116 3 -193t17 -155h-236q-30 146 -30 348z" />
<glyph unicode="&#x20bd;" horiz-adv-x="1318" d="M128 224v174h142v150h-142v184h142v716h500q224 0 349 -120t125 -334q0 -212 -124 -330t-350 -118h-262v-148h406v-174h-406v-224h-238v224h-142zM508 732h240q248 0 248 250q0 246 -248 246h-240v-496z" />
<glyph unicode="&#x2122;" horiz-adv-x="1876" d="M62 1278v170h628v-170h-220v-732h-186v732h-222zM820 546v902h216l228 -546l228 546h216v-902h-182v610l-184 -438h-156l-188 440v-612h-178z" />
<glyph unicode="&#x25fc;" horiz-adv-x="1090" d="M0 0v1090h1090v-1090h-1090z" />
</font>
</defs>
</svg>
